<svg width="1200" height="630" viewBox="0 0 1200 630" fill="none" xmlns="http://www.w3.org/2000/svg">
<g clip-path="url(#clip0_1_223)">
<rect width="1200" height="630" fill="black"/>
<line x1="-0.232417" y1="629.557" x2="1199.77" y2="-0.442697" stroke="white"/>
<path d="M734.659 518H716.459V548.55H715.809C715.809 548.55 709.959 539.45 695.659 539.45C676.159 539.45 666.409 556.35 666.409 575.2C666.409 594.05 676.159 610.95 695.659 610.95C710.609 610.95 716.459 599.9 716.459 599.9H717.109V609H734.659V518ZM717.109 575.2C717.109 587.42 711.909 597.3 700.859 597.3C689.809 597.3 684.609 587.42 684.609 575.2C684.609 562.98 689.809 553.1 700.859 553.1C711.909 553.1 717.109 562.98 717.109 575.2ZM740.549 575.2C740.549 594.96 751.599 610.95 774.349 610.95C802.299 610.95 806.199 586.9 806.199 586.9H787.999C787.999 586.9 786.049 597.3 774.999 597.3C764.079 597.3 759.659 589.5 758.879 579.1H806.719C806.719 579.1 806.849 576.76 806.849 575.2C806.849 555.44 796.579 539.45 774.349 539.45C752.119 539.45 740.549 555.44 740.549 575.2ZM774.349 553.1C783.319 553.1 786.959 559.08 788.129 567.4H759.399C760.959 559.08 765.379 553.1 774.349 553.1ZM812.024 575.2C812.024 594.96 823.724 610.95 845.824 610.95C875.724 610.95 877.674 584.3 877.674 584.3H859.474C859.474 584.3 858.824 597.3 845.824 597.3C834.254 597.3 830.224 587.42 830.224 575.2C830.224 562.98 834.254 553.1 845.824 553.1C858.824 553.1 859.474 566.1 859.474 566.1H877.674C877.674 566.1 875.724 539.45 845.824 539.45C823.724 539.45 812.024 555.44 812.024 575.2ZM901.714 541.4H883.514V609H901.714V541.4ZM882.214 526.45C882.214 532.17 886.894 536.85 892.614 536.85C898.334 536.85 903.014 532.17 903.014 526.45C903.014 520.73 898.334 516.05 892.614 516.05C886.894 516.05 882.214 520.73 882.214 526.45ZM908.27 632.4H926.47V601.85H927.12C927.12 601.85 932.97 610.95 947.27 610.95C966.77 610.95 976.52 594.05 976.52 575.2C976.52 556.35 966.77 539.45 947.27 539.45C932.32 539.45 926.47 550.5 926.47 550.5H925.82V541.4H908.27V632.4ZM925.82 575.2C925.82 562.98 931.02 553.1 942.07 553.1C953.12 553.1 958.32 562.98 958.32 575.2C958.32 587.42 953.12 597.3 942.07 597.3C931.02 597.3 925.82 587.42 925.82 575.2ZM1025.96 609H1044.16V541.4H1025.96V568.05H1000.61V541.4H982.41V609H1000.61V582.35H1025.96V609ZM1050.06 575.2C1050.06 594.96 1061.11 610.95 1083.86 610.95C1111.81 610.95 1115.71 586.9 1115.71 586.9H1097.51C1097.51 586.9 1095.56 597.3 1084.51 597.3C1073.59 597.3 1069.17 589.5 1068.39 579.1H1116.23C1116.23 579.1 1116.36 576.76 1116.36 575.2C1116.36 555.44 1106.09 539.45 1083.86 539.45C1061.63 539.45 1050.06 555.44 1050.06 575.2ZM1083.86 553.1C1092.83 553.1 1096.47 559.08 1097.64 567.4H1068.91C1070.47 559.08 1074.89 553.1 1083.86 553.1ZM1122.19 609H1140.39V568.7H1154.04C1172.89 568.7 1178.09 564.15 1178.09 549.2V541.4H1159.89V547.25C1159.89 555.7 1157.29 555.7 1149.49 555.7H1140.39V541.4H1122.19V609Z" fill="white"/>
<path d="M378.854 452.469L383.898 462.019C381.693 461.012 379.207 461.104 376.732 462.411C371.886 464.971 370.873 470.075 373.75 475.522C376.496 480.721 381.166 483.14 386.259 480.45C388.806 479.105 390.228 477.087 390.642 474.787L391.875 477.121L394.316 475.832L381.294 451.18L378.854 452.469ZM385.473 478.105C381.76 480.067 378.282 478.194 376.19 474.233C374.004 470.095 374.688 466.25 378.225 464.382C381.726 462.532 385.287 464.135 387.473 468.273C389.565 472.235 389.152 476.162 385.473 478.105ZM409.581 455.51C407.489 451.549 403.056 448.552 397.715 451.373C392.658 454.044 392.174 459.638 394.771 464.554C397.386 469.506 402.202 472.029 407.507 469.226C410.196 467.807 411.801 465.964 412.712 462.722L410.23 462.134C409.535 464.672 408.276 465.971 406.366 466.979C402.935 468.792 399.599 467.614 397.51 463.831L410.278 457.087C410.125 456.625 409.843 456.005 409.581 455.51ZM398.799 453.424C402.018 451.724 404.961 452.929 406.632 455.665C406.8 455.983 406.929 456.142 406.967 456.212L396.427 461.78C395.013 458.59 395.651 455.087 398.799 453.424ZM426.155 459.377C429.303 457.714 430.971 454.707 430.457 450.907L427.745 451.254C428.25 453.837 427.208 456.061 425.015 457.219C421.266 459.2 417.904 456.859 416.017 453.287C414.13 449.714 414.036 445.512 417.75 443.55C419.943 442.392 422.386 442.82 424.377 444.619L426.225 442.466C423.127 439.941 419.723 439.748 416.611 441.392C411.341 444.176 411.113 449.996 413.541 454.594C416.101 459.44 421.097 462.048 426.155 459.377ZM426.201 432.074L429.031 430.58L427.125 426.972L424.296 428.467L426.201 432.074ZM437.529 453.007L439.97 451.718L430.76 434.281L428.319 435.57L437.529 453.007ZM445.233 426.229C442.758 427.536 441.281 429.538 440.869 431.927L439.636 429.592L437.196 430.881L450.217 455.534L452.658 454.245L447.614 444.695C449.746 445.649 452.215 445.612 454.761 444.267C459.854 441.577 460.49 436.356 457.743 431.156C454.866 425.71 450.079 423.669 445.233 426.229ZM453.268 442.296C449.59 444.239 446.112 442.366 444.02 438.405C441.834 434.267 442.518 430.423 446.019 428.573C449.556 426.705 453.117 428.307 455.303 432.446C457.395 436.407 456.982 440.335 453.268 442.296ZM466.253 415.172C463.741 416.498 462.18 418.68 461.982 421.046L456.826 411.284L454.385 412.573L467.407 437.226L469.847 435.937L465.606 427.908C463.066 423.098 463.502 419.384 466.826 417.628C469.444 416.246 471.543 417.308 473.542 421.093L478.866 431.173L481.307 429.884L475.665 419.202C473.217 414.569 470.002 413.191 466.253 415.172ZM496.174 409.772C494.081 405.811 489.649 402.814 484.308 405.635C479.25 408.306 478.766 413.9 481.363 418.816C483.979 423.768 488.795 426.291 494.1 423.488C496.788 422.069 498.393 420.226 499.305 416.984L496.822 416.396C496.128 418.934 494.868 420.233 492.958 421.241C489.528 423.054 486.191 421.876 484.103 418.093L496.871 411.349C496.717 410.887 496.435 410.267 496.174 409.772ZM485.391 407.686C488.61 405.986 491.553 407.191 493.225 409.927C493.393 410.245 493.522 410.404 493.559 410.474L483.019 416.042C481.606 412.852 482.244 409.349 485.391 407.686ZM504.406 395.019C502.637 395.953 500.833 397.676 500.774 400.647L499.391 398.03L496.951 399.319L506.161 416.756L508.601 415.467L503.464 405.74C501.465 401.956 502.381 398.894 505.069 397.474C505.811 397.081 506.648 396.866 507.648 396.79L507.804 394.174C506.569 394.148 505.467 394.459 504.406 395.019ZM526.751 383.216C523.78 384.786 522.114 387.113 521.529 390.544L524.082 391.095C524.469 388.403 525.663 386.551 527.855 385.393C530.791 383.842 533.261 384.664 534.867 387.705L535.297 388.519L531.725 390.406C528.294 392.218 526.588 393.526 525.655 395.014C524.792 396.465 524.795 398.183 525.729 399.951C527.504 403.311 530.778 404.115 534.563 402.116C537.321 400.659 538.902 398.512 539.254 395.838L540.815 398.452L543.043 397.275L537.308 386.416C535.01 382.066 531.137 380.9 526.751 383.216ZM534.205 399.726C531.588 401.109 529.272 400.749 528.244 398.804C527.721 397.813 527.628 396.867 528.003 396.036C528.497 394.915 529.765 393.974 532.983 392.274L536.343 390.5L536.474 390.747C538.436 394.461 537.565 397.952 534.205 399.726ZM547.837 372.079C545.326 373.405 543.764 375.587 543.566 377.954L542.221 375.407L539.781 376.696L548.991 394.133L551.431 392.844L547.303 385.028C544.706 380.111 545.121 376.273 548.41 374.535C551.028 373.153 553.146 374.251 555.126 378L560.45 388.08L562.891 386.791L557.249 376.11C554.802 371.476 551.586 370.099 547.837 372.079ZM568.031 352.546L573.075 362.096C570.87 361.089 568.385 361.18 565.909 362.488C561.063 365.048 560.05 370.152 562.927 375.599C565.673 380.798 570.343 383.217 575.436 380.527C577.983 379.181 579.405 377.164 579.819 374.864L581.052 377.198L583.493 375.909L570.471 351.257L568.031 352.546ZM574.651 378.182C570.937 380.144 567.46 378.271 565.367 374.31C563.181 370.171 563.865 366.327 567.402 364.459C570.904 362.609 574.464 364.212 576.65 368.35C578.742 372.311 578.329 376.239 574.651 378.182ZM602.925 366.007C603.703 365.596 604.475 364.917 605.087 364.277L603.95 362.209C603.513 362.666 602.986 363.125 602.455 363.405C601.288 364.022 600.453 363.468 599.818 362.265L588.87 341.539L586.429 342.828L597.452 363.696C598.89 366.419 600.909 367.072 602.925 366.007ZM617.963 345.443C615.87 341.482 611.438 338.485 606.097 341.306C601.039 343.978 600.555 349.571 603.152 354.487C605.768 359.439 610.584 361.962 615.889 359.16C618.577 357.74 620.182 355.897 621.094 352.656L618.611 352.067C617.917 354.605 616.657 355.904 614.747 356.913C611.317 358.725 607.98 357.547 605.892 353.764L618.66 347.02C618.507 346.558 618.224 345.938 617.963 345.443ZM607.18 343.358C610.399 341.657 613.342 342.862 615.014 345.598C615.182 345.917 615.311 346.075 615.348 346.146L604.808 351.713C603.395 348.524 604.033 345.02 607.18 343.358ZM632.548 349.998L634.635 348.896L632.569 327.685L629.881 329.105L631.93 346.344L618.881 334.915L616.228 336.317L632.548 349.998ZM654.023 326.396C651.93 322.435 647.498 319.438 642.157 322.259C637.099 324.931 636.616 330.524 639.212 335.44C641.828 340.392 646.644 342.915 651.949 340.113C654.637 338.693 656.242 336.85 657.154 333.609L654.672 333.02C653.977 335.558 652.717 336.857 650.807 337.866C647.377 339.678 644.04 338.5 641.952 334.717L654.72 327.973C654.567 327.511 654.284 326.891 654.023 326.396ZM643.24 324.311C646.459 322.611 649.402 323.815 651.074 326.551C651.242 326.87 651.371 327.028 651.408 327.099L640.868 332.666C639.455 329.477 640.093 325.973 643.24 324.311ZM662.255 311.644C660.486 312.578 658.682 314.3 658.623 317.271L657.24 314.654L654.8 315.943L664.01 333.38L666.45 332.091L661.313 322.365C659.314 318.58 660.23 315.518 662.918 314.098C663.661 313.706 664.497 313.49 665.497 313.414L665.653 310.798C664.418 310.772 663.316 311.083 662.255 311.644ZM674.929 304.949C671.958 306.518 670.292 308.846 669.707 312.276L672.26 312.828C672.647 310.135 673.84 308.284 676.033 307.125C678.969 305.575 681.439 306.396 683.045 309.438L683.475 310.252L679.903 312.138C676.472 313.951 674.765 315.259 673.832 316.747C672.97 318.198 672.973 319.915 673.907 321.684C675.681 325.044 678.956 325.848 682.74 323.849C685.499 322.392 687.08 320.245 687.431 317.571L688.993 320.184L691.221 319.007L685.486 308.149C683.188 303.799 679.315 302.632 674.929 304.949ZM682.383 321.459C679.766 322.842 677.449 322.482 676.422 320.536C675.899 319.546 675.806 318.6 676.181 317.768C676.675 316.648 677.942 315.707 681.161 314.007L684.521 312.232L684.652 312.48C686.613 316.194 685.743 319.684 682.383 321.459ZM702.06 310.568C699.344 311.505 696.927 312.239 695.993 310.471C695.6 309.728 695.688 308.867 696.19 308.104C697.515 308.128 698.921 307.793 700.265 307.083C703.943 305.14 705.592 301.238 703.705 297.666C703.051 296.428 702.118 295.518 701.013 294.881L702.336 291.649L700.222 290.73L698.919 294.087C697.321 293.8 695.519 294.073 693.822 294.97C690.073 296.95 688.499 300.993 690.367 304.53C691.189 306.087 692.465 307.132 693.945 307.707C693.155 309.21 693.079 310.607 693.826 312.022C694.742 313.755 696.184 314.26 697.846 314.151L696.287 318.051C696.364 318.282 696.44 318.512 696.627 318.866C698.458 322.332 702.402 322.692 707.248 320.132C711.634 317.816 713.908 314.669 712.17 311.38C710.171 307.596 705.807 309.268 702.06 310.568ZM694.941 297.003C697.452 295.676 699.957 296.479 701.227 298.884C702.442 301.183 701.782 303.703 699.165 305.086C696.547 306.468 694.005 305.594 692.809 303.331C691.539 300.926 692.465 298.31 694.941 297.003ZM706.271 318.025C703.3 319.594 700.377 320.142 699.07 317.666C699.032 317.596 698.995 317.525 698.937 317.329L700.092 313.779C700.928 313.563 701.817 313.275 702.651 312.97C705.794 311.898 708.721 310.759 709.842 312.881C710.739 314.579 709.348 316.399 706.271 318.025ZM723.76 289.561C721.667 285.6 717.234 282.603 711.894 285.424C706.836 288.096 706.352 293.689 708.949 298.606C711.565 303.557 716.38 306.08 721.686 303.278C724.374 301.858 725.979 300.015 726.891 296.774L724.408 296.185C723.713 298.724 722.454 300.022 720.544 301.031C717.113 302.843 713.777 301.665 711.689 297.882L724.457 291.138C724.303 290.676 724.021 290.056 723.76 289.561ZM712.977 287.476C716.196 285.776 719.139 286.98 720.811 289.717C720.979 290.035 721.108 290.193 721.145 290.264L710.605 295.831C709.192 292.642 709.829 289.138 712.977 287.476ZM749.4 285.292C748.753 285.95 748.156 286.447 747.554 286.764C746.175 287.493 744.986 287.126 744.089 285.428L738.298 274.463L742.507 272.24L741.423 270.189L737.214 272.412L733.851 266.046L732.382 269.174L734.774 273.701L731.873 275.233L732.957 277.284L735.857 275.752L741.817 287.035C743.442 290.112 745.831 290.524 748.165 289.291C748.979 288.862 749.805 288.199 750.575 287.43L749.4 285.292ZM754.146 263.107C751.635 264.433 750.073 266.615 749.875 268.982L744.719 259.22L742.279 260.509L755.3 285.161L757.74 283.872L753.5 275.843C750.959 271.033 751.395 267.319 754.72 265.563C757.337 264.181 759.436 265.243 761.435 269.028L766.76 279.108L769.2 277.819L763.558 267.137C761.111 262.504 757.895 261.127 754.146 263.107ZM784.067 257.707C781.975 253.746 777.542 250.749 772.201 253.57C767.143 256.242 766.66 261.835 769.256 266.751C771.872 271.703 776.688 274.226 781.993 271.424C784.681 270.004 786.286 268.161 787.198 264.92L784.716 264.331C784.021 266.869 782.761 268.168 780.852 269.177C777.421 270.989 774.084 269.811 771.996 266.028L784.764 259.284C784.611 258.822 784.328 258.202 784.067 257.707ZM773.285 255.622C776.503 253.921 779.447 255.126 781.118 257.862C781.286 258.181 781.415 258.339 781.452 258.41L770.912 263.977C769.499 260.788 770.137 257.284 773.285 255.622ZM801.97 237.846C800.202 238.78 798.397 240.502 798.338 243.474L796.956 240.857L794.515 242.146L803.725 259.583L806.166 258.294L801.028 248.567C799.029 244.783 799.945 241.72 802.633 240.301C803.376 239.908 804.212 239.693 805.212 239.617L805.369 237.001C804.134 236.975 803.031 237.286 801.97 237.846ZM825.204 235.978C823.112 232.017 818.679 229.02 813.339 231.841C808.281 234.513 807.797 240.106 810.394 245.023C813.009 249.974 817.825 252.497 823.131 249.695C825.819 248.275 827.424 246.432 828.336 243.191L825.853 242.602C825.158 245.141 823.899 246.439 821.989 247.448C818.558 249.26 815.222 248.082 813.133 244.299L825.902 237.555C825.748 237.093 825.466 236.473 825.204 235.978ZM814.422 233.893C817.641 232.193 820.584 233.397 822.256 236.134C822.424 236.452 822.552 236.61 822.59 236.681L812.05 242.248C810.637 239.059 811.274 235.555 814.422 233.893ZM840.611 240.462C843.971 238.687 845.937 235.387 844.069 231.85C840.576 225.236 831.878 233.177 829.692 229.039C828.889 227.518 829.801 225.905 831.959 224.766C834.116 223.626 836.019 223.888 837.689 224.996L839.074 222.907C836.564 221.067 833.684 221.095 830.89 222.571C827.388 224.42 825.902 227.603 827.509 230.644C830.778 236.834 839.291 228.628 841.739 233.261C842.71 235.101 841.806 237.071 839.436 238.323C836.713 239.761 834.212 239.137 832.622 237.67L831.056 239.673C833.452 241.981 837.18 242.274 840.611 240.462ZM853.32 211.085L857.56 219.114C859.952 223.641 859.807 227.563 856.34 229.394C853.016 231.15 851.119 228.759 849.625 225.929L844.3 215.849L841.86 217.138L847.502 227.82C849.781 232.135 852.953 233.943 856.914 231.85C859.213 230.636 860.956 228.54 861.203 226.011L862.53 228.522L864.97 227.233L855.76 209.796L853.32 211.085ZM874.757 222.426C875.535 222.015 876.307 221.336 876.919 220.696L875.782 218.628C875.344 219.085 874.818 219.544 874.287 219.824C873.12 220.44 872.285 219.887 871.65 218.684L860.702 197.958L858.261 199.247L869.284 220.114C870.722 222.838 872.741 223.491 874.757 222.426ZM886.94 212.643C886.292 213.302 885.695 213.798 885.094 214.116C883.714 214.845 882.525 214.477 881.629 212.78L875.837 201.815L880.046 199.592L878.963 197.541L874.754 199.764L871.391 193.397L869.922 196.526L872.313 201.053L869.413 202.585L870.496 204.636L873.397 203.104L879.356 214.387C880.982 217.464 883.371 217.876 885.705 216.643C886.518 216.214 887.345 215.551 888.115 214.782L886.94 212.643ZM898.431 209.921C901.792 208.146 903.758 204.846 901.89 201.309C898.396 194.695 889.698 202.637 887.512 198.498C886.709 196.977 887.621 195.365 889.779 194.225C891.936 193.085 893.839 193.347 895.51 194.455L896.895 192.366C894.384 190.526 891.504 190.554 888.71 192.03C885.209 193.88 883.723 197.062 885.329 200.104C888.599 206.293 897.112 198.087 899.559 202.721C900.531 204.56 899.626 206.53 897.256 207.782C894.533 209.221 892.032 208.597 890.443 207.129L888.877 209.132C891.272 211.441 895.001 211.733 898.431 209.921Z" fill="white"/>
<path d="M104.44 89.728C104.44 87.552 104.96 85.864 106 84.664C107.04 83.464 108.488 82.864 110.344 82.864C112.2 82.864 113.648 83.464 114.688 84.664C115.728 85.864 116.248 87.552 116.248 89.728V93.472C116.248 95.712 115.728 97.416 114.688 98.584C113.648 99.752 112.2 100.336 110.344 100.336C108.488 100.336 107.04 99.752 106 98.584C104.96 97.416 104.44 95.712 104.44 93.472V89.728ZM110.344 98.512C111.64 98.512 112.608 98.064 113.248 97.168C113.904 96.256 114.232 94.976 114.232 93.328V89.872C114.232 89.104 114.152 88.408 113.992 87.784C113.832 87.144 113.584 86.6 113.248 86.152C112.928 85.688 112.52 85.328 112.024 85.072C111.544 84.816 110.984 84.688 110.344 84.688C109.688 84.688 109.12 84.816 108.64 85.072C108.16 85.328 107.752 85.688 107.416 86.152C107.096 86.6 106.856 87.144 106.696 87.784C106.536 88.408 106.456 89.104 106.456 89.872V93.328C106.456 94.976 106.776 96.256 107.416 97.168C108.072 98.064 109.048 98.512 110.344 98.512ZM108.808 91.6C108.808 91.184 108.96 90.824 109.264 90.52C109.568 90.216 109.928 90.064 110.344 90.064C110.76 90.064 111.12 90.216 111.424 90.52C111.728 90.824 111.88 91.184 111.88 91.6C111.88 92.016 111.728 92.376 111.424 92.68C111.12 92.984 110.76 93.136 110.344 93.136C109.928 93.136 109.568 92.984 109.264 92.68C108.96 92.376 108.808 92.016 108.808 91.6ZM119.135 89.728C119.135 87.552 119.655 85.864 120.695 84.664C121.735 83.464 123.183 82.864 125.039 82.864C126.895 82.864 128.343 83.464 129.383 84.664C130.423 85.864 130.943 87.552 130.943 89.728V93.472C130.943 95.712 130.423 97.416 129.383 98.584C128.343 99.752 126.895 100.336 125.039 100.336C123.183 100.336 121.735 99.752 120.695 98.584C119.655 97.416 119.135 95.712 119.135 93.472V89.728ZM125.039 98.512C126.335 98.512 127.303 98.064 127.943 97.168C128.599 96.256 128.927 94.976 128.927 93.328V89.872C128.927 89.104 128.847 88.408 128.687 87.784C128.527 87.144 128.279 86.6 127.943 86.152C127.623 85.688 127.215 85.328 126.719 85.072C126.239 84.816 125.679 84.688 125.039 84.688C124.383 84.688 123.815 84.816 123.335 85.072C122.855 85.328 122.447 85.688 122.111 86.152C121.791 86.6 121.551 87.144 121.391 87.784C121.231 88.408 121.151 89.104 121.151 89.872V93.328C121.151 94.976 121.471 96.256 122.111 97.168C122.767 98.064 123.743 98.512 125.039 98.512ZM123.503 91.6C123.503 91.184 123.655 90.824 123.959 90.52C124.263 90.216 124.623 90.064 125.039 90.064C125.455 90.064 125.815 90.216 126.119 90.52C126.423 90.824 126.575 91.184 126.575 91.6C126.575 92.016 126.423 92.376 126.119 92.68C125.815 92.984 125.455 93.136 125.039 93.136C124.623 93.136 124.263 92.984 123.959 92.68C123.655 92.376 123.503 92.016 123.503 91.6ZM138.847 98.128V84.088H138.559L135.799 90.4H133.807V90.256L136.951 83.2H140.863V98.128H145.615V100H134.095V98.128H138.847ZM148.526 89.728C148.526 87.552 149.046 85.864 150.086 84.664C151.126 83.464 152.574 82.864 154.43 82.864C156.286 82.864 157.734 83.464 158.774 84.664C159.814 85.864 160.334 87.552 160.334 89.728V93.472C160.334 95.712 159.814 97.416 158.774 98.584C157.734 99.752 156.286 100.336 154.43 100.336C152.574 100.336 151.126 99.752 150.086 98.584C149.046 97.416 148.526 95.712 148.526 93.472V89.728ZM154.43 98.512C155.726 98.512 156.694 98.064 157.334 97.168C157.99 96.256 158.318 94.976 158.318 93.328V89.872C158.318 89.104 158.238 88.408 158.078 87.784C157.918 87.144 157.67 86.6 157.334 86.152C157.014 85.688 156.606 85.328 156.11 85.072C155.63 84.816 155.07 84.688 154.43 84.688C153.774 84.688 153.206 84.816 152.726 85.072C152.246 85.328 151.838 85.688 151.502 86.152C151.182 86.6 150.942 87.144 150.782 87.784C150.622 88.408 150.542 89.104 150.542 89.872V93.328C150.542 94.976 150.862 96.256 151.502 97.168C152.158 98.064 153.134 98.512 154.43 98.512ZM152.894 91.6C152.894 91.184 153.046 90.824 153.35 90.52C153.654 90.216 154.014 90.064 154.43 90.064C154.846 90.064 155.206 90.216 155.51 90.52C155.814 90.824 155.966 91.184 155.966 91.6C155.966 92.016 155.814 92.376 155.51 92.68C155.206 92.984 154.846 93.136 154.43 93.136C154.014 93.136 153.654 92.984 153.35 92.68C153.046 92.376 152.894 92.016 152.894 91.6ZM168.237 98.128V84.088H167.949L165.189 90.4H163.197V90.256L166.341 83.2H170.253V98.128H175.005V100H163.485V98.128H168.237ZM177.917 89.728C177.917 87.552 178.437 85.864 179.477 84.664C180.517 83.464 181.965 82.864 183.821 82.864C185.677 82.864 187.125 83.464 188.165 84.664C189.205 85.864 189.725 87.552 189.725 89.728V93.472C189.725 95.712 189.205 97.416 188.165 98.584C187.125 99.752 185.677 100.336 183.821 100.336C181.965 100.336 180.517 99.752 179.477 98.584C178.437 97.416 177.917 95.712 177.917 93.472V89.728ZM183.821 98.512C185.117 98.512 186.085 98.064 186.725 97.168C187.381 96.256 187.709 94.976 187.709 93.328V89.872C187.709 89.104 187.629 88.408 187.469 87.784C187.309 87.144 187.061 86.6 186.725 86.152C186.405 85.688 185.997 85.328 185.501 85.072C185.021 84.816 184.461 84.688 183.821 84.688C183.165 84.688 182.597 84.816 182.117 85.072C181.637 85.328 181.229 85.688 180.893 86.152C180.573 86.6 180.333 87.144 180.173 87.784C180.013 88.408 179.933 89.104 179.933 89.872V93.328C179.933 94.976 180.253 96.256 180.893 97.168C181.549 98.064 182.525 98.512 183.821 98.512ZM182.285 91.6C182.285 91.184 182.437 90.824 182.741 90.52C183.045 90.216 183.405 90.064 183.821 90.064C184.237 90.064 184.597 90.216 184.901 90.52C185.205 90.824 185.357 91.184 185.357 91.6C185.357 92.016 185.205 92.376 184.901 92.68C184.597 92.984 184.237 93.136 183.821 93.136C183.405 93.136 183.045 92.984 182.741 92.68C182.437 92.376 182.285 92.016 182.285 91.6ZM197.628 98.128V84.088H197.34L194.58 90.4H192.588V90.256L195.732 83.2H199.644V98.128H204.396V100H192.876V98.128H197.628ZM212.323 98.128V84.088H212.035L209.275 90.4H207.283V90.256L210.427 83.2H214.339V98.128H219.091V100H207.571V98.128H212.323ZM104.44 125.728C104.44 123.552 104.96 121.864 106 120.664C107.04 119.464 108.488 118.864 110.344 118.864C112.2 118.864 113.648 119.464 114.688 120.664C115.728 121.864 116.248 123.552 116.248 125.728V129.472C116.248 131.712 115.728 133.416 114.688 134.584C113.648 135.752 112.2 136.336 110.344 136.336C108.488 136.336 107.04 135.752 106 134.584C104.96 133.416 104.44 131.712 104.44 129.472V125.728ZM110.344 134.512C111.64 134.512 112.608 134.064 113.248 133.168C113.904 132.256 114.232 130.976 114.232 129.328V125.872C114.232 125.104 114.152 124.408 113.992 123.784C113.832 123.144 113.584 122.6 113.248 122.152C112.928 121.688 112.52 121.328 112.024 121.072C111.544 120.816 110.984 120.688 110.344 120.688C109.688 120.688 109.12 120.816 108.64 121.072C108.16 121.328 107.752 121.688 107.416 122.152C107.096 122.6 106.856 123.144 106.696 123.784C106.536 124.408 106.456 125.104 106.456 125.872V129.328C106.456 130.976 106.776 132.256 107.416 133.168C108.072 134.064 109.048 134.512 110.344 134.512ZM108.808 127.6C108.808 127.184 108.96 126.824 109.264 126.52C109.568 126.216 109.928 126.064 110.344 126.064C110.76 126.064 111.12 126.216 111.424 126.52C111.728 126.824 111.88 127.184 111.88 127.6C111.88 128.016 111.728 128.376 111.424 128.68C111.12 128.984 110.76 129.136 110.344 129.136C109.928 129.136 109.568 128.984 109.264 128.68C108.96 128.376 108.808 128.016 108.808 127.6ZM119.135 125.728C119.135 123.552 119.655 121.864 120.695 120.664C121.735 119.464 123.183 118.864 125.039 118.864C126.895 118.864 128.343 119.464 129.383 120.664C130.423 121.864 130.943 123.552 130.943 125.728V129.472C130.943 131.712 130.423 133.416 129.383 134.584C128.343 135.752 126.895 136.336 125.039 136.336C123.183 136.336 121.735 135.752 120.695 134.584C119.655 133.416 119.135 131.712 119.135 129.472V125.728ZM125.039 134.512C126.335 134.512 127.303 134.064 127.943 133.168C128.599 132.256 128.927 130.976 128.927 129.328V125.872C128.927 125.104 128.847 124.408 128.687 123.784C128.527 123.144 128.279 122.6 127.943 122.152C127.623 121.688 127.215 121.328 126.719 121.072C126.239 120.816 125.679 120.688 125.039 120.688C124.383 120.688 123.815 120.816 123.335 121.072C122.855 121.328 122.447 121.688 122.111 122.152C121.791 122.6 121.551 123.144 121.391 123.784C121.231 124.408 121.151 125.104 121.151 125.872V129.328C121.151 130.976 121.471 132.256 122.111 133.168C122.767 134.064 123.743 134.512 125.039 134.512ZM123.503 127.6C123.503 127.184 123.655 126.824 123.959 126.52C124.263 126.216 124.623 126.064 125.039 126.064C125.455 126.064 125.815 126.216 126.119 126.52C126.423 126.824 126.575 127.184 126.575 127.6C126.575 128.016 126.423 128.376 126.119 128.68C125.815 128.984 125.455 129.136 125.039 129.136C124.623 129.136 124.263 128.984 123.959 128.68C123.655 128.376 123.503 128.016 123.503 127.6ZM138.847 134.128V120.088H138.559L135.799 126.4H133.807V126.256L136.951 119.2H140.863V134.128H145.615V136H134.095V134.128H138.847ZM148.526 125.728C148.526 123.552 149.046 121.864 150.086 120.664C151.126 119.464 152.574 118.864 154.43 118.864C156.286 118.864 157.734 119.464 158.774 120.664C159.814 121.864 160.334 123.552 160.334 125.728V129.472C160.334 131.712 159.814 133.416 158.774 134.584C157.734 135.752 156.286 136.336 154.43 136.336C152.574 136.336 151.126 135.752 150.086 134.584C149.046 133.416 148.526 131.712 148.526 129.472V125.728ZM154.43 134.512C155.726 134.512 156.694 134.064 157.334 133.168C157.99 132.256 158.318 130.976 158.318 129.328V125.872C158.318 125.104 158.238 124.408 158.078 123.784C157.918 123.144 157.67 122.6 157.334 122.152C157.014 121.688 156.606 121.328 156.11 121.072C155.63 120.816 155.07 120.688 154.43 120.688C153.774 120.688 153.206 120.816 152.726 121.072C152.246 121.328 151.838 121.688 151.502 122.152C151.182 122.6 150.942 123.144 150.782 123.784C150.622 124.408 150.542 125.104 150.542 125.872V129.328C150.542 130.976 150.862 132.256 151.502 133.168C152.158 134.064 153.134 134.512 154.43 134.512ZM152.894 127.6C152.894 127.184 153.046 126.824 153.35 126.52C153.654 126.216 154.014 126.064 154.43 126.064C154.846 126.064 155.206 126.216 155.51 126.52C155.814 126.824 155.966 127.184 155.966 127.6C155.966 128.016 155.814 128.376 155.51 128.68C155.206 128.984 154.846 129.136 154.43 129.136C154.014 129.136 153.654 128.984 153.35 128.68C153.046 128.376 152.894 128.016 152.894 127.6ZM163.221 125.728C163.221 123.552 163.741 121.864 164.781 120.664C165.821 119.464 167.269 118.864 169.125 118.864C170.981 118.864 172.429 119.464 173.469 120.664C174.509 121.864 175.029 123.552 175.029 125.728V129.472C175.029 131.712 174.509 133.416 173.469 134.584C172.429 135.752 170.981 136.336 169.125 136.336C167.269 136.336 165.821 135.752 164.781 134.584C163.741 133.416 163.221 131.712 163.221 129.472V125.728ZM169.125 134.512C170.421 134.512 171.389 134.064 172.029 133.168C172.685 132.256 173.013 130.976 173.013 129.328V125.872C173.013 125.104 172.933 124.408 172.773 123.784C172.613 123.144 172.365 122.6 172.029 122.152C171.709 121.688 171.301 121.328 170.805 121.072C170.325 120.816 169.765 120.688 169.125 120.688C168.469 120.688 167.901 120.816 167.421 121.072C166.941 121.328 166.533 121.688 166.197 122.152C165.877 122.6 165.637 123.144 165.477 123.784C165.317 124.408 165.237 125.104 165.237 125.872V129.328C165.237 130.976 165.557 132.256 166.197 133.168C166.853 134.064 167.829 134.512 169.125 134.512ZM167.589 127.6C167.589 127.184 167.741 126.824 168.045 126.52C168.349 126.216 168.709 126.064 169.125 126.064C169.541 126.064 169.901 126.216 170.205 126.52C170.509 126.824 170.661 127.184 170.661 127.6C170.661 128.016 170.509 128.376 170.205 128.68C169.901 128.984 169.541 129.136 169.125 129.136C168.709 129.136 168.349 128.984 168.045 128.68C167.741 128.376 167.589 128.016 167.589 127.6ZM182.933 134.128V120.088H182.645L179.885 126.4H177.893V126.256L181.037 119.2H184.949V134.128H189.701V136H178.181V134.128H182.933ZM192.612 125.728C192.612 123.552 193.132 121.864 194.172 120.664C195.212 119.464 196.66 118.864 198.516 118.864C200.372 118.864 201.82 119.464 202.86 120.664C203.9 121.864 204.42 123.552 204.42 125.728V129.472C204.42 131.712 203.9 133.416 202.86 134.584C201.82 135.752 200.372 136.336 198.516 136.336C196.66 136.336 195.212 135.752 194.172 134.584C193.132 133.416 192.612 131.712 192.612 129.472V125.728ZM198.516 134.512C199.812 134.512 200.78 134.064 201.42 133.168C202.076 132.256 202.404 130.976 202.404 129.328V125.872C202.404 125.104 202.324 124.408 202.164 123.784C202.004 123.144 201.756 122.6 201.42 122.152C201.1 121.688 200.692 121.328 200.196 121.072C199.716 120.816 199.156 120.688 198.516 120.688C197.86 120.688 197.292 120.816 196.812 121.072C196.332 121.328 195.924 121.688 195.588 122.152C195.268 122.6 195.028 123.144 194.868 123.784C194.708 124.408 194.628 125.104 194.628 125.872V129.328C194.628 130.976 194.948 132.256 195.588 133.168C196.244 134.064 197.22 134.512 198.516 134.512ZM196.98 127.6C196.98 127.184 197.132 126.824 197.436 126.52C197.74 126.216 198.1 126.064 198.516 126.064C198.932 126.064 199.292 126.216 199.596 126.52C199.9 126.824 200.052 127.184 200.052 127.6C200.052 128.016 199.9 128.376 199.596 128.68C199.292 128.984 198.932 129.136 198.516 129.136C198.1 129.136 197.74 128.984 197.436 128.68C197.132 128.376 196.98 128.016 196.98 127.6ZM207.307 125.728C207.307 123.552 207.827 121.864 208.867 120.664C209.907 119.464 211.355 118.864 213.211 118.864C215.067 118.864 216.515 119.464 217.555 120.664C218.595 121.864 219.115 123.552 219.115 125.728V129.472C219.115 131.712 218.595 133.416 217.555 134.584C216.515 135.752 215.067 136.336 213.211 136.336C211.355 136.336 209.907 135.752 208.867 134.584C207.827 133.416 207.307 131.712 207.307 129.472V125.728ZM213.211 134.512C214.507 134.512 215.475 134.064 216.115 133.168C216.771 132.256 217.099 130.976 217.099 129.328V125.872C217.099 125.104 217.019 124.408 216.859 123.784C216.699 123.144 216.451 122.6 216.115 122.152C215.795 121.688 215.387 121.328 214.891 121.072C214.411 120.816 213.851 120.688 213.211 120.688C212.555 120.688 211.987 120.816 211.507 121.072C211.027 121.328 210.619 121.688 210.283 122.152C209.963 122.6 209.723 123.144 209.563 123.784C209.403 124.408 209.323 125.104 209.323 125.872V129.328C209.323 130.976 209.643 132.256 210.283 133.168C210.939 134.064 211.915 134.512 213.211 134.512ZM211.675 127.6C211.675 127.184 211.827 126.824 212.131 126.52C212.435 126.216 212.795 126.064 213.211 126.064C213.627 126.064 213.987 126.216 214.291 126.52C214.595 126.824 214.747 127.184 214.747 127.6C214.747 128.016 214.595 128.376 214.291 128.68C213.987 128.984 213.627 129.136 213.211 129.136C212.795 129.136 212.435 128.984 212.131 128.68C211.827 128.376 211.675 128.016 211.675 127.6ZM104.44 161.728C104.44 159.552 104.96 157.864 106 156.664C107.04 155.464 108.488 154.864 110.344 154.864C112.2 154.864 113.648 155.464 114.688 156.664C115.728 157.864 116.248 159.552 116.248 161.728V165.472C116.248 167.712 115.728 169.416 114.688 170.584C113.648 171.752 112.2 172.336 110.344 172.336C108.488 172.336 107.04 171.752 106 170.584C104.96 169.416 104.44 167.712 104.44 165.472V161.728ZM110.344 170.512C111.64 170.512 112.608 170.064 113.248 169.168C113.904 168.256 114.232 166.976 114.232 165.328V161.872C114.232 161.104 114.152 160.408 113.992 159.784C113.832 159.144 113.584 158.6 113.248 158.152C112.928 157.688 112.52 157.328 112.024 157.072C111.544 156.816 110.984 156.688 110.344 156.688C109.688 156.688 109.12 156.816 108.64 157.072C108.16 157.328 107.752 157.688 107.416 158.152C107.096 158.6 106.856 159.144 106.696 159.784C106.536 160.408 106.456 161.104 106.456 161.872V165.328C106.456 166.976 106.776 168.256 107.416 169.168C108.072 170.064 109.048 170.512 110.344 170.512ZM108.808 163.6C108.808 163.184 108.96 162.824 109.264 162.52C109.568 162.216 109.928 162.064 110.344 162.064C110.76 162.064 111.12 162.216 111.424 162.52C111.728 162.824 111.88 163.184 111.88 163.6C111.88 164.016 111.728 164.376 111.424 164.68C111.12 164.984 110.76 165.136 110.344 165.136C109.928 165.136 109.568 164.984 109.264 164.68C108.96 164.376 108.808 164.016 108.808 163.6ZM119.135 161.728C119.135 159.552 119.655 157.864 120.695 156.664C121.735 155.464 123.183 154.864 125.039 154.864C126.895 154.864 128.343 155.464 129.383 156.664C130.423 157.864 130.943 159.552 130.943 161.728V165.472C130.943 167.712 130.423 169.416 129.383 170.584C128.343 171.752 126.895 172.336 125.039 172.336C123.183 172.336 121.735 171.752 120.695 170.584C119.655 169.416 119.135 167.712 119.135 165.472V161.728ZM125.039 170.512C126.335 170.512 127.303 170.064 127.943 169.168C128.599 168.256 128.927 166.976 128.927 165.328V161.872C128.927 161.104 128.847 160.408 128.687 159.784C128.527 159.144 128.279 158.6 127.943 158.152C127.623 157.688 127.215 157.328 126.719 157.072C126.239 156.816 125.679 156.688 125.039 156.688C124.383 156.688 123.815 156.816 123.335 157.072C122.855 157.328 122.447 157.688 122.111 158.152C121.791 158.6 121.551 159.144 121.391 159.784C121.231 160.408 121.151 161.104 121.151 161.872V165.328C121.151 166.976 121.471 168.256 122.111 169.168C122.767 170.064 123.743 170.512 125.039 170.512ZM123.503 163.6C123.503 163.184 123.655 162.824 123.959 162.52C124.263 162.216 124.623 162.064 125.039 162.064C125.455 162.064 125.815 162.216 126.119 162.52C126.423 162.824 126.575 163.184 126.575 163.6C126.575 164.016 126.423 164.376 126.119 164.68C125.815 164.984 125.455 165.136 125.039 165.136C124.623 165.136 124.263 164.984 123.959 164.68C123.655 164.376 123.503 164.016 123.503 163.6ZM138.847 170.128V156.088H138.559L135.799 162.4H133.807V162.256L136.951 155.2H140.863V170.128H145.615V172H134.095V170.128H138.847ZM153.542 170.128V156.088H153.254L150.494 162.4H148.502V162.256L151.646 155.2H155.558V170.128H160.31V172H148.79V170.128H153.542ZM163.221 161.728C163.221 159.552 163.741 157.864 164.781 156.664C165.821 155.464 167.269 154.864 169.125 154.864C170.981 154.864 172.429 155.464 173.469 156.664C174.509 157.864 175.029 159.552 175.029 161.728V165.472C175.029 167.712 174.509 169.416 173.469 170.584C172.429 171.752 170.981 172.336 169.125 172.336C167.269 172.336 165.821 171.752 164.781 170.584C163.741 169.416 163.221 167.712 163.221 165.472V161.728ZM169.125 170.512C170.421 170.512 171.389 170.064 172.029 169.168C172.685 168.256 173.013 166.976 173.013 165.328V161.872C173.013 161.104 172.933 160.408 172.773 159.784C172.613 159.144 172.365 158.6 172.029 158.152C171.709 157.688 171.301 157.328 170.805 157.072C170.325 156.816 169.765 156.688 169.125 156.688C168.469 156.688 167.901 156.816 167.421 157.072C166.941 157.328 166.533 157.688 166.197 158.152C165.877 158.6 165.637 159.144 165.477 159.784C165.317 160.408 165.237 161.104 165.237 161.872V165.328C165.237 166.976 165.557 168.256 166.197 169.168C166.853 170.064 167.829 170.512 169.125 170.512ZM167.589 163.6C167.589 163.184 167.741 162.824 168.045 162.52C168.349 162.216 168.709 162.064 169.125 162.064C169.541 162.064 169.901 162.216 170.205 162.52C170.509 162.824 170.661 163.184 170.661 163.6C170.661 164.016 170.509 164.376 170.205 164.68C169.901 164.984 169.541 165.136 169.125 165.136C168.709 165.136 168.349 164.984 168.045 164.68C167.741 164.376 167.589 164.016 167.589 163.6ZM177.917 161.728C177.917 159.552 178.437 157.864 179.477 156.664C180.517 155.464 181.965 154.864 183.821 154.864C185.677 154.864 187.125 155.464 188.165 156.664C189.205 157.864 189.725 159.552 189.725 161.728V165.472C189.725 167.712 189.205 169.416 188.165 170.584C187.125 171.752 185.677 172.336 183.821 172.336C181.965 172.336 180.517 171.752 179.477 170.584C178.437 169.416 177.917 167.712 177.917 165.472V161.728ZM183.821 170.512C185.117 170.512 186.085 170.064 186.725 169.168C187.381 168.256 187.709 166.976 187.709 165.328V161.872C187.709 161.104 187.629 160.408 187.469 159.784C187.309 159.144 187.061 158.6 186.725 158.152C186.405 157.688 185.997 157.328 185.501 157.072C185.021 156.816 184.461 156.688 183.821 156.688C183.165 156.688 182.597 156.816 182.117 157.072C181.637 157.328 181.229 157.688 180.893 158.152C180.573 158.6 180.333 159.144 180.173 159.784C180.013 160.408 179.933 161.104 179.933 161.872V165.328C179.933 166.976 180.253 168.256 180.893 169.168C181.549 170.064 182.525 170.512 183.821 170.512ZM182.285 163.6C182.285 163.184 182.437 162.824 182.741 162.52C183.045 162.216 183.405 162.064 183.821 162.064C184.237 162.064 184.597 162.216 184.901 162.52C185.205 162.824 185.357 163.184 185.357 163.6C185.357 164.016 185.205 164.376 184.901 164.68C184.597 164.984 184.237 165.136 183.821 165.136C183.405 165.136 183.045 164.984 182.741 164.68C182.437 164.376 182.285 164.016 182.285 163.6ZM192.612 161.728C192.612 159.552 193.132 157.864 194.172 156.664C195.212 155.464 196.66 154.864 198.516 154.864C200.372 154.864 201.82 155.464 202.86 156.664C203.9 157.864 204.42 159.552 204.42 161.728V165.472C204.42 167.712 203.9 169.416 202.86 170.584C201.82 171.752 200.372 172.336 198.516 172.336C196.66 172.336 195.212 171.752 194.172 170.584C193.132 169.416 192.612 167.712 192.612 165.472V161.728ZM198.516 170.512C199.812 170.512 200.78 170.064 201.42 169.168C202.076 168.256 202.404 166.976 202.404 165.328V161.872C202.404 161.104 202.324 160.408 202.164 159.784C202.004 159.144 201.756 158.6 201.42 158.152C201.1 157.688 200.692 157.328 200.196 157.072C199.716 156.816 199.156 156.688 198.516 156.688C197.86 156.688 197.292 156.816 196.812 157.072C196.332 157.328 195.924 157.688 195.588 158.152C195.268 158.6 195.028 159.144 194.868 159.784C194.708 160.408 194.628 161.104 194.628 161.872V165.328C194.628 166.976 194.948 168.256 195.588 169.168C196.244 170.064 197.22 170.512 198.516 170.512ZM196.98 163.6C196.98 163.184 197.132 162.824 197.436 162.52C197.74 162.216 198.1 162.064 198.516 162.064C198.932 162.064 199.292 162.216 199.596 162.52C199.9 162.824 200.052 163.184 200.052 163.6C200.052 164.016 199.9 164.376 199.596 164.68C199.292 164.984 198.932 165.136 198.516 165.136C198.1 165.136 197.74 164.984 197.436 164.68C197.132 164.376 196.98 164.016 196.98 163.6ZM212.323 170.128V156.088H212.035L209.275 162.4H207.283V162.256L210.427 155.2H214.339V170.128H219.091V172H207.571V170.128H212.323ZM104.44 197.728C104.44 195.552 104.96 193.864 106 192.664C107.04 191.464 108.488 190.864 110.344 190.864C112.2 190.864 113.648 191.464 114.688 192.664C115.728 193.864 116.248 195.552 116.248 197.728V201.472C116.248 203.712 115.728 205.416 114.688 206.584C113.648 207.752 112.2 208.336 110.344 208.336C108.488 208.336 107.04 207.752 106 206.584C104.96 205.416 104.44 203.712 104.44 201.472V197.728ZM110.344 206.512C111.64 206.512 112.608 206.064 113.248 205.168C113.904 204.256 114.232 202.976 114.232 201.328V197.872C114.232 197.104 114.152 196.408 113.992 195.784C113.832 195.144 113.584 194.6 113.248 194.152C112.928 193.688 112.52 193.328 112.024 193.072C111.544 192.816 110.984 192.688 110.344 192.688C109.688 192.688 109.12 192.816 108.64 193.072C108.16 193.328 107.752 193.688 107.416 194.152C107.096 194.6 106.856 195.144 106.696 195.784C106.536 196.408 106.456 197.104 106.456 197.872V201.328C106.456 202.976 106.776 204.256 107.416 205.168C108.072 206.064 109.048 206.512 110.344 206.512ZM108.808 199.6C108.808 199.184 108.96 198.824 109.264 198.52C109.568 198.216 109.928 198.064 110.344 198.064C110.76 198.064 111.12 198.216 111.424 198.52C111.728 198.824 111.88 199.184 111.88 199.6C111.88 200.016 111.728 200.376 111.424 200.68C111.12 200.984 110.76 201.136 110.344 201.136C109.928 201.136 109.568 200.984 109.264 200.68C108.96 200.376 108.808 200.016 108.808 199.6ZM119.135 197.728C119.135 195.552 119.655 193.864 120.695 192.664C121.735 191.464 123.183 190.864 125.039 190.864C126.895 190.864 128.343 191.464 129.383 192.664C130.423 193.864 130.943 195.552 130.943 197.728V201.472C130.943 203.712 130.423 205.416 129.383 206.584C128.343 207.752 126.895 208.336 125.039 208.336C123.183 208.336 121.735 207.752 120.695 206.584C119.655 205.416 119.135 203.712 119.135 201.472V197.728ZM125.039 206.512C126.335 206.512 127.303 206.064 127.943 205.168C128.599 204.256 128.927 202.976 128.927 201.328V197.872C128.927 197.104 128.847 196.408 128.687 195.784C128.527 195.144 128.279 194.6 127.943 194.152C127.623 193.688 127.215 193.328 126.719 193.072C126.239 192.816 125.679 192.688 125.039 192.688C124.383 192.688 123.815 192.816 123.335 193.072C122.855 193.328 122.447 193.688 122.111 194.152C121.791 194.6 121.551 195.144 121.391 195.784C121.231 196.408 121.151 197.104 121.151 197.872V201.328C121.151 202.976 121.471 204.256 122.111 205.168C122.767 206.064 123.743 206.512 125.039 206.512ZM123.503 199.6C123.503 199.184 123.655 198.824 123.959 198.52C124.263 198.216 124.623 198.064 125.039 198.064C125.455 198.064 125.815 198.216 126.119 198.52C126.423 198.824 126.575 199.184 126.575 199.6C126.575 200.016 126.423 200.376 126.119 200.68C125.815 200.984 125.455 201.136 125.039 201.136C124.623 201.136 124.263 200.984 123.959 200.68C123.655 200.376 123.503 200.016 123.503 199.6ZM138.847 206.128V192.088H138.559L135.799 198.4H133.807V198.256L136.951 191.2H140.863V206.128H145.615V208H134.095V206.128H138.847ZM153.542 206.128V192.088H153.254L150.494 198.4H148.502V198.256L151.646 191.2H155.558V206.128H160.31V208H148.79V206.128H153.542ZM163.221 197.728C163.221 195.552 163.741 193.864 164.781 192.664C165.821 191.464 167.269 190.864 169.125 190.864C170.981 190.864 172.429 191.464 173.469 192.664C174.509 193.864 175.029 195.552 175.029 197.728V201.472C175.029 203.712 174.509 205.416 173.469 206.584C172.429 207.752 170.981 208.336 169.125 208.336C167.269 208.336 165.821 207.752 164.781 206.584C163.741 205.416 163.221 203.712 163.221 201.472V197.728ZM169.125 206.512C170.421 206.512 171.389 206.064 172.029 205.168C172.685 204.256 173.013 202.976 173.013 201.328V197.872C173.013 197.104 172.933 196.408 172.773 195.784C172.613 195.144 172.365 194.6 172.029 194.152C171.709 193.688 171.301 193.328 170.805 193.072C170.325 192.816 169.765 192.688 169.125 192.688C168.469 192.688 167.901 192.816 167.421 193.072C166.941 193.328 166.533 193.688 166.197 194.152C165.877 194.6 165.637 195.144 165.477 195.784C165.317 196.408 165.237 197.104 165.237 197.872V201.328C165.237 202.976 165.557 204.256 166.197 205.168C166.853 206.064 167.829 206.512 169.125 206.512ZM167.589 199.6C167.589 199.184 167.741 198.824 168.045 198.52C168.349 198.216 168.709 198.064 169.125 198.064C169.541 198.064 169.901 198.216 170.205 198.52C170.509 198.824 170.661 199.184 170.661 199.6C170.661 200.016 170.509 200.376 170.205 200.68C169.901 200.984 169.541 201.136 169.125 201.136C168.709 201.136 168.349 200.984 168.045 200.68C167.741 200.376 167.589 200.016 167.589 199.6ZM177.917 197.728C177.917 195.552 178.437 193.864 179.477 192.664C180.517 191.464 181.965 190.864 183.821 190.864C185.677 190.864 187.125 191.464 188.165 192.664C189.205 193.864 189.725 195.552 189.725 197.728V201.472C189.725 203.712 189.205 205.416 188.165 206.584C187.125 207.752 185.677 208.336 183.821 208.336C181.965 208.336 180.517 207.752 179.477 206.584C178.437 205.416 177.917 203.712 177.917 201.472V197.728ZM183.821 206.512C185.117 206.512 186.085 206.064 186.725 205.168C187.381 204.256 187.709 202.976 187.709 201.328V197.872C187.709 197.104 187.629 196.408 187.469 195.784C187.309 195.144 187.061 194.6 186.725 194.152C186.405 193.688 185.997 193.328 185.501 193.072C185.021 192.816 184.461 192.688 183.821 192.688C183.165 192.688 182.597 192.816 182.117 193.072C181.637 193.328 181.229 193.688 180.893 194.152C180.573 194.6 180.333 195.144 180.173 195.784C180.013 196.408 179.933 197.104 179.933 197.872V201.328C179.933 202.976 180.253 204.256 180.893 205.168C181.549 206.064 182.525 206.512 183.821 206.512ZM182.285 199.6C182.285 199.184 182.437 198.824 182.741 198.52C183.045 198.216 183.405 198.064 183.821 198.064C184.237 198.064 184.597 198.216 184.901 198.52C185.205 198.824 185.357 199.184 185.357 199.6C185.357 200.016 185.205 200.376 184.901 200.68C184.597 200.984 184.237 201.136 183.821 201.136C183.405 201.136 183.045 200.984 182.741 200.68C182.437 200.376 182.285 200.016 182.285 199.6ZM197.628 206.128V192.088H197.34L194.58 198.4H192.588V198.256L195.732 191.2H199.644V206.128H204.396V208H192.876V206.128H197.628ZM207.307 197.728C207.307 195.552 207.827 193.864 208.867 192.664C209.907 191.464 211.355 190.864 213.211 190.864C215.067 190.864 216.515 191.464 217.555 192.664C218.595 193.864 219.115 195.552 219.115 197.728V201.472C219.115 203.712 218.595 205.416 217.555 206.584C216.515 207.752 215.067 208.336 213.211 208.336C211.355 208.336 209.907 207.752 208.867 206.584C207.827 205.416 207.307 203.712 207.307 201.472V197.728ZM213.211 206.512C214.507 206.512 215.475 206.064 216.115 205.168C216.771 204.256 217.099 202.976 217.099 201.328V197.872C217.099 197.104 217.019 196.408 216.859 195.784C216.699 195.144 216.451 194.6 216.115 194.152C215.795 193.688 215.387 193.328 214.891 193.072C214.411 192.816 213.851 192.688 213.211 192.688C212.555 192.688 211.987 192.816 211.507 193.072C211.027 193.328 210.619 193.688 210.283 194.152C209.963 194.6 209.723 195.144 209.563 195.784C209.403 196.408 209.323 197.104 209.323 197.872V201.328C209.323 202.976 209.643 204.256 210.283 205.168C210.939 206.064 211.915 206.512 213.211 206.512ZM211.675 199.6C211.675 199.184 211.827 198.824 212.131 198.52C212.435 198.216 212.795 198.064 213.211 198.064C213.627 198.064 213.987 198.216 214.291 198.52C214.595 198.824 214.747 199.184 214.747 199.6C214.747 200.016 214.595 200.376 214.291 200.68C213.987 200.984 213.627 201.136 213.211 201.136C212.795 201.136 212.435 200.984 212.131 200.68C211.827 200.376 211.675 200.016 211.675 199.6ZM104.44 233.728C104.44 231.552 104.96 229.864 106 228.664C107.04 227.464 108.488 226.864 110.344 226.864C112.2 226.864 113.648 227.464 114.688 228.664C115.728 229.864 116.248 231.552 116.248 233.728V237.472C116.248 239.712 115.728 241.416 114.688 242.584C113.648 243.752 112.2 244.336 110.344 244.336C108.488 244.336 107.04 243.752 106 242.584C104.96 241.416 104.44 239.712 104.44 237.472V233.728ZM110.344 242.512C111.64 242.512 112.608 242.064 113.248 241.168C113.904 240.256 114.232 238.976 114.232 237.328V233.872C114.232 233.104 114.152 232.408 113.992 231.784C113.832 231.144 113.584 230.6 113.248 230.152C112.928 229.688 112.52 229.328 112.024 229.072C111.544 228.816 110.984 228.688 110.344 228.688C109.688 228.688 109.12 228.816 108.64 229.072C108.16 229.328 107.752 229.688 107.416 230.152C107.096 230.6 106.856 231.144 106.696 231.784C106.536 232.408 106.456 233.104 106.456 233.872V237.328C106.456 238.976 106.776 240.256 107.416 241.168C108.072 242.064 109.048 242.512 110.344 242.512ZM108.808 235.6C108.808 235.184 108.96 234.824 109.264 234.52C109.568 234.216 109.928 234.064 110.344 234.064C110.76 234.064 111.12 234.216 111.424 234.52C111.728 234.824 111.88 235.184 111.88 235.6C111.88 236.016 111.728 236.376 111.424 236.68C111.12 236.984 110.76 237.136 110.344 237.136C109.928 237.136 109.568 236.984 109.264 236.68C108.96 236.376 108.808 236.016 108.808 235.6ZM119.135 233.728C119.135 231.552 119.655 229.864 120.695 228.664C121.735 227.464 123.183 226.864 125.039 226.864C126.895 226.864 128.343 227.464 129.383 228.664C130.423 229.864 130.943 231.552 130.943 233.728V237.472C130.943 239.712 130.423 241.416 129.383 242.584C128.343 243.752 126.895 244.336 125.039 244.336C123.183 244.336 121.735 243.752 120.695 242.584C119.655 241.416 119.135 239.712 119.135 237.472V233.728ZM125.039 242.512C126.335 242.512 127.303 242.064 127.943 241.168C128.599 240.256 128.927 238.976 128.927 237.328V233.872C128.927 233.104 128.847 232.408 128.687 231.784C128.527 231.144 128.279 230.6 127.943 230.152C127.623 229.688 127.215 229.328 126.719 229.072C126.239 228.816 125.679 228.688 125.039 228.688C124.383 228.688 123.815 228.816 123.335 229.072C122.855 229.328 122.447 229.688 122.111 230.152C121.791 230.6 121.551 231.144 121.391 231.784C121.231 232.408 121.151 233.104 121.151 233.872V237.328C121.151 238.976 121.471 240.256 122.111 241.168C122.767 242.064 123.743 242.512 125.039 242.512ZM123.503 235.6C123.503 235.184 123.655 234.824 123.959 234.52C124.263 234.216 124.623 234.064 125.039 234.064C125.455 234.064 125.815 234.216 126.119 234.52C126.423 234.824 126.575 235.184 126.575 235.6C126.575 236.016 126.423 236.376 126.119 236.68C125.815 236.984 125.455 237.136 125.039 237.136C124.623 237.136 124.263 236.984 123.959 236.68C123.655 236.376 123.503 236.016 123.503 235.6ZM138.847 242.128V228.088H138.559L135.799 234.4H133.807V234.256L136.951 227.2H140.863V242.128H145.615V244H134.095V242.128H138.847ZM153.542 242.128V228.088H153.254L150.494 234.4H148.502V234.256L151.646 227.2H155.558V242.128H160.31V244H148.79V242.128H153.542ZM163.221 233.728C163.221 231.552 163.741 229.864 164.781 228.664C165.821 227.464 167.269 226.864 169.125 226.864C170.981 226.864 172.429 227.464 173.469 228.664C174.509 229.864 175.029 231.552 175.029 233.728V237.472C175.029 239.712 174.509 241.416 173.469 242.584C172.429 243.752 170.981 244.336 169.125 244.336C167.269 244.336 165.821 243.752 164.781 242.584C163.741 241.416 163.221 239.712 163.221 237.472V233.728ZM169.125 242.512C170.421 242.512 171.389 242.064 172.029 241.168C172.685 240.256 173.013 238.976 173.013 237.328V233.872C173.013 233.104 172.933 232.408 172.773 231.784C172.613 231.144 172.365 230.6 172.029 230.152C171.709 229.688 171.301 229.328 170.805 229.072C170.325 228.816 169.765 228.688 169.125 228.688C168.469 228.688 167.901 228.816 167.421 229.072C166.941 229.328 166.533 229.688 166.197 230.152C165.877 230.6 165.637 231.144 165.477 231.784C165.317 232.408 165.237 233.104 165.237 233.872V237.328C165.237 238.976 165.557 240.256 166.197 241.168C166.853 242.064 167.829 242.512 169.125 242.512ZM167.589 235.6C167.589 235.184 167.741 234.824 168.045 234.52C168.349 234.216 168.709 234.064 169.125 234.064C169.541 234.064 169.901 234.216 170.205 234.52C170.509 234.824 170.661 235.184 170.661 235.6C170.661 236.016 170.509 236.376 170.205 236.68C169.901 236.984 169.541 237.136 169.125 237.136C168.709 237.136 168.349 236.984 168.045 236.68C167.741 236.376 167.589 236.016 167.589 235.6ZM177.917 233.728C177.917 231.552 178.437 229.864 179.477 228.664C180.517 227.464 181.965 226.864 183.821 226.864C185.677 226.864 187.125 227.464 188.165 228.664C189.205 229.864 189.725 231.552 189.725 233.728V237.472C189.725 239.712 189.205 241.416 188.165 242.584C187.125 243.752 185.677 244.336 183.821 244.336C181.965 244.336 180.517 243.752 179.477 242.584C178.437 241.416 177.917 239.712 177.917 237.472V233.728ZM183.821 242.512C185.117 242.512 186.085 242.064 186.725 241.168C187.381 240.256 187.709 238.976 187.709 237.328V233.872C187.709 233.104 187.629 232.408 187.469 231.784C187.309 231.144 187.061 230.6 186.725 230.152C186.405 229.688 185.997 229.328 185.501 229.072C185.021 228.816 184.461 228.688 183.821 228.688C183.165 228.688 182.597 228.816 182.117 229.072C181.637 229.328 181.229 229.688 180.893 230.152C180.573 230.6 180.333 231.144 180.173 231.784C180.013 232.408 179.933 233.104 179.933 233.872V237.328C179.933 238.976 180.253 240.256 180.893 241.168C181.549 242.064 182.525 242.512 183.821 242.512ZM182.285 235.6C182.285 235.184 182.437 234.824 182.741 234.52C183.045 234.216 183.405 234.064 183.821 234.064C184.237 234.064 184.597 234.216 184.901 234.52C185.205 234.824 185.357 235.184 185.357 235.6C185.357 236.016 185.205 236.376 184.901 236.68C184.597 236.984 184.237 237.136 183.821 237.136C183.405 237.136 183.045 236.984 182.741 236.68C182.437 236.376 182.285 236.016 182.285 235.6ZM192.612 233.728C192.612 231.552 193.132 229.864 194.172 228.664C195.212 227.464 196.66 226.864 198.516 226.864C200.372 226.864 201.82 227.464 202.86 228.664C203.9 229.864 204.42 231.552 204.42 233.728V237.472C204.42 239.712 203.9 241.416 202.86 242.584C201.82 243.752 200.372 244.336 198.516 244.336C196.66 244.336 195.212 243.752 194.172 242.584C193.132 241.416 192.612 239.712 192.612 237.472V233.728ZM198.516 242.512C199.812 242.512 200.78 242.064 201.42 241.168C202.076 240.256 202.404 238.976 202.404 237.328V233.872C202.404 233.104 202.324 232.408 202.164 231.784C202.004 231.144 201.756 230.6 201.42 230.152C201.1 229.688 200.692 229.328 200.196 229.072C199.716 228.816 199.156 228.688 198.516 228.688C197.86 228.688 197.292 228.816 196.812 229.072C196.332 229.328 195.924 229.688 195.588 230.152C195.268 230.6 195.028 231.144 194.868 231.784C194.708 232.408 194.628 233.104 194.628 233.872V237.328C194.628 238.976 194.948 240.256 195.588 241.168C196.244 242.064 197.22 242.512 198.516 242.512ZM196.98 235.6C196.98 235.184 197.132 234.824 197.436 234.52C197.74 234.216 198.1 234.064 198.516 234.064C198.932 234.064 199.292 234.216 199.596 234.52C199.9 234.824 200.052 235.184 200.052 235.6C200.052 236.016 199.9 236.376 199.596 236.68C199.292 236.984 198.932 237.136 198.516 237.136C198.1 237.136 197.74 236.984 197.436 236.68C197.132 236.376 196.98 236.016 196.98 235.6ZM207.307 233.728C207.307 231.552 207.827 229.864 208.867 228.664C209.907 227.464 211.355 226.864 213.211 226.864C215.067 226.864 216.515 227.464 217.555 228.664C218.595 229.864 219.115 231.552 219.115 233.728V237.472C219.115 239.712 218.595 241.416 217.555 242.584C216.515 243.752 215.067 244.336 213.211 244.336C211.355 244.336 209.907 243.752 208.867 242.584C207.827 241.416 207.307 239.712 207.307 237.472V233.728ZM213.211 242.512C214.507 242.512 215.475 242.064 216.115 241.168C216.771 240.256 217.099 238.976 217.099 237.328V233.872C217.099 233.104 217.019 232.408 216.859 231.784C216.699 231.144 216.451 230.6 216.115 230.152C215.795 229.688 215.387 229.328 214.891 229.072C214.411 228.816 213.851 228.688 213.211 228.688C212.555 228.688 211.987 228.816 211.507 229.072C211.027 229.328 210.619 229.688 210.283 230.152C209.963 230.6 209.723 231.144 209.563 231.784C209.403 232.408 209.323 233.104 209.323 233.872V237.328C209.323 238.976 209.643 240.256 210.283 241.168C210.939 242.064 211.915 242.512 213.211 242.512ZM211.675 235.6C211.675 235.184 211.827 234.824 212.131 234.52C212.435 234.216 212.795 234.064 213.211 234.064C213.627 234.064 213.987 234.216 214.291 234.52C214.595 234.824 214.747 235.184 214.747 235.6C214.747 236.016 214.595 236.376 214.291 236.68C213.987 236.984 213.627 237.136 213.211 237.136C212.795 237.136 212.435 236.984 212.131 236.68C211.827 236.376 211.675 236.016 211.675 235.6ZM104.44 269.728C104.44 267.552 104.96 265.864 106 264.664C107.04 263.464 108.488 262.864 110.344 262.864C112.2 262.864 113.648 263.464 114.688 264.664C115.728 265.864 116.248 267.552 116.248 269.728V273.472C116.248 275.712 115.728 277.416 114.688 278.584C113.648 279.752 112.2 280.336 110.344 280.336C108.488 280.336 107.04 279.752 106 278.584C104.96 277.416 104.44 275.712 104.44 273.472V269.728ZM110.344 278.512C111.64 278.512 112.608 278.064 113.248 277.168C113.904 276.256 114.232 274.976 114.232 273.328V269.872C114.232 269.104 114.152 268.408 113.992 267.784C113.832 267.144 113.584 266.6 113.248 266.152C112.928 265.688 112.52 265.328 112.024 265.072C111.544 264.816 110.984 264.688 110.344 264.688C109.688 264.688 109.12 264.816 108.64 265.072C108.16 265.328 107.752 265.688 107.416 266.152C107.096 266.6 106.856 267.144 106.696 267.784C106.536 268.408 106.456 269.104 106.456 269.872V273.328C106.456 274.976 106.776 276.256 107.416 277.168C108.072 278.064 109.048 278.512 110.344 278.512ZM108.808 271.6C108.808 271.184 108.96 270.824 109.264 270.52C109.568 270.216 109.928 270.064 110.344 270.064C110.76 270.064 111.12 270.216 111.424 270.52C111.728 270.824 111.88 271.184 111.88 271.6C111.88 272.016 111.728 272.376 111.424 272.68C111.12 272.984 110.76 273.136 110.344 273.136C109.928 273.136 109.568 272.984 109.264 272.68C108.96 272.376 108.808 272.016 108.808 271.6ZM119.135 269.728C119.135 267.552 119.655 265.864 120.695 264.664C121.735 263.464 123.183 262.864 125.039 262.864C126.895 262.864 128.343 263.464 129.383 264.664C130.423 265.864 130.943 267.552 130.943 269.728V273.472C130.943 275.712 130.423 277.416 129.383 278.584C128.343 279.752 126.895 280.336 125.039 280.336C123.183 280.336 121.735 279.752 120.695 278.584C119.655 277.416 119.135 275.712 119.135 273.472V269.728ZM125.039 278.512C126.335 278.512 127.303 278.064 127.943 277.168C128.599 276.256 128.927 274.976 128.927 273.328V269.872C128.927 269.104 128.847 268.408 128.687 267.784C128.527 267.144 128.279 266.6 127.943 266.152C127.623 265.688 127.215 265.328 126.719 265.072C126.239 264.816 125.679 264.688 125.039 264.688C124.383 264.688 123.815 264.816 123.335 265.072C122.855 265.328 122.447 265.688 122.111 266.152C121.791 266.6 121.551 267.144 121.391 267.784C121.231 268.408 121.151 269.104 121.151 269.872V273.328C121.151 274.976 121.471 276.256 122.111 277.168C122.767 278.064 123.743 278.512 125.039 278.512ZM123.503 271.6C123.503 271.184 123.655 270.824 123.959 270.52C124.263 270.216 124.623 270.064 125.039 270.064C125.455 270.064 125.815 270.216 126.119 270.52C126.423 270.824 126.575 271.184 126.575 271.6C126.575 272.016 126.423 272.376 126.119 272.68C125.815 272.984 125.455 273.136 125.039 273.136C124.623 273.136 124.263 272.984 123.959 272.68C123.655 272.376 123.503 272.016 123.503 271.6ZM138.847 278.128V264.088H138.559L135.799 270.4H133.807V270.256L136.951 263.2H140.863V278.128H145.615V280H134.095V278.128H138.847ZM153.542 278.128V264.088H153.254L150.494 270.4H148.502V270.256L151.646 263.2H155.558V278.128H160.31V280H148.79V278.128H153.542ZM163.221 269.728C163.221 267.552 163.741 265.864 164.781 264.664C165.821 263.464 167.269 262.864 169.125 262.864C170.981 262.864 172.429 263.464 173.469 264.664C174.509 265.864 175.029 267.552 175.029 269.728V273.472C175.029 275.712 174.509 277.416 173.469 278.584C172.429 279.752 170.981 280.336 169.125 280.336C167.269 280.336 165.821 279.752 164.781 278.584C163.741 277.416 163.221 275.712 163.221 273.472V269.728ZM169.125 278.512C170.421 278.512 171.389 278.064 172.029 277.168C172.685 276.256 173.013 274.976 173.013 273.328V269.872C173.013 269.104 172.933 268.408 172.773 267.784C172.613 267.144 172.365 266.6 172.029 266.152C171.709 265.688 171.301 265.328 170.805 265.072C170.325 264.816 169.765 264.688 169.125 264.688C168.469 264.688 167.901 264.816 167.421 265.072C166.941 265.328 166.533 265.688 166.197 266.152C165.877 266.6 165.637 267.144 165.477 267.784C165.317 268.408 165.237 269.104 165.237 269.872V273.328C165.237 274.976 165.557 276.256 166.197 277.168C166.853 278.064 167.829 278.512 169.125 278.512ZM167.589 271.6C167.589 271.184 167.741 270.824 168.045 270.52C168.349 270.216 168.709 270.064 169.125 270.064C169.541 270.064 169.901 270.216 170.205 270.52C170.509 270.824 170.661 271.184 170.661 271.6C170.661 272.016 170.509 272.376 170.205 272.68C169.901 272.984 169.541 273.136 169.125 273.136C168.709 273.136 168.349 272.984 168.045 272.68C167.741 272.376 167.589 272.016 167.589 271.6ZM177.917 269.728C177.917 267.552 178.437 265.864 179.477 264.664C180.517 263.464 181.965 262.864 183.821 262.864C185.677 262.864 187.125 263.464 188.165 264.664C189.205 265.864 189.725 267.552 189.725 269.728V273.472C189.725 275.712 189.205 277.416 188.165 278.584C187.125 279.752 185.677 280.336 183.821 280.336C181.965 280.336 180.517 279.752 179.477 278.584C178.437 277.416 177.917 275.712 177.917 273.472V269.728ZM183.821 278.512C185.117 278.512 186.085 278.064 186.725 277.168C187.381 276.256 187.709 274.976 187.709 273.328V269.872C187.709 269.104 187.629 268.408 187.469 267.784C187.309 267.144 187.061 266.6 186.725 266.152C186.405 265.688 185.997 265.328 185.501 265.072C185.021 264.816 184.461 264.688 183.821 264.688C183.165 264.688 182.597 264.816 182.117 265.072C181.637 265.328 181.229 265.688 180.893 266.152C180.573 266.6 180.333 267.144 180.173 267.784C180.013 268.408 179.933 269.104 179.933 269.872V273.328C179.933 274.976 180.253 276.256 180.893 277.168C181.549 278.064 182.525 278.512 183.821 278.512ZM182.285 271.6C182.285 271.184 182.437 270.824 182.741 270.52C183.045 270.216 183.405 270.064 183.821 270.064C184.237 270.064 184.597 270.216 184.901 270.52C185.205 270.824 185.357 271.184 185.357 271.6C185.357 272.016 185.205 272.376 184.901 272.68C184.597 272.984 184.237 273.136 183.821 273.136C183.405 273.136 183.045 272.984 182.741 272.68C182.437 272.376 182.285 272.016 182.285 271.6ZM192.612 269.728C192.612 267.552 193.132 265.864 194.172 264.664C195.212 263.464 196.66 262.864 198.516 262.864C200.372 262.864 201.82 263.464 202.86 264.664C203.9 265.864 204.42 267.552 204.42 269.728V273.472C204.42 275.712 203.9 277.416 202.86 278.584C201.82 279.752 200.372 280.336 198.516 280.336C196.66 280.336 195.212 279.752 194.172 278.584C193.132 277.416 192.612 275.712 192.612 273.472V269.728ZM198.516 278.512C199.812 278.512 200.78 278.064 201.42 277.168C202.076 276.256 202.404 274.976 202.404 273.328V269.872C202.404 269.104 202.324 268.408 202.164 267.784C202.004 267.144 201.756 266.6 201.42 266.152C201.1 265.688 200.692 265.328 200.196 265.072C199.716 264.816 199.156 264.688 198.516 264.688C197.86 264.688 197.292 264.816 196.812 265.072C196.332 265.328 195.924 265.688 195.588 266.152C195.268 266.6 195.028 267.144 194.868 267.784C194.708 268.408 194.628 269.104 194.628 269.872V273.328C194.628 274.976 194.948 276.256 195.588 277.168C196.244 278.064 197.22 278.512 198.516 278.512ZM196.98 271.6C196.98 271.184 197.132 270.824 197.436 270.52C197.74 270.216 198.1 270.064 198.516 270.064C198.932 270.064 199.292 270.216 199.596 270.52C199.9 270.824 200.052 271.184 200.052 271.6C200.052 272.016 199.9 272.376 199.596 272.68C199.292 272.984 198.932 273.136 198.516 273.136C198.1 273.136 197.74 272.984 197.436 272.68C197.132 272.376 196.98 272.016 196.98 271.6ZM207.307 269.728C207.307 267.552 207.827 265.864 208.867 264.664C209.907 263.464 211.355 262.864 213.211 262.864C215.067 262.864 216.515 263.464 217.555 264.664C218.595 265.864 219.115 267.552 219.115 269.728V273.472C219.115 275.712 218.595 277.416 217.555 278.584C216.515 279.752 215.067 280.336 213.211 280.336C211.355 280.336 209.907 279.752 208.867 278.584C207.827 277.416 207.307 275.712 207.307 273.472V269.728ZM213.211 278.512C214.507 278.512 215.475 278.064 216.115 277.168C216.771 276.256 217.099 274.976 217.099 273.328V269.872C217.099 269.104 217.019 268.408 216.859 267.784C216.699 267.144 216.451 266.6 216.115 266.152C215.795 265.688 215.387 265.328 214.891 265.072C214.411 264.816 213.851 264.688 213.211 264.688C212.555 264.688 211.987 264.816 211.507 265.072C211.027 265.328 210.619 265.688 210.283 266.152C209.963 266.6 209.723 267.144 209.563 267.784C209.403 268.408 209.323 269.104 209.323 269.872V273.328C209.323 274.976 209.643 276.256 210.283 277.168C210.939 278.064 211.915 278.512 213.211 278.512ZM211.675 271.6C211.675 271.184 211.827 270.824 212.131 270.52C212.435 270.216 212.795 270.064 213.211 270.064C213.627 270.064 213.987 270.216 214.291 270.52C214.595 270.824 214.747 271.184 214.747 271.6C214.747 272.016 214.595 272.376 214.291 272.68C213.987 272.984 213.627 273.136 213.211 273.136C212.795 273.136 212.435 272.984 212.131 272.68C211.827 272.376 211.675 272.016 211.675 271.6ZM104.44 305.728C104.44 303.552 104.96 301.864 106 300.664C107.04 299.464 108.488 298.864 110.344 298.864C112.2 298.864 113.648 299.464 114.688 300.664C115.728 301.864 116.248 303.552 116.248 305.728V309.472C116.248 311.712 115.728 313.416 114.688 314.584C113.648 315.752 112.2 316.336 110.344 316.336C108.488 316.336 107.04 315.752 106 314.584C104.96 313.416 104.44 311.712 104.44 309.472V305.728ZM110.344 314.512C111.64 314.512 112.608 314.064 113.248 313.168C113.904 312.256 114.232 310.976 114.232 309.328V305.872C114.232 305.104 114.152 304.408 113.992 303.784C113.832 303.144 113.584 302.6 113.248 302.152C112.928 301.688 112.52 301.328 112.024 301.072C111.544 300.816 110.984 300.688 110.344 300.688C109.688 300.688 109.12 300.816 108.64 301.072C108.16 301.328 107.752 301.688 107.416 302.152C107.096 302.6 106.856 303.144 106.696 303.784C106.536 304.408 106.456 305.104 106.456 305.872V309.328C106.456 310.976 106.776 312.256 107.416 313.168C108.072 314.064 109.048 314.512 110.344 314.512ZM108.808 307.6C108.808 307.184 108.96 306.824 109.264 306.52C109.568 306.216 109.928 306.064 110.344 306.064C110.76 306.064 111.12 306.216 111.424 306.52C111.728 306.824 111.88 307.184 111.88 307.6C111.88 308.016 111.728 308.376 111.424 308.68C111.12 308.984 110.76 309.136 110.344 309.136C109.928 309.136 109.568 308.984 109.264 308.68C108.96 308.376 108.808 308.016 108.808 307.6ZM119.135 305.728C119.135 303.552 119.655 301.864 120.695 300.664C121.735 299.464 123.183 298.864 125.039 298.864C126.895 298.864 128.343 299.464 129.383 300.664C130.423 301.864 130.943 303.552 130.943 305.728V309.472C130.943 311.712 130.423 313.416 129.383 314.584C128.343 315.752 126.895 316.336 125.039 316.336C123.183 316.336 121.735 315.752 120.695 314.584C119.655 313.416 119.135 311.712 119.135 309.472V305.728ZM125.039 314.512C126.335 314.512 127.303 314.064 127.943 313.168C128.599 312.256 128.927 310.976 128.927 309.328V305.872C128.927 305.104 128.847 304.408 128.687 303.784C128.527 303.144 128.279 302.6 127.943 302.152C127.623 301.688 127.215 301.328 126.719 301.072C126.239 300.816 125.679 300.688 125.039 300.688C124.383 300.688 123.815 300.816 123.335 301.072C122.855 301.328 122.447 301.688 122.111 302.152C121.791 302.6 121.551 303.144 121.391 303.784C121.231 304.408 121.151 305.104 121.151 305.872V309.328C121.151 310.976 121.471 312.256 122.111 313.168C122.767 314.064 123.743 314.512 125.039 314.512ZM123.503 307.6C123.503 307.184 123.655 306.824 123.959 306.52C124.263 306.216 124.623 306.064 125.039 306.064C125.455 306.064 125.815 306.216 126.119 306.52C126.423 306.824 126.575 307.184 126.575 307.6C126.575 308.016 126.423 308.376 126.119 308.68C125.815 308.984 125.455 309.136 125.039 309.136C124.623 309.136 124.263 308.984 123.959 308.68C123.655 308.376 123.503 308.016 123.503 307.6ZM138.847 314.128V300.088H138.559L135.799 306.4H133.807V306.256L136.951 299.2H140.863V314.128H145.615V316H134.095V314.128H138.847ZM153.542 314.128V300.088H153.254L150.494 306.4H148.502V306.256L151.646 299.2H155.558V314.128H160.31V316H148.79V314.128H153.542ZM163.221 305.728C163.221 303.552 163.741 301.864 164.781 300.664C165.821 299.464 167.269 298.864 169.125 298.864C170.981 298.864 172.429 299.464 173.469 300.664C174.509 301.864 175.029 303.552 175.029 305.728V309.472C175.029 311.712 174.509 313.416 173.469 314.584C172.429 315.752 170.981 316.336 169.125 316.336C167.269 316.336 165.821 315.752 164.781 314.584C163.741 313.416 163.221 311.712 163.221 309.472V305.728ZM169.125 314.512C170.421 314.512 171.389 314.064 172.029 313.168C172.685 312.256 173.013 310.976 173.013 309.328V305.872C173.013 305.104 172.933 304.408 172.773 303.784C172.613 303.144 172.365 302.6 172.029 302.152C171.709 301.688 171.301 301.328 170.805 301.072C170.325 300.816 169.765 300.688 169.125 300.688C168.469 300.688 167.901 300.816 167.421 301.072C166.941 301.328 166.533 301.688 166.197 302.152C165.877 302.6 165.637 303.144 165.477 303.784C165.317 304.408 165.237 305.104 165.237 305.872V309.328C165.237 310.976 165.557 312.256 166.197 313.168C166.853 314.064 167.829 314.512 169.125 314.512ZM167.589 307.6C167.589 307.184 167.741 306.824 168.045 306.52C168.349 306.216 168.709 306.064 169.125 306.064C169.541 306.064 169.901 306.216 170.205 306.52C170.509 306.824 170.661 307.184 170.661 307.6C170.661 308.016 170.509 308.376 170.205 308.68C169.901 308.984 169.541 309.136 169.125 309.136C168.709 309.136 168.349 308.984 168.045 308.68C167.741 308.376 167.589 308.016 167.589 307.6ZM177.917 305.728C177.917 303.552 178.437 301.864 179.477 300.664C180.517 299.464 181.965 298.864 183.821 298.864C185.677 298.864 187.125 299.464 188.165 300.664C189.205 301.864 189.725 303.552 189.725 305.728V309.472C189.725 311.712 189.205 313.416 188.165 314.584C187.125 315.752 185.677 316.336 183.821 316.336C181.965 316.336 180.517 315.752 179.477 314.584C178.437 313.416 177.917 311.712 177.917 309.472V305.728ZM183.821 314.512C185.117 314.512 186.085 314.064 186.725 313.168C187.381 312.256 187.709 310.976 187.709 309.328V305.872C187.709 305.104 187.629 304.408 187.469 303.784C187.309 303.144 187.061 302.6 186.725 302.152C186.405 301.688 185.997 301.328 185.501 301.072C185.021 300.816 184.461 300.688 183.821 300.688C183.165 300.688 182.597 300.816 182.117 301.072C181.637 301.328 181.229 301.688 180.893 302.152C180.573 302.6 180.333 303.144 180.173 303.784C180.013 304.408 179.933 305.104 179.933 305.872V309.328C179.933 310.976 180.253 312.256 180.893 313.168C181.549 314.064 182.525 314.512 183.821 314.512ZM182.285 307.6C182.285 307.184 182.437 306.824 182.741 306.52C183.045 306.216 183.405 306.064 183.821 306.064C184.237 306.064 184.597 306.216 184.901 306.52C185.205 306.824 185.357 307.184 185.357 307.6C185.357 308.016 185.205 308.376 184.901 308.68C184.597 308.984 184.237 309.136 183.821 309.136C183.405 309.136 183.045 308.984 182.741 308.68C182.437 308.376 182.285 308.016 182.285 307.6ZM192.612 305.728C192.612 303.552 193.132 301.864 194.172 300.664C195.212 299.464 196.66 298.864 198.516 298.864C200.372 298.864 201.82 299.464 202.86 300.664C203.9 301.864 204.42 303.552 204.42 305.728V309.472C204.42 311.712 203.9 313.416 202.86 314.584C201.82 315.752 200.372 316.336 198.516 316.336C196.66 316.336 195.212 315.752 194.172 314.584C193.132 313.416 192.612 311.712 192.612 309.472V305.728ZM198.516 314.512C199.812 314.512 200.78 314.064 201.42 313.168C202.076 312.256 202.404 310.976 202.404 309.328V305.872C202.404 305.104 202.324 304.408 202.164 303.784C202.004 303.144 201.756 302.6 201.42 302.152C201.1 301.688 200.692 301.328 200.196 301.072C199.716 300.816 199.156 300.688 198.516 300.688C197.86 300.688 197.292 300.816 196.812 301.072C196.332 301.328 195.924 301.688 195.588 302.152C195.268 302.6 195.028 303.144 194.868 303.784C194.708 304.408 194.628 305.104 194.628 305.872V309.328C194.628 310.976 194.948 312.256 195.588 313.168C196.244 314.064 197.22 314.512 198.516 314.512ZM196.98 307.6C196.98 307.184 197.132 306.824 197.436 306.52C197.74 306.216 198.1 306.064 198.516 306.064C198.932 306.064 199.292 306.216 199.596 306.52C199.9 306.824 200.052 307.184 200.052 307.6C200.052 308.016 199.9 308.376 199.596 308.68C199.292 308.984 198.932 309.136 198.516 309.136C198.1 309.136 197.74 308.984 197.436 308.68C197.132 308.376 196.98 308.016 196.98 307.6ZM207.307 305.728C207.307 303.552 207.827 301.864 208.867 300.664C209.907 299.464 211.355 298.864 213.211 298.864C215.067 298.864 216.515 299.464 217.555 300.664C218.595 301.864 219.115 303.552 219.115 305.728V309.472C219.115 311.712 218.595 313.416 217.555 314.584C216.515 315.752 215.067 316.336 213.211 316.336C211.355 316.336 209.907 315.752 208.867 314.584C207.827 313.416 207.307 311.712 207.307 309.472V305.728ZM213.211 314.512C214.507 314.512 215.475 314.064 216.115 313.168C216.771 312.256 217.099 310.976 217.099 309.328V305.872C217.099 305.104 217.019 304.408 216.859 303.784C216.699 303.144 216.451 302.6 216.115 302.152C215.795 301.688 215.387 301.328 214.891 301.072C214.411 300.816 213.851 300.688 213.211 300.688C212.555 300.688 211.987 300.816 211.507 301.072C211.027 301.328 210.619 301.688 210.283 302.152C209.963 302.6 209.723 303.144 209.563 303.784C209.403 304.408 209.323 305.104 209.323 305.872V309.328C209.323 310.976 209.643 312.256 210.283 313.168C210.939 314.064 211.915 314.512 213.211 314.512ZM211.675 307.6C211.675 307.184 211.827 306.824 212.131 306.52C212.435 306.216 212.795 306.064 213.211 306.064C213.627 306.064 213.987 306.216 214.291 306.52C214.595 306.824 214.747 307.184 214.747 307.6C214.747 308.016 214.595 308.376 214.291 308.68C213.987 308.984 213.627 309.136 213.211 309.136C212.795 309.136 212.435 308.984 212.131 308.68C211.827 308.376 211.675 308.016 211.675 307.6Z" fill="white"/>
<path d="M469.328 199.736H473.48V195.584H475.208V199.736H479.36V201.464H475.208V205.616H473.48V201.464H469.328V199.736ZM504.407 194.408C504.967 194.504 505.471 194.672 505.919 194.912C506.383 195.136 506.775 195.416 507.095 195.752C507.415 196.088 507.663 196.464 507.839 196.88C508.015 197.28 508.103 197.704 508.103 198.152V198.584H506.279V198.296C506.279 197.768 506.103 197.32 505.751 196.952C505.415 196.584 504.967 196.328 504.407 196.184V199.616C505.735 199.776 506.743 200.144 507.431 200.72C508.135 201.28 508.487 202.056 508.487 203.048V203.192C508.487 204.264 508.111 205.128 507.359 205.784C506.623 206.424 505.639 206.784 504.407 206.864V208.328H502.679V206.816C501.975 206.704 501.367 206.512 500.855 206.24C500.359 205.952 499.943 205.616 499.607 205.232C499.287 204.832 499.047 204.408 498.887 203.96C498.727 203.496 498.647 203.032 498.647 202.568V201.992H500.471V202.28C500.471 203.048 500.663 203.664 501.047 204.128C501.431 204.592 501.975 204.904 502.679 205.064V201.152C501.479 200.992 500.559 200.648 499.919 200.12C499.295 199.576 498.983 198.824 498.983 197.864V197.72C498.983 197.208 499.079 196.76 499.271 196.376C499.479 195.976 499.751 195.64 500.087 195.368C500.423 195.08 500.815 194.856 501.263 194.696C501.711 194.52 502.183 194.408 502.679 194.36V192.872H504.407V194.408ZM506.615 203.192C506.615 202.632 506.439 202.216 506.087 201.944C505.735 201.672 505.175 201.472 504.407 201.344V205.136C505.095 205.056 505.631 204.848 506.015 204.512C506.415 204.176 506.615 203.736 506.615 203.192ZM500.855 197.72C500.855 198.168 500.983 198.536 501.239 198.824C501.511 199.096 501.991 199.296 502.679 199.424V196.088C502.167 196.168 501.735 196.344 501.383 196.616C501.031 196.888 500.855 197.256 500.855 197.72ZM517.542 207.128V193.088H517.254L514.494 199.4H512.502V199.256L515.646 192.2H519.558V207.128H524.31V209H512.79V207.128H517.542ZM538.837 207.128V209H527.461V206.12C527.461 205.352 527.589 204.688 527.845 204.128C528.101 203.552 528.461 203.064 528.925 202.664C529.405 202.248 529.981 201.904 530.653 201.632C531.325 201.36 532.085 201.128 532.933 200.936C534.357 200.616 535.381 200.16 536.005 199.568C536.645 198.976 536.965 198.248 536.965 197.384V197.24C536.965 196.808 536.893 196.384 536.749 195.968C536.605 195.552 536.381 195.176 536.077 194.84C535.773 194.504 535.381 194.24 534.901 194.048C534.437 193.84 533.877 193.736 533.221 193.736C531.989 193.736 531.029 194.112 530.341 194.864C529.669 195.616 529.333 196.616 529.333 197.864V198.92H527.317V197.72C527.317 196.952 527.445 196.216 527.701 195.512C527.957 194.808 528.333 194.184 528.829 193.64C529.325 193.096 529.941 192.664 530.677 192.344C531.413 192.024 532.261 191.864 533.221 191.864C534.197 191.864 535.045 192.016 535.765 192.32C536.485 192.608 537.085 193 537.565 193.496C538.045 193.976 538.397 194.528 538.621 195.152C538.861 195.76 538.981 196.384 538.981 197.024V197.456C538.981 198.736 538.581 199.832 537.781 200.744C536.981 201.64 535.701 202.28 533.941 202.664C532.405 203 531.277 203.448 530.557 204.008C529.837 204.552 529.477 205.352 529.477 206.408V207.128H538.837ZM546.141 207.656C546.141 207.192 546.301 206.8 546.621 206.48C546.957 206.144 547.357 205.976 547.821 205.976C548.285 205.976 548.677 206.144 548.997 206.48C549.333 206.8 549.501 207.192 549.501 207.656V210.008C549.501 210.552 549.325 211 548.973 211.352C548.637 211.704 548.197 211.88 547.653 211.88H546.429V210.584H547.557C547.989 210.584 548.205 210.344 548.205 209.864V209.264C548.077 209.312 547.941 209.336 547.797 209.336C547.349 209.336 546.957 209.176 546.621 208.856C546.301 208.52 546.141 208.12 546.141 207.656ZM556.612 198.728C556.612 196.552 557.132 194.864 558.172 193.664C559.212 192.464 560.66 191.864 562.516 191.864C564.372 191.864 565.82 192.464 566.86 193.664C567.9 194.864 568.42 196.552 568.42 198.728V202.472C568.42 204.712 567.9 206.416 566.86 207.584C565.82 208.752 564.372 209.336 562.516 209.336C560.66 209.336 559.212 208.752 558.172 207.584C557.132 206.416 556.612 204.712 556.612 202.472V198.728ZM562.516 207.512C563.812 207.512 564.78 207.064 565.42 206.168C566.076 205.256 566.404 203.976 566.404 202.328V198.872C566.404 198.104 566.324 197.408 566.164 196.784C566.004 196.144 565.756 195.6 565.42 195.152C565.1 194.688 564.692 194.328 564.196 194.072C563.716 193.816 563.156 193.688 562.516 193.688C561.86 193.688 561.292 193.816 560.812 194.072C560.332 194.328 559.924 194.688 559.588 195.152C559.268 195.6 559.028 196.144 558.868 196.784C558.708 197.408 558.628 198.104 558.628 198.872V202.328C558.628 203.976 558.948 205.256 559.588 206.168C560.244 207.064 561.22 207.512 562.516 207.512ZM560.98 200.6C560.98 200.184 561.132 199.824 561.436 199.52C561.74 199.216 562.1 199.064 562.516 199.064C562.932 199.064 563.292 199.216 563.596 199.52C563.9 199.824 564.052 200.184 564.052 200.6C564.052 201.016 563.9 201.376 563.596 201.68C563.292 201.984 562.932 202.136 562.516 202.136C562.1 202.136 561.74 201.984 561.436 201.68C561.132 201.376 560.98 201.016 560.98 200.6ZM571.307 198.728C571.307 196.552 571.827 194.864 572.867 193.664C573.907 192.464 575.355 191.864 577.211 191.864C579.067 191.864 580.515 192.464 581.555 193.664C582.595 194.864 583.115 196.552 583.115 198.728V202.472C583.115 204.712 582.595 206.416 581.555 207.584C580.515 208.752 579.067 209.336 577.211 209.336C575.355 209.336 573.907 208.752 572.867 207.584C571.827 206.416 571.307 204.712 571.307 202.472V198.728ZM577.211 207.512C578.507 207.512 579.475 207.064 580.115 206.168C580.771 205.256 581.099 203.976 581.099 202.328V198.872C581.099 198.104 581.019 197.408 580.859 196.784C580.699 196.144 580.451 195.6 580.115 195.152C579.795 194.688 579.387 194.328 578.891 194.072C578.411 193.816 577.851 193.688 577.211 193.688C576.555 193.688 575.987 193.816 575.507 194.072C575.027 194.328 574.619 194.688 574.283 195.152C573.963 195.6 573.723 196.144 573.563 196.784C573.403 197.408 573.323 198.104 573.323 198.872V202.328C573.323 203.976 573.643 205.256 574.283 206.168C574.939 207.064 575.915 207.512 577.211 207.512ZM575.675 200.6C575.675 200.184 575.827 199.824 576.131 199.52C576.435 199.216 576.795 199.064 577.211 199.064C577.627 199.064 577.987 199.216 578.291 199.52C578.595 199.824 578.747 200.184 578.747 200.6C578.747 201.016 578.595 201.376 578.291 201.68C577.987 201.984 577.627 202.136 577.211 202.136C576.795 202.136 576.435 201.984 576.131 201.68C575.827 201.376 575.675 201.016 575.675 200.6ZM586.003 198.728C586.003 196.552 586.523 194.864 587.562 193.664C588.603 192.464 590.051 191.864 591.907 191.864C593.763 191.864 595.211 192.464 596.251 193.664C597.291 194.864 597.811 196.552 597.811 198.728V202.472C597.811 204.712 597.291 206.416 596.251 207.584C595.211 208.752 593.763 209.336 591.907 209.336C590.051 209.336 588.603 208.752 587.562 207.584C586.523 206.416 586.003 204.712 586.003 202.472V198.728ZM591.907 207.512C593.203 207.512 594.171 207.064 594.811 206.168C595.467 205.256 595.795 203.976 595.795 202.328V198.872C595.795 198.104 595.715 197.408 595.555 196.784C595.395 196.144 595.147 195.6 594.811 195.152C594.491 194.688 594.083 194.328 593.587 194.072C593.107 193.816 592.547 193.688 591.907 193.688C591.251 193.688 590.683 193.816 590.203 194.072C589.723 194.328 589.315 194.688 588.979 195.152C588.659 195.6 588.419 196.144 588.259 196.784C588.099 197.408 588.019 198.104 588.019 198.872V202.328C588.019 203.976 588.339 205.256 588.979 206.168C589.635 207.064 590.611 207.512 591.907 207.512ZM590.371 200.6C590.371 200.184 590.523 199.824 590.827 199.52C591.131 199.216 591.491 199.064 591.907 199.064C592.323 199.064 592.683 199.216 592.987 199.52C593.291 199.824 593.443 200.184 593.443 200.6C593.443 201.016 593.291 201.376 592.987 201.68C592.683 201.984 592.323 202.136 591.907 202.136C591.491 202.136 591.131 201.984 590.827 201.68C590.523 201.376 590.371 201.016 590.371 200.6Z" fill="white"/>
<path d="M397.707 199.707C398.098 199.317 398.098 198.683 397.707 198.293L391.343 191.929C390.953 191.538 390.319 191.538 389.929 191.929C389.538 192.319 389.538 192.953 389.929 193.343L395.586 199L389.929 204.657C389.538 205.047 389.538 205.681 389.929 206.071C390.319 206.462 390.953 206.462 391.343 206.071L397.707 199.707ZM291 200H397V198H291V200Z" fill="white"/>
</g>
<defs>
<clipPath id="clip0_1_223">
<rect width="1200" height="630" fill="white"/>
</clipPath>
</defs>
</svg>
