<svg width="1200" height="630" viewBox="0 0 1200 630" fill="none" xmlns="http://www.w3.org/2000/svg">
<g clip-path="url(#clip0_1_211)">
<rect width="1200" height="630" fill="black"/>
<line x1="-0.232417" y1="629.557" x2="1199.77" y2="-0.442697" stroke="white"/>
<path d="M58 354.805L103.833 277.362L114.897 315.293L152.828 233.109L170.213 267.879L227.109 155.667L288.747 315.293L318.776 215.724L340.902 252.075L388.316 130.379L419.925 204.661L440.471 147.764L487.885 215.724L514.753 103.511L554.264 155.667L608 64" stroke="white"/>
<path d="M137.328 135.736H141.48V131.584H143.208V135.736H147.36V137.464H143.208V141.616H141.48V137.464H137.328V135.736ZM172.407 130.408C172.967 130.504 173.471 130.672 173.919 130.912C174.383 131.136 174.775 131.416 175.095 131.752C175.415 132.088 175.663 132.464 175.839 132.88C176.015 133.28 176.103 133.704 176.103 134.152V134.584H174.279V134.296C174.279 133.768 174.103 133.32 173.751 132.952C173.415 132.584 172.967 132.328 172.407 132.184V135.616C173.735 135.776 174.743 136.144 175.431 136.72C176.135 137.28 176.487 138.056 176.487 139.048V139.192C176.487 140.264 176.111 141.128 175.359 141.784C174.623 142.424 173.639 142.784 172.407 142.864V144.328H170.679V142.816C169.975 142.704 169.367 142.512 168.855 142.24C168.359 141.952 167.943 141.616 167.607 141.232C167.287 140.832 167.047 140.408 166.887 139.96C166.727 139.496 166.647 139.032 166.647 138.568V137.992H168.471V138.28C168.471 139.048 168.663 139.664 169.047 140.128C169.431 140.592 169.975 140.904 170.679 141.064V137.152C169.479 136.992 168.559 136.648 167.919 136.12C167.295 135.576 166.983 134.824 166.983 133.864V133.72C166.983 133.208 167.079 132.76 167.271 132.376C167.479 131.976 167.751 131.64 168.087 131.368C168.423 131.08 168.815 130.856 169.263 130.696C169.711 130.52 170.183 130.408 170.679 130.36V128.872H172.407V130.408ZM174.615 139.192C174.615 138.632 174.439 138.216 174.087 137.944C173.735 137.672 173.175 137.472 172.407 137.344V141.136C173.095 141.056 173.631 140.848 174.015 140.512C174.415 140.176 174.615 139.736 174.615 139.192ZM168.855 133.72C168.855 134.168 168.983 134.536 169.239 134.824C169.511 135.096 169.991 135.296 170.679 135.424V132.088C170.167 132.168 169.735 132.344 169.383 132.616C169.031 132.888 168.855 133.256 168.855 133.72ZM184.774 136.648V133.864L190.246 130.36V130.072H180.742V128.2H191.974V131.272L186.502 134.776V135.064H187.462C188.102 135.064 188.718 135.168 189.31 135.376C189.902 135.584 190.422 135.888 190.87 136.288C191.334 136.688 191.702 137.184 191.974 137.776C192.262 138.352 192.406 139.024 192.406 139.792V140.224C192.406 140.944 192.262 141.616 191.974 142.24C191.686 142.864 191.286 143.408 190.774 143.872C190.262 144.32 189.654 144.68 188.95 144.952C188.262 145.208 187.51 145.336 186.694 145.336C185.75 145.336 184.902 145.192 184.15 144.904C183.398 144.616 182.758 144.224 182.23 143.728C181.702 143.216 181.294 142.624 181.006 141.952C180.734 141.264 180.598 140.536 180.598 139.768V138.472H182.614V139.624C182.614 140.232 182.71 140.776 182.902 141.256C183.11 141.72 183.39 142.12 183.742 142.456C184.11 142.776 184.542 143.024 185.038 143.2C185.534 143.376 186.07 143.464 186.646 143.464C187.174 143.464 187.662 143.376 188.11 143.2C188.574 143.024 188.974 142.784 189.31 142.48C189.646 142.16 189.91 141.792 190.102 141.376C190.294 140.944 190.39 140.488 190.39 140.008V139.864C190.39 138.856 190.07 138.072 189.43 137.512C188.79 136.936 187.99 136.648 187.03 136.648H184.774ZM199.445 143.656C199.445 143.192 199.605 142.8 199.925 142.48C200.261 142.144 200.661 141.976 201.125 141.976C201.589 141.976 201.981 142.144 202.301 142.48C202.637 142.8 202.805 143.192 202.805 143.656V146.008C202.805 146.552 202.629 147 202.277 147.352C201.941 147.704 201.501 147.88 200.957 147.88H199.733V146.584H200.861C201.293 146.584 201.509 146.344 201.509 145.864V145.264C201.381 145.312 201.245 145.336 201.101 145.336C200.653 145.336 200.261 145.176 199.925 144.856C199.605 144.52 199.445 144.12 199.445 143.656ZM209.917 134.728C209.917 132.552 210.437 130.864 211.477 129.664C212.517 128.464 213.965 127.864 215.821 127.864C217.677 127.864 219.125 128.464 220.165 129.664C221.205 130.864 221.725 132.552 221.725 134.728V138.472C221.725 140.712 221.205 142.416 220.165 143.584C219.125 144.752 217.677 145.336 215.821 145.336C213.965 145.336 212.517 144.752 211.477 143.584C210.437 142.416 209.917 140.712 209.917 138.472V134.728ZM215.821 143.512C217.117 143.512 218.085 143.064 218.725 142.168C219.381 141.256 219.709 139.976 219.709 138.328V134.872C219.709 134.104 219.629 133.408 219.469 132.784C219.309 132.144 219.061 131.6 218.725 131.152C218.405 130.688 217.997 130.328 217.501 130.072C217.021 129.816 216.461 129.688 215.821 129.688C215.165 129.688 214.597 129.816 214.117 130.072C213.637 130.328 213.229 130.688 212.893 131.152C212.573 131.6 212.333 132.144 212.173 132.784C212.013 133.408 211.933 134.104 211.933 134.872V138.328C211.933 139.976 212.253 141.256 212.893 142.168C213.549 143.064 214.525 143.512 215.821 143.512ZM214.285 136.6C214.285 136.184 214.437 135.824 214.741 135.52C215.045 135.216 215.405 135.064 215.821 135.064C216.237 135.064 216.597 135.216 216.901 135.52C217.205 135.824 217.357 136.184 217.357 136.6C217.357 137.016 217.205 137.376 216.901 137.68C216.597 137.984 216.237 138.136 215.821 138.136C215.405 138.136 215.045 137.984 214.741 137.68C214.437 137.376 214.285 137.016 214.285 136.6ZM224.612 134.728C224.612 132.552 225.132 130.864 226.172 129.664C227.212 128.464 228.66 127.864 230.516 127.864C232.372 127.864 233.82 128.464 234.86 129.664C235.9 130.864 236.42 132.552 236.42 134.728V138.472C236.42 140.712 235.9 142.416 234.86 143.584C233.82 144.752 232.372 145.336 230.516 145.336C228.66 145.336 227.212 144.752 226.172 143.584C225.132 142.416 224.612 140.712 224.612 138.472V134.728ZM230.516 143.512C231.812 143.512 232.78 143.064 233.42 142.168C234.076 141.256 234.404 139.976 234.404 138.328V134.872C234.404 134.104 234.324 133.408 234.164 132.784C234.004 132.144 233.756 131.6 233.42 131.152C233.1 130.688 232.692 130.328 232.196 130.072C231.716 129.816 231.156 129.688 230.516 129.688C229.86 129.688 229.292 129.816 228.812 130.072C228.332 130.328 227.924 130.688 227.588 131.152C227.268 131.6 227.028 132.144 226.868 132.784C226.708 133.408 226.628 134.104 226.628 134.872V138.328C226.628 139.976 226.948 141.256 227.588 142.168C228.244 143.064 229.22 143.512 230.516 143.512ZM228.98 136.6C228.98 136.184 229.132 135.824 229.436 135.52C229.74 135.216 230.1 135.064 230.516 135.064C230.932 135.064 231.292 135.216 231.596 135.52C231.9 135.824 232.052 136.184 232.052 136.6C232.052 137.016 231.9 137.376 231.596 137.68C231.292 137.984 230.932 138.136 230.516 138.136C230.1 138.136 229.74 137.984 229.436 137.68C229.132 137.376 228.98 137.016 228.98 136.6ZM239.307 134.728C239.307 132.552 239.827 130.864 240.867 129.664C241.907 128.464 243.355 127.864 245.211 127.864C247.067 127.864 248.515 128.464 249.555 129.664C250.595 130.864 251.115 132.552 251.115 134.728V138.472C251.115 140.712 250.595 142.416 249.555 143.584C248.515 144.752 247.067 145.336 245.211 145.336C243.355 145.336 241.907 144.752 240.867 143.584C239.827 142.416 239.307 140.712 239.307 138.472V134.728ZM245.211 143.512C246.507 143.512 247.475 143.064 248.115 142.168C248.771 141.256 249.099 139.976 249.099 138.328V134.872C249.099 134.104 249.019 133.408 248.859 132.784C248.699 132.144 248.451 131.6 248.115 131.152C247.795 130.688 247.387 130.328 246.891 130.072C246.411 129.816 245.851 129.688 245.211 129.688C244.555 129.688 243.987 129.816 243.507 130.072C243.027 130.328 242.619 130.688 242.283 131.152C241.963 131.6 241.723 132.144 241.563 132.784C241.403 133.408 241.323 134.104 241.323 134.872V138.328C241.323 139.976 241.643 141.256 242.283 142.168C242.939 143.064 243.915 143.512 245.211 143.512ZM243.675 136.6C243.675 136.184 243.827 135.824 244.131 135.52C244.435 135.216 244.795 135.064 245.211 135.064C245.627 135.064 245.987 135.216 246.291 135.52C246.595 135.824 246.747 136.184 246.747 136.6C246.747 137.016 246.595 137.376 246.291 137.68C245.987 137.984 245.627 138.136 245.211 138.136C244.795 138.136 244.435 137.984 244.131 137.68C243.827 137.376 243.675 137.016 243.675 136.6Z" fill="white"/>
<path d="M388.328 112.736H392.48V108.584H394.208V112.736H398.36V114.464H394.208V118.616H392.48V114.464H388.328V112.736ZM423.407 107.408C423.967 107.504 424.471 107.672 424.919 107.912C425.383 108.136 425.775 108.416 426.095 108.752C426.415 109.088 426.663 109.464 426.839 109.88C427.015 110.28 427.103 110.704 427.103 111.152V111.584H425.279V111.296C425.279 110.768 425.103 110.32 424.751 109.952C424.415 109.584 423.967 109.328 423.407 109.184V112.616C424.735 112.776 425.743 113.144 426.431 113.72C427.135 114.28 427.487 115.056 427.487 116.048V116.192C427.487 117.264 427.111 118.128 426.359 118.784C425.623 119.424 424.639 119.784 423.407 119.864V121.328H421.679V119.816C420.975 119.704 420.367 119.512 419.855 119.24C419.359 118.952 418.943 118.616 418.607 118.232C418.287 117.832 418.047 117.408 417.887 116.96C417.727 116.496 417.647 116.032 417.647 115.568V114.992H419.471V115.28C419.471 116.048 419.663 116.664 420.047 117.128C420.431 117.592 420.975 117.904 421.679 118.064V114.152C420.479 113.992 419.559 113.648 418.919 113.12C418.295 112.576 417.983 111.824 417.983 110.864V110.72C417.983 110.208 418.079 109.76 418.271 109.376C418.479 108.976 418.751 108.64 419.087 108.368C419.423 108.08 419.815 107.856 420.263 107.696C420.711 107.52 421.183 107.408 421.679 107.36V105.872H423.407V107.408ZM425.615 116.192C425.615 115.632 425.439 115.216 425.087 114.944C424.735 114.672 424.175 114.472 423.407 114.344V118.136C424.095 118.056 424.631 117.848 425.015 117.512C425.415 117.176 425.615 116.736 425.615 116.192ZM419.855 110.72C419.855 111.168 419.983 111.536 420.239 111.824C420.511 112.096 420.991 112.296 421.679 112.424V109.088C421.167 109.168 420.735 109.344 420.383 109.616C420.031 109.888 419.855 110.256 419.855 110.72ZM431.958 114.08V105.2H442.47V107.072H433.926V113.072H434.214C434.374 112.752 434.582 112.448 434.838 112.16C435.094 111.856 435.39 111.592 435.726 111.368C436.078 111.144 436.47 110.968 436.902 110.84C437.334 110.696 437.814 110.624 438.342 110.624C439.11 110.624 439.814 110.752 440.454 111.008C441.11 111.264 441.67 111.624 442.134 112.088C442.598 112.552 442.958 113.112 443.214 113.768C443.486 114.424 443.622 115.152 443.622 115.952V116.384C443.622 117.184 443.494 117.944 443.238 118.664C442.982 119.368 442.606 120 442.11 120.56C441.614 121.104 440.998 121.536 440.262 121.856C439.526 122.176 438.678 122.336 437.718 122.336C436.742 122.336 435.878 122.192 435.126 121.904C434.374 121.616 433.742 121.216 433.23 120.704C432.718 120.192 432.326 119.592 432.054 118.904C431.798 118.2 431.67 117.44 431.67 116.624V115.952H433.686V116.48C433.686 117.808 434.054 118.808 434.79 119.48C435.542 120.136 436.518 120.464 437.718 120.464C438.358 120.464 438.918 120.352 439.398 120.128C439.894 119.888 440.302 119.576 440.622 119.192C440.958 118.792 441.206 118.336 441.366 117.824C441.526 117.296 441.606 116.752 441.606 116.192V116.048C441.606 115.552 441.518 115.088 441.342 114.656C441.182 114.224 440.95 113.848 440.646 113.528C440.358 113.208 439.998 112.96 439.566 112.784C439.15 112.592 438.694 112.496 438.198 112.496C437.862 112.496 437.55 112.544 437.262 112.64C436.99 112.736 436.75 112.864 436.542 113.024C436.334 113.168 436.158 113.336 436.014 113.528C435.886 113.72 435.798 113.904 435.75 114.08H431.958ZM450.445 120.656C450.445 120.192 450.605 119.8 450.925 119.48C451.261 119.144 451.661 118.976 452.125 118.976C452.589 118.976 452.981 119.144 453.301 119.48C453.637 119.8 453.805 120.192 453.805 120.656V123.008C453.805 123.552 453.629 124 453.277 124.352C452.941 124.704 452.501 124.88 451.957 124.88H450.733V123.584H451.861C452.293 123.584 452.509 123.344 452.509 122.864V122.264C452.381 122.312 452.245 122.336 452.101 122.336C451.653 122.336 451.261 122.176 450.925 121.856C450.605 121.52 450.445 121.12 450.445 120.656ZM460.917 111.728C460.917 109.552 461.437 107.864 462.477 106.664C463.517 105.464 464.965 104.864 466.821 104.864C468.677 104.864 470.125 105.464 471.165 106.664C472.205 107.864 472.725 109.552 472.725 111.728V115.472C472.725 117.712 472.205 119.416 471.165 120.584C470.125 121.752 468.677 122.336 466.821 122.336C464.965 122.336 463.517 121.752 462.477 120.584C461.437 119.416 460.917 117.712 460.917 115.472V111.728ZM466.821 120.512C468.117 120.512 469.085 120.064 469.725 119.168C470.381 118.256 470.709 116.976 470.709 115.328V111.872C470.709 111.104 470.629 110.408 470.469 109.784C470.309 109.144 470.061 108.6 469.725 108.152C469.405 107.688 468.997 107.328 468.501 107.072C468.021 106.816 467.461 106.688 466.821 106.688C466.165 106.688 465.597 106.816 465.117 107.072C464.637 107.328 464.229 107.688 463.893 108.152C463.573 108.6 463.333 109.144 463.173 109.784C463.013 110.408 462.933 111.104 462.933 111.872V115.328C462.933 116.976 463.253 118.256 463.893 119.168C464.549 120.064 465.525 120.512 466.821 120.512ZM465.285 113.6C465.285 113.184 465.437 112.824 465.741 112.52C466.045 112.216 466.405 112.064 466.821 112.064C467.237 112.064 467.597 112.216 467.901 112.52C468.205 112.824 468.357 113.184 468.357 113.6C468.357 114.016 468.205 114.376 467.901 114.68C467.597 114.984 467.237 115.136 466.821 115.136C466.405 115.136 466.045 114.984 465.741 114.68C465.437 114.376 465.285 114.016 465.285 113.6ZM475.612 111.728C475.612 109.552 476.132 107.864 477.172 106.664C478.212 105.464 479.66 104.864 481.516 104.864C483.372 104.864 484.82 105.464 485.86 106.664C486.9 107.864 487.42 109.552 487.42 111.728V115.472C487.42 117.712 486.9 119.416 485.86 120.584C484.82 121.752 483.372 122.336 481.516 122.336C479.66 122.336 478.212 121.752 477.172 120.584C476.132 119.416 475.612 117.712 475.612 115.472V111.728ZM481.516 120.512C482.812 120.512 483.78 120.064 484.42 119.168C485.076 118.256 485.404 116.976 485.404 115.328V111.872C485.404 111.104 485.324 110.408 485.164 109.784C485.004 109.144 484.756 108.6 484.42 108.152C484.1 107.688 483.692 107.328 483.196 107.072C482.716 106.816 482.156 106.688 481.516 106.688C480.86 106.688 480.292 106.816 479.812 107.072C479.332 107.328 478.924 107.688 478.588 108.152C478.268 108.6 478.028 109.144 477.868 109.784C477.708 110.408 477.628 111.104 477.628 111.872V115.328C477.628 116.976 477.948 118.256 478.588 119.168C479.244 120.064 480.22 120.512 481.516 120.512ZM479.98 113.6C479.98 113.184 480.132 112.824 480.436 112.52C480.74 112.216 481.1 112.064 481.516 112.064C481.932 112.064 482.292 112.216 482.596 112.52C482.9 112.824 483.052 113.184 483.052 113.6C483.052 114.016 482.9 114.376 482.596 114.68C482.292 114.984 481.932 115.136 481.516 115.136C481.1 115.136 480.74 114.984 480.436 114.68C480.132 114.376 479.98 114.016 479.98 113.6ZM490.307 111.728C490.307 109.552 490.827 107.864 491.867 106.664C492.907 105.464 494.355 104.864 496.211 104.864C498.067 104.864 499.515 105.464 500.555 106.664C501.595 107.864 502.115 109.552 502.115 111.728V115.472C502.115 117.712 501.595 119.416 500.555 120.584C499.515 121.752 498.067 122.336 496.211 122.336C494.355 122.336 492.907 121.752 491.867 120.584C490.827 119.416 490.307 117.712 490.307 115.472V111.728ZM496.211 120.512C497.507 120.512 498.475 120.064 499.115 119.168C499.771 118.256 500.099 116.976 500.099 115.328V111.872C500.099 111.104 500.019 110.408 499.859 109.784C499.699 109.144 499.451 108.6 499.115 108.152C498.795 107.688 498.387 107.328 497.891 107.072C497.411 106.816 496.851 106.688 496.211 106.688C495.555 106.688 494.987 106.816 494.507 107.072C494.027 107.328 493.619 107.688 493.283 108.152C492.963 108.6 492.723 109.144 492.563 109.784C492.403 110.408 492.323 111.104 492.323 111.872V115.328C492.323 116.976 492.643 118.256 493.283 119.168C493.939 120.064 494.915 120.512 496.211 120.512ZM494.675 113.6C494.675 113.184 494.827 112.824 495.131 112.52C495.435 112.216 495.795 112.064 496.211 112.064C496.627 112.064 496.987 112.216 497.291 112.52C497.595 112.824 497.747 113.184 497.747 113.6C497.747 114.016 497.595 114.376 497.291 114.68C496.987 114.984 496.627 115.136 496.211 115.136C495.795 115.136 495.435 114.984 495.131 114.68C494.827 114.376 494.675 114.016 494.675 113.6Z" fill="white"/>
<path d="M492.328 237.736H496.48V233.584H498.208V237.736H502.36V239.464H498.208V243.616H496.48V239.464H492.328V237.736ZM527.407 232.408C527.967 232.504 528.471 232.672 528.919 232.912C529.383 233.136 529.775 233.416 530.095 233.752C530.415 234.088 530.663 234.464 530.839 234.88C531.015 235.28 531.103 235.704 531.103 236.152V236.584H529.279V236.296C529.279 235.768 529.103 235.32 528.751 234.952C528.415 234.584 527.967 234.328 527.407 234.184V237.616C528.735 237.776 529.743 238.144 530.431 238.72C531.135 239.28 531.487 240.056 531.487 241.048V241.192C531.487 242.264 531.111 243.128 530.359 243.784C529.623 244.424 528.639 244.784 527.407 244.864V246.328H525.679V244.816C524.975 244.704 524.367 244.512 523.855 244.24C523.359 243.952 522.943 243.616 522.607 243.232C522.287 242.832 522.047 242.408 521.887 241.96C521.727 241.496 521.647 241.032 521.647 240.568V239.992H523.471V240.28C523.471 241.048 523.663 241.664 524.047 242.128C524.431 242.592 524.975 242.904 525.679 243.064V239.152C524.479 238.992 523.559 238.648 522.919 238.12C522.295 237.576 521.983 236.824 521.983 235.864V235.72C521.983 235.208 522.079 234.76 522.271 234.376C522.479 233.976 522.751 233.64 523.087 233.368C523.423 233.08 523.815 232.856 524.263 232.696C524.711 232.52 525.183 232.408 525.679 232.36V230.872H527.407V232.408ZM529.615 241.192C529.615 240.632 529.439 240.216 529.087 239.944C528.735 239.672 528.175 239.472 527.407 239.344V243.136C528.095 243.056 528.631 242.848 529.015 242.512C529.415 242.176 529.615 241.736 529.615 241.192ZM523.855 235.72C523.855 236.168 523.983 236.536 524.239 236.824C524.511 237.096 524.991 237.296 525.679 237.424V234.088C525.167 234.168 524.735 234.344 524.383 234.616C524.031 234.888 523.855 235.256 523.855 235.72ZM540.542 245.128V231.088H540.254L537.494 237.4H535.502V237.256L538.646 230.2H542.558V245.128H547.31V247H535.79V245.128H540.542ZM554.445 245.656C554.445 245.192 554.605 244.8 554.925 244.48C555.261 244.144 555.661 243.976 556.125 243.976C556.589 243.976 556.981 244.144 557.301 244.48C557.637 244.8 557.805 245.192 557.805 245.656V248.008C557.805 248.552 557.629 249 557.277 249.352C556.941 249.704 556.501 249.88 555.957 249.88H554.733V248.584H555.861C556.293 248.584 556.509 248.344 556.509 247.864V247.264C556.381 247.312 556.245 247.336 556.101 247.336C555.653 247.336 555.261 247.176 554.925 246.856C554.605 246.52 554.445 246.12 554.445 245.656ZM564.917 236.728C564.917 234.552 565.437 232.864 566.477 231.664C567.517 230.464 568.965 229.864 570.821 229.864C572.677 229.864 574.125 230.464 575.165 231.664C576.205 232.864 576.725 234.552 576.725 236.728V240.472C576.725 242.712 576.205 244.416 575.165 245.584C574.125 246.752 572.677 247.336 570.821 247.336C568.965 247.336 567.517 246.752 566.477 245.584C565.437 244.416 564.917 242.712 564.917 240.472V236.728ZM570.821 245.512C572.117 245.512 573.085 245.064 573.725 244.168C574.381 243.256 574.709 241.976 574.709 240.328V236.872C574.709 236.104 574.629 235.408 574.469 234.784C574.309 234.144 574.061 233.6 573.725 233.152C573.405 232.688 572.997 232.328 572.501 232.072C572.021 231.816 571.461 231.688 570.821 231.688C570.165 231.688 569.597 231.816 569.117 232.072C568.637 232.328 568.229 232.688 567.893 233.152C567.573 233.6 567.333 234.144 567.173 234.784C567.013 235.408 566.933 236.104 566.933 236.872V240.328C566.933 241.976 567.253 243.256 567.893 244.168C568.549 245.064 569.525 245.512 570.821 245.512ZM569.285 238.6C569.285 238.184 569.437 237.824 569.741 237.52C570.045 237.216 570.405 237.064 570.821 237.064C571.237 237.064 571.597 237.216 571.901 237.52C572.205 237.824 572.357 238.184 572.357 238.6C572.357 239.016 572.205 239.376 571.901 239.68C571.597 239.984 571.237 240.136 570.821 240.136C570.405 240.136 570.045 239.984 569.741 239.68C569.437 239.376 569.285 239.016 569.285 238.6ZM579.612 236.728C579.612 234.552 580.132 232.864 581.172 231.664C582.212 230.464 583.66 229.864 585.516 229.864C587.372 229.864 588.82 230.464 589.86 231.664C590.9 232.864 591.42 234.552 591.42 236.728V240.472C591.42 242.712 590.9 244.416 589.86 245.584C588.82 246.752 587.372 247.336 585.516 247.336C583.66 247.336 582.212 246.752 581.172 245.584C580.132 244.416 579.612 242.712 579.612 240.472V236.728ZM585.516 245.512C586.812 245.512 587.78 245.064 588.42 244.168C589.076 243.256 589.404 241.976 589.404 240.328V236.872C589.404 236.104 589.324 235.408 589.164 234.784C589.004 234.144 588.756 233.6 588.42 233.152C588.1 232.688 587.692 232.328 587.196 232.072C586.716 231.816 586.156 231.688 585.516 231.688C584.86 231.688 584.292 231.816 583.812 232.072C583.332 232.328 582.924 232.688 582.588 233.152C582.268 233.6 582.028 234.144 581.868 234.784C581.708 235.408 581.628 236.104 581.628 236.872V240.328C581.628 241.976 581.948 243.256 582.588 244.168C583.244 245.064 584.22 245.512 585.516 245.512ZM583.98 238.6C583.98 238.184 584.132 237.824 584.436 237.52C584.74 237.216 585.1 237.064 585.516 237.064C585.932 237.064 586.292 237.216 586.596 237.52C586.9 237.824 587.052 238.184 587.052 238.6C587.052 239.016 586.9 239.376 586.596 239.68C586.292 239.984 585.932 240.136 585.516 240.136C585.1 240.136 584.74 239.984 584.436 239.68C584.132 239.376 583.98 239.016 583.98 238.6ZM594.307 236.728C594.307 234.552 594.827 232.864 595.867 231.664C596.907 230.464 598.355 229.864 600.211 229.864C602.067 229.864 603.515 230.464 604.555 231.664C605.595 232.864 606.115 234.552 606.115 236.728V240.472C606.115 242.712 605.595 244.416 604.555 245.584C603.515 246.752 602.067 247.336 600.211 247.336C598.355 247.336 596.907 246.752 595.867 245.584C594.827 244.416 594.307 242.712 594.307 240.472V236.728ZM600.211 245.512C601.507 245.512 602.475 245.064 603.115 244.168C603.771 243.256 604.099 241.976 604.099 240.328V236.872C604.099 236.104 604.019 235.408 603.859 234.784C603.699 234.144 603.451 233.6 603.115 233.152C602.795 232.688 602.387 232.328 601.891 232.072C601.411 231.816 600.851 231.688 600.211 231.688C599.555 231.688 598.987 231.816 598.507 232.072C598.027 232.328 597.619 232.688 597.283 233.152C596.963 233.6 596.723 234.144 596.563 234.784C596.403 235.408 596.323 236.104 596.323 236.872V240.328C596.323 241.976 596.643 243.256 597.283 244.168C597.939 245.064 598.915 245.512 600.211 245.512ZM598.675 238.6C598.675 238.184 598.827 237.824 599.131 237.52C599.435 237.216 599.795 237.064 600.211 237.064C600.627 237.064 600.987 237.216 601.291 237.52C601.595 237.824 601.747 238.184 601.747 238.6C601.747 239.016 601.595 239.376 601.291 239.68C600.987 239.984 600.627 240.136 600.211 240.136C599.795 240.136 599.435 239.984 599.131 239.68C598.827 239.376 598.675 239.016 598.675 238.6Z" fill="white"/>
<path d="M293.744 337.896H300.944V339.624H293.744V337.896ZM327.407 330.408C327.967 330.504 328.471 330.672 328.919 330.912C329.383 331.136 329.775 331.416 330.095 331.752C330.415 332.088 330.663 332.464 330.839 332.88C331.015 333.28 331.103 333.704 331.103 334.152V334.584H329.279V334.296C329.279 333.768 329.103 333.32 328.751 332.952C328.415 332.584 327.967 332.328 327.407 332.184V335.616C328.735 335.776 329.743 336.144 330.431 336.72C331.135 337.28 331.487 338.056 331.487 339.048V339.192C331.487 340.264 331.111 341.128 330.359 341.784C329.623 342.424 328.639 342.784 327.407 342.864V344.328H325.679V342.816C324.975 342.704 324.367 342.512 323.855 342.24C323.359 341.952 322.943 341.616 322.607 341.232C322.287 340.832 322.047 340.408 321.887 339.96C321.727 339.496 321.647 339.032 321.647 338.568V337.992H323.471V338.28C323.471 339.048 323.663 339.664 324.047 340.128C324.431 340.592 324.975 340.904 325.679 341.064V337.152C324.479 336.992 323.559 336.648 322.919 336.12C322.295 335.576 321.983 334.824 321.983 333.864V333.72C321.983 333.208 322.079 332.76 322.271 332.376C322.479 331.976 322.751 331.64 323.087 331.368C323.423 331.08 323.815 330.856 324.263 330.696C324.711 330.52 325.183 330.408 325.679 330.36V328.872H327.407V330.408ZM329.615 339.192C329.615 338.632 329.439 338.216 329.087 337.944C328.735 337.672 328.175 337.472 327.407 337.344V341.136C328.095 341.056 328.631 340.848 329.015 340.512C329.415 340.176 329.615 339.736 329.615 339.192ZM323.855 333.72C323.855 334.168 323.983 334.536 324.239 334.824C324.511 335.096 324.991 335.296 325.679 335.424V332.088C325.167 332.168 324.735 332.344 324.383 332.616C324.031 332.888 323.855 333.256 323.855 333.72ZM339.774 336.648V333.864L345.246 330.36V330.072H335.742V328.2H346.974V331.272L341.502 334.776V335.064H342.462C343.102 335.064 343.718 335.168 344.31 335.376C344.902 335.584 345.422 335.888 345.87 336.288C346.334 336.688 346.702 337.184 346.974 337.776C347.262 338.352 347.406 339.024 347.406 339.792V340.224C347.406 340.944 347.262 341.616 346.974 342.24C346.686 342.864 346.286 343.408 345.774 343.872C345.262 344.32 344.654 344.68 343.95 344.952C343.262 345.208 342.51 345.336 341.694 345.336C340.75 345.336 339.902 345.192 339.15 344.904C338.398 344.616 337.758 344.224 337.23 343.728C336.702 343.216 336.294 342.624 336.006 341.952C335.734 341.264 335.598 340.536 335.598 339.768V338.472H337.614V339.624C337.614 340.232 337.71 340.776 337.902 341.256C338.11 341.72 338.39 342.12 338.742 342.456C339.11 342.776 339.542 343.024 340.038 343.2C340.534 343.376 341.07 343.464 341.646 343.464C342.174 343.464 342.662 343.376 343.11 343.2C343.574 343.024 343.974 342.784 344.31 342.48C344.646 342.16 344.91 341.792 345.102 341.376C345.294 340.944 345.39 340.488 345.39 340.008V339.864C345.39 338.856 345.07 338.072 344.43 337.512C343.79 336.936 342.99 336.648 342.03 336.648H339.774ZM354.445 343.656C354.445 343.192 354.605 342.8 354.925 342.48C355.261 342.144 355.661 341.976 356.125 341.976C356.589 341.976 356.981 342.144 357.301 342.48C357.637 342.8 357.805 343.192 357.805 343.656V346.008C357.805 346.552 357.629 347 357.277 347.352C356.941 347.704 356.501 347.88 355.957 347.88H354.733V346.584H355.861C356.293 346.584 356.509 346.344 356.509 345.864V345.264C356.381 345.312 356.245 345.336 356.101 345.336C355.653 345.336 355.261 345.176 354.925 344.856C354.605 344.52 354.445 344.12 354.445 343.656ZM364.917 334.728C364.917 332.552 365.437 330.864 366.477 329.664C367.517 328.464 368.965 327.864 370.821 327.864C372.677 327.864 374.125 328.464 375.165 329.664C376.205 330.864 376.725 332.552 376.725 334.728V338.472C376.725 340.712 376.205 342.416 375.165 343.584C374.125 344.752 372.677 345.336 370.821 345.336C368.965 345.336 367.517 344.752 366.477 343.584C365.437 342.416 364.917 340.712 364.917 338.472V334.728ZM370.821 343.512C372.117 343.512 373.085 343.064 373.725 342.168C374.381 341.256 374.709 339.976 374.709 338.328V334.872C374.709 334.104 374.629 333.408 374.469 332.784C374.309 332.144 374.061 331.6 373.725 331.152C373.405 330.688 372.997 330.328 372.501 330.072C372.021 329.816 371.461 329.688 370.821 329.688C370.165 329.688 369.597 329.816 369.117 330.072C368.637 330.328 368.229 330.688 367.893 331.152C367.573 331.6 367.333 332.144 367.173 332.784C367.013 333.408 366.933 334.104 366.933 334.872V338.328C366.933 339.976 367.253 341.256 367.893 342.168C368.549 343.064 369.525 343.512 370.821 343.512ZM369.285 336.6C369.285 336.184 369.437 335.824 369.741 335.52C370.045 335.216 370.405 335.064 370.821 335.064C371.237 335.064 371.597 335.216 371.901 335.52C372.205 335.824 372.357 336.184 372.357 336.6C372.357 337.016 372.205 337.376 371.901 337.68C371.597 337.984 371.237 338.136 370.821 338.136C370.405 338.136 370.045 337.984 369.741 337.68C369.437 337.376 369.285 337.016 369.285 336.6ZM379.612 334.728C379.612 332.552 380.132 330.864 381.172 329.664C382.212 328.464 383.66 327.864 385.516 327.864C387.372 327.864 388.82 328.464 389.86 329.664C390.9 330.864 391.42 332.552 391.42 334.728V338.472C391.42 340.712 390.9 342.416 389.86 343.584C388.82 344.752 387.372 345.336 385.516 345.336C383.66 345.336 382.212 344.752 381.172 343.584C380.132 342.416 379.612 340.712 379.612 338.472V334.728ZM385.516 343.512C386.812 343.512 387.78 343.064 388.42 342.168C389.076 341.256 389.404 339.976 389.404 338.328V334.872C389.404 334.104 389.324 333.408 389.164 332.784C389.004 332.144 388.756 331.6 388.42 331.152C388.1 330.688 387.692 330.328 387.196 330.072C386.716 329.816 386.156 329.688 385.516 329.688C384.86 329.688 384.292 329.816 383.812 330.072C383.332 330.328 382.924 330.688 382.588 331.152C382.268 331.6 382.028 332.144 381.868 332.784C381.708 333.408 381.628 334.104 381.628 334.872V338.328C381.628 339.976 381.948 341.256 382.588 342.168C383.244 343.064 384.22 343.512 385.516 343.512ZM383.98 336.6C383.98 336.184 384.132 335.824 384.436 335.52C384.74 335.216 385.1 335.064 385.516 335.064C385.932 335.064 386.292 335.216 386.596 335.52C386.9 335.824 387.052 336.184 387.052 336.6C387.052 337.016 386.9 337.376 386.596 337.68C386.292 337.984 385.932 338.136 385.516 338.136C385.1 338.136 384.74 337.984 384.436 337.68C384.132 337.376 383.98 337.016 383.98 336.6ZM394.307 334.728C394.307 332.552 394.827 330.864 395.867 329.664C396.907 328.464 398.355 327.864 400.211 327.864C402.067 327.864 403.515 328.464 404.555 329.664C405.595 330.864 406.115 332.552 406.115 334.728V338.472C406.115 340.712 405.595 342.416 404.555 343.584C403.515 344.752 402.067 345.336 400.211 345.336C398.355 345.336 396.907 344.752 395.867 343.584C394.827 342.416 394.307 340.712 394.307 338.472V334.728ZM400.211 343.512C401.507 343.512 402.475 343.064 403.115 342.168C403.771 341.256 404.099 339.976 404.099 338.328V334.872C404.099 334.104 404.019 333.408 403.859 332.784C403.699 332.144 403.451 331.6 403.115 331.152C402.795 330.688 402.387 330.328 401.891 330.072C401.411 329.816 400.851 329.688 400.211 329.688C399.555 329.688 398.987 329.816 398.507 330.072C398.027 330.328 397.619 330.688 397.283 331.152C396.963 331.6 396.723 332.144 396.563 332.784C396.403 333.408 396.323 334.104 396.323 334.872V338.328C396.323 339.976 396.643 341.256 397.283 342.168C397.939 343.064 398.915 343.512 400.211 343.512ZM398.675 336.6C398.675 336.184 398.827 335.824 399.131 335.52C399.435 335.216 399.795 335.064 400.211 335.064C400.627 335.064 400.987 335.216 401.291 335.52C401.595 335.824 401.747 336.184 401.747 336.6C401.747 337.016 401.595 337.376 401.291 337.68C400.987 337.984 400.627 338.136 400.211 338.136C399.795 338.136 399.435 337.984 399.131 337.68C398.827 337.376 398.675 337.016 398.675 336.6Z" fill="white"/>
<path d="M628.211 609H662.661C680.861 609 689.311 602.5 689.311 589.5C689.311 576.5 676.961 573.9 676.961 573.9V573.25C676.961 573.25 687.361 570.65 687.361 559.6C687.361 547.25 678.261 541.4 660.711 541.4H628.211V609ZM660.711 580.4C667.211 580.4 671.111 583 671.111 588.2C671.111 593.4 667.861 596 662.011 596H646.411V580.4H660.711ZM646.411 568.7V554.4H660.711C666.561 554.4 669.161 557 669.161 561.55C669.161 566.1 665.911 568.7 659.411 568.7H646.411ZM757.53 541.4H739.33V576.5C739.33 590.15 734.13 596 724.38 596C715.93 596 712.68 590.8 712.68 579.1V541.4H694.48V583C694.48 598.6 699.68 610.95 718.53 610.95C733.48 610.95 739.33 597.95 739.33 597.95H739.98V609H757.53V541.4ZM764.051 609H782.251V568.7H795.901C814.751 568.7 819.951 564.15 819.951 549.2V541.4H801.751V547.25C801.751 555.7 799.151 555.7 791.351 555.7H782.251V541.4H764.051V609ZM825.115 609H843.315V573.9C843.315 560.25 848.515 554.4 858.265 554.4C866.715 554.4 869.965 559.6 869.965 571.3V609H888.165V567.4C888.165 551.8 882.965 539.45 864.115 539.45C849.165 539.45 843.315 552.45 843.315 552.45H842.665V541.4H825.115V609ZM925.916 609H944.116V568.7H957.766C976.616 568.7 981.816 564.15 981.816 549.2V541.4H963.616V547.25C963.616 555.7 961.016 555.7 953.216 555.7H944.116V541.4H925.916V609ZM1003.93 562.2C1004.19 554.92 1008.48 551.8 1016.28 551.8C1023.43 551.8 1027.33 554.92 1027.33 560.25C1027.33 567.79 1016.67 568.7 1005.36 571.56C994.176 574.42 983.776 580.14 983.776 592.75C983.776 605.23 992.876 610.95 1005.23 610.95C1022.52 610.95 1026.68 596 1026.68 596H1027.33V609H1045.53V562.85C1045.53 545.3 1032.53 539.45 1016.28 539.45C1000.68 539.45 986.766 544.91 985.726 562.2H1003.93ZM1027.33 574.94C1027.33 584.95 1024.08 599.25 1011.73 599.25C1005.88 599.25 1002.24 596 1002.24 590.8C1002.24 584.82 1007.18 581.83 1013.03 580.4C1018.23 579.1 1024.34 577.67 1027.33 574.94ZM1048.78 541.4V555.7H1069.58V590.8C1069.58 606.4 1078.03 609.65 1090.38 609.65C1098.18 609.65 1101.43 608.35 1101.43 608.35V594.7C1101.43 594.7 1099.48 595.35 1095.58 595.35C1089.73 595.35 1087.78 593.4 1087.78 587.55V555.7H1109.88V541.4H1048.78ZM1111.13 575.2C1111.13 594.96 1122.18 610.95 1144.93 610.95C1172.88 610.95 1176.78 586.9 1176.78 586.9H1158.58C1158.58 586.9 1156.63 597.3 1145.58 597.3C1134.66 597.3 1130.24 589.5 1129.46 579.1H1177.3C1177.3 579.1 1177.43 576.76 1177.43 575.2C1177.43 555.44 1167.16 539.45 1144.93 539.45C1122.7 539.45 1111.13 555.44 1111.13 575.2ZM1144.93 553.1C1153.9 553.1 1157.54 559.08 1158.71 567.4H1129.98C1131.54 559.08 1135.96 553.1 1144.93 553.1Z" fill="white"/>
<path d="M431.801 465.261L434.418 463.879L430.947 434.182L428.259 435.602L430.573 452.745L416.976 441.561L414.288 442.981L430.778 456.302L431.801 465.261ZM450.395 446.573C455.382 443.939 456.722 438.255 454.013 433.127C451.286 427.963 445.837 425.955 440.886 428.57C435.899 431.205 434.556 436.799 437.284 441.963C440.011 447.127 445.408 449.207 450.395 446.573ZM449.255 444.416C445.541 446.377 441.817 444.635 439.724 440.674C437.65 436.748 438.276 432.708 442.025 430.728C445.739 428.766 449.481 430.454 451.573 434.416C453.628 438.306 453.004 442.436 449.255 444.416ZM465.208 416.085L469.449 424.114C471.84 428.641 471.695 432.563 468.229 434.394C464.904 436.15 463.008 433.759 461.514 430.929L456.189 420.849L453.749 422.138L459.391 432.82C461.67 437.135 464.841 438.943 468.803 436.85C471.102 435.636 472.844 433.539 473.092 431.011L474.419 433.522L476.859 432.233L467.649 414.796L465.208 416.085ZM481.558 407.087C479.789 408.022 477.985 409.744 477.926 412.715L476.543 410.098L474.103 411.387L483.313 428.824L485.754 427.535L480.616 417.808C478.617 414.024 479.533 410.962 482.221 409.542C482.964 409.15 483.8 408.934 484.8 408.858L484.956 406.242C483.721 406.216 482.619 406.527 481.558 407.087ZM510.03 392.41L500.834 397.268L500.106 395.888C498.592 393.023 499.318 391.057 501.829 389.73C503.527 388.834 505.062 388.656 506.677 388.888L506.948 386.574C504.777 386.319 502.78 386.649 500.658 387.77C497.227 389.582 495.461 393.004 497.646 397.142L498.394 398.557L495.387 400.145L496.471 402.196L499.477 400.608L507.604 415.994L510.044 414.705L501.918 399.319L508.673 395.751L516.8 411.136L519.24 409.847L510.03 392.41ZM524.333 384.494C521.822 385.82 520.26 388.002 520.062 390.368L518.717 387.822L516.277 389.111L525.487 406.548L527.927 405.259L523.798 397.442C521.202 392.526 521.617 388.688 524.906 386.95C527.524 385.568 529.642 386.666 531.622 390.415L536.946 400.495L539.387 399.206L533.745 388.524C531.298 383.891 528.082 382.513 524.333 384.494ZM542.105 375.106C539.134 376.676 537.468 379.003 536.883 382.434L539.436 382.985C539.823 380.293 541.016 378.441 543.209 377.283C546.145 375.732 548.614 376.554 550.221 379.596L550.651 380.409L547.079 382.296C543.648 384.108 541.941 385.417 541.008 386.905C540.146 388.355 540.149 390.073 541.083 391.841C542.857 395.201 546.132 396.005 549.916 394.006C552.675 392.549 554.256 390.402 554.607 387.728L556.169 390.342L558.397 389.165L552.662 378.306C550.364 373.956 546.491 372.79 542.105 375.106ZM549.559 391.616C546.942 392.999 544.625 392.639 543.598 390.694C543.075 389.703 542.982 388.757 543.357 387.926C543.851 386.805 545.118 385.865 548.337 384.164L551.697 382.39L551.828 382.637C553.789 386.351 552.919 389.842 549.559 391.616ZM563.191 363.969C560.679 365.296 559.118 367.478 558.92 369.844L557.575 367.297L555.134 368.586L564.345 386.023L566.785 384.734L562.656 376.918C560.06 372.001 560.475 368.163 563.764 366.426C566.382 365.043 568.5 366.141 570.48 369.89L575.804 379.97L578.245 378.681L572.603 368C570.155 363.366 566.94 361.989 563.191 363.969ZM590.861 372.379C594.009 370.717 595.677 367.709 595.163 363.909L592.451 364.256C592.956 366.839 591.914 369.063 589.721 370.222C585.972 372.202 582.61 369.862 580.723 366.289C578.836 362.717 578.742 358.514 582.456 356.553C584.649 355.394 587.092 355.823 589.082 357.621L590.931 355.469C587.833 352.943 584.429 352.751 581.316 354.395C576.046 357.179 575.818 362.999 578.247 367.597C580.806 372.443 585.803 375.051 590.861 372.379ZM590.907 345.077L593.737 343.582L591.831 339.975L589.002 341.469L590.907 345.077ZM602.235 366.01L604.676 364.72L595.465 347.283L593.025 348.572L602.235 366.01ZM607.801 340.406C604.83 341.975 603.164 344.303 602.578 347.734L605.131 348.285C605.519 345.592 606.712 343.741 608.905 342.582C611.84 341.032 614.31 341.853 615.917 344.895L616.346 345.709L612.774 347.596C609.343 349.408 607.637 350.716 606.704 352.204C605.842 353.655 605.844 355.373 606.778 357.141C608.553 360.501 611.827 361.305 615.612 359.306C618.371 357.849 619.951 355.702 620.303 353.028L621.864 355.641L624.093 354.464L618.357 343.606C616.059 339.256 612.186 338.09 607.801 340.406ZM615.254 356.916C612.637 358.299 610.321 357.939 609.293 355.993C608.77 355.003 608.678 354.057 609.053 353.225C609.547 352.105 610.814 351.164 614.033 349.464L617.393 347.689L617.523 347.937C619.485 351.651 618.615 355.141 615.254 356.916ZM633.373 349.925C634.151 349.514 634.923 348.834 635.535 348.194L634.397 346.126C633.96 346.583 633.434 347.042 632.903 347.323C631.736 347.939 630.901 347.385 630.265 346.183L619.318 325.456L616.877 326.745L627.9 347.613C629.338 350.337 631.357 350.989 633.373 349.925ZM648.072 319.09C645.596 320.397 644.12 322.399 643.708 324.788L642.475 322.453L640.034 323.742L653.056 348.395L655.496 347.106L650.452 337.556C652.585 338.51 655.053 338.473 657.6 337.128C662.693 334.438 663.328 329.217 660.582 324.017C657.705 318.571 652.917 316.53 648.072 319.09ZM656.106 335.157C652.428 337.1 648.951 335.227 646.858 331.266C644.673 327.128 645.356 323.284 648.858 321.434C652.395 319.566 655.955 321.168 658.141 325.307C660.234 329.268 659.82 333.196 656.106 335.157ZM679.082 313.16C676.99 309.198 672.557 306.202 667.216 309.023C662.159 311.694 661.675 317.288 664.272 322.204C666.887 327.156 671.703 329.679 677.009 326.876C679.697 325.456 681.302 323.613 682.213 320.372L679.731 319.784C679.036 322.322 677.777 323.62 675.867 324.629C672.436 326.441 669.1 325.263 667.011 321.481L679.78 314.737C679.626 314.275 679.344 313.655 679.082 313.16ZM668.3 311.074C671.519 309.374 674.462 310.579 676.133 313.315C676.302 313.633 676.43 313.791 676.468 313.862L665.928 319.429C664.515 316.24 665.152 312.737 668.3 311.074ZM687.314 298.407C685.546 299.341 683.741 301.063 683.682 304.035L682.3 301.418L679.859 302.707L689.069 320.144L691.51 318.855L686.372 309.128C684.373 305.344 685.289 302.281 687.977 300.862C688.72 300.469 689.556 300.254 690.557 300.178L690.713 297.562C689.478 297.536 688.375 297.847 687.314 298.407ZM707.649 310.692C711.009 308.917 712.975 305.617 711.107 302.08C707.613 295.466 698.916 303.408 696.73 299.269C695.926 297.749 696.839 296.136 698.996 294.996C701.154 293.857 703.056 294.118 704.727 295.226L706.112 293.138C703.602 291.297 700.722 291.325 697.927 292.801C694.426 294.651 692.94 297.833 694.547 300.875C697.816 307.064 706.329 298.858 708.776 303.492C709.748 305.331 708.844 307.302 706.474 308.553C703.75 309.992 701.249 309.368 699.66 307.9L698.094 309.903C700.49 312.212 704.218 312.504 707.649 310.692ZM717.532 282.401C715.057 283.708 713.58 285.71 713.168 288.099L711.935 285.764L709.495 287.053L722.516 311.706L724.957 310.417L719.913 300.867C722.045 301.821 724.514 301.784 727.06 300.439C732.153 297.749 732.788 292.528 730.042 287.329C727.165 281.882 722.378 279.841 717.532 282.401ZM725.567 298.468C721.888 300.411 718.411 298.539 716.319 294.577C714.133 290.439 714.817 286.595 718.318 284.745C721.855 282.877 725.416 284.479 727.602 288.618C729.694 292.579 729.281 296.507 725.567 298.468ZM748.543 276.471C746.45 272.509 742.018 269.513 736.677 272.334C731.619 275.005 731.136 280.599 733.732 285.515C736.348 290.467 741.164 292.99 746.469 290.187C749.157 288.767 750.762 286.924 751.674 283.683L749.192 283.095C748.497 285.633 747.237 286.932 745.327 287.94C741.897 289.753 738.56 288.574 736.472 284.792L749.24 278.048C749.087 277.586 748.804 276.966 748.543 276.471ZM737.761 274.385C740.979 272.685 743.923 273.89 745.594 276.626C745.762 276.944 745.891 277.103 745.928 277.173L735.388 282.741C733.975 279.551 734.613 276.048 737.761 274.385ZM765.117 280.338C768.265 278.675 769.933 275.668 769.419 271.868L766.707 272.215C767.212 274.798 766.17 277.022 763.977 278.18C760.228 280.16 756.865 277.82 754.979 274.248C753.092 270.675 752.998 266.473 756.712 264.511C758.905 263.353 761.348 263.781 763.338 265.58L765.187 263.427C762.089 260.902 758.685 260.709 755.572 262.353C750.302 265.137 750.074 270.957 752.503 275.555C755.062 280.401 760.059 283.009 765.117 280.338ZM782.473 267.822C781.826 268.481 781.229 268.977 780.627 269.295C779.248 270.024 778.059 269.656 777.162 267.959L771.371 256.994L775.58 254.771L774.496 252.72L770.287 254.943L766.924 248.576L765.455 251.705L767.847 256.232L764.946 257.764L766.03 259.815L768.93 258.283L774.89 269.566C776.515 272.643 778.904 273.055 781.238 271.822C782.052 271.393 782.878 270.73 783.648 269.961L782.473 267.822ZM777.045 246.759L779.874 245.265L777.969 241.657L775.139 243.152L777.045 246.759ZM788.373 267.692L790.813 266.403L781.603 248.966L779.163 250.255L788.373 267.692ZM801.848 260.575L803.934 259.472L801.869 238.261L799.181 239.681L801.229 256.92L788.181 245.491L785.528 246.893L801.848 260.575ZM823.323 236.972C821.23 233.011 816.797 230.014 811.457 232.835C806.399 235.507 805.915 241.1 808.512 246.017C811.128 250.968 815.943 253.491 821.249 250.689C823.937 249.269 825.542 247.426 826.454 244.185L823.971 243.596C823.276 246.135 822.017 247.433 820.107 248.442C816.676 250.254 813.34 249.076 811.251 245.293L824.02 238.549C823.866 238.087 823.584 237.467 823.323 236.972ZM812.54 234.887C815.759 233.187 818.702 234.391 820.374 237.128C820.542 237.446 820.671 237.604 820.708 237.675L810.168 243.242C808.755 240.053 809.392 236.549 812.54 234.887Z" fill="white"/>
</g>
<defs>
<clipPath id="clip0_1_211">
<rect width="1200" height="630" fill="white"/>
</clipPath>
</defs>
</svg>
