<svg width="1200" height="675" viewBox="0 0 1200 675" fill="none" xmlns="http://www.w3.org/2000/svg">
<rect width="1200" height="675" fill="black"/>
<path d="M356.328 121.736H360.48V117.584H362.208V121.736H366.36V123.464H362.208V127.616H360.48V123.464H356.328V121.736ZM391.407 116.408C391.967 116.504 392.471 116.672 392.919 116.912C393.383 117.136 393.775 117.416 394.095 117.752C394.415 118.088 394.663 118.464 394.839 118.88C395.015 119.28 395.103 119.704 395.103 120.152V120.584H393.279V120.296C393.279 119.768 393.103 119.32 392.751 118.952C392.415 118.584 391.967 118.328 391.407 118.184V121.616C392.735 121.776 393.743 122.144 394.431 122.72C395.135 123.28 395.487 124.056 395.487 125.048V125.192C395.487 126.264 395.111 127.128 394.359 127.784C393.623 128.424 392.639 128.784 391.407 128.864V130.328H389.679V128.816C388.975 128.704 388.367 128.512 387.855 128.24C387.359 127.952 386.943 127.616 386.607 127.232C386.287 126.832 386.047 126.408 385.887 125.96C385.727 125.496 385.647 125.032 385.647 124.568V123.992H387.471V124.28C387.471 125.048 387.663 125.664 388.047 126.128C388.431 126.592 388.975 126.904 389.679 127.064V123.152C388.479 122.992 387.559 122.648 386.919 122.12C386.295 121.576 385.983 120.824 385.983 119.864V119.72C385.983 119.208 386.079 118.76 386.271 118.376C386.479 117.976 386.751 117.64 387.087 117.368C387.423 117.08 387.815 116.856 388.263 116.696C388.711 116.52 389.183 116.408 389.679 116.36V114.872H391.407V116.408ZM393.615 125.192C393.615 124.632 393.439 124.216 393.087 123.944C392.735 123.672 392.175 123.472 391.407 123.344V127.136C392.095 127.056 392.631 126.848 393.015 126.512C393.415 126.176 393.615 125.736 393.615 125.192ZM387.855 119.72C387.855 120.168 387.983 120.536 388.239 120.824C388.511 121.096 388.991 121.296 389.679 121.424V118.088C389.167 118.168 388.735 118.344 388.383 118.616C388.031 118.888 387.855 119.256 387.855 119.72ZM404.542 129.128V115.088H404.254L401.494 121.4H399.502V121.256L402.646 114.2H406.558V129.128H411.31V131H399.79V129.128H404.542ZM414.221 120.728C414.221 118.552 414.741 116.864 415.781 115.664C416.821 114.464 418.269 113.864 420.125 113.864C421.981 113.864 423.429 114.464 424.469 115.664C425.509 116.864 426.029 118.552 426.029 120.728V124.472C426.029 126.712 425.509 128.416 424.469 129.584C423.429 130.752 421.981 131.336 420.125 131.336C418.269 131.336 416.821 130.752 415.781 129.584C414.741 128.416 414.221 126.712 414.221 124.472V120.728ZM420.125 129.512C421.421 129.512 422.389 129.064 423.029 128.168C423.685 127.256 424.013 125.976 424.013 124.328V120.872C424.013 120.104 423.933 119.408 423.773 118.784C423.613 118.144 423.365 117.6 423.029 117.152C422.709 116.688 422.301 116.328 421.805 116.072C421.325 115.816 420.765 115.688 420.125 115.688C419.469 115.688 418.901 115.816 418.421 116.072C417.941 116.328 417.533 116.688 417.197 117.152C416.877 117.6 416.637 118.144 416.477 118.784C416.317 119.408 416.237 120.104 416.237 120.872V124.328C416.237 125.976 416.557 127.256 417.197 128.168C417.853 129.064 418.829 129.512 420.125 129.512ZM418.589 122.6C418.589 122.184 418.741 121.824 419.045 121.52C419.349 121.216 419.709 121.064 420.125 121.064C420.541 121.064 420.901 121.216 421.205 121.52C421.509 121.824 421.661 122.184 421.661 122.6C421.661 123.016 421.509 123.376 421.205 123.68C420.901 123.984 420.541 124.136 420.125 124.136C419.709 124.136 419.349 123.984 419.045 123.68C418.741 123.376 418.589 123.016 418.589 122.6ZM433.141 129.656C433.141 129.192 433.301 128.8 433.621 128.48C433.957 128.144 434.357 127.976 434.821 127.976C435.285 127.976 435.677 128.144 435.997 128.48C436.333 128.8 436.501 129.192 436.501 129.656V132.008C436.501 132.552 436.325 133 435.973 133.352C435.637 133.704 435.197 133.88 434.653 133.88H433.429V132.584H434.557C434.989 132.584 435.205 132.344 435.205 131.864V131.264C435.077 131.312 434.941 131.336 434.797 131.336C434.349 131.336 433.957 131.176 433.621 130.856C433.301 130.52 433.141 130.12 433.141 129.656ZM443.612 120.728C443.612 118.552 444.132 116.864 445.172 115.664C446.212 114.464 447.66 113.864 449.516 113.864C451.372 113.864 452.82 114.464 453.86 115.664C454.9 116.864 455.42 118.552 455.42 120.728V124.472C455.42 126.712 454.9 128.416 453.86 129.584C452.82 130.752 451.372 131.336 449.516 131.336C447.66 131.336 446.212 130.752 445.172 129.584C444.132 128.416 443.612 126.712 443.612 124.472V120.728ZM449.516 129.512C450.812 129.512 451.78 129.064 452.42 128.168C453.076 127.256 453.404 125.976 453.404 124.328V120.872C453.404 120.104 453.324 119.408 453.164 118.784C453.004 118.144 452.756 117.6 452.42 117.152C452.1 116.688 451.692 116.328 451.196 116.072C450.716 115.816 450.156 115.688 449.516 115.688C448.86 115.688 448.292 115.816 447.812 116.072C447.332 116.328 446.924 116.688 446.588 117.152C446.268 117.6 446.028 118.144 445.868 118.784C445.708 119.408 445.628 120.104 445.628 120.872V124.328C445.628 125.976 445.948 127.256 446.588 128.168C447.244 129.064 448.22 129.512 449.516 129.512ZM447.98 122.6C447.98 122.184 448.132 121.824 448.436 121.52C448.74 121.216 449.1 121.064 449.516 121.064C449.932 121.064 450.292 121.216 450.596 121.52C450.9 121.824 451.052 122.184 451.052 122.6C451.052 123.016 450.9 123.376 450.596 123.68C450.292 123.984 449.932 124.136 449.516 124.136C449.1 124.136 448.74 123.984 448.436 123.68C448.132 123.376 447.98 123.016 447.98 122.6ZM458.307 120.728C458.307 118.552 458.827 116.864 459.867 115.664C460.907 114.464 462.355 113.864 464.211 113.864C466.067 113.864 467.515 114.464 468.555 115.664C469.595 116.864 470.115 118.552 470.115 120.728V124.472C470.115 126.712 469.595 128.416 468.555 129.584C467.515 130.752 466.067 131.336 464.211 131.336C462.355 131.336 460.907 130.752 459.867 129.584C458.827 128.416 458.307 126.712 458.307 124.472V120.728ZM464.211 129.512C465.507 129.512 466.475 129.064 467.115 128.168C467.771 127.256 468.099 125.976 468.099 124.328V120.872C468.099 120.104 468.019 119.408 467.859 118.784C467.699 118.144 467.451 117.6 467.115 117.152C466.795 116.688 466.387 116.328 465.891 116.072C465.411 115.816 464.851 115.688 464.211 115.688C463.555 115.688 462.987 115.816 462.507 116.072C462.027 116.328 461.619 116.688 461.283 117.152C460.963 117.6 460.723 118.144 460.563 118.784C460.403 119.408 460.323 120.104 460.323 120.872V124.328C460.323 125.976 460.643 127.256 461.283 128.168C461.939 129.064 462.915 129.512 464.211 129.512ZM462.675 122.6C462.675 122.184 462.827 121.824 463.131 121.52C463.435 121.216 463.795 121.064 464.211 121.064C464.627 121.064 464.987 121.216 465.291 121.52C465.595 121.824 465.747 122.184 465.747 122.6C465.747 123.016 465.595 123.376 465.291 123.68C464.987 123.984 464.627 124.136 464.211 124.136C463.795 124.136 463.435 123.984 463.131 123.68C462.827 123.376 462.675 123.016 462.675 122.6ZM473.003 120.728C473.003 118.552 473.523 116.864 474.562 115.664C475.603 114.464 477.051 113.864 478.907 113.864C480.763 113.864 482.211 114.464 483.251 115.664C484.291 116.864 484.811 118.552 484.811 120.728V124.472C484.811 126.712 484.291 128.416 483.251 129.584C482.211 130.752 480.763 131.336 478.907 131.336C477.051 131.336 475.603 130.752 474.562 129.584C473.523 128.416 473.003 126.712 473.003 124.472V120.728ZM478.907 129.512C480.203 129.512 481.171 129.064 481.811 128.168C482.467 127.256 482.795 125.976 482.795 124.328V120.872C482.795 120.104 482.715 119.408 482.555 118.784C482.395 118.144 482.147 117.6 481.811 117.152C481.491 116.688 481.083 116.328 480.587 116.072C480.107 115.816 479.547 115.688 478.907 115.688C478.251 115.688 477.683 115.816 477.203 116.072C476.723 116.328 476.315 116.688 475.979 117.152C475.659 117.6 475.419 118.144 475.259 118.784C475.099 119.408 475.019 120.104 475.019 120.872V124.328C475.019 125.976 475.339 127.256 475.979 128.168C476.635 129.064 477.611 129.512 478.907 129.512ZM477.371 122.6C477.371 122.184 477.523 121.824 477.827 121.52C478.131 121.216 478.491 121.064 478.907 121.064C479.323 121.064 479.683 121.216 479.987 121.52C480.291 121.824 480.443 122.184 480.443 122.6C480.443 123.016 480.291 123.376 479.987 123.68C479.683 123.984 479.323 124.136 478.907 124.136C478.491 124.136 478.131 123.984 477.827 123.68C477.523 123.376 477.371 123.016 477.371 122.6Z" fill="white"/>
<path d="M704.744 552.896H711.944V554.624H704.744V552.896ZM738.407 545.408C738.967 545.504 739.471 545.672 739.919 545.912C740.383 546.136 740.775 546.416 741.095 546.752C741.415 547.088 741.663 547.464 741.839 547.88C742.015 548.28 742.103 548.704 742.103 549.152V549.584H740.279V549.296C740.279 548.768 740.103 548.32 739.751 547.952C739.415 547.584 738.967 547.328 738.407 547.184V550.616C739.735 550.776 740.743 551.144 741.431 551.72C742.135 552.28 742.487 553.056 742.487 554.048V554.192C742.487 555.264 742.111 556.128 741.359 556.784C740.623 557.424 739.639 557.784 738.407 557.864V559.328H736.679V557.816C735.975 557.704 735.367 557.512 734.855 557.24C734.359 556.952 733.943 556.616 733.607 556.232C733.287 555.832 733.047 555.408 732.887 554.96C732.727 554.496 732.647 554.032 732.647 553.568V552.992H734.471V553.28C734.471 554.048 734.663 554.664 735.047 555.128C735.431 555.592 735.975 555.904 736.679 556.064V552.152C735.479 551.992 734.559 551.648 733.919 551.12C733.295 550.576 732.983 549.824 732.983 548.864V548.72C732.983 548.208 733.079 547.76 733.271 547.376C733.479 546.976 733.751 546.64 734.087 546.368C734.423 546.08 734.815 545.856 735.263 545.696C735.711 545.52 736.183 545.408 736.679 545.36V543.872H738.407V545.408ZM740.615 554.192C740.615 553.632 740.439 553.216 740.087 552.944C739.735 552.672 739.175 552.472 738.407 552.344V556.136C739.095 556.056 739.631 555.848 740.015 555.512C740.415 555.176 740.615 554.736 740.615 554.192ZM734.855 548.72C734.855 549.168 734.983 549.536 735.239 549.824C735.511 550.096 735.991 550.296 736.679 550.424V547.088C736.167 547.168 735.735 547.344 735.383 547.616C735.031 547.888 734.855 548.256 734.855 548.72ZM751.542 558.128V544.088H751.254L748.494 550.4H746.502V550.256L749.646 543.2H753.558V558.128H758.31V560H746.79V558.128H751.542ZM772.837 558.128V560H761.461V557.12C761.461 556.352 761.589 555.688 761.845 555.128C762.101 554.552 762.461 554.064 762.925 553.664C763.405 553.248 763.981 552.904 764.653 552.632C765.325 552.36 766.085 552.128 766.933 551.936C768.357 551.616 769.381 551.16 770.005 550.568C770.645 549.976 770.965 549.248 770.965 548.384V548.24C770.965 547.808 770.893 547.384 770.749 546.968C770.605 546.552 770.381 546.176 770.077 545.84C769.773 545.504 769.381 545.24 768.901 545.048C768.437 544.84 767.877 544.736 767.221 544.736C765.989 544.736 765.029 545.112 764.341 545.864C763.669 546.616 763.333 547.616 763.333 548.864V549.92H761.317V548.72C761.317 547.952 761.445 547.216 761.701 546.512C761.957 545.808 762.333 545.184 762.829 544.64C763.325 544.096 763.941 543.664 764.677 543.344C765.413 543.024 766.261 542.864 767.221 542.864C768.197 542.864 769.045 543.016 769.765 543.32C770.485 543.608 771.085 544 771.565 544.496C772.045 544.976 772.397 545.528 772.621 546.152C772.861 546.76 772.981 547.384 772.981 548.024V548.456C772.981 549.736 772.581 550.832 771.781 551.744C770.981 552.64 769.701 553.28 767.941 553.664C766.405 554 765.277 554.448 764.557 555.008C763.837 555.552 763.477 556.352 763.477 557.408V558.128H772.837ZM780.141 558.656C780.141 558.192 780.301 557.8 780.621 557.48C780.957 557.144 781.357 556.976 781.821 556.976C782.285 556.976 782.677 557.144 782.997 557.48C783.333 557.8 783.501 558.192 783.501 558.656V561.008C783.501 561.552 783.325 562 782.973 562.352C782.637 562.704 782.197 562.88 781.653 562.88H780.429V561.584H781.557C781.989 561.584 782.205 561.344 782.205 560.864V560.264C782.077 560.312 781.941 560.336 781.797 560.336C781.349 560.336 780.957 560.176 780.621 559.856C780.301 559.52 780.141 559.12 780.141 558.656ZM790.612 549.728C790.612 547.552 791.132 545.864 792.172 544.664C793.212 543.464 794.66 542.864 796.516 542.864C798.372 542.864 799.82 543.464 800.86 544.664C801.9 545.864 802.42 547.552 802.42 549.728V553.472C802.42 555.712 801.9 557.416 800.86 558.584C799.82 559.752 798.372 560.336 796.516 560.336C794.66 560.336 793.212 559.752 792.172 558.584C791.132 557.416 790.612 555.712 790.612 553.472V549.728ZM796.516 558.512C797.812 558.512 798.78 558.064 799.42 557.168C800.076 556.256 800.404 554.976 800.404 553.328V549.872C800.404 549.104 800.324 548.408 800.164 547.784C800.004 547.144 799.756 546.6 799.42 546.152C799.1 545.688 798.692 545.328 798.196 545.072C797.716 544.816 797.156 544.688 796.516 544.688C795.86 544.688 795.292 544.816 794.812 545.072C794.332 545.328 793.924 545.688 793.588 546.152C793.268 546.6 793.028 547.144 792.868 547.784C792.708 548.408 792.628 549.104 792.628 549.872V553.328C792.628 554.976 792.948 556.256 793.588 557.168C794.244 558.064 795.22 558.512 796.516 558.512ZM794.98 551.6C794.98 551.184 795.132 550.824 795.436 550.52C795.74 550.216 796.1 550.064 796.516 550.064C796.932 550.064 797.292 550.216 797.596 550.52C797.9 550.824 798.052 551.184 798.052 551.6C798.052 552.016 797.9 552.376 797.596 552.68C797.292 552.984 796.932 553.136 796.516 553.136C796.1 553.136 795.74 552.984 795.436 552.68C795.132 552.376 794.98 552.016 794.98 551.6ZM805.307 549.728C805.307 547.552 805.827 545.864 806.867 544.664C807.907 543.464 809.355 542.864 811.211 542.864C813.067 542.864 814.515 543.464 815.555 544.664C816.595 545.864 817.115 547.552 817.115 549.728V553.472C817.115 555.712 816.595 557.416 815.555 558.584C814.515 559.752 813.067 560.336 811.211 560.336C809.355 560.336 807.907 559.752 806.867 558.584C805.827 557.416 805.307 555.712 805.307 553.472V549.728ZM811.211 558.512C812.507 558.512 813.475 558.064 814.115 557.168C814.771 556.256 815.099 554.976 815.099 553.328V549.872C815.099 549.104 815.019 548.408 814.859 547.784C814.699 547.144 814.451 546.6 814.115 546.152C813.795 545.688 813.387 545.328 812.891 545.072C812.411 544.816 811.851 544.688 811.211 544.688C810.555 544.688 809.987 544.816 809.507 545.072C809.027 545.328 808.619 545.688 808.283 546.152C807.963 546.6 807.723 547.144 807.563 547.784C807.403 548.408 807.323 549.104 807.323 549.872V553.328C807.323 554.976 807.643 556.256 808.283 557.168C808.939 558.064 809.915 558.512 811.211 558.512ZM809.675 551.6C809.675 551.184 809.827 550.824 810.131 550.52C810.435 550.216 810.795 550.064 811.211 550.064C811.627 550.064 811.987 550.216 812.291 550.52C812.595 550.824 812.747 551.184 812.747 551.6C812.747 552.016 812.595 552.376 812.291 552.68C811.987 552.984 811.627 553.136 811.211 553.136C810.795 553.136 810.435 552.984 810.131 552.68C809.827 552.376 809.675 552.016 809.675 551.6ZM820.003 549.728C820.003 547.552 820.523 545.864 821.562 544.664C822.603 543.464 824.051 542.864 825.907 542.864C827.763 542.864 829.211 543.464 830.251 544.664C831.291 545.864 831.811 547.552 831.811 549.728V553.472C831.811 555.712 831.291 557.416 830.251 558.584C829.211 559.752 827.763 560.336 825.907 560.336C824.051 560.336 822.603 559.752 821.562 558.584C820.523 557.416 820.003 555.712 820.003 553.472V549.728ZM825.907 558.512C827.203 558.512 828.171 558.064 828.811 557.168C829.467 556.256 829.795 554.976 829.795 553.328V549.872C829.795 549.104 829.715 548.408 829.555 547.784C829.395 547.144 829.147 546.6 828.811 546.152C828.491 545.688 828.083 545.328 827.587 545.072C827.107 544.816 826.547 544.688 825.907 544.688C825.251 544.688 824.683 544.816 824.203 545.072C823.723 545.328 823.315 545.688 822.979 546.152C822.659 546.6 822.419 547.144 822.259 547.784C822.099 548.408 822.019 549.104 822.019 549.872V553.328C822.019 554.976 822.339 556.256 822.979 557.168C823.635 558.064 824.611 558.512 825.907 558.512ZM824.371 551.6C824.371 551.184 824.523 550.824 824.827 550.52C825.131 550.216 825.491 550.064 825.907 550.064C826.323 550.064 826.683 550.216 826.987 550.52C827.291 550.824 827.443 551.184 827.443 551.6C827.443 552.016 827.291 552.376 826.987 552.68C826.683 552.984 826.323 553.136 825.907 553.136C825.491 553.136 825.131 552.984 824.827 552.68C824.523 552.376 824.371 552.016 824.371 551.6Z" fill="white"/>
<circle cx="592" cy="337.592" r="74.5" stroke="white"/>
<path d="M589.664 250.962C589.869 251.148 590.185 251.133 590.37 250.928L593.395 247.596C593.581 247.392 593.566 247.076 593.361 246.89C593.157 246.705 592.841 246.72 592.655 246.924L589.966 249.886L587.005 247.197C586.8 247.011 586.484 247.027 586.298 247.231C586.113 247.435 586.128 247.752 586.332 247.937L589.664 250.962ZM502.821 124.059C535.741 136.709 556.5 150.226 569.487 169.591C582.48 188.965 587.747 214.267 589.501 250.616L590.5 250.568C588.744 214.174 583.468 188.642 570.317 169.034C557.161 149.417 536.175 135.805 503.18 123.125L502.821 124.059Z" fill="white"/>
<g filter="url(#filter0_d_73_4)">
<path d="M679.688 551.412C679.787 551.67 679.659 551.959 679.401 552.059L675.202 553.676C674.944 553.775 674.655 553.647 674.556 553.389C674.457 553.131 674.585 552.842 674.843 552.743L678.575 551.305L677.138 547.572C677.038 547.315 677.167 547.025 677.425 546.926C677.682 546.827 677.972 546.955 678.071 547.213L679.688 551.412ZM592.722 424.593C592.626 459.861 597.732 484.101 611.098 503.206C624.47 522.32 646.163 536.37 679.425 551.135L679.019 552.049C645.716 537.266 623.813 523.125 610.279 503.779C596.738 484.426 591.626 459.939 591.722 424.591L592.722 424.593Z" fill="white"/>
</g>
<defs>
<filter id="filter0_d_73_4" x="587.72" y="424.591" width="96.0015" height="137.119" filterUnits="userSpaceOnUse" color-interpolation-filters="sRGB">
<feFlood flood-opacity="0" result="BackgroundImageFix"/>
<feColorMatrix in="SourceAlpha" type="matrix" values="0 0 0 0 0 0 0 0 0 0 0 0 0 0 0 0 0 0 127 0" result="hardAlpha"/>
<feOffset dy="4"/>
<feGaussianBlur stdDeviation="2"/>
<feComposite in2="hardAlpha" operator="out"/>
<feColorMatrix type="matrix" values="0 0 0 0 0 0 0 0 0 0 0 0 0 0 0 0 0 0 0.25 0"/>
<feBlend mode="normal" in2="BackgroundImageFix" result="effect1_dropShadow_73_4"/>
<feBlend mode="normal" in="SourceGraphic" in2="effect1_dropShadow_73_4" result="shape"/>
</filter>
</defs>
</svg>
