<svg width="1200" height="630" viewBox="0 0 1200 630" fill="none" xmlns="http://www.w3.org/2000/svg">
<rect width="1200" height="630" fill="#111111"/>
<path d="M353.44 205.728C353.44 203.552 353.96 201.864 355 200.664C356.04 199.464 357.488 198.864 359.344 198.864C361.2 198.864 362.648 199.464 363.688 200.664C364.728 201.864 365.248 203.552 365.248 205.728V209.472C365.248 211.712 364.728 213.416 363.688 214.584C362.648 215.752 361.2 216.336 359.344 216.336C357.488 216.336 356.04 215.752 355 214.584C353.96 213.416 353.44 211.712 353.44 209.472V205.728ZM359.344 214.512C360.64 214.512 361.608 214.064 362.248 213.168C362.904 212.256 363.232 210.976 363.232 209.328V205.872C363.232 205.104 363.152 204.408 362.992 203.784C362.832 203.144 362.584 202.6 362.248 202.152C361.928 201.688 361.52 201.328 361.024 201.072C360.544 200.816 359.984 200.688 359.344 200.688C358.688 200.688 358.12 200.816 357.64 201.072C357.16 201.328 356.752 201.688 356.416 202.152C356.096 202.6 355.856 203.144 355.696 203.784C355.536 204.408 355.456 205.104 355.456 205.872V209.328C355.456 210.976 355.776 212.256 356.416 213.168C357.072 214.064 358.048 214.512 359.344 214.512ZM357.808 207.6C357.808 207.184 357.96 206.824 358.264 206.52C358.568 206.216 358.928 206.064 359.344 206.064C359.76 206.064 360.12 206.216 360.424 206.52C360.728 206.824 360.88 207.184 360.88 207.6C360.88 208.016 360.728 208.376 360.424 208.68C360.12 208.984 359.76 209.136 359.344 209.136C358.928 209.136 358.568 208.984 358.264 208.68C357.96 208.376 357.808 208.016 357.808 207.6ZM368.135 205.728C368.135 203.552 368.655 201.864 369.695 200.664C370.735 199.464 372.183 198.864 374.039 198.864C375.895 198.864 377.343 199.464 378.383 200.664C379.423 201.864 379.943 203.552 379.943 205.728V209.472C379.943 211.712 379.423 213.416 378.383 214.584C377.343 215.752 375.895 216.336 374.039 216.336C372.183 216.336 370.735 215.752 369.695 214.584C368.655 213.416 368.135 211.712 368.135 209.472V205.728ZM374.039 214.512C375.335 214.512 376.303 214.064 376.943 213.168C377.599 212.256 377.927 210.976 377.927 209.328V205.872C377.927 205.104 377.847 204.408 377.687 203.784C377.527 203.144 377.279 202.6 376.943 202.152C376.623 201.688 376.215 201.328 375.719 201.072C375.239 200.816 374.679 200.688 374.039 200.688C373.383 200.688 372.815 200.816 372.335 201.072C371.855 201.328 371.447 201.688 371.111 202.152C370.791 202.6 370.551 203.144 370.391 203.784C370.231 204.408 370.151 205.104 370.151 205.872V209.328C370.151 210.976 370.471 212.256 371.111 213.168C371.767 214.064 372.743 214.512 374.039 214.512ZM372.503 207.6C372.503 207.184 372.655 206.824 372.959 206.52C373.263 206.216 373.623 206.064 374.039 206.064C374.455 206.064 374.815 206.216 375.119 206.52C375.423 206.824 375.575 207.184 375.575 207.6C375.575 208.016 375.423 208.376 375.119 208.68C374.815 208.984 374.455 209.136 374.039 209.136C373.623 209.136 373.263 208.984 372.959 208.68C372.655 208.376 372.503 208.016 372.503 207.6ZM387.847 214.128V200.088H387.559L384.799 206.4H382.807V206.256L385.951 199.2H389.863V214.128H394.615V216H383.095V214.128H387.847ZM397.526 205.728C397.526 203.552 398.046 201.864 399.086 200.664C400.126 199.464 401.574 198.864 403.43 198.864C405.286 198.864 406.734 199.464 407.774 200.664C408.814 201.864 409.334 203.552 409.334 205.728V209.472C409.334 211.712 408.814 213.416 407.774 214.584C406.734 215.752 405.286 216.336 403.43 216.336C401.574 216.336 400.126 215.752 399.086 214.584C398.046 213.416 397.526 211.712 397.526 209.472V205.728ZM403.43 214.512C404.726 214.512 405.694 214.064 406.334 213.168C406.99 212.256 407.318 210.976 407.318 209.328V205.872C407.318 205.104 407.238 204.408 407.078 203.784C406.918 203.144 406.67 202.6 406.334 202.152C406.014 201.688 405.606 201.328 405.11 201.072C404.63 200.816 404.07 200.688 403.43 200.688C402.774 200.688 402.206 200.816 401.726 201.072C401.246 201.328 400.838 201.688 400.502 202.152C400.182 202.6 399.942 203.144 399.782 203.784C399.622 204.408 399.542 205.104 399.542 205.872V209.328C399.542 210.976 399.862 212.256 400.502 213.168C401.158 214.064 402.134 214.512 403.43 214.512ZM401.894 207.6C401.894 207.184 402.046 206.824 402.35 206.52C402.654 206.216 403.014 206.064 403.43 206.064C403.846 206.064 404.206 206.216 404.51 206.52C404.814 206.824 404.966 207.184 404.966 207.6C404.966 208.016 404.814 208.376 404.51 208.68C404.206 208.984 403.846 209.136 403.43 209.136C403.014 209.136 402.654 208.984 402.35 208.68C402.046 208.376 401.894 208.016 401.894 207.6ZM417.237 214.128V200.088H416.949L414.189 206.4H412.197V206.256L415.341 199.2H419.253V214.128H424.005V216H412.485V214.128H417.237ZM426.917 205.728C426.917 203.552 427.437 201.864 428.477 200.664C429.517 199.464 430.965 198.864 432.821 198.864C434.677 198.864 436.125 199.464 437.165 200.664C438.205 201.864 438.725 203.552 438.725 205.728V209.472C438.725 211.712 438.205 213.416 437.165 214.584C436.125 215.752 434.677 216.336 432.821 216.336C430.965 216.336 429.517 215.752 428.477 214.584C427.437 213.416 426.917 211.712 426.917 209.472V205.728ZM432.821 214.512C434.117 214.512 435.085 214.064 435.725 213.168C436.381 212.256 436.709 210.976 436.709 209.328V205.872C436.709 205.104 436.629 204.408 436.469 203.784C436.309 203.144 436.061 202.6 435.725 202.152C435.405 201.688 434.997 201.328 434.501 201.072C434.021 200.816 433.461 200.688 432.821 200.688C432.165 200.688 431.597 200.816 431.117 201.072C430.637 201.328 430.229 201.688 429.893 202.152C429.573 202.6 429.333 203.144 429.173 203.784C429.013 204.408 428.933 205.104 428.933 205.872V209.328C428.933 210.976 429.253 212.256 429.893 213.168C430.549 214.064 431.525 214.512 432.821 214.512ZM431.285 207.6C431.285 207.184 431.437 206.824 431.741 206.52C432.045 206.216 432.405 206.064 432.821 206.064C433.237 206.064 433.597 206.216 433.901 206.52C434.205 206.824 434.357 207.184 434.357 207.6C434.357 208.016 434.205 208.376 433.901 208.68C433.597 208.984 433.237 209.136 432.821 209.136C432.405 209.136 432.045 208.984 431.741 208.68C431.437 208.376 431.285 208.016 431.285 207.6ZM446.628 214.128V200.088H446.34L443.58 206.4H441.588V206.256L444.732 199.2H448.644V214.128H453.396V216H441.876V214.128H446.628ZM461.323 214.128V200.088H461.035L458.275 206.4H456.283V206.256L459.427 199.2H463.339V214.128H468.091V216H456.571V214.128H461.323ZM353.44 241.728C353.44 239.552 353.96 237.864 355 236.664C356.04 235.464 357.488 234.864 359.344 234.864C361.2 234.864 362.648 235.464 363.688 236.664C364.728 237.864 365.248 239.552 365.248 241.728V245.472C365.248 247.712 364.728 249.416 363.688 250.584C362.648 251.752 361.2 252.336 359.344 252.336C357.488 252.336 356.04 251.752 355 250.584C353.96 249.416 353.44 247.712 353.44 245.472V241.728ZM359.344 250.512C360.64 250.512 361.608 250.064 362.248 249.168C362.904 248.256 363.232 246.976 363.232 245.328V241.872C363.232 241.104 363.152 240.408 362.992 239.784C362.832 239.144 362.584 238.6 362.248 238.152C361.928 237.688 361.52 237.328 361.024 237.072C360.544 236.816 359.984 236.688 359.344 236.688C358.688 236.688 358.12 236.816 357.64 237.072C357.16 237.328 356.752 237.688 356.416 238.152C356.096 238.6 355.856 239.144 355.696 239.784C355.536 240.408 355.456 241.104 355.456 241.872V245.328C355.456 246.976 355.776 248.256 356.416 249.168C357.072 250.064 358.048 250.512 359.344 250.512ZM357.808 243.6C357.808 243.184 357.96 242.824 358.264 242.52C358.568 242.216 358.928 242.064 359.344 242.064C359.76 242.064 360.12 242.216 360.424 242.52C360.728 242.824 360.88 243.184 360.88 243.6C360.88 244.016 360.728 244.376 360.424 244.68C360.12 244.984 359.76 245.136 359.344 245.136C358.928 245.136 358.568 244.984 358.264 244.68C357.96 244.376 357.808 244.016 357.808 243.6ZM368.135 241.728C368.135 239.552 368.655 237.864 369.695 236.664C370.735 235.464 372.183 234.864 374.039 234.864C375.895 234.864 377.343 235.464 378.383 236.664C379.423 237.864 379.943 239.552 379.943 241.728V245.472C379.943 247.712 379.423 249.416 378.383 250.584C377.343 251.752 375.895 252.336 374.039 252.336C372.183 252.336 370.735 251.752 369.695 250.584C368.655 249.416 368.135 247.712 368.135 245.472V241.728ZM374.039 250.512C375.335 250.512 376.303 250.064 376.943 249.168C377.599 248.256 377.927 246.976 377.927 245.328V241.872C377.927 241.104 377.847 240.408 377.687 239.784C377.527 239.144 377.279 238.6 376.943 238.152C376.623 237.688 376.215 237.328 375.719 237.072C375.239 236.816 374.679 236.688 374.039 236.688C373.383 236.688 372.815 236.816 372.335 237.072C371.855 237.328 371.447 237.688 371.111 238.152C370.791 238.6 370.551 239.144 370.391 239.784C370.231 240.408 370.151 241.104 370.151 241.872V245.328C370.151 246.976 370.471 248.256 371.111 249.168C371.767 250.064 372.743 250.512 374.039 250.512ZM372.503 243.6C372.503 243.184 372.655 242.824 372.959 242.52C373.263 242.216 373.623 242.064 374.039 242.064C374.455 242.064 374.815 242.216 375.119 242.52C375.423 242.824 375.575 243.184 375.575 243.6C375.575 244.016 375.423 244.376 375.119 244.68C374.815 244.984 374.455 245.136 374.039 245.136C373.623 245.136 373.263 244.984 372.959 244.68C372.655 244.376 372.503 244.016 372.503 243.6ZM387.847 250.128V236.088H387.559L384.799 242.4H382.807V242.256L385.951 235.2H389.863V250.128H394.615V252H383.095V250.128H387.847ZM397.526 241.728C397.526 239.552 398.046 237.864 399.086 236.664C400.126 235.464 401.574 234.864 403.43 234.864C405.286 234.864 406.734 235.464 407.774 236.664C408.814 237.864 409.334 239.552 409.334 241.728V245.472C409.334 247.712 408.814 249.416 407.774 250.584C406.734 251.752 405.286 252.336 403.43 252.336C401.574 252.336 400.126 251.752 399.086 250.584C398.046 249.416 397.526 247.712 397.526 245.472V241.728ZM403.43 250.512C404.726 250.512 405.694 250.064 406.334 249.168C406.99 248.256 407.318 246.976 407.318 245.328V241.872C407.318 241.104 407.238 240.408 407.078 239.784C406.918 239.144 406.67 238.6 406.334 238.152C406.014 237.688 405.606 237.328 405.11 237.072C404.63 236.816 404.07 236.688 403.43 236.688C402.774 236.688 402.206 236.816 401.726 237.072C401.246 237.328 400.838 237.688 400.502 238.152C400.182 238.6 399.942 239.144 399.782 239.784C399.622 240.408 399.542 241.104 399.542 241.872V245.328C399.542 246.976 399.862 248.256 400.502 249.168C401.158 250.064 402.134 250.512 403.43 250.512ZM401.894 243.6C401.894 243.184 402.046 242.824 402.35 242.52C402.654 242.216 403.014 242.064 403.43 242.064C403.846 242.064 404.206 242.216 404.51 242.52C404.814 242.824 404.966 243.184 404.966 243.6C404.966 244.016 404.814 244.376 404.51 244.68C404.206 244.984 403.846 245.136 403.43 245.136C403.014 245.136 402.654 244.984 402.35 244.68C402.046 244.376 401.894 244.016 401.894 243.6ZM412.221 241.728C412.221 239.552 412.741 237.864 413.781 236.664C414.821 235.464 416.269 234.864 418.125 234.864C419.981 234.864 421.429 235.464 422.469 236.664C423.509 237.864 424.029 239.552 424.029 241.728V245.472C424.029 247.712 423.509 249.416 422.469 250.584C421.429 251.752 419.981 252.336 418.125 252.336C416.269 252.336 414.821 251.752 413.781 250.584C412.741 249.416 412.221 247.712 412.221 245.472V241.728ZM418.125 250.512C419.421 250.512 420.389 250.064 421.029 249.168C421.685 248.256 422.013 246.976 422.013 245.328V241.872C422.013 241.104 421.933 240.408 421.773 239.784C421.613 239.144 421.365 238.6 421.029 238.152C420.709 237.688 420.301 237.328 419.805 237.072C419.325 236.816 418.765 236.688 418.125 236.688C417.469 236.688 416.901 236.816 416.421 237.072C415.941 237.328 415.533 237.688 415.197 238.152C414.877 238.6 414.637 239.144 414.477 239.784C414.317 240.408 414.237 241.104 414.237 241.872V245.328C414.237 246.976 414.557 248.256 415.197 249.168C415.853 250.064 416.829 250.512 418.125 250.512ZM416.589 243.6C416.589 243.184 416.741 242.824 417.045 242.52C417.349 242.216 417.709 242.064 418.125 242.064C418.541 242.064 418.901 242.216 419.205 242.52C419.509 242.824 419.661 243.184 419.661 243.6C419.661 244.016 419.509 244.376 419.205 244.68C418.901 244.984 418.541 245.136 418.125 245.136C417.709 245.136 417.349 244.984 417.045 244.68C416.741 244.376 416.589 244.016 416.589 243.6ZM431.933 250.128V236.088H431.645L428.885 242.4H426.893V242.256L430.037 235.2H433.949V250.128H438.701V252H427.181V250.128H431.933ZM441.612 241.728C441.612 239.552 442.132 237.864 443.172 236.664C444.212 235.464 445.66 234.864 447.516 234.864C449.372 234.864 450.82 235.464 451.86 236.664C452.9 237.864 453.42 239.552 453.42 241.728V245.472C453.42 247.712 452.9 249.416 451.86 250.584C450.82 251.752 449.372 252.336 447.516 252.336C445.66 252.336 444.212 251.752 443.172 250.584C442.132 249.416 441.612 247.712 441.612 245.472V241.728ZM447.516 250.512C448.812 250.512 449.78 250.064 450.42 249.168C451.076 248.256 451.404 246.976 451.404 245.328V241.872C451.404 241.104 451.324 240.408 451.164 239.784C451.004 239.144 450.756 238.6 450.42 238.152C450.1 237.688 449.692 237.328 449.196 237.072C448.716 236.816 448.156 236.688 447.516 236.688C446.86 236.688 446.292 236.816 445.812 237.072C445.332 237.328 444.924 237.688 444.588 238.152C444.268 238.6 444.028 239.144 443.868 239.784C443.708 240.408 443.628 241.104 443.628 241.872V245.328C443.628 246.976 443.948 248.256 444.588 249.168C445.244 250.064 446.22 250.512 447.516 250.512ZM445.98 243.6C445.98 243.184 446.132 242.824 446.436 242.52C446.74 242.216 447.1 242.064 447.516 242.064C447.932 242.064 448.292 242.216 448.596 242.52C448.9 242.824 449.052 243.184 449.052 243.6C449.052 244.016 448.9 244.376 448.596 244.68C448.292 244.984 447.932 245.136 447.516 245.136C447.1 245.136 446.74 244.984 446.436 244.68C446.132 244.376 445.98 244.016 445.98 243.6ZM456.307 241.728C456.307 239.552 456.827 237.864 457.867 236.664C458.907 235.464 460.355 234.864 462.211 234.864C464.067 234.864 465.515 235.464 466.555 236.664C467.595 237.864 468.115 239.552 468.115 241.728V245.472C468.115 247.712 467.595 249.416 466.555 250.584C465.515 251.752 464.067 252.336 462.211 252.336C460.355 252.336 458.907 251.752 457.867 250.584C456.827 249.416 456.307 247.712 456.307 245.472V241.728ZM462.211 250.512C463.507 250.512 464.475 250.064 465.115 249.168C465.771 248.256 466.099 246.976 466.099 245.328V241.872C466.099 241.104 466.019 240.408 465.859 239.784C465.699 239.144 465.451 238.6 465.115 238.152C464.795 237.688 464.387 237.328 463.891 237.072C463.411 236.816 462.851 236.688 462.211 236.688C461.555 236.688 460.987 236.816 460.507 237.072C460.027 237.328 459.619 237.688 459.283 238.152C458.963 238.6 458.723 239.144 458.563 239.784C458.403 240.408 458.323 241.104 458.323 241.872V245.328C458.323 246.976 458.643 248.256 459.283 249.168C459.939 250.064 460.915 250.512 462.211 250.512ZM460.675 243.6C460.675 243.184 460.827 242.824 461.131 242.52C461.435 242.216 461.795 242.064 462.211 242.064C462.627 242.064 462.987 242.216 463.291 242.52C463.595 242.824 463.747 243.184 463.747 243.6C463.747 244.016 463.595 244.376 463.291 244.68C462.987 244.984 462.627 245.136 462.211 245.136C461.795 245.136 461.435 244.984 461.131 244.68C460.827 244.376 460.675 244.016 460.675 243.6ZM353.44 277.728C353.44 275.552 353.96 273.864 355 272.664C356.04 271.464 357.488 270.864 359.344 270.864C361.2 270.864 362.648 271.464 363.688 272.664C364.728 273.864 365.248 275.552 365.248 277.728V281.472C365.248 283.712 364.728 285.416 363.688 286.584C362.648 287.752 361.2 288.336 359.344 288.336C357.488 288.336 356.04 287.752 355 286.584C353.96 285.416 353.44 283.712 353.44 281.472V277.728ZM359.344 286.512C360.64 286.512 361.608 286.064 362.248 285.168C362.904 284.256 363.232 282.976 363.232 281.328V277.872C363.232 277.104 363.152 276.408 362.992 275.784C362.832 275.144 362.584 274.6 362.248 274.152C361.928 273.688 361.52 273.328 361.024 273.072C360.544 272.816 359.984 272.688 359.344 272.688C358.688 272.688 358.12 272.816 357.64 273.072C357.16 273.328 356.752 273.688 356.416 274.152C356.096 274.6 355.856 275.144 355.696 275.784C355.536 276.408 355.456 277.104 355.456 277.872V281.328C355.456 282.976 355.776 284.256 356.416 285.168C357.072 286.064 358.048 286.512 359.344 286.512ZM357.808 279.6C357.808 279.184 357.96 278.824 358.264 278.52C358.568 278.216 358.928 278.064 359.344 278.064C359.76 278.064 360.12 278.216 360.424 278.52C360.728 278.824 360.88 279.184 360.88 279.6C360.88 280.016 360.728 280.376 360.424 280.68C360.12 280.984 359.76 281.136 359.344 281.136C358.928 281.136 358.568 280.984 358.264 280.68C357.96 280.376 357.808 280.016 357.808 279.6ZM368.135 277.728C368.135 275.552 368.655 273.864 369.695 272.664C370.735 271.464 372.183 270.864 374.039 270.864C375.895 270.864 377.343 271.464 378.383 272.664C379.423 273.864 379.943 275.552 379.943 277.728V281.472C379.943 283.712 379.423 285.416 378.383 286.584C377.343 287.752 375.895 288.336 374.039 288.336C372.183 288.336 370.735 287.752 369.695 286.584C368.655 285.416 368.135 283.712 368.135 281.472V277.728ZM374.039 286.512C375.335 286.512 376.303 286.064 376.943 285.168C377.599 284.256 377.927 282.976 377.927 281.328V277.872C377.927 277.104 377.847 276.408 377.687 275.784C377.527 275.144 377.279 274.6 376.943 274.152C376.623 273.688 376.215 273.328 375.719 273.072C375.239 272.816 374.679 272.688 374.039 272.688C373.383 272.688 372.815 272.816 372.335 273.072C371.855 273.328 371.447 273.688 371.111 274.152C370.791 274.6 370.551 275.144 370.391 275.784C370.231 276.408 370.151 277.104 370.151 277.872V281.328C370.151 282.976 370.471 284.256 371.111 285.168C371.767 286.064 372.743 286.512 374.039 286.512ZM372.503 279.6C372.503 279.184 372.655 278.824 372.959 278.52C373.263 278.216 373.623 278.064 374.039 278.064C374.455 278.064 374.815 278.216 375.119 278.52C375.423 278.824 375.575 279.184 375.575 279.6C375.575 280.016 375.423 280.376 375.119 280.68C374.815 280.984 374.455 281.136 374.039 281.136C373.623 281.136 373.263 280.984 372.959 280.68C372.655 280.376 372.503 280.016 372.503 279.6ZM387.847 286.128V272.088H387.559L384.799 278.4H382.807V278.256L385.951 271.2H389.863V286.128H394.615V288H383.095V286.128H387.847ZM402.542 286.128V272.088H402.254L399.494 278.4H397.502V278.256L400.646 271.2H404.558V286.128H409.31V288H397.79V286.128H402.542ZM412.221 277.728C412.221 275.552 412.741 273.864 413.781 272.664C414.821 271.464 416.269 270.864 418.125 270.864C419.981 270.864 421.429 271.464 422.469 272.664C423.509 273.864 424.029 275.552 424.029 277.728V281.472C424.029 283.712 423.509 285.416 422.469 286.584C421.429 287.752 419.981 288.336 418.125 288.336C416.269 288.336 414.821 287.752 413.781 286.584C412.741 285.416 412.221 283.712 412.221 281.472V277.728ZM418.125 286.512C419.421 286.512 420.389 286.064 421.029 285.168C421.685 284.256 422.013 282.976 422.013 281.328V277.872C422.013 277.104 421.933 276.408 421.773 275.784C421.613 275.144 421.365 274.6 421.029 274.152C420.709 273.688 420.301 273.328 419.805 273.072C419.325 272.816 418.765 272.688 418.125 272.688C417.469 272.688 416.901 272.816 416.421 273.072C415.941 273.328 415.533 273.688 415.197 274.152C414.877 274.6 414.637 275.144 414.477 275.784C414.317 276.408 414.237 277.104 414.237 277.872V281.328C414.237 282.976 414.557 284.256 415.197 285.168C415.853 286.064 416.829 286.512 418.125 286.512ZM416.589 279.6C416.589 279.184 416.741 278.824 417.045 278.52C417.349 278.216 417.709 278.064 418.125 278.064C418.541 278.064 418.901 278.216 419.205 278.52C419.509 278.824 419.661 279.184 419.661 279.6C419.661 280.016 419.509 280.376 419.205 280.68C418.901 280.984 418.541 281.136 418.125 281.136C417.709 281.136 417.349 280.984 417.045 280.68C416.741 280.376 416.589 280.016 416.589 279.6ZM426.917 277.728C426.917 275.552 427.437 273.864 428.477 272.664C429.517 271.464 430.965 270.864 432.821 270.864C434.677 270.864 436.125 271.464 437.165 272.664C438.205 273.864 438.725 275.552 438.725 277.728V281.472C438.725 283.712 438.205 285.416 437.165 286.584C436.125 287.752 434.677 288.336 432.821 288.336C430.965 288.336 429.517 287.752 428.477 286.584C427.437 285.416 426.917 283.712 426.917 281.472V277.728ZM432.821 286.512C434.117 286.512 435.085 286.064 435.725 285.168C436.381 284.256 436.709 282.976 436.709 281.328V277.872C436.709 277.104 436.629 276.408 436.469 275.784C436.309 275.144 436.061 274.6 435.725 274.152C435.405 273.688 434.997 273.328 434.501 273.072C434.021 272.816 433.461 272.688 432.821 272.688C432.165 272.688 431.597 272.816 431.117 273.072C430.637 273.328 430.229 273.688 429.893 274.152C429.573 274.6 429.333 275.144 429.173 275.784C429.013 276.408 428.933 277.104 428.933 277.872V281.328C428.933 282.976 429.253 284.256 429.893 285.168C430.549 286.064 431.525 286.512 432.821 286.512ZM431.285 279.6C431.285 279.184 431.437 278.824 431.741 278.52C432.045 278.216 432.405 278.064 432.821 278.064C433.237 278.064 433.597 278.216 433.901 278.52C434.205 278.824 434.357 279.184 434.357 279.6C434.357 280.016 434.205 280.376 433.901 280.68C433.597 280.984 433.237 281.136 432.821 281.136C432.405 281.136 432.045 280.984 431.741 280.68C431.437 280.376 431.285 280.016 431.285 279.6ZM441.612 277.728C441.612 275.552 442.132 273.864 443.172 272.664C444.212 271.464 445.66 270.864 447.516 270.864C449.372 270.864 450.82 271.464 451.86 272.664C452.9 273.864 453.42 275.552 453.42 277.728V281.472C453.42 283.712 452.9 285.416 451.86 286.584C450.82 287.752 449.372 288.336 447.516 288.336C445.66 288.336 444.212 287.752 443.172 286.584C442.132 285.416 441.612 283.712 441.612 281.472V277.728ZM447.516 286.512C448.812 286.512 449.78 286.064 450.42 285.168C451.076 284.256 451.404 282.976 451.404 281.328V277.872C451.404 277.104 451.324 276.408 451.164 275.784C451.004 275.144 450.756 274.6 450.42 274.152C450.1 273.688 449.692 273.328 449.196 273.072C448.716 272.816 448.156 272.688 447.516 272.688C446.86 272.688 446.292 272.816 445.812 273.072C445.332 273.328 444.924 273.688 444.588 274.152C444.268 274.6 444.028 275.144 443.868 275.784C443.708 276.408 443.628 277.104 443.628 277.872V281.328C443.628 282.976 443.948 284.256 444.588 285.168C445.244 286.064 446.22 286.512 447.516 286.512ZM445.98 279.6C445.98 279.184 446.132 278.824 446.436 278.52C446.74 278.216 447.1 278.064 447.516 278.064C447.932 278.064 448.292 278.216 448.596 278.52C448.9 278.824 449.052 279.184 449.052 279.6C449.052 280.016 448.9 280.376 448.596 280.68C448.292 280.984 447.932 281.136 447.516 281.136C447.1 281.136 446.74 280.984 446.436 280.68C446.132 280.376 445.98 280.016 445.98 279.6ZM461.323 286.128V272.088H461.035L458.275 278.4H456.283V278.256L459.427 271.2H463.339V286.128H468.091V288H456.571V286.128H461.323ZM353.44 313.728C353.44 311.552 353.96 309.864 355 308.664C356.04 307.464 357.488 306.864 359.344 306.864C361.2 306.864 362.648 307.464 363.688 308.664C364.728 309.864 365.248 311.552 365.248 313.728V317.472C365.248 319.712 364.728 321.416 363.688 322.584C362.648 323.752 361.2 324.336 359.344 324.336C357.488 324.336 356.04 323.752 355 322.584C353.96 321.416 353.44 319.712 353.44 317.472V313.728ZM359.344 322.512C360.64 322.512 361.608 322.064 362.248 321.168C362.904 320.256 363.232 318.976 363.232 317.328V313.872C363.232 313.104 363.152 312.408 362.992 311.784C362.832 311.144 362.584 310.6 362.248 310.152C361.928 309.688 361.52 309.328 361.024 309.072C360.544 308.816 359.984 308.688 359.344 308.688C358.688 308.688 358.12 308.816 357.64 309.072C357.16 309.328 356.752 309.688 356.416 310.152C356.096 310.6 355.856 311.144 355.696 311.784C355.536 312.408 355.456 313.104 355.456 313.872V317.328C355.456 318.976 355.776 320.256 356.416 321.168C357.072 322.064 358.048 322.512 359.344 322.512ZM357.808 315.6C357.808 315.184 357.96 314.824 358.264 314.52C358.568 314.216 358.928 314.064 359.344 314.064C359.76 314.064 360.12 314.216 360.424 314.52C360.728 314.824 360.88 315.184 360.88 315.6C360.88 316.016 360.728 316.376 360.424 316.68C360.12 316.984 359.76 317.136 359.344 317.136C358.928 317.136 358.568 316.984 358.264 316.68C357.96 316.376 357.808 316.016 357.808 315.6ZM368.135 313.728C368.135 311.552 368.655 309.864 369.695 308.664C370.735 307.464 372.183 306.864 374.039 306.864C375.895 306.864 377.343 307.464 378.383 308.664C379.423 309.864 379.943 311.552 379.943 313.728V317.472C379.943 319.712 379.423 321.416 378.383 322.584C377.343 323.752 375.895 324.336 374.039 324.336C372.183 324.336 370.735 323.752 369.695 322.584C368.655 321.416 368.135 319.712 368.135 317.472V313.728ZM374.039 322.512C375.335 322.512 376.303 322.064 376.943 321.168C377.599 320.256 377.927 318.976 377.927 317.328V313.872C377.927 313.104 377.847 312.408 377.687 311.784C377.527 311.144 377.279 310.6 376.943 310.152C376.623 309.688 376.215 309.328 375.719 309.072C375.239 308.816 374.679 308.688 374.039 308.688C373.383 308.688 372.815 308.816 372.335 309.072C371.855 309.328 371.447 309.688 371.111 310.152C370.791 310.6 370.551 311.144 370.391 311.784C370.231 312.408 370.151 313.104 370.151 313.872V317.328C370.151 318.976 370.471 320.256 371.111 321.168C371.767 322.064 372.743 322.512 374.039 322.512ZM372.503 315.6C372.503 315.184 372.655 314.824 372.959 314.52C373.263 314.216 373.623 314.064 374.039 314.064C374.455 314.064 374.815 314.216 375.119 314.52C375.423 314.824 375.575 315.184 375.575 315.6C375.575 316.016 375.423 316.376 375.119 316.68C374.815 316.984 374.455 317.136 374.039 317.136C373.623 317.136 373.263 316.984 372.959 316.68C372.655 316.376 372.503 316.016 372.503 315.6ZM387.847 322.128V308.088H387.559L384.799 314.4H382.807V314.256L385.951 307.2H389.863V322.128H394.615V324H383.095V322.128H387.847ZM402.542 322.128V308.088H402.254L399.494 314.4H397.502V314.256L400.646 307.2H404.558V322.128H409.31V324H397.79V322.128H402.542ZM412.221 313.728C412.221 311.552 412.741 309.864 413.781 308.664C414.821 307.464 416.269 306.864 418.125 306.864C419.981 306.864 421.429 307.464 422.469 308.664C423.509 309.864 424.029 311.552 424.029 313.728V317.472C424.029 319.712 423.509 321.416 422.469 322.584C421.429 323.752 419.981 324.336 418.125 324.336C416.269 324.336 414.821 323.752 413.781 322.584C412.741 321.416 412.221 319.712 412.221 317.472V313.728ZM418.125 322.512C419.421 322.512 420.389 322.064 421.029 321.168C421.685 320.256 422.013 318.976 422.013 317.328V313.872C422.013 313.104 421.933 312.408 421.773 311.784C421.613 311.144 421.365 310.6 421.029 310.152C420.709 309.688 420.301 309.328 419.805 309.072C419.325 308.816 418.765 308.688 418.125 308.688C417.469 308.688 416.901 308.816 416.421 309.072C415.941 309.328 415.533 309.688 415.197 310.152C414.877 310.6 414.637 311.144 414.477 311.784C414.317 312.408 414.237 313.104 414.237 313.872V317.328C414.237 318.976 414.557 320.256 415.197 321.168C415.853 322.064 416.829 322.512 418.125 322.512ZM416.589 315.6C416.589 315.184 416.741 314.824 417.045 314.52C417.349 314.216 417.709 314.064 418.125 314.064C418.541 314.064 418.901 314.216 419.205 314.52C419.509 314.824 419.661 315.184 419.661 315.6C419.661 316.016 419.509 316.376 419.205 316.68C418.901 316.984 418.541 317.136 418.125 317.136C417.709 317.136 417.349 316.984 417.045 316.68C416.741 316.376 416.589 316.016 416.589 315.6ZM426.917 313.728C426.917 311.552 427.437 309.864 428.477 308.664C429.517 307.464 430.965 306.864 432.821 306.864C434.677 306.864 436.125 307.464 437.165 308.664C438.205 309.864 438.725 311.552 438.725 313.728V317.472C438.725 319.712 438.205 321.416 437.165 322.584C436.125 323.752 434.677 324.336 432.821 324.336C430.965 324.336 429.517 323.752 428.477 322.584C427.437 321.416 426.917 319.712 426.917 317.472V313.728ZM432.821 322.512C434.117 322.512 435.085 322.064 435.725 321.168C436.381 320.256 436.709 318.976 436.709 317.328V313.872C436.709 313.104 436.629 312.408 436.469 311.784C436.309 311.144 436.061 310.6 435.725 310.152C435.405 309.688 434.997 309.328 434.501 309.072C434.021 308.816 433.461 308.688 432.821 308.688C432.165 308.688 431.597 308.816 431.117 309.072C430.637 309.328 430.229 309.688 429.893 310.152C429.573 310.6 429.333 311.144 429.173 311.784C429.013 312.408 428.933 313.104 428.933 313.872V317.328C428.933 318.976 429.253 320.256 429.893 321.168C430.549 322.064 431.525 322.512 432.821 322.512ZM431.285 315.6C431.285 315.184 431.437 314.824 431.741 314.52C432.045 314.216 432.405 314.064 432.821 314.064C433.237 314.064 433.597 314.216 433.901 314.52C434.205 314.824 434.357 315.184 434.357 315.6C434.357 316.016 434.205 316.376 433.901 316.68C433.597 316.984 433.237 317.136 432.821 317.136C432.405 317.136 432.045 316.984 431.741 316.68C431.437 316.376 431.285 316.016 431.285 315.6ZM446.628 322.128V308.088H446.34L443.58 314.4H441.588V314.256L444.732 307.2H448.644V322.128H453.396V324H441.876V322.128H446.628ZM456.307 313.728C456.307 311.552 456.827 309.864 457.867 308.664C458.907 307.464 460.355 306.864 462.211 306.864C464.067 306.864 465.515 307.464 466.555 308.664C467.595 309.864 468.115 311.552 468.115 313.728V317.472C468.115 319.712 467.595 321.416 466.555 322.584C465.515 323.752 464.067 324.336 462.211 324.336C460.355 324.336 458.907 323.752 457.867 322.584C456.827 321.416 456.307 319.712 456.307 317.472V313.728ZM462.211 322.512C463.507 322.512 464.475 322.064 465.115 321.168C465.771 320.256 466.099 318.976 466.099 317.328V313.872C466.099 313.104 466.019 312.408 465.859 311.784C465.699 311.144 465.451 310.6 465.115 310.152C464.795 309.688 464.387 309.328 463.891 309.072C463.411 308.816 462.851 308.688 462.211 308.688C461.555 308.688 460.987 308.816 460.507 309.072C460.027 309.328 459.619 309.688 459.283 310.152C458.963 310.6 458.723 311.144 458.563 311.784C458.403 312.408 458.323 313.104 458.323 313.872V317.328C458.323 318.976 458.643 320.256 459.283 321.168C459.939 322.064 460.915 322.512 462.211 322.512ZM460.675 315.6C460.675 315.184 460.827 314.824 461.131 314.52C461.435 314.216 461.795 314.064 462.211 314.064C462.627 314.064 462.987 314.216 463.291 314.52C463.595 314.824 463.747 315.184 463.747 315.6C463.747 316.016 463.595 316.376 463.291 316.68C462.987 316.984 462.627 317.136 462.211 317.136C461.795 317.136 461.435 316.984 461.131 316.68C460.827 316.376 460.675 316.016 460.675 315.6ZM353.44 349.728C353.44 347.552 353.96 345.864 355 344.664C356.04 343.464 357.488 342.864 359.344 342.864C361.2 342.864 362.648 343.464 363.688 344.664C364.728 345.864 365.248 347.552 365.248 349.728V353.472C365.248 355.712 364.728 357.416 363.688 358.584C362.648 359.752 361.2 360.336 359.344 360.336C357.488 360.336 356.04 359.752 355 358.584C353.96 357.416 353.44 355.712 353.44 353.472V349.728ZM359.344 358.512C360.64 358.512 361.608 358.064 362.248 357.168C362.904 356.256 363.232 354.976 363.232 353.328V349.872C363.232 349.104 363.152 348.408 362.992 347.784C362.832 347.144 362.584 346.6 362.248 346.152C361.928 345.688 361.52 345.328 361.024 345.072C360.544 344.816 359.984 344.688 359.344 344.688C358.688 344.688 358.12 344.816 357.64 345.072C357.16 345.328 356.752 345.688 356.416 346.152C356.096 346.6 355.856 347.144 355.696 347.784C355.536 348.408 355.456 349.104 355.456 349.872V353.328C355.456 354.976 355.776 356.256 356.416 357.168C357.072 358.064 358.048 358.512 359.344 358.512ZM357.808 351.6C357.808 351.184 357.96 350.824 358.264 350.52C358.568 350.216 358.928 350.064 359.344 350.064C359.76 350.064 360.12 350.216 360.424 350.52C360.728 350.824 360.88 351.184 360.88 351.6C360.88 352.016 360.728 352.376 360.424 352.68C360.12 352.984 359.76 353.136 359.344 353.136C358.928 353.136 358.568 352.984 358.264 352.68C357.96 352.376 357.808 352.016 357.808 351.6ZM368.135 349.728C368.135 347.552 368.655 345.864 369.695 344.664C370.735 343.464 372.183 342.864 374.039 342.864C375.895 342.864 377.343 343.464 378.383 344.664C379.423 345.864 379.943 347.552 379.943 349.728V353.472C379.943 355.712 379.423 357.416 378.383 358.584C377.343 359.752 375.895 360.336 374.039 360.336C372.183 360.336 370.735 359.752 369.695 358.584C368.655 357.416 368.135 355.712 368.135 353.472V349.728ZM374.039 358.512C375.335 358.512 376.303 358.064 376.943 357.168C377.599 356.256 377.927 354.976 377.927 353.328V349.872C377.927 349.104 377.847 348.408 377.687 347.784C377.527 347.144 377.279 346.6 376.943 346.152C376.623 345.688 376.215 345.328 375.719 345.072C375.239 344.816 374.679 344.688 374.039 344.688C373.383 344.688 372.815 344.816 372.335 345.072C371.855 345.328 371.447 345.688 371.111 346.152C370.791 346.6 370.551 347.144 370.391 347.784C370.231 348.408 370.151 349.104 370.151 349.872V353.328C370.151 354.976 370.471 356.256 371.111 357.168C371.767 358.064 372.743 358.512 374.039 358.512ZM372.503 351.6C372.503 351.184 372.655 350.824 372.959 350.52C373.263 350.216 373.623 350.064 374.039 350.064C374.455 350.064 374.815 350.216 375.119 350.52C375.423 350.824 375.575 351.184 375.575 351.6C375.575 352.016 375.423 352.376 375.119 352.68C374.815 352.984 374.455 353.136 374.039 353.136C373.623 353.136 373.263 352.984 372.959 352.68C372.655 352.376 372.503 352.016 372.503 351.6ZM387.847 358.128V344.088H387.559L384.799 350.4H382.807V350.256L385.951 343.2H389.863V358.128H394.615V360H383.095V358.128H387.847ZM402.542 358.128V344.088H402.254L399.494 350.4H397.502V350.256L400.646 343.2H404.558V358.128H409.31V360H397.79V358.128H402.542ZM412.221 349.728C412.221 347.552 412.741 345.864 413.781 344.664C414.821 343.464 416.269 342.864 418.125 342.864C419.981 342.864 421.429 343.464 422.469 344.664C423.509 345.864 424.029 347.552 424.029 349.728V353.472C424.029 355.712 423.509 357.416 422.469 358.584C421.429 359.752 419.981 360.336 418.125 360.336C416.269 360.336 414.821 359.752 413.781 358.584C412.741 357.416 412.221 355.712 412.221 353.472V349.728ZM418.125 358.512C419.421 358.512 420.389 358.064 421.029 357.168C421.685 356.256 422.013 354.976 422.013 353.328V349.872C422.013 349.104 421.933 348.408 421.773 347.784C421.613 347.144 421.365 346.6 421.029 346.152C420.709 345.688 420.301 345.328 419.805 345.072C419.325 344.816 418.765 344.688 418.125 344.688C417.469 344.688 416.901 344.816 416.421 345.072C415.941 345.328 415.533 345.688 415.197 346.152C414.877 346.6 414.637 347.144 414.477 347.784C414.317 348.408 414.237 349.104 414.237 349.872V353.328C414.237 354.976 414.557 356.256 415.197 357.168C415.853 358.064 416.829 358.512 418.125 358.512ZM416.589 351.6C416.589 351.184 416.741 350.824 417.045 350.52C417.349 350.216 417.709 350.064 418.125 350.064C418.541 350.064 418.901 350.216 419.205 350.52C419.509 350.824 419.661 351.184 419.661 351.6C419.661 352.016 419.509 352.376 419.205 352.68C418.901 352.984 418.541 353.136 418.125 353.136C417.709 353.136 417.349 352.984 417.045 352.68C416.741 352.376 416.589 352.016 416.589 351.6ZM426.917 349.728C426.917 347.552 427.437 345.864 428.477 344.664C429.517 343.464 430.965 342.864 432.821 342.864C434.677 342.864 436.125 343.464 437.165 344.664C438.205 345.864 438.725 347.552 438.725 349.728V353.472C438.725 355.712 438.205 357.416 437.165 358.584C436.125 359.752 434.677 360.336 432.821 360.336C430.965 360.336 429.517 359.752 428.477 358.584C427.437 357.416 426.917 355.712 426.917 353.472V349.728ZM432.821 358.512C434.117 358.512 435.085 358.064 435.725 357.168C436.381 356.256 436.709 354.976 436.709 353.328V349.872C436.709 349.104 436.629 348.408 436.469 347.784C436.309 347.144 436.061 346.6 435.725 346.152C435.405 345.688 434.997 345.328 434.501 345.072C434.021 344.816 433.461 344.688 432.821 344.688C432.165 344.688 431.597 344.816 431.117 345.072C430.637 345.328 430.229 345.688 429.893 346.152C429.573 346.6 429.333 347.144 429.173 347.784C429.013 348.408 428.933 349.104 428.933 349.872V353.328C428.933 354.976 429.253 356.256 429.893 357.168C430.549 358.064 431.525 358.512 432.821 358.512ZM431.285 351.6C431.285 351.184 431.437 350.824 431.741 350.52C432.045 350.216 432.405 350.064 432.821 350.064C433.237 350.064 433.597 350.216 433.901 350.52C434.205 350.824 434.357 351.184 434.357 351.6C434.357 352.016 434.205 352.376 433.901 352.68C433.597 352.984 433.237 353.136 432.821 353.136C432.405 353.136 432.045 352.984 431.741 352.68C431.437 352.376 431.285 352.016 431.285 351.6ZM441.612 349.728C441.612 347.552 442.132 345.864 443.172 344.664C444.212 343.464 445.66 342.864 447.516 342.864C449.372 342.864 450.82 343.464 451.86 344.664C452.9 345.864 453.42 347.552 453.42 349.728V353.472C453.42 355.712 452.9 357.416 451.86 358.584C450.82 359.752 449.372 360.336 447.516 360.336C445.66 360.336 444.212 359.752 443.172 358.584C442.132 357.416 441.612 355.712 441.612 353.472V349.728ZM447.516 358.512C448.812 358.512 449.78 358.064 450.42 357.168C451.076 356.256 451.404 354.976 451.404 353.328V349.872C451.404 349.104 451.324 348.408 451.164 347.784C451.004 347.144 450.756 346.6 450.42 346.152C450.1 345.688 449.692 345.328 449.196 345.072C448.716 344.816 448.156 344.688 447.516 344.688C446.86 344.688 446.292 344.816 445.812 345.072C445.332 345.328 444.924 345.688 444.588 346.152C444.268 346.6 444.028 347.144 443.868 347.784C443.708 348.408 443.628 349.104 443.628 349.872V353.328C443.628 354.976 443.948 356.256 444.588 357.168C445.244 358.064 446.22 358.512 447.516 358.512ZM445.98 351.6C445.98 351.184 446.132 350.824 446.436 350.52C446.74 350.216 447.1 350.064 447.516 350.064C447.932 350.064 448.292 350.216 448.596 350.52C448.9 350.824 449.052 351.184 449.052 351.6C449.052 352.016 448.9 352.376 448.596 352.68C448.292 352.984 447.932 353.136 447.516 353.136C447.1 353.136 446.74 352.984 446.436 352.68C446.132 352.376 445.98 352.016 445.98 351.6ZM456.307 349.728C456.307 347.552 456.827 345.864 457.867 344.664C458.907 343.464 460.355 342.864 462.211 342.864C464.067 342.864 465.515 343.464 466.555 344.664C467.595 345.864 468.115 347.552 468.115 349.728V353.472C468.115 355.712 467.595 357.416 466.555 358.584C465.515 359.752 464.067 360.336 462.211 360.336C460.355 360.336 458.907 359.752 457.867 358.584C456.827 357.416 456.307 355.712 456.307 353.472V349.728ZM462.211 358.512C463.507 358.512 464.475 358.064 465.115 357.168C465.771 356.256 466.099 354.976 466.099 353.328V349.872C466.099 349.104 466.019 348.408 465.859 347.784C465.699 347.144 465.451 346.6 465.115 346.152C464.795 345.688 464.387 345.328 463.891 345.072C463.411 344.816 462.851 344.688 462.211 344.688C461.555 344.688 460.987 344.816 460.507 345.072C460.027 345.328 459.619 345.688 459.283 346.152C458.963 346.6 458.723 347.144 458.563 347.784C458.403 348.408 458.323 349.104 458.323 349.872V353.328C458.323 354.976 458.643 356.256 459.283 357.168C459.939 358.064 460.915 358.512 462.211 358.512ZM460.675 351.6C460.675 351.184 460.827 350.824 461.131 350.52C461.435 350.216 461.795 350.064 462.211 350.064C462.627 350.064 462.987 350.216 463.291 350.52C463.595 350.824 463.747 351.184 463.747 351.6C463.747 352.016 463.595 352.376 463.291 352.68C462.987 352.984 462.627 353.136 462.211 353.136C461.795 353.136 461.435 352.984 461.131 352.68C460.827 352.376 460.675 352.016 460.675 351.6ZM353.44 385.728C353.44 383.552 353.96 381.864 355 380.664C356.04 379.464 357.488 378.864 359.344 378.864C361.2 378.864 362.648 379.464 363.688 380.664C364.728 381.864 365.248 383.552 365.248 385.728V389.472C365.248 391.712 364.728 393.416 363.688 394.584C362.648 395.752 361.2 396.336 359.344 396.336C357.488 396.336 356.04 395.752 355 394.584C353.96 393.416 353.44 391.712 353.44 389.472V385.728ZM359.344 394.512C360.64 394.512 361.608 394.064 362.248 393.168C362.904 392.256 363.232 390.976 363.232 389.328V385.872C363.232 385.104 363.152 384.408 362.992 383.784C362.832 383.144 362.584 382.6 362.248 382.152C361.928 381.688 361.52 381.328 361.024 381.072C360.544 380.816 359.984 380.688 359.344 380.688C358.688 380.688 358.12 380.816 357.64 381.072C357.16 381.328 356.752 381.688 356.416 382.152C356.096 382.6 355.856 383.144 355.696 383.784C355.536 384.408 355.456 385.104 355.456 385.872V389.328C355.456 390.976 355.776 392.256 356.416 393.168C357.072 394.064 358.048 394.512 359.344 394.512ZM357.808 387.6C357.808 387.184 357.96 386.824 358.264 386.52C358.568 386.216 358.928 386.064 359.344 386.064C359.76 386.064 360.12 386.216 360.424 386.52C360.728 386.824 360.88 387.184 360.88 387.6C360.88 388.016 360.728 388.376 360.424 388.68C360.12 388.984 359.76 389.136 359.344 389.136C358.928 389.136 358.568 388.984 358.264 388.68C357.96 388.376 357.808 388.016 357.808 387.6ZM368.135 385.728C368.135 383.552 368.655 381.864 369.695 380.664C370.735 379.464 372.183 378.864 374.039 378.864C375.895 378.864 377.343 379.464 378.383 380.664C379.423 381.864 379.943 383.552 379.943 385.728V389.472C379.943 391.712 379.423 393.416 378.383 394.584C377.343 395.752 375.895 396.336 374.039 396.336C372.183 396.336 370.735 395.752 369.695 394.584C368.655 393.416 368.135 391.712 368.135 389.472V385.728ZM374.039 394.512C375.335 394.512 376.303 394.064 376.943 393.168C377.599 392.256 377.927 390.976 377.927 389.328V385.872C377.927 385.104 377.847 384.408 377.687 383.784C377.527 383.144 377.279 382.6 376.943 382.152C376.623 381.688 376.215 381.328 375.719 381.072C375.239 380.816 374.679 380.688 374.039 380.688C373.383 380.688 372.815 380.816 372.335 381.072C371.855 381.328 371.447 381.688 371.111 382.152C370.791 382.6 370.551 383.144 370.391 383.784C370.231 384.408 370.151 385.104 370.151 385.872V389.328C370.151 390.976 370.471 392.256 371.111 393.168C371.767 394.064 372.743 394.512 374.039 394.512ZM372.503 387.6C372.503 387.184 372.655 386.824 372.959 386.52C373.263 386.216 373.623 386.064 374.039 386.064C374.455 386.064 374.815 386.216 375.119 386.52C375.423 386.824 375.575 387.184 375.575 387.6C375.575 388.016 375.423 388.376 375.119 388.68C374.815 388.984 374.455 389.136 374.039 389.136C373.623 389.136 373.263 388.984 372.959 388.68C372.655 388.376 372.503 388.016 372.503 387.6ZM387.847 394.128V380.088H387.559L384.799 386.4H382.807V386.256L385.951 379.2H389.863V394.128H394.615V396H383.095V394.128H387.847ZM402.542 394.128V380.088H402.254L399.494 386.4H397.502V386.256L400.646 379.2H404.558V394.128H409.31V396H397.79V394.128H402.542ZM412.221 385.728C412.221 383.552 412.741 381.864 413.781 380.664C414.821 379.464 416.269 378.864 418.125 378.864C419.981 378.864 421.429 379.464 422.469 380.664C423.509 381.864 424.029 383.552 424.029 385.728V389.472C424.029 391.712 423.509 393.416 422.469 394.584C421.429 395.752 419.981 396.336 418.125 396.336C416.269 396.336 414.821 395.752 413.781 394.584C412.741 393.416 412.221 391.712 412.221 389.472V385.728ZM418.125 394.512C419.421 394.512 420.389 394.064 421.029 393.168C421.685 392.256 422.013 390.976 422.013 389.328V385.872C422.013 385.104 421.933 384.408 421.773 383.784C421.613 383.144 421.365 382.6 421.029 382.152C420.709 381.688 420.301 381.328 419.805 381.072C419.325 380.816 418.765 380.688 418.125 380.688C417.469 380.688 416.901 380.816 416.421 381.072C415.941 381.328 415.533 381.688 415.197 382.152C414.877 382.6 414.637 383.144 414.477 383.784C414.317 384.408 414.237 385.104 414.237 385.872V389.328C414.237 390.976 414.557 392.256 415.197 393.168C415.853 394.064 416.829 394.512 418.125 394.512ZM416.589 387.6C416.589 387.184 416.741 386.824 417.045 386.52C417.349 386.216 417.709 386.064 418.125 386.064C418.541 386.064 418.901 386.216 419.205 386.52C419.509 386.824 419.661 387.184 419.661 387.6C419.661 388.016 419.509 388.376 419.205 388.68C418.901 388.984 418.541 389.136 418.125 389.136C417.709 389.136 417.349 388.984 417.045 388.68C416.741 388.376 416.589 388.016 416.589 387.6ZM426.917 385.728C426.917 383.552 427.437 381.864 428.477 380.664C429.517 379.464 430.965 378.864 432.821 378.864C434.677 378.864 436.125 379.464 437.165 380.664C438.205 381.864 438.725 383.552 438.725 385.728V389.472C438.725 391.712 438.205 393.416 437.165 394.584C436.125 395.752 434.677 396.336 432.821 396.336C430.965 396.336 429.517 395.752 428.477 394.584C427.437 393.416 426.917 391.712 426.917 389.472V385.728ZM432.821 394.512C434.117 394.512 435.085 394.064 435.725 393.168C436.381 392.256 436.709 390.976 436.709 389.328V385.872C436.709 385.104 436.629 384.408 436.469 383.784C436.309 383.144 436.061 382.6 435.725 382.152C435.405 381.688 434.997 381.328 434.501 381.072C434.021 380.816 433.461 380.688 432.821 380.688C432.165 380.688 431.597 380.816 431.117 381.072C430.637 381.328 430.229 381.688 429.893 382.152C429.573 382.6 429.333 383.144 429.173 383.784C429.013 384.408 428.933 385.104 428.933 385.872V389.328C428.933 390.976 429.253 392.256 429.893 393.168C430.549 394.064 431.525 394.512 432.821 394.512ZM431.285 387.6C431.285 387.184 431.437 386.824 431.741 386.52C432.045 386.216 432.405 386.064 432.821 386.064C433.237 386.064 433.597 386.216 433.901 386.52C434.205 386.824 434.357 387.184 434.357 387.6C434.357 388.016 434.205 388.376 433.901 388.68C433.597 388.984 433.237 389.136 432.821 389.136C432.405 389.136 432.045 388.984 431.741 388.68C431.437 388.376 431.285 388.016 431.285 387.6ZM441.612 385.728C441.612 383.552 442.132 381.864 443.172 380.664C444.212 379.464 445.66 378.864 447.516 378.864C449.372 378.864 450.82 379.464 451.86 380.664C452.9 381.864 453.42 383.552 453.42 385.728V389.472C453.42 391.712 452.9 393.416 451.86 394.584C450.82 395.752 449.372 396.336 447.516 396.336C445.66 396.336 444.212 395.752 443.172 394.584C442.132 393.416 441.612 391.712 441.612 389.472V385.728ZM447.516 394.512C448.812 394.512 449.78 394.064 450.42 393.168C451.076 392.256 451.404 390.976 451.404 389.328V385.872C451.404 385.104 451.324 384.408 451.164 383.784C451.004 383.144 450.756 382.6 450.42 382.152C450.1 381.688 449.692 381.328 449.196 381.072C448.716 380.816 448.156 380.688 447.516 380.688C446.86 380.688 446.292 380.816 445.812 381.072C445.332 381.328 444.924 381.688 444.588 382.152C444.268 382.6 444.028 383.144 443.868 383.784C443.708 384.408 443.628 385.104 443.628 385.872V389.328C443.628 390.976 443.948 392.256 444.588 393.168C445.244 394.064 446.22 394.512 447.516 394.512ZM445.98 387.6C445.98 387.184 446.132 386.824 446.436 386.52C446.74 386.216 447.1 386.064 447.516 386.064C447.932 386.064 448.292 386.216 448.596 386.52C448.9 386.824 449.052 387.184 449.052 387.6C449.052 388.016 448.9 388.376 448.596 388.68C448.292 388.984 447.932 389.136 447.516 389.136C447.1 389.136 446.74 388.984 446.436 388.68C446.132 388.376 445.98 388.016 445.98 387.6ZM456.307 385.728C456.307 383.552 456.827 381.864 457.867 380.664C458.907 379.464 460.355 378.864 462.211 378.864C464.067 378.864 465.515 379.464 466.555 380.664C467.595 381.864 468.115 383.552 468.115 385.728V389.472C468.115 391.712 467.595 393.416 466.555 394.584C465.515 395.752 464.067 396.336 462.211 396.336C460.355 396.336 458.907 395.752 457.867 394.584C456.827 393.416 456.307 391.712 456.307 389.472V385.728ZM462.211 394.512C463.507 394.512 464.475 394.064 465.115 393.168C465.771 392.256 466.099 390.976 466.099 389.328V385.872C466.099 385.104 466.019 384.408 465.859 383.784C465.699 383.144 465.451 382.6 465.115 382.152C464.795 381.688 464.387 381.328 463.891 381.072C463.411 380.816 462.851 380.688 462.211 380.688C461.555 380.688 460.987 380.816 460.507 381.072C460.027 381.328 459.619 381.688 459.283 382.152C458.963 382.6 458.723 383.144 458.563 383.784C458.403 384.408 458.323 385.104 458.323 385.872V389.328C458.323 390.976 458.643 392.256 459.283 393.168C459.939 394.064 460.915 394.512 462.211 394.512ZM460.675 387.6C460.675 387.184 460.827 386.824 461.131 386.52C461.435 386.216 461.795 386.064 462.211 386.064C462.627 386.064 462.987 386.216 463.291 386.52C463.595 386.824 463.747 387.184 463.747 387.6C463.747 388.016 463.595 388.376 463.291 388.68C462.987 388.984 462.627 389.136 462.211 389.136C461.795 389.136 461.435 388.984 461.131 388.68C460.827 388.376 460.675 388.016 460.675 387.6ZM353.44 421.728C353.44 419.552 353.96 417.864 355 416.664C356.04 415.464 357.488 414.864 359.344 414.864C361.2 414.864 362.648 415.464 363.688 416.664C364.728 417.864 365.248 419.552 365.248 421.728V425.472C365.248 427.712 364.728 429.416 363.688 430.584C362.648 431.752 361.2 432.336 359.344 432.336C357.488 432.336 356.04 431.752 355 430.584C353.96 429.416 353.44 427.712 353.44 425.472V421.728ZM359.344 430.512C360.64 430.512 361.608 430.064 362.248 429.168C362.904 428.256 363.232 426.976 363.232 425.328V421.872C363.232 421.104 363.152 420.408 362.992 419.784C362.832 419.144 362.584 418.6 362.248 418.152C361.928 417.688 361.52 417.328 361.024 417.072C360.544 416.816 359.984 416.688 359.344 416.688C358.688 416.688 358.12 416.816 357.64 417.072C357.16 417.328 356.752 417.688 356.416 418.152C356.096 418.6 355.856 419.144 355.696 419.784C355.536 420.408 355.456 421.104 355.456 421.872V425.328C355.456 426.976 355.776 428.256 356.416 429.168C357.072 430.064 358.048 430.512 359.344 430.512ZM357.808 423.6C357.808 423.184 357.96 422.824 358.264 422.52C358.568 422.216 358.928 422.064 359.344 422.064C359.76 422.064 360.12 422.216 360.424 422.52C360.728 422.824 360.88 423.184 360.88 423.6C360.88 424.016 360.728 424.376 360.424 424.68C360.12 424.984 359.76 425.136 359.344 425.136C358.928 425.136 358.568 424.984 358.264 424.68C357.96 424.376 357.808 424.016 357.808 423.6ZM368.135 421.728C368.135 419.552 368.655 417.864 369.695 416.664C370.735 415.464 372.183 414.864 374.039 414.864C375.895 414.864 377.343 415.464 378.383 416.664C379.423 417.864 379.943 419.552 379.943 421.728V425.472C379.943 427.712 379.423 429.416 378.383 430.584C377.343 431.752 375.895 432.336 374.039 432.336C372.183 432.336 370.735 431.752 369.695 430.584C368.655 429.416 368.135 427.712 368.135 425.472V421.728ZM374.039 430.512C375.335 430.512 376.303 430.064 376.943 429.168C377.599 428.256 377.927 426.976 377.927 425.328V421.872C377.927 421.104 377.847 420.408 377.687 419.784C377.527 419.144 377.279 418.6 376.943 418.152C376.623 417.688 376.215 417.328 375.719 417.072C375.239 416.816 374.679 416.688 374.039 416.688C373.383 416.688 372.815 416.816 372.335 417.072C371.855 417.328 371.447 417.688 371.111 418.152C370.791 418.6 370.551 419.144 370.391 419.784C370.231 420.408 370.151 421.104 370.151 421.872V425.328C370.151 426.976 370.471 428.256 371.111 429.168C371.767 430.064 372.743 430.512 374.039 430.512ZM372.503 423.6C372.503 423.184 372.655 422.824 372.959 422.52C373.263 422.216 373.623 422.064 374.039 422.064C374.455 422.064 374.815 422.216 375.119 422.52C375.423 422.824 375.575 423.184 375.575 423.6C375.575 424.016 375.423 424.376 375.119 424.68C374.815 424.984 374.455 425.136 374.039 425.136C373.623 425.136 373.263 424.984 372.959 424.68C372.655 424.376 372.503 424.016 372.503 423.6ZM387.847 430.128V416.088H387.559L384.799 422.4H382.807V422.256L385.951 415.2H389.863V430.128H394.615V432H383.095V430.128H387.847ZM402.542 430.128V416.088H402.254L399.494 422.4H397.502V422.256L400.646 415.2H404.558V430.128H409.31V432H397.79V430.128H402.542ZM412.221 421.728C412.221 419.552 412.741 417.864 413.781 416.664C414.821 415.464 416.269 414.864 418.125 414.864C419.981 414.864 421.429 415.464 422.469 416.664C423.509 417.864 424.029 419.552 424.029 421.728V425.472C424.029 427.712 423.509 429.416 422.469 430.584C421.429 431.752 419.981 432.336 418.125 432.336C416.269 432.336 414.821 431.752 413.781 430.584C412.741 429.416 412.221 427.712 412.221 425.472V421.728ZM418.125 430.512C419.421 430.512 420.389 430.064 421.029 429.168C421.685 428.256 422.013 426.976 422.013 425.328V421.872C422.013 421.104 421.933 420.408 421.773 419.784C421.613 419.144 421.365 418.6 421.029 418.152C420.709 417.688 420.301 417.328 419.805 417.072C419.325 416.816 418.765 416.688 418.125 416.688C417.469 416.688 416.901 416.816 416.421 417.072C415.941 417.328 415.533 417.688 415.197 418.152C414.877 418.6 414.637 419.144 414.477 419.784C414.317 420.408 414.237 421.104 414.237 421.872V425.328C414.237 426.976 414.557 428.256 415.197 429.168C415.853 430.064 416.829 430.512 418.125 430.512ZM416.589 423.6C416.589 423.184 416.741 422.824 417.045 422.52C417.349 422.216 417.709 422.064 418.125 422.064C418.541 422.064 418.901 422.216 419.205 422.52C419.509 422.824 419.661 423.184 419.661 423.6C419.661 424.016 419.509 424.376 419.205 424.68C418.901 424.984 418.541 425.136 418.125 425.136C417.709 425.136 417.349 424.984 417.045 424.68C416.741 424.376 416.589 424.016 416.589 423.6ZM426.917 421.728C426.917 419.552 427.437 417.864 428.477 416.664C429.517 415.464 430.965 414.864 432.821 414.864C434.677 414.864 436.125 415.464 437.165 416.664C438.205 417.864 438.725 419.552 438.725 421.728V425.472C438.725 427.712 438.205 429.416 437.165 430.584C436.125 431.752 434.677 432.336 432.821 432.336C430.965 432.336 429.517 431.752 428.477 430.584C427.437 429.416 426.917 427.712 426.917 425.472V421.728ZM432.821 430.512C434.117 430.512 435.085 430.064 435.725 429.168C436.381 428.256 436.709 426.976 436.709 425.328V421.872C436.709 421.104 436.629 420.408 436.469 419.784C436.309 419.144 436.061 418.6 435.725 418.152C435.405 417.688 434.997 417.328 434.501 417.072C434.021 416.816 433.461 416.688 432.821 416.688C432.165 416.688 431.597 416.816 431.117 417.072C430.637 417.328 430.229 417.688 429.893 418.152C429.573 418.6 429.333 419.144 429.173 419.784C429.013 420.408 428.933 421.104 428.933 421.872V425.328C428.933 426.976 429.253 428.256 429.893 429.168C430.549 430.064 431.525 430.512 432.821 430.512ZM431.285 423.6C431.285 423.184 431.437 422.824 431.741 422.52C432.045 422.216 432.405 422.064 432.821 422.064C433.237 422.064 433.597 422.216 433.901 422.52C434.205 422.824 434.357 423.184 434.357 423.6C434.357 424.016 434.205 424.376 433.901 424.68C433.597 424.984 433.237 425.136 432.821 425.136C432.405 425.136 432.045 424.984 431.741 424.68C431.437 424.376 431.285 424.016 431.285 423.6ZM441.612 421.728C441.612 419.552 442.132 417.864 443.172 416.664C444.212 415.464 445.66 414.864 447.516 414.864C449.372 414.864 450.82 415.464 451.86 416.664C452.9 417.864 453.42 419.552 453.42 421.728V425.472C453.42 427.712 452.9 429.416 451.86 430.584C450.82 431.752 449.372 432.336 447.516 432.336C445.66 432.336 444.212 431.752 443.172 430.584C442.132 429.416 441.612 427.712 441.612 425.472V421.728ZM447.516 430.512C448.812 430.512 449.78 430.064 450.42 429.168C451.076 428.256 451.404 426.976 451.404 425.328V421.872C451.404 421.104 451.324 420.408 451.164 419.784C451.004 419.144 450.756 418.6 450.42 418.152C450.1 417.688 449.692 417.328 449.196 417.072C448.716 416.816 448.156 416.688 447.516 416.688C446.86 416.688 446.292 416.816 445.812 417.072C445.332 417.328 444.924 417.688 444.588 418.152C444.268 418.6 444.028 419.144 443.868 419.784C443.708 420.408 443.628 421.104 443.628 421.872V425.328C443.628 426.976 443.948 428.256 444.588 429.168C445.244 430.064 446.22 430.512 447.516 430.512ZM445.98 423.6C445.98 423.184 446.132 422.824 446.436 422.52C446.74 422.216 447.1 422.064 447.516 422.064C447.932 422.064 448.292 422.216 448.596 422.52C448.9 422.824 449.052 423.184 449.052 423.6C449.052 424.016 448.9 424.376 448.596 424.68C448.292 424.984 447.932 425.136 447.516 425.136C447.1 425.136 446.74 424.984 446.436 424.68C446.132 424.376 445.98 424.016 445.98 423.6ZM456.307 421.728C456.307 419.552 456.827 417.864 457.867 416.664C458.907 415.464 460.355 414.864 462.211 414.864C464.067 414.864 465.515 415.464 466.555 416.664C467.595 417.864 468.115 419.552 468.115 421.728V425.472C468.115 427.712 467.595 429.416 466.555 430.584C465.515 431.752 464.067 432.336 462.211 432.336C460.355 432.336 458.907 431.752 457.867 430.584C456.827 429.416 456.307 427.712 456.307 425.472V421.728ZM462.211 430.512C463.507 430.512 464.475 430.064 465.115 429.168C465.771 428.256 466.099 426.976 466.099 425.328V421.872C466.099 421.104 466.019 420.408 465.859 419.784C465.699 419.144 465.451 418.6 465.115 418.152C464.795 417.688 464.387 417.328 463.891 417.072C463.411 416.816 462.851 416.688 462.211 416.688C461.555 416.688 460.987 416.816 460.507 417.072C460.027 417.328 459.619 417.688 459.283 418.152C458.963 418.6 458.723 419.144 458.563 419.784C458.403 420.408 458.323 421.104 458.323 421.872V425.328C458.323 426.976 458.643 428.256 459.283 429.168C459.939 430.064 460.915 430.512 462.211 430.512ZM460.675 423.6C460.675 423.184 460.827 422.824 461.131 422.52C461.435 422.216 461.795 422.064 462.211 422.064C462.627 422.064 462.987 422.216 463.291 422.52C463.595 422.824 463.747 423.184 463.747 423.6C463.747 424.016 463.595 424.376 463.291 424.68C462.987 424.984 462.627 425.136 462.211 425.136C461.795 425.136 461.435 424.984 461.131 424.68C460.827 424.376 460.675 424.016 460.675 423.6Z" fill="white"/>
<path d="M718.328 315.736H722.48V311.584H724.208V315.736H728.36V317.464H724.208V321.616H722.48V317.464H718.328V315.736ZM753.407 310.408C753.967 310.504 754.471 310.672 754.919 310.912C755.383 311.136 755.775 311.416 756.095 311.752C756.415 312.088 756.663 312.464 756.839 312.88C757.015 313.28 757.103 313.704 757.103 314.152V314.584H755.279V314.296C755.279 313.768 755.103 313.32 754.751 312.952C754.415 312.584 753.967 312.328 753.407 312.184V315.616C754.735 315.776 755.743 316.144 756.431 316.72C757.135 317.28 757.487 318.056 757.487 319.048V319.192C757.487 320.264 757.111 321.128 756.359 321.784C755.623 322.424 754.639 322.784 753.407 322.864V324.328H751.679V322.816C750.975 322.704 750.367 322.512 749.855 322.24C749.359 321.952 748.943 321.616 748.607 321.232C748.287 320.832 748.047 320.408 747.887 319.96C747.727 319.496 747.647 319.032 747.647 318.568V317.992H749.471V318.28C749.471 319.048 749.663 319.664 750.047 320.128C750.431 320.592 750.975 320.904 751.679 321.064V317.152C750.479 316.992 749.559 316.648 748.919 316.12C748.295 315.576 747.983 314.824 747.983 313.864V313.72C747.983 313.208 748.079 312.76 748.271 312.376C748.479 311.976 748.751 311.64 749.087 311.368C749.423 311.08 749.815 310.856 750.263 310.696C750.711 310.52 751.183 310.408 751.679 310.36V308.872H753.407V310.408ZM755.615 319.192C755.615 318.632 755.439 318.216 755.087 317.944C754.735 317.672 754.175 317.472 753.407 317.344V321.136C754.095 321.056 754.631 320.848 755.015 320.512C755.415 320.176 755.615 319.736 755.615 319.192ZM749.855 313.72C749.855 314.168 749.983 314.536 750.239 314.824C750.511 315.096 750.991 315.296 751.679 315.424V312.088C751.167 312.168 750.735 312.344 750.383 312.616C750.031 312.888 749.855 313.256 749.855 313.72ZM766.542 323.128V309.088H766.254L763.494 315.4H761.502V315.256L764.646 308.2H768.558V323.128H773.31V325H761.79V323.128H766.542ZM787.837 323.128V325H776.461V322.12C776.461 321.352 776.589 320.688 776.845 320.128C777.101 319.552 777.461 319.064 777.925 318.664C778.405 318.248 778.981 317.904 779.653 317.632C780.325 317.36 781.085 317.128 781.933 316.936C783.357 316.616 784.381 316.16 785.005 315.568C785.645 314.976 785.965 314.248 785.965 313.384V313.24C785.965 312.808 785.893 312.384 785.749 311.968C785.605 311.552 785.381 311.176 785.077 310.84C784.773 310.504 784.381 310.24 783.901 310.048C783.437 309.84 782.877 309.736 782.221 309.736C780.989 309.736 780.029 310.112 779.341 310.864C778.669 311.616 778.333 312.616 778.333 313.864V314.92H776.317V313.72C776.317 312.952 776.445 312.216 776.701 311.512C776.957 310.808 777.333 310.184 777.829 309.64C778.325 309.096 778.941 308.664 779.677 308.344C780.413 308.024 781.261 307.864 782.221 307.864C783.197 307.864 784.045 308.016 784.765 308.32C785.485 308.608 786.085 309 786.565 309.496C787.045 309.976 787.397 310.528 787.621 311.152C787.861 311.76 787.981 312.384 787.981 313.024V313.456C787.981 314.736 787.581 315.832 786.781 316.744C785.981 317.64 784.701 318.28 782.941 318.664C781.405 319 780.277 319.448 779.557 320.008C778.837 320.552 778.477 321.352 778.477 322.408V323.128H787.837ZM795.141 323.656C795.141 323.192 795.301 322.8 795.621 322.48C795.957 322.144 796.357 321.976 796.821 321.976C797.285 321.976 797.677 322.144 797.997 322.48C798.333 322.8 798.501 323.192 798.501 323.656V326.008C798.501 326.552 798.325 327 797.973 327.352C797.637 327.704 797.197 327.88 796.653 327.88H795.429V326.584H796.557C796.989 326.584 797.205 326.344 797.205 325.864V325.264C797.077 325.312 796.941 325.336 796.797 325.336C796.349 325.336 795.957 325.176 795.621 324.856C795.301 324.52 795.141 324.12 795.141 323.656ZM805.612 314.728C805.612 312.552 806.132 310.864 807.172 309.664C808.212 308.464 809.66 307.864 811.516 307.864C813.372 307.864 814.82 308.464 815.86 309.664C816.9 310.864 817.42 312.552 817.42 314.728V318.472C817.42 320.712 816.9 322.416 815.86 323.584C814.82 324.752 813.372 325.336 811.516 325.336C809.66 325.336 808.212 324.752 807.172 323.584C806.132 322.416 805.612 320.712 805.612 318.472V314.728ZM811.516 323.512C812.812 323.512 813.78 323.064 814.42 322.168C815.076 321.256 815.404 319.976 815.404 318.328V314.872C815.404 314.104 815.324 313.408 815.164 312.784C815.004 312.144 814.756 311.6 814.42 311.152C814.1 310.688 813.692 310.328 813.196 310.072C812.716 309.816 812.156 309.688 811.516 309.688C810.86 309.688 810.292 309.816 809.812 310.072C809.332 310.328 808.924 310.688 808.588 311.152C808.268 311.6 808.028 312.144 807.868 312.784C807.708 313.408 807.628 314.104 807.628 314.872V318.328C807.628 319.976 807.948 321.256 808.588 322.168C809.244 323.064 810.22 323.512 811.516 323.512ZM809.98 316.6C809.98 316.184 810.132 315.824 810.436 315.52C810.74 315.216 811.1 315.064 811.516 315.064C811.932 315.064 812.292 315.216 812.596 315.52C812.9 315.824 813.052 316.184 813.052 316.6C813.052 317.016 812.9 317.376 812.596 317.68C812.292 317.984 811.932 318.136 811.516 318.136C811.1 318.136 810.74 317.984 810.436 317.68C810.132 317.376 809.98 317.016 809.98 316.6ZM820.307 314.728C820.307 312.552 820.827 310.864 821.867 309.664C822.907 308.464 824.355 307.864 826.211 307.864C828.067 307.864 829.515 308.464 830.555 309.664C831.595 310.864 832.115 312.552 832.115 314.728V318.472C832.115 320.712 831.595 322.416 830.555 323.584C829.515 324.752 828.067 325.336 826.211 325.336C824.355 325.336 822.907 324.752 821.867 323.584C820.827 322.416 820.307 320.712 820.307 318.472V314.728ZM826.211 323.512C827.507 323.512 828.475 323.064 829.115 322.168C829.771 321.256 830.099 319.976 830.099 318.328V314.872C830.099 314.104 830.019 313.408 829.859 312.784C829.699 312.144 829.451 311.6 829.115 311.152C828.795 310.688 828.387 310.328 827.891 310.072C827.411 309.816 826.851 309.688 826.211 309.688C825.555 309.688 824.987 309.816 824.507 310.072C824.027 310.328 823.619 310.688 823.283 311.152C822.963 311.6 822.723 312.144 822.563 312.784C822.403 313.408 822.323 314.104 822.323 314.872V318.328C822.323 319.976 822.643 321.256 823.283 322.168C823.939 323.064 824.915 323.512 826.211 323.512ZM824.675 316.6C824.675 316.184 824.827 315.824 825.131 315.52C825.435 315.216 825.795 315.064 826.211 315.064C826.627 315.064 826.987 315.216 827.291 315.52C827.595 315.824 827.747 316.184 827.747 316.6C827.747 317.016 827.595 317.376 827.291 317.68C826.987 317.984 826.627 318.136 826.211 318.136C825.795 318.136 825.435 317.984 825.131 317.68C824.827 317.376 824.675 317.016 824.675 316.6ZM835.003 314.728C835.003 312.552 835.523 310.864 836.562 309.664C837.603 308.464 839.051 307.864 840.907 307.864C842.763 307.864 844.211 308.464 845.251 309.664C846.291 310.864 846.811 312.552 846.811 314.728V318.472C846.811 320.712 846.291 322.416 845.251 323.584C844.211 324.752 842.763 325.336 840.907 325.336C839.051 325.336 837.603 324.752 836.562 323.584C835.523 322.416 835.003 320.712 835.003 318.472V314.728ZM840.907 323.512C842.203 323.512 843.171 323.064 843.811 322.168C844.467 321.256 844.795 319.976 844.795 318.328V314.872C844.795 314.104 844.715 313.408 844.555 312.784C844.395 312.144 844.147 311.6 843.811 311.152C843.491 310.688 843.083 310.328 842.587 310.072C842.107 309.816 841.547 309.688 840.907 309.688C840.251 309.688 839.683 309.816 839.203 310.072C838.723 310.328 838.315 310.688 837.979 311.152C837.659 311.6 837.419 312.144 837.259 312.784C837.099 313.408 837.019 314.104 837.019 314.872V318.328C837.019 319.976 837.339 321.256 837.979 322.168C838.635 323.064 839.611 323.512 840.907 323.512ZM839.371 316.6C839.371 316.184 839.523 315.824 839.827 315.52C840.131 315.216 840.491 315.064 840.907 315.064C841.323 315.064 841.683 315.216 841.987 315.52C842.291 315.824 842.443 316.184 842.443 316.6C842.443 317.016 842.291 317.376 841.987 317.68C841.683 317.984 841.323 318.136 840.907 318.136C840.491 318.136 840.131 317.984 839.827 317.68C839.523 317.376 839.371 317.016 839.371 316.6Z" fill="white"/>
<path d="M646.707 315.707C647.098 315.317 647.098 314.683 646.707 314.293L640.343 307.929C639.953 307.538 639.319 307.538 638.929 307.929C638.538 308.319 638.538 308.953 638.929 309.343L644.586 315L638.929 320.657C638.538 321.047 638.538 321.681 638.929 322.071C639.319 322.462 639.953 322.462 640.343 322.071L646.707 315.707ZM540 316H646V314H540V316Z" fill="white"/>
</svg>
