<svg width="1200" height="630" viewBox="0 0 1200 630" fill="none" xmlns="http://www.w3.org/2000/svg">
<rect width="1200" height="630" fill="#111111"/>
<path d="M283.36 91.2L287.128 98.64H287.56L291.328 91.2H293.536L289.336 99.432V99.72L293.536 108H291.328L287.56 100.512H287.128L283.36 108H281.152L285.352 99.72V99.432L281.152 91.2H283.36ZM298.055 91.2L301.823 98.64H302.255L306.023 91.2H308.231L304.031 99.432V99.72L308.231 108H306.023L302.255 100.512H301.823L298.055 108H295.847L300.047 99.72V99.432L295.847 91.2H298.055ZM312.751 91.2L316.519 98.64H316.951L320.719 91.2H322.927L318.727 99.432V99.72L322.927 108H320.719L316.951 100.512H316.519L312.751 108H310.543L314.743 99.72V99.432L310.543 91.2H312.751ZM327.446 91.2L331.214 98.64H331.646L335.414 91.2H337.622L333.422 99.432V99.72L337.622 108H335.414L331.646 100.512H331.214L327.446 108H325.238L329.438 99.72V99.432L325.238 91.2H327.446ZM342.141 91.2L345.909 98.64H346.341L350.109 91.2H352.317L348.117 99.432V99.72L352.317 108H350.109L346.341 100.512H345.909L342.141 108H339.933L344.133 99.72V99.432L339.933 91.2H342.141ZM356.837 91.2L360.605 98.64H361.037L364.805 91.2H367.013L362.813 99.432V99.72L367.013 108H364.805L361.037 100.512H360.605L356.837 108H354.629L358.829 99.72V99.432L354.629 91.2H356.837ZM371.532 91.2L375.3 98.64H375.732L379.5 91.2H381.708L377.508 99.432V99.72L381.708 108H379.5L375.732 100.512H375.3L371.532 108H369.324L373.524 99.72V99.432L369.324 91.2H371.532ZM386.227 91.2L389.995 98.64H390.427L394.195 91.2H396.403L392.203 99.432V99.72L396.403 108H394.195L390.427 100.512H389.995L386.227 108H384.019L388.219 99.72V99.432L384.019 91.2H386.227ZM400.923 91.2L404.691 98.64H405.123L408.891 91.2H411.099L406.899 99.432V99.72L411.099 108H408.891L405.123 100.512H404.691L400.923 108H398.715L402.915 99.72V99.432L398.715 91.2H400.923Z" fill="white"/>
<path d="M614.328 260.736H618.48V256.584H620.208V260.736H624.36V262.464H620.208V266.616H618.48V262.464H614.328V260.736ZM649.407 255.408C649.967 255.504 650.471 255.672 650.919 255.912C651.383 256.136 651.775 256.416 652.095 256.752C652.415 257.088 652.663 257.464 652.839 257.88C653.015 258.28 653.103 258.704 653.103 259.152V259.584H651.279V259.296C651.279 258.768 651.103 258.32 650.751 257.952C650.415 257.584 649.967 257.328 649.407 257.184V260.616C650.735 260.776 651.743 261.144 652.431 261.72C653.135 262.28 653.487 263.056 653.487 264.048V264.192C653.487 265.264 653.111 266.128 652.359 266.784C651.623 267.424 650.639 267.784 649.407 267.864V269.328H647.679V267.816C646.975 267.704 646.367 267.512 645.855 267.24C645.359 266.952 644.943 266.616 644.607 266.232C644.287 265.832 644.047 265.408 643.887 264.96C643.727 264.496 643.647 264.032 643.647 263.568V262.992H645.471V263.28C645.471 264.048 645.663 264.664 646.047 265.128C646.431 265.592 646.975 265.904 647.679 266.064V262.152C646.479 261.992 645.559 261.648 644.919 261.12C644.295 260.576 643.983 259.824 643.983 258.864V258.72C643.983 258.208 644.079 257.76 644.271 257.376C644.479 256.976 644.751 256.64 645.087 256.368C645.423 256.08 645.815 255.856 646.263 255.696C646.711 255.52 647.183 255.408 647.679 255.36V253.872H649.407V255.408ZM651.615 264.192C651.615 263.632 651.439 263.216 651.087 262.944C650.735 262.672 650.175 262.472 649.407 262.344V266.136C650.095 266.056 650.631 265.848 651.015 265.512C651.415 265.176 651.615 264.736 651.615 264.192ZM645.855 258.72C645.855 259.168 645.983 259.536 646.239 259.824C646.511 260.096 646.991 260.296 647.679 260.424V257.088C647.167 257.168 646.735 257.344 646.383 257.616C646.031 257.888 645.855 258.256 645.855 258.72ZM666.958 258.096C666.958 257.056 666.638 256.224 665.998 255.6C665.358 254.96 664.47 254.64 663.334 254.64C662.79 254.64 662.286 254.736 661.822 254.928C661.374 255.12 660.982 255.4 660.646 255.768C660.326 256.12 660.07 256.544 659.878 257.04C659.702 257.536 659.614 258.08 659.614 258.672V261.168H659.902C660.286 260.464 660.83 259.912 661.534 259.512C662.254 259.112 663.054 258.912 663.934 258.912C664.702 258.912 665.414 259.04 666.07 259.296C666.726 259.536 667.286 259.896 667.75 260.376C668.23 260.856 668.598 261.44 668.854 262.128C669.126 262.8 669.262 263.568 669.262 264.432V264.72C669.262 265.552 669.11 266.312 668.806 267C668.518 267.688 668.11 268.28 667.582 268.776C667.07 269.272 666.454 269.656 665.734 269.928C665.03 270.2 664.262 270.336 663.43 270.336C662.598 270.336 661.822 270.2 661.102 269.928C660.398 269.656 659.782 269.28 659.254 268.8C658.742 268.304 658.334 267.72 658.03 267.048C657.742 266.36 657.598 265.608 657.598 264.792V258.672C657.598 257.792 657.75 256.992 658.054 256.272C658.358 255.552 658.774 254.944 659.302 254.448C659.83 253.936 660.438 253.544 661.126 253.272C661.83 253 662.582 252.864 663.382 252.864C664.182 252.864 664.926 252.984 665.614 253.224C666.302 253.464 666.894 253.816 667.39 254.28C667.886 254.728 668.27 255.28 668.542 255.936C668.83 256.576 668.974 257.296 668.974 258.096H666.958ZM663.43 268.56C664.006 268.56 664.526 268.472 664.99 268.296C665.47 268.104 665.878 267.84 666.214 267.504C666.55 267.168 666.806 266.768 666.982 266.304C667.158 265.84 667.246 265.328 667.246 264.768V264.48C667.246 263.92 667.15 263.408 666.958 262.944C666.766 262.48 666.502 262.08 666.166 261.744C665.83 261.408 665.422 261.152 664.942 260.976C664.478 260.784 663.974 260.688 663.43 260.688C662.886 260.688 662.382 260.784 661.918 260.976C661.454 261.168 661.046 261.432 660.694 261.768C660.358 262.104 660.094 262.496 659.902 262.944C659.71 263.392 659.614 263.872 659.614 264.384V264.84C659.614 265.368 659.702 265.864 659.878 266.328C660.054 266.776 660.31 267.168 660.646 267.504C660.982 267.84 661.382 268.104 661.846 268.296C662.326 268.472 662.854 268.56 663.43 268.56ZM676.445 268.656C676.445 268.192 676.605 267.8 676.925 267.48C677.261 267.144 677.661 266.976 678.125 266.976C678.589 266.976 678.981 267.144 679.301 267.48C679.637 267.8 679.805 268.192 679.805 268.656V271.008C679.805 271.552 679.629 272 679.277 272.352C678.941 272.704 678.501 272.88 677.957 272.88H676.733V271.584H677.861C678.293 271.584 678.509 271.344 678.509 270.864V270.264C678.381 270.312 678.245 270.336 678.101 270.336C677.653 270.336 677.261 270.176 676.925 269.856C676.605 269.52 676.445 269.12 676.445 268.656ZM686.917 259.728C686.917 257.552 687.437 255.864 688.477 254.664C689.517 253.464 690.965 252.864 692.821 252.864C694.677 252.864 696.125 253.464 697.165 254.664C698.205 255.864 698.725 257.552 698.725 259.728V263.472C698.725 265.712 698.205 267.416 697.165 268.584C696.125 269.752 694.677 270.336 692.821 270.336C690.965 270.336 689.517 269.752 688.477 268.584C687.437 267.416 686.917 265.712 686.917 263.472V259.728ZM692.821 268.512C694.117 268.512 695.085 268.064 695.725 267.168C696.381 266.256 696.709 264.976 696.709 263.328V259.872C696.709 259.104 696.629 258.408 696.469 257.784C696.309 257.144 696.061 256.6 695.725 256.152C695.405 255.688 694.997 255.328 694.501 255.072C694.021 254.816 693.461 254.688 692.821 254.688C692.165 254.688 691.597 254.816 691.117 255.072C690.637 255.328 690.229 255.688 689.893 256.152C689.573 256.6 689.333 257.144 689.173 257.784C689.013 258.408 688.933 259.104 688.933 259.872V263.328C688.933 264.976 689.253 266.256 689.893 267.168C690.549 268.064 691.525 268.512 692.821 268.512ZM691.285 261.6C691.285 261.184 691.437 260.824 691.741 260.52C692.045 260.216 692.405 260.064 692.821 260.064C693.237 260.064 693.597 260.216 693.901 260.52C694.205 260.824 694.357 261.184 694.357 261.6C694.357 262.016 694.205 262.376 693.901 262.68C693.597 262.984 693.237 263.136 692.821 263.136C692.405 263.136 692.045 262.984 691.741 262.68C691.437 262.376 691.285 262.016 691.285 261.6ZM701.612 259.728C701.612 257.552 702.132 255.864 703.172 254.664C704.212 253.464 705.66 252.864 707.516 252.864C709.372 252.864 710.82 253.464 711.86 254.664C712.9 255.864 713.42 257.552 713.42 259.728V263.472C713.42 265.712 712.9 267.416 711.86 268.584C710.82 269.752 709.372 270.336 707.516 270.336C705.66 270.336 704.212 269.752 703.172 268.584C702.132 267.416 701.612 265.712 701.612 263.472V259.728ZM707.516 268.512C708.812 268.512 709.78 268.064 710.42 267.168C711.076 266.256 711.404 264.976 711.404 263.328V259.872C711.404 259.104 711.324 258.408 711.164 257.784C711.004 257.144 710.756 256.6 710.42 256.152C710.1 255.688 709.692 255.328 709.196 255.072C708.716 254.816 708.156 254.688 707.516 254.688C706.86 254.688 706.292 254.816 705.812 255.072C705.332 255.328 704.924 255.688 704.588 256.152C704.268 256.6 704.028 257.144 703.868 257.784C703.708 258.408 703.628 259.104 703.628 259.872V263.328C703.628 264.976 703.948 266.256 704.588 267.168C705.244 268.064 706.22 268.512 707.516 268.512ZM705.98 261.6C705.98 261.184 706.132 260.824 706.436 260.52C706.74 260.216 707.1 260.064 707.516 260.064C707.932 260.064 708.292 260.216 708.596 260.52C708.9 260.824 709.052 261.184 709.052 261.6C709.052 262.016 708.9 262.376 708.596 262.68C708.292 262.984 707.932 263.136 707.516 263.136C707.1 263.136 706.74 262.984 706.436 262.68C706.132 262.376 705.98 262.016 705.98 261.6ZM716.307 259.728C716.307 257.552 716.827 255.864 717.867 254.664C718.907 253.464 720.355 252.864 722.211 252.864C724.067 252.864 725.515 253.464 726.555 254.664C727.595 255.864 728.115 257.552 728.115 259.728V263.472C728.115 265.712 727.595 267.416 726.555 268.584C725.515 269.752 724.067 270.336 722.211 270.336C720.355 270.336 718.907 269.752 717.867 268.584C716.827 267.416 716.307 265.712 716.307 263.472V259.728ZM722.211 268.512C723.507 268.512 724.475 268.064 725.115 267.168C725.771 266.256 726.099 264.976 726.099 263.328V259.872C726.099 259.104 726.019 258.408 725.859 257.784C725.699 257.144 725.451 256.6 725.115 256.152C724.795 255.688 724.387 255.328 723.891 255.072C723.411 254.816 722.851 254.688 722.211 254.688C721.555 254.688 720.987 254.816 720.507 255.072C720.027 255.328 719.619 255.688 719.283 256.152C718.963 256.6 718.723 257.144 718.563 257.784C718.403 258.408 718.323 259.104 718.323 259.872V263.328C718.323 264.976 718.643 266.256 719.283 267.168C719.939 268.064 720.915 268.512 722.211 268.512ZM720.675 261.6C720.675 261.184 720.827 260.824 721.131 260.52C721.435 260.216 721.795 260.064 722.211 260.064C722.627 260.064 722.987 260.216 723.291 260.52C723.595 260.824 723.747 261.184 723.747 261.6C723.747 262.016 723.595 262.376 723.291 262.68C722.987 262.984 722.627 263.136 722.211 263.136C721.795 263.136 721.435 262.984 721.131 262.68C720.827 262.376 720.675 262.016 720.675 261.6Z" fill="white"/>
<path d="M630.744 529.896H637.944V531.624H630.744V529.896ZM664.407 522.408C664.967 522.504 665.471 522.672 665.919 522.912C666.383 523.136 666.775 523.416 667.095 523.752C667.415 524.088 667.663 524.464 667.839 524.88C668.015 525.28 668.103 525.704 668.103 526.152V526.584H666.279V526.296C666.279 525.768 666.103 525.32 665.751 524.952C665.415 524.584 664.967 524.328 664.407 524.184V527.616C665.735 527.776 666.743 528.144 667.431 528.72C668.135 529.28 668.487 530.056 668.487 531.048V531.192C668.487 532.264 668.111 533.128 667.359 533.784C666.623 534.424 665.639 534.784 664.407 534.864V536.328H662.679V534.816C661.975 534.704 661.367 534.512 660.855 534.24C660.359 533.952 659.943 533.616 659.607 533.232C659.287 532.832 659.047 532.408 658.887 531.96C658.727 531.496 658.647 531.032 658.647 530.568V529.992H660.471V530.28C660.471 531.048 660.663 531.664 661.047 532.128C661.431 532.592 661.975 532.904 662.679 533.064V529.152C661.479 528.992 660.559 528.648 659.919 528.12C659.295 527.576 658.983 526.824 658.983 525.864V525.72C658.983 525.208 659.079 524.76 659.271 524.376C659.479 523.976 659.751 523.64 660.087 523.368C660.423 523.08 660.815 522.856 661.263 522.696C661.711 522.52 662.183 522.408 662.679 522.36V520.872H664.407V522.408ZM666.615 531.192C666.615 530.632 666.439 530.216 666.087 529.944C665.735 529.672 665.175 529.472 664.407 529.344V533.136C665.095 533.056 665.631 532.848 666.015 532.512C666.415 532.176 666.615 531.736 666.615 531.192ZM660.855 525.72C660.855 526.168 660.983 526.536 661.239 526.824C661.511 527.096 661.991 527.296 662.679 527.424V524.088C662.167 524.168 661.735 524.344 661.383 524.616C661.031 524.888 660.855 525.256 660.855 525.72ZM678.142 520.2H682.054V531.96H684.646V533.832H682.054V537H680.038V533.832H672.262V531.048L678.142 520.2ZM673.99 531.672V531.96H680.038V521.064H679.75L673.99 531.672ZM691.445 535.656C691.445 535.192 691.605 534.8 691.925 534.48C692.261 534.144 692.661 533.976 693.125 533.976C693.589 533.976 693.981 534.144 694.301 534.48C694.637 534.8 694.805 535.192 694.805 535.656V538.008C694.805 538.552 694.629 539 694.277 539.352C693.941 539.704 693.501 539.88 692.957 539.88H691.733V538.584H692.861C693.293 538.584 693.509 538.344 693.509 537.864V537.264C693.381 537.312 693.245 537.336 693.101 537.336C692.653 537.336 692.261 537.176 691.925 536.856C691.605 536.52 691.445 536.12 691.445 535.656ZM701.917 526.728C701.917 524.552 702.437 522.864 703.477 521.664C704.517 520.464 705.965 519.864 707.821 519.864C709.677 519.864 711.125 520.464 712.165 521.664C713.205 522.864 713.725 524.552 713.725 526.728V530.472C713.725 532.712 713.205 534.416 712.165 535.584C711.125 536.752 709.677 537.336 707.821 537.336C705.965 537.336 704.517 536.752 703.477 535.584C702.437 534.416 701.917 532.712 701.917 530.472V526.728ZM707.821 535.512C709.117 535.512 710.085 535.064 710.725 534.168C711.381 533.256 711.709 531.976 711.709 530.328V526.872C711.709 526.104 711.629 525.408 711.469 524.784C711.309 524.144 711.061 523.6 710.725 523.152C710.405 522.688 709.997 522.328 709.501 522.072C709.021 521.816 708.461 521.688 707.821 521.688C707.165 521.688 706.597 521.816 706.117 522.072C705.637 522.328 705.229 522.688 704.893 523.152C704.573 523.6 704.333 524.144 704.173 524.784C704.013 525.408 703.933 526.104 703.933 526.872V530.328C703.933 531.976 704.253 533.256 704.893 534.168C705.549 535.064 706.525 535.512 707.821 535.512ZM706.285 528.6C706.285 528.184 706.437 527.824 706.741 527.52C707.045 527.216 707.405 527.064 707.821 527.064C708.237 527.064 708.597 527.216 708.901 527.52C709.205 527.824 709.357 528.184 709.357 528.6C709.357 529.016 709.205 529.376 708.901 529.68C708.597 529.984 708.237 530.136 707.821 530.136C707.405 530.136 707.045 529.984 706.741 529.68C706.437 529.376 706.285 529.016 706.285 528.6ZM716.612 526.728C716.612 524.552 717.132 522.864 718.172 521.664C719.212 520.464 720.66 519.864 722.516 519.864C724.372 519.864 725.82 520.464 726.86 521.664C727.9 522.864 728.42 524.552 728.42 526.728V530.472C728.42 532.712 727.9 534.416 726.86 535.584C725.82 536.752 724.372 537.336 722.516 537.336C720.66 537.336 719.212 536.752 718.172 535.584C717.132 534.416 716.612 532.712 716.612 530.472V526.728ZM722.516 535.512C723.812 535.512 724.78 535.064 725.42 534.168C726.076 533.256 726.404 531.976 726.404 530.328V526.872C726.404 526.104 726.324 525.408 726.164 524.784C726.004 524.144 725.756 523.6 725.42 523.152C725.1 522.688 724.692 522.328 724.196 522.072C723.716 521.816 723.156 521.688 722.516 521.688C721.86 521.688 721.292 521.816 720.812 522.072C720.332 522.328 719.924 522.688 719.588 523.152C719.268 523.6 719.028 524.144 718.868 524.784C718.708 525.408 718.628 526.104 718.628 526.872V530.328C718.628 531.976 718.948 533.256 719.588 534.168C720.244 535.064 721.22 535.512 722.516 535.512ZM720.98 528.6C720.98 528.184 721.132 527.824 721.436 527.52C721.74 527.216 722.1 527.064 722.516 527.064C722.932 527.064 723.292 527.216 723.596 527.52C723.9 527.824 724.052 528.184 724.052 528.6C724.052 529.016 723.9 529.376 723.596 529.68C723.292 529.984 722.932 530.136 722.516 530.136C722.1 530.136 721.74 529.984 721.436 529.68C721.132 529.376 720.98 529.016 720.98 528.6ZM731.307 526.728C731.307 524.552 731.827 522.864 732.867 521.664C733.907 520.464 735.355 519.864 737.211 519.864C739.067 519.864 740.515 520.464 741.555 521.664C742.595 522.864 743.115 524.552 743.115 526.728V530.472C743.115 532.712 742.595 534.416 741.555 535.584C740.515 536.752 739.067 537.336 737.211 537.336C735.355 537.336 733.907 536.752 732.867 535.584C731.827 534.416 731.307 532.712 731.307 530.472V526.728ZM737.211 535.512C738.507 535.512 739.475 535.064 740.115 534.168C740.771 533.256 741.099 531.976 741.099 530.328V526.872C741.099 526.104 741.019 525.408 740.859 524.784C740.699 524.144 740.451 523.6 740.115 523.152C739.795 522.688 739.387 522.328 738.891 522.072C738.411 521.816 737.851 521.688 737.211 521.688C736.555 521.688 735.987 521.816 735.507 522.072C735.027 522.328 734.619 522.688 734.283 523.152C733.963 523.6 733.723 524.144 733.563 524.784C733.403 525.408 733.323 526.104 733.323 526.872V530.328C733.323 531.976 733.643 533.256 734.283 534.168C734.939 535.064 735.915 535.512 737.211 535.512ZM735.675 528.6C735.675 528.184 735.827 527.824 736.131 527.52C736.435 527.216 736.795 527.064 737.211 527.064C737.627 527.064 737.987 527.216 738.291 527.52C738.595 527.824 738.747 528.184 738.747 528.6C738.747 529.016 738.595 529.376 738.291 529.68C737.987 529.984 737.627 530.136 737.211 530.136C736.795 530.136 736.435 529.984 736.131 529.68C735.827 529.376 735.675 529.016 735.675 528.6Z" fill="white"/>
<circle cx="518" cy="314.592" r="74.5" stroke="white"/>
<circle cx="846" cy="315" r="74.5" stroke="white"/>
<path d="M592.498 315.5C592.229 356.415 558.978 389.5 518 389.5C477.022 389.5 443.771 356.415 443.502 315.5H592.498Z" fill="white" stroke="white"/>
<path d="M920.498 315.908C920.229 356.823 886.978 389.908 846 389.908C805.022 389.908 771.771 356.823 771.502 315.908H920.498Z" fill="white" stroke="white"/>
<path d="M515.664 227.962C515.869 228.148 516.185 228.133 516.37 227.928L519.395 224.596C519.581 224.392 519.566 224.076 519.361 223.89C519.157 223.705 518.841 223.72 518.655 223.924L515.966 226.886L513.005 224.197C512.8 224.011 512.484 224.027 512.298 224.231C512.113 224.435 512.128 224.752 512.332 224.937L515.664 227.962ZM428.821 101.059C461.741 113.709 482.5 127.226 495.487 146.591C508.48 165.965 513.747 191.267 515.501 227.616L516.5 227.568C514.744 191.174 509.468 165.642 496.317 146.034C483.161 126.417 462.175 112.805 429.18 100.125L428.821 101.059Z" fill="white"/>
<path d="M604.508 315.268C604.458 315.54 604.638 315.8 604.909 315.85L609.335 316.665C609.607 316.715 609.867 316.536 609.917 316.264C609.967 315.993 609.788 315.732 609.516 315.682L605.582 314.957L606.307 311.024C606.357 310.752 606.177 310.491 605.905 310.441C605.634 310.391 605.373 310.571 605.323 310.842L604.508 315.268ZM605.284 315.77C634.325 295.761 657.208 286.274 680.524 286.504C703.85 286.734 727.701 296.689 758.679 315.784L759.204 314.933C728.187 295.814 704.142 285.737 680.533 285.504C656.915 285.271 633.824 294.892 604.716 314.947L605.284 315.77Z" fill="white"/>
<g filter="url(#filter0_d_203_9)">
<path d="M605.688 528.412C605.787 528.67 605.659 528.959 605.401 529.059L601.202 530.676C600.944 530.775 600.655 530.647 600.556 530.389C600.457 530.131 600.585 529.842 600.843 529.743L604.575 528.305L603.138 524.572C603.038 524.315 603.167 524.025 603.425 523.926C603.682 523.827 603.972 523.955 604.071 524.213L605.688 528.412ZM518.722 401.593C518.626 436.861 523.732 461.101 537.098 480.206C550.47 499.32 572.163 513.37 605.425 528.135L605.019 529.049C571.716 514.266 549.813 500.125 536.279 480.779C522.738 461.426 517.626 436.939 517.722 401.591L518.722 401.593Z" fill="white"/>
</g>
<defs>
<filter id="filter0_d_203_9" x="513.721" y="401.591" width="96.001" height="137.119" filterUnits="userSpaceOnUse" color-interpolation-filters="sRGB">
<feFlood flood-opacity="0" result="BackgroundImageFix"/>
<feColorMatrix in="SourceAlpha" type="matrix" values="0 0 0 0 0 0 0 0 0 0 0 0 0 0 0 0 0 0 127 0" result="hardAlpha"/>
<feOffset dy="4"/>
<feGaussianBlur stdDeviation="2"/>
<feComposite in2="hardAlpha" operator="out"/>
<feColorMatrix type="matrix" values="0 0 0 0 0 0 0 0 0 0 0 0 0 0 0 0 0 0 0.25 0"/>
<feBlend mode="normal" in2="BackgroundImageFix" result="effect1_dropShadow_203_9"/>
<feBlend mode="normal" in="SourceGraphic" in2="effect1_dropShadow_203_9" result="shape"/>
</filter>
</defs>
</svg>
