<svg width="1200" height="630" viewBox="0 0 1200 630" fill="none" xmlns="http://www.w3.org/2000/svg">
<rect width="1200" height="630" fill="#111111"/>
<path d="M252 499L310 401L324 449L372 345L394 389L466 247L544 449L582 323L610 369L670 215L710 309L736 237L796 323L830 181L880 247L948 131" stroke="white"/>
<path d="M352.328 221.736H356.48V217.584H358.208V221.736H362.36V223.464H358.208V227.616H356.48V223.464H352.328V221.736ZM387.407 216.408C387.967 216.504 388.471 216.672 388.919 216.912C389.383 217.136 389.775 217.416 390.095 217.752C390.415 218.088 390.663 218.464 390.839 218.88C391.015 219.28 391.103 219.704 391.103 220.152V220.584H389.279V220.296C389.279 219.768 389.103 219.32 388.751 218.952C388.415 218.584 387.967 218.328 387.407 218.184V221.616C388.735 221.776 389.743 222.144 390.431 222.72C391.135 223.28 391.487 224.056 391.487 225.048V225.192C391.487 226.264 391.111 227.128 390.359 227.784C389.623 228.424 388.639 228.784 387.407 228.864V230.328H385.679V228.816C384.975 228.704 384.367 228.512 383.855 228.24C383.359 227.952 382.943 227.616 382.607 227.232C382.287 226.832 382.047 226.408 381.887 225.96C381.727 225.496 381.647 225.032 381.647 224.568V223.992H383.471V224.28C383.471 225.048 383.663 225.664 384.047 226.128C384.431 226.592 384.975 226.904 385.679 227.064V223.152C384.479 222.992 383.559 222.648 382.919 222.12C382.295 221.576 381.983 220.824 381.983 219.864V219.72C381.983 219.208 382.079 218.76 382.271 218.376C382.479 217.976 382.751 217.64 383.087 217.368C383.423 217.08 383.815 216.856 384.263 216.696C384.711 216.52 385.183 216.408 385.679 216.36V214.872H387.407V216.408ZM389.615 225.192C389.615 224.632 389.439 224.216 389.087 223.944C388.735 223.672 388.175 223.472 387.407 223.344V227.136C388.095 227.056 388.631 226.848 389.015 226.512C389.415 226.176 389.615 225.736 389.615 225.192ZM383.855 219.72C383.855 220.168 383.983 220.536 384.239 220.824C384.511 221.096 384.991 221.296 385.679 221.424V218.088C385.167 218.168 384.735 218.344 384.383 218.616C384.031 218.888 383.855 219.256 383.855 219.72ZM399.774 222.648V219.864L405.246 216.36V216.072H395.742V214.2H406.974V217.272L401.502 220.776V221.064H402.462C403.102 221.064 403.718 221.168 404.31 221.376C404.902 221.584 405.422 221.888 405.87 222.288C406.334 222.688 406.702 223.184 406.974 223.776C407.262 224.352 407.406 225.024 407.406 225.792V226.224C407.406 226.944 407.262 227.616 406.974 228.24C406.686 228.864 406.286 229.408 405.774 229.872C405.262 230.32 404.654 230.68 403.95 230.952C403.262 231.208 402.51 231.336 401.694 231.336C400.75 231.336 399.902 231.192 399.15 230.904C398.398 230.616 397.758 230.224 397.23 229.728C396.702 229.216 396.294 228.624 396.006 227.952C395.734 227.264 395.598 226.536 395.598 225.768V224.472H397.614V225.624C397.614 226.232 397.71 226.776 397.902 227.256C398.11 227.72 398.39 228.12 398.742 228.456C399.11 228.776 399.542 229.024 400.038 229.2C400.534 229.376 401.07 229.464 401.646 229.464C402.174 229.464 402.662 229.376 403.11 229.2C403.574 229.024 403.974 228.784 404.31 228.48C404.646 228.16 404.91 227.792 405.102 227.376C405.294 226.944 405.39 226.488 405.39 226.008V225.864C405.39 224.856 405.07 224.072 404.43 223.512C403.79 222.936 402.99 222.648 402.03 222.648H399.774ZM414.445 229.656C414.445 229.192 414.605 228.8 414.925 228.48C415.261 228.144 415.661 227.976 416.125 227.976C416.589 227.976 416.981 228.144 417.301 228.48C417.637 228.8 417.805 229.192 417.805 229.656V232.008C417.805 232.552 417.629 233 417.277 233.352C416.941 233.704 416.501 233.88 415.957 233.88H414.733V232.584H415.861C416.293 232.584 416.509 232.344 416.509 231.864V231.264C416.381 231.312 416.245 231.336 416.101 231.336C415.653 231.336 415.261 231.176 414.925 230.856C414.605 230.52 414.445 230.12 414.445 229.656ZM424.917 220.728C424.917 218.552 425.437 216.864 426.477 215.664C427.517 214.464 428.965 213.864 430.821 213.864C432.677 213.864 434.125 214.464 435.165 215.664C436.205 216.864 436.725 218.552 436.725 220.728V224.472C436.725 226.712 436.205 228.416 435.165 229.584C434.125 230.752 432.677 231.336 430.821 231.336C428.965 231.336 427.517 230.752 426.477 229.584C425.437 228.416 424.917 226.712 424.917 224.472V220.728ZM430.821 229.512C432.117 229.512 433.085 229.064 433.725 228.168C434.381 227.256 434.709 225.976 434.709 224.328V220.872C434.709 220.104 434.629 219.408 434.469 218.784C434.309 218.144 434.061 217.6 433.725 217.152C433.405 216.688 432.997 216.328 432.501 216.072C432.021 215.816 431.461 215.688 430.821 215.688C430.165 215.688 429.597 215.816 429.117 216.072C428.637 216.328 428.229 216.688 427.893 217.152C427.573 217.6 427.333 218.144 427.173 218.784C427.013 219.408 426.933 220.104 426.933 220.872V224.328C426.933 225.976 427.253 227.256 427.893 228.168C428.549 229.064 429.525 229.512 430.821 229.512ZM429.285 222.6C429.285 222.184 429.437 221.824 429.741 221.52C430.045 221.216 430.405 221.064 430.821 221.064C431.237 221.064 431.597 221.216 431.901 221.52C432.205 221.824 432.357 222.184 432.357 222.6C432.357 223.016 432.205 223.376 431.901 223.68C431.597 223.984 431.237 224.136 430.821 224.136C430.405 224.136 430.045 223.984 429.741 223.68C429.437 223.376 429.285 223.016 429.285 222.6ZM439.612 220.728C439.612 218.552 440.132 216.864 441.172 215.664C442.212 214.464 443.66 213.864 445.516 213.864C447.372 213.864 448.82 214.464 449.86 215.664C450.9 216.864 451.42 218.552 451.42 220.728V224.472C451.42 226.712 450.9 228.416 449.86 229.584C448.82 230.752 447.372 231.336 445.516 231.336C443.66 231.336 442.212 230.752 441.172 229.584C440.132 228.416 439.612 226.712 439.612 224.472V220.728ZM445.516 229.512C446.812 229.512 447.78 229.064 448.42 228.168C449.076 227.256 449.404 225.976 449.404 224.328V220.872C449.404 220.104 449.324 219.408 449.164 218.784C449.004 218.144 448.756 217.6 448.42 217.152C448.1 216.688 447.692 216.328 447.196 216.072C446.716 215.816 446.156 215.688 445.516 215.688C444.86 215.688 444.292 215.816 443.812 216.072C443.332 216.328 442.924 216.688 442.588 217.152C442.268 217.6 442.028 218.144 441.868 218.784C441.708 219.408 441.628 220.104 441.628 220.872V224.328C441.628 225.976 441.948 227.256 442.588 228.168C443.244 229.064 444.22 229.512 445.516 229.512ZM443.98 222.6C443.98 222.184 444.132 221.824 444.436 221.52C444.74 221.216 445.1 221.064 445.516 221.064C445.932 221.064 446.292 221.216 446.596 221.52C446.9 221.824 447.052 222.184 447.052 222.6C447.052 223.016 446.9 223.376 446.596 223.68C446.292 223.984 445.932 224.136 445.516 224.136C445.1 224.136 444.74 223.984 444.436 223.68C444.132 223.376 443.98 223.016 443.98 222.6ZM454.307 220.728C454.307 218.552 454.827 216.864 455.867 215.664C456.907 214.464 458.355 213.864 460.211 213.864C462.067 213.864 463.515 214.464 464.555 215.664C465.595 216.864 466.115 218.552 466.115 220.728V224.472C466.115 226.712 465.595 228.416 464.555 229.584C463.515 230.752 462.067 231.336 460.211 231.336C458.355 231.336 456.907 230.752 455.867 229.584C454.827 228.416 454.307 226.712 454.307 224.472V220.728ZM460.211 229.512C461.507 229.512 462.475 229.064 463.115 228.168C463.771 227.256 464.099 225.976 464.099 224.328V220.872C464.099 220.104 464.019 219.408 463.859 218.784C463.699 218.144 463.451 217.6 463.115 217.152C462.795 216.688 462.387 216.328 461.891 216.072C461.411 215.816 460.851 215.688 460.211 215.688C459.555 215.688 458.987 215.816 458.507 216.072C458.027 216.328 457.619 216.688 457.283 217.152C456.963 217.6 456.723 218.144 456.563 218.784C456.403 219.408 456.323 220.104 456.323 220.872V224.328C456.323 225.976 456.643 227.256 457.283 228.168C457.939 229.064 458.915 229.512 460.211 229.512ZM458.675 222.6C458.675 222.184 458.827 221.824 459.131 221.52C459.435 221.216 459.795 221.064 460.211 221.064C460.627 221.064 460.987 221.216 461.291 221.52C461.595 221.824 461.747 222.184 461.747 222.6C461.747 223.016 461.595 223.376 461.291 223.68C460.987 223.984 460.627 224.136 460.211 224.136C459.795 224.136 459.435 223.984 459.131 223.68C458.827 223.376 458.675 223.016 458.675 222.6Z" fill="white"/>
<path d="M669.328 193.736H673.48V189.584H675.208V193.736H679.36V195.464H675.208V199.616H673.48V195.464H669.328V193.736ZM704.407 188.408C704.967 188.504 705.471 188.672 705.919 188.912C706.383 189.136 706.775 189.416 707.095 189.752C707.415 190.088 707.663 190.464 707.839 190.88C708.015 191.28 708.103 191.704 708.103 192.152V192.584H706.279V192.296C706.279 191.768 706.103 191.32 705.751 190.952C705.415 190.584 704.967 190.328 704.407 190.184V193.616C705.735 193.776 706.743 194.144 707.431 194.72C708.135 195.28 708.487 196.056 708.487 197.048V197.192C708.487 198.264 708.111 199.128 707.359 199.784C706.623 200.424 705.639 200.784 704.407 200.864V202.328H702.679V200.816C701.975 200.704 701.367 200.512 700.855 200.24C700.359 199.952 699.943 199.616 699.607 199.232C699.287 198.832 699.047 198.408 698.887 197.96C698.727 197.496 698.647 197.032 698.647 196.568V195.992H700.471V196.28C700.471 197.048 700.663 197.664 701.047 198.128C701.431 198.592 701.975 198.904 702.679 199.064V195.152C701.479 194.992 700.559 194.648 699.919 194.12C699.295 193.576 698.983 192.824 698.983 191.864V191.72C698.983 191.208 699.079 190.76 699.271 190.376C699.479 189.976 699.751 189.64 700.087 189.368C700.423 189.08 700.815 188.856 701.263 188.696C701.711 188.52 702.183 188.408 702.679 188.36V186.872H704.407V188.408ZM706.615 197.192C706.615 196.632 706.439 196.216 706.087 195.944C705.735 195.672 705.175 195.472 704.407 195.344V199.136C705.095 199.056 705.631 198.848 706.015 198.512C706.415 198.176 706.615 197.736 706.615 197.192ZM700.855 191.72C700.855 192.168 700.983 192.536 701.239 192.824C701.511 193.096 701.991 193.296 702.679 193.424V190.088C702.167 190.168 701.735 190.344 701.383 190.616C701.031 190.888 700.855 191.256 700.855 191.72ZM712.958 195.08V186.2H723.47V188.072H714.926V194.072H715.214C715.374 193.752 715.582 193.448 715.838 193.16C716.094 192.856 716.39 192.592 716.726 192.368C717.078 192.144 717.47 191.968 717.902 191.84C718.334 191.696 718.814 191.624 719.342 191.624C720.11 191.624 720.814 191.752 721.454 192.008C722.11 192.264 722.67 192.624 723.134 193.088C723.598 193.552 723.958 194.112 724.214 194.768C724.486 195.424 724.622 196.152 724.622 196.952V197.384C724.622 198.184 724.494 198.944 724.238 199.664C723.982 200.368 723.606 201 723.11 201.56C722.614 202.104 721.998 202.536 721.262 202.856C720.526 203.176 719.678 203.336 718.718 203.336C717.742 203.336 716.878 203.192 716.126 202.904C715.374 202.616 714.742 202.216 714.23 201.704C713.718 201.192 713.326 200.592 713.054 199.904C712.798 199.2 712.67 198.44 712.67 197.624V196.952H714.686V197.48C714.686 198.808 715.054 199.808 715.79 200.48C716.542 201.136 717.518 201.464 718.718 201.464C719.358 201.464 719.918 201.352 720.398 201.128C720.894 200.888 721.302 200.576 721.622 200.192C721.958 199.792 722.206 199.336 722.366 198.824C722.526 198.296 722.606 197.752 722.606 197.192V197.048C722.606 196.552 722.518 196.088 722.342 195.656C722.182 195.224 721.95 194.848 721.646 194.528C721.358 194.208 720.998 193.96 720.566 193.784C720.15 193.592 719.694 193.496 719.198 193.496C718.862 193.496 718.55 193.544 718.262 193.64C717.99 193.736 717.75 193.864 717.542 194.024C717.334 194.168 717.158 194.336 717.014 194.528C716.886 194.72 716.798 194.904 716.75 195.08H712.958ZM731.445 201.656C731.445 201.192 731.605 200.8 731.925 200.48C732.261 200.144 732.661 199.976 733.125 199.976C733.589 199.976 733.981 200.144 734.301 200.48C734.637 200.8 734.805 201.192 734.805 201.656V204.008C734.805 204.552 734.629 205 734.277 205.352C733.941 205.704 733.501 205.88 732.957 205.88H731.733V204.584H732.861C733.293 204.584 733.509 204.344 733.509 203.864V203.264C733.381 203.312 733.245 203.336 733.101 203.336C732.653 203.336 732.261 203.176 731.925 202.856C731.605 202.52 731.445 202.12 731.445 201.656ZM741.917 192.728C741.917 190.552 742.437 188.864 743.477 187.664C744.517 186.464 745.965 185.864 747.821 185.864C749.677 185.864 751.125 186.464 752.165 187.664C753.205 188.864 753.725 190.552 753.725 192.728V196.472C753.725 198.712 753.205 200.416 752.165 201.584C751.125 202.752 749.677 203.336 747.821 203.336C745.965 203.336 744.517 202.752 743.477 201.584C742.437 200.416 741.917 198.712 741.917 196.472V192.728ZM747.821 201.512C749.117 201.512 750.085 201.064 750.725 200.168C751.381 199.256 751.709 197.976 751.709 196.328V192.872C751.709 192.104 751.629 191.408 751.469 190.784C751.309 190.144 751.061 189.6 750.725 189.152C750.405 188.688 749.997 188.328 749.501 188.072C749.021 187.816 748.461 187.688 747.821 187.688C747.165 187.688 746.597 187.816 746.117 188.072C745.637 188.328 745.229 188.688 744.893 189.152C744.573 189.6 744.333 190.144 744.173 190.784C744.013 191.408 743.933 192.104 743.933 192.872V196.328C743.933 197.976 744.253 199.256 744.893 200.168C745.549 201.064 746.525 201.512 747.821 201.512ZM746.285 194.6C746.285 194.184 746.437 193.824 746.741 193.52C747.045 193.216 747.405 193.064 747.821 193.064C748.237 193.064 748.597 193.216 748.901 193.52C749.205 193.824 749.357 194.184 749.357 194.6C749.357 195.016 749.205 195.376 748.901 195.68C748.597 195.984 748.237 196.136 747.821 196.136C747.405 196.136 747.045 195.984 746.741 195.68C746.437 195.376 746.285 195.016 746.285 194.6ZM756.612 192.728C756.612 190.552 757.132 188.864 758.172 187.664C759.212 186.464 760.66 185.864 762.516 185.864C764.372 185.864 765.82 186.464 766.86 187.664C767.9 188.864 768.42 190.552 768.42 192.728V196.472C768.42 198.712 767.9 200.416 766.86 201.584C765.82 202.752 764.372 203.336 762.516 203.336C760.66 203.336 759.212 202.752 758.172 201.584C757.132 200.416 756.612 198.712 756.612 196.472V192.728ZM762.516 201.512C763.812 201.512 764.78 201.064 765.42 200.168C766.076 199.256 766.404 197.976 766.404 196.328V192.872C766.404 192.104 766.324 191.408 766.164 190.784C766.004 190.144 765.756 189.6 765.42 189.152C765.1 188.688 764.692 188.328 764.196 188.072C763.716 187.816 763.156 187.688 762.516 187.688C761.86 187.688 761.292 187.816 760.812 188.072C760.332 188.328 759.924 188.688 759.588 189.152C759.268 189.6 759.028 190.144 758.868 190.784C758.708 191.408 758.628 192.104 758.628 192.872V196.328C758.628 197.976 758.948 199.256 759.588 200.168C760.244 201.064 761.22 201.512 762.516 201.512ZM760.98 194.6C760.98 194.184 761.132 193.824 761.436 193.52C761.74 193.216 762.1 193.064 762.516 193.064C762.932 193.064 763.292 193.216 763.596 193.52C763.9 193.824 764.052 194.184 764.052 194.6C764.052 195.016 763.9 195.376 763.596 195.68C763.292 195.984 762.932 196.136 762.516 196.136C762.1 196.136 761.74 195.984 761.436 195.68C761.132 195.376 760.98 195.016 760.98 194.6ZM771.307 192.728C771.307 190.552 771.827 188.864 772.867 187.664C773.907 186.464 775.355 185.864 777.211 185.864C779.067 185.864 780.515 186.464 781.555 187.664C782.595 188.864 783.115 190.552 783.115 192.728V196.472C783.115 198.712 782.595 200.416 781.555 201.584C780.515 202.752 779.067 203.336 777.211 203.336C775.355 203.336 773.907 202.752 772.867 201.584C771.827 200.416 771.307 198.712 771.307 196.472V192.728ZM777.211 201.512C778.507 201.512 779.475 201.064 780.115 200.168C780.771 199.256 781.099 197.976 781.099 196.328V192.872C781.099 192.104 781.019 191.408 780.859 190.784C780.699 190.144 780.451 189.6 780.115 189.152C779.795 188.688 779.387 188.328 778.891 188.072C778.411 187.816 777.851 187.688 777.211 187.688C776.555 187.688 775.987 187.816 775.507 188.072C775.027 188.328 774.619 188.688 774.283 189.152C773.963 189.6 773.723 190.144 773.563 190.784C773.403 191.408 773.323 192.104 773.323 192.872V196.328C773.323 197.976 773.643 199.256 774.283 200.168C774.939 201.064 775.915 201.512 777.211 201.512ZM775.675 194.6C775.675 194.184 775.827 193.824 776.131 193.52C776.435 193.216 776.795 193.064 777.211 193.064C777.627 193.064 777.987 193.216 778.291 193.52C778.595 193.824 778.747 194.184 778.747 194.6C778.747 195.016 778.595 195.376 778.291 195.68C777.987 195.984 777.627 196.136 777.211 196.136C776.795 196.136 776.435 195.984 776.131 195.68C775.827 195.376 775.675 195.016 775.675 194.6Z" fill="white"/>
<path d="M801.328 350.736H805.48V346.584H807.208V350.736H811.36V352.464H807.208V356.616H805.48V352.464H801.328V350.736ZM836.407 345.408C836.967 345.504 837.471 345.672 837.919 345.912C838.383 346.136 838.775 346.416 839.095 346.752C839.415 347.088 839.663 347.464 839.839 347.88C840.015 348.28 840.103 348.704 840.103 349.152V349.584H838.279V349.296C838.279 348.768 838.103 348.32 837.751 347.952C837.415 347.584 836.967 347.328 836.407 347.184V350.616C837.735 350.776 838.743 351.144 839.431 351.72C840.135 352.28 840.487 353.056 840.487 354.048V354.192C840.487 355.264 840.111 356.128 839.359 356.784C838.623 357.424 837.639 357.784 836.407 357.864V359.328H834.679V357.816C833.975 357.704 833.367 357.512 832.855 357.24C832.359 356.952 831.943 356.616 831.607 356.232C831.287 355.832 831.047 355.408 830.887 354.96C830.727 354.496 830.647 354.032 830.647 353.568V352.992H832.471V353.28C832.471 354.048 832.663 354.664 833.047 355.128C833.431 355.592 833.975 355.904 834.679 356.064V352.152C833.479 351.992 832.559 351.648 831.919 351.12C831.295 350.576 830.983 349.824 830.983 348.864V348.72C830.983 348.208 831.079 347.76 831.271 347.376C831.479 346.976 831.751 346.64 832.087 346.368C832.423 346.08 832.815 345.856 833.263 345.696C833.711 345.52 834.183 345.408 834.679 345.36V343.872H836.407V345.408ZM838.615 354.192C838.615 353.632 838.439 353.216 838.087 352.944C837.735 352.672 837.175 352.472 836.407 352.344V356.136C837.095 356.056 837.631 355.848 838.015 355.512C838.415 355.176 838.615 354.736 838.615 354.192ZM832.855 348.72C832.855 349.168 832.983 349.536 833.239 349.824C833.511 350.096 833.991 350.296 834.679 350.424V347.088C834.167 347.168 833.735 347.344 833.383 347.616C833.031 347.888 832.855 348.256 832.855 348.72ZM849.542 358.128V344.088H849.254L846.494 350.4H844.502V350.256L847.646 343.2H851.558V358.128H856.31V360H844.79V358.128H849.542ZM863.445 358.656C863.445 358.192 863.605 357.8 863.925 357.48C864.261 357.144 864.661 356.976 865.125 356.976C865.589 356.976 865.981 357.144 866.301 357.48C866.637 357.8 866.805 358.192 866.805 358.656V361.008C866.805 361.552 866.629 362 866.277 362.352C865.941 362.704 865.501 362.88 864.957 362.88H863.733V361.584H864.861C865.293 361.584 865.509 361.344 865.509 360.864V360.264C865.381 360.312 865.245 360.336 865.101 360.336C864.653 360.336 864.261 360.176 863.925 359.856C863.605 359.52 863.445 359.12 863.445 358.656ZM873.917 349.728C873.917 347.552 874.437 345.864 875.477 344.664C876.517 343.464 877.965 342.864 879.821 342.864C881.677 342.864 883.125 343.464 884.165 344.664C885.205 345.864 885.725 347.552 885.725 349.728V353.472C885.725 355.712 885.205 357.416 884.165 358.584C883.125 359.752 881.677 360.336 879.821 360.336C877.965 360.336 876.517 359.752 875.477 358.584C874.437 357.416 873.917 355.712 873.917 353.472V349.728ZM879.821 358.512C881.117 358.512 882.085 358.064 882.725 357.168C883.381 356.256 883.709 354.976 883.709 353.328V349.872C883.709 349.104 883.629 348.408 883.469 347.784C883.309 347.144 883.061 346.6 882.725 346.152C882.405 345.688 881.997 345.328 881.501 345.072C881.021 344.816 880.461 344.688 879.821 344.688C879.165 344.688 878.597 344.816 878.117 345.072C877.637 345.328 877.229 345.688 876.893 346.152C876.573 346.6 876.333 347.144 876.173 347.784C876.013 348.408 875.933 349.104 875.933 349.872V353.328C875.933 354.976 876.253 356.256 876.893 357.168C877.549 358.064 878.525 358.512 879.821 358.512ZM878.285 351.6C878.285 351.184 878.437 350.824 878.741 350.52C879.045 350.216 879.405 350.064 879.821 350.064C880.237 350.064 880.597 350.216 880.901 350.52C881.205 350.824 881.357 351.184 881.357 351.6C881.357 352.016 881.205 352.376 880.901 352.68C880.597 352.984 880.237 353.136 879.821 353.136C879.405 353.136 879.045 352.984 878.741 352.68C878.437 352.376 878.285 352.016 878.285 351.6ZM888.612 349.728C888.612 347.552 889.132 345.864 890.172 344.664C891.212 343.464 892.66 342.864 894.516 342.864C896.372 342.864 897.82 343.464 898.86 344.664C899.9 345.864 900.42 347.552 900.42 349.728V353.472C900.42 355.712 899.9 357.416 898.86 358.584C897.82 359.752 896.372 360.336 894.516 360.336C892.66 360.336 891.212 359.752 890.172 358.584C889.132 357.416 888.612 355.712 888.612 353.472V349.728ZM894.516 358.512C895.812 358.512 896.78 358.064 897.42 357.168C898.076 356.256 898.404 354.976 898.404 353.328V349.872C898.404 349.104 898.324 348.408 898.164 347.784C898.004 347.144 897.756 346.6 897.42 346.152C897.1 345.688 896.692 345.328 896.196 345.072C895.716 344.816 895.156 344.688 894.516 344.688C893.86 344.688 893.292 344.816 892.812 345.072C892.332 345.328 891.924 345.688 891.588 346.152C891.268 346.6 891.028 347.144 890.868 347.784C890.708 348.408 890.628 349.104 890.628 349.872V353.328C890.628 354.976 890.948 356.256 891.588 357.168C892.244 358.064 893.22 358.512 894.516 358.512ZM892.98 351.6C892.98 351.184 893.132 350.824 893.436 350.52C893.74 350.216 894.1 350.064 894.516 350.064C894.932 350.064 895.292 350.216 895.596 350.52C895.9 350.824 896.052 351.184 896.052 351.6C896.052 352.016 895.9 352.376 895.596 352.68C895.292 352.984 894.932 353.136 894.516 353.136C894.1 353.136 893.74 352.984 893.436 352.68C893.132 352.376 892.98 352.016 892.98 351.6ZM903.307 349.728C903.307 347.552 903.827 345.864 904.867 344.664C905.907 343.464 907.355 342.864 909.211 342.864C911.067 342.864 912.515 343.464 913.555 344.664C914.595 345.864 915.115 347.552 915.115 349.728V353.472C915.115 355.712 914.595 357.416 913.555 358.584C912.515 359.752 911.067 360.336 909.211 360.336C907.355 360.336 905.907 359.752 904.867 358.584C903.827 357.416 903.307 355.712 903.307 353.472V349.728ZM909.211 358.512C910.507 358.512 911.475 358.064 912.115 357.168C912.771 356.256 913.099 354.976 913.099 353.328V349.872C913.099 349.104 913.019 348.408 912.859 347.784C912.699 347.144 912.451 346.6 912.115 346.152C911.795 345.688 911.387 345.328 910.891 345.072C910.411 344.816 909.851 344.688 909.211 344.688C908.555 344.688 907.987 344.816 907.507 345.072C907.027 345.328 906.619 345.688 906.283 346.152C905.963 346.6 905.723 347.144 905.563 347.784C905.403 348.408 905.323 349.104 905.323 349.872V353.328C905.323 354.976 905.643 356.256 906.283 357.168C906.939 358.064 907.915 358.512 909.211 358.512ZM907.675 351.6C907.675 351.184 907.827 350.824 908.131 350.52C908.435 350.216 908.795 350.064 909.211 350.064C909.627 350.064 909.987 350.216 910.291 350.52C910.595 350.824 910.747 351.184 910.747 351.6C910.747 352.016 910.595 352.376 910.291 352.68C909.987 352.984 909.627 353.136 909.211 353.136C908.795 353.136 908.435 352.984 908.131 352.68C907.827 352.376 907.675 352.016 907.675 351.6Z" fill="white"/>
<path d="M548.744 476.896H555.944V478.624H548.744V476.896ZM582.407 469.408C582.967 469.504 583.471 469.672 583.919 469.912C584.383 470.136 584.775 470.416 585.095 470.752C585.415 471.088 585.663 471.464 585.839 471.88C586.015 472.28 586.103 472.704 586.103 473.152V473.584H584.279V473.296C584.279 472.768 584.103 472.32 583.751 471.952C583.415 471.584 582.967 471.328 582.407 471.184V474.616C583.735 474.776 584.743 475.144 585.431 475.72C586.135 476.28 586.487 477.056 586.487 478.048V478.192C586.487 479.264 586.111 480.128 585.359 480.784C584.623 481.424 583.639 481.784 582.407 481.864V483.328H580.679V481.816C579.975 481.704 579.367 481.512 578.855 481.24C578.359 480.952 577.943 480.616 577.607 480.232C577.287 479.832 577.047 479.408 576.887 478.96C576.727 478.496 576.647 478.032 576.647 477.568V476.992H578.471V477.28C578.471 478.048 578.663 478.664 579.047 479.128C579.431 479.592 579.975 479.904 580.679 480.064V476.152C579.479 475.992 578.559 475.648 577.919 475.12C577.295 474.576 576.983 473.824 576.983 472.864V472.72C576.983 472.208 577.079 471.76 577.271 471.376C577.479 470.976 577.751 470.64 578.087 470.368C578.423 470.08 578.815 469.856 579.263 469.696C579.711 469.52 580.183 469.408 580.679 469.36V467.872H582.407V469.408ZM584.615 478.192C584.615 477.632 584.439 477.216 584.087 476.944C583.735 476.672 583.175 476.472 582.407 476.344V480.136C583.095 480.056 583.631 479.848 584.015 479.512C584.415 479.176 584.615 478.736 584.615 478.192ZM578.855 472.72C578.855 473.168 578.983 473.536 579.239 473.824C579.511 474.096 579.991 474.296 580.679 474.424V471.088C580.167 471.168 579.735 471.344 579.383 471.616C579.031 471.888 578.855 472.256 578.855 472.72ZM594.774 475.648V472.864L600.246 469.36V469.072H590.742V467.2H601.974V470.272L596.502 473.776V474.064H597.462C598.102 474.064 598.718 474.168 599.31 474.376C599.902 474.584 600.422 474.888 600.87 475.288C601.334 475.688 601.702 476.184 601.974 476.776C602.262 477.352 602.406 478.024 602.406 478.792V479.224C602.406 479.944 602.262 480.616 601.974 481.24C601.686 481.864 601.286 482.408 600.774 482.872C600.262 483.32 599.654 483.68 598.95 483.952C598.262 484.208 597.51 484.336 596.694 484.336C595.75 484.336 594.902 484.192 594.15 483.904C593.398 483.616 592.758 483.224 592.23 482.728C591.702 482.216 591.294 481.624 591.006 480.952C590.734 480.264 590.598 479.536 590.598 478.768V477.472H592.614V478.624C592.614 479.232 592.71 479.776 592.902 480.256C593.11 480.72 593.39 481.12 593.742 481.456C594.11 481.776 594.542 482.024 595.038 482.2C595.534 482.376 596.07 482.464 596.646 482.464C597.174 482.464 597.662 482.376 598.11 482.2C598.574 482.024 598.974 481.784 599.31 481.48C599.646 481.16 599.91 480.792 600.102 480.376C600.294 479.944 600.39 479.488 600.39 479.008V478.864C600.39 477.856 600.07 477.072 599.43 476.512C598.79 475.936 597.99 475.648 597.03 475.648H594.774ZM609.445 482.656C609.445 482.192 609.605 481.8 609.925 481.48C610.261 481.144 610.661 480.976 611.125 480.976C611.589 480.976 611.981 481.144 612.301 481.48C612.637 481.8 612.805 482.192 612.805 482.656V485.008C612.805 485.552 612.629 486 612.277 486.352C611.941 486.704 611.501 486.88 610.957 486.88H609.733V485.584H610.861C611.293 485.584 611.509 485.344 611.509 484.864V484.264C611.381 484.312 611.245 484.336 611.101 484.336C610.653 484.336 610.261 484.176 609.925 483.856C609.605 483.52 609.445 483.12 609.445 482.656ZM619.917 473.728C619.917 471.552 620.437 469.864 621.477 468.664C622.517 467.464 623.965 466.864 625.821 466.864C627.677 466.864 629.125 467.464 630.165 468.664C631.205 469.864 631.725 471.552 631.725 473.728V477.472C631.725 479.712 631.205 481.416 630.165 482.584C629.125 483.752 627.677 484.336 625.821 484.336C623.965 484.336 622.517 483.752 621.477 482.584C620.437 481.416 619.917 479.712 619.917 477.472V473.728ZM625.821 482.512C627.117 482.512 628.085 482.064 628.725 481.168C629.381 480.256 629.709 478.976 629.709 477.328V473.872C629.709 473.104 629.629 472.408 629.469 471.784C629.309 471.144 629.061 470.6 628.725 470.152C628.405 469.688 627.997 469.328 627.501 469.072C627.021 468.816 626.461 468.688 625.821 468.688C625.165 468.688 624.597 468.816 624.117 469.072C623.637 469.328 623.229 469.688 622.893 470.152C622.573 470.6 622.333 471.144 622.173 471.784C622.013 472.408 621.933 473.104 621.933 473.872V477.328C621.933 478.976 622.253 480.256 622.893 481.168C623.549 482.064 624.525 482.512 625.821 482.512ZM624.285 475.6C624.285 475.184 624.437 474.824 624.741 474.52C625.045 474.216 625.405 474.064 625.821 474.064C626.237 474.064 626.597 474.216 626.901 474.52C627.205 474.824 627.357 475.184 627.357 475.6C627.357 476.016 627.205 476.376 626.901 476.68C626.597 476.984 626.237 477.136 625.821 477.136C625.405 477.136 625.045 476.984 624.741 476.68C624.437 476.376 624.285 476.016 624.285 475.6ZM634.612 473.728C634.612 471.552 635.132 469.864 636.172 468.664C637.212 467.464 638.66 466.864 640.516 466.864C642.372 466.864 643.82 467.464 644.86 468.664C645.9 469.864 646.42 471.552 646.42 473.728V477.472C646.42 479.712 645.9 481.416 644.86 482.584C643.82 483.752 642.372 484.336 640.516 484.336C638.66 484.336 637.212 483.752 636.172 482.584C635.132 481.416 634.612 479.712 634.612 477.472V473.728ZM640.516 482.512C641.812 482.512 642.78 482.064 643.42 481.168C644.076 480.256 644.404 478.976 644.404 477.328V473.872C644.404 473.104 644.324 472.408 644.164 471.784C644.004 471.144 643.756 470.6 643.42 470.152C643.1 469.688 642.692 469.328 642.196 469.072C641.716 468.816 641.156 468.688 640.516 468.688C639.86 468.688 639.292 468.816 638.812 469.072C638.332 469.328 637.924 469.688 637.588 470.152C637.268 470.6 637.028 471.144 636.868 471.784C636.708 472.408 636.628 473.104 636.628 473.872V477.328C636.628 478.976 636.948 480.256 637.588 481.168C638.244 482.064 639.22 482.512 640.516 482.512ZM638.98 475.6C638.98 475.184 639.132 474.824 639.436 474.52C639.74 474.216 640.1 474.064 640.516 474.064C640.932 474.064 641.292 474.216 641.596 474.52C641.9 474.824 642.052 475.184 642.052 475.6C642.052 476.016 641.9 476.376 641.596 476.68C641.292 476.984 640.932 477.136 640.516 477.136C640.1 477.136 639.74 476.984 639.436 476.68C639.132 476.376 638.98 476.016 638.98 475.6ZM649.307 473.728C649.307 471.552 649.827 469.864 650.867 468.664C651.907 467.464 653.355 466.864 655.211 466.864C657.067 466.864 658.515 467.464 659.555 468.664C660.595 469.864 661.115 471.552 661.115 473.728V477.472C661.115 479.712 660.595 481.416 659.555 482.584C658.515 483.752 657.067 484.336 655.211 484.336C653.355 484.336 651.907 483.752 650.867 482.584C649.827 481.416 649.307 479.712 649.307 477.472V473.728ZM655.211 482.512C656.507 482.512 657.475 482.064 658.115 481.168C658.771 480.256 659.099 478.976 659.099 477.328V473.872C659.099 473.104 659.019 472.408 658.859 471.784C658.699 471.144 658.451 470.6 658.115 470.152C657.795 469.688 657.387 469.328 656.891 469.072C656.411 468.816 655.851 468.688 655.211 468.688C654.555 468.688 653.987 468.816 653.507 469.072C653.027 469.328 652.619 469.688 652.283 470.152C651.963 470.6 651.723 471.144 651.563 471.784C651.403 472.408 651.323 473.104 651.323 473.872V477.328C651.323 478.976 651.643 480.256 652.283 481.168C652.939 482.064 653.915 482.512 655.211 482.512ZM653.675 475.6C653.675 475.184 653.827 474.824 654.131 474.52C654.435 474.216 654.795 474.064 655.211 474.064C655.627 474.064 655.987 474.216 656.291 474.52C656.595 474.824 656.747 475.184 656.747 475.6C656.747 476.016 656.595 476.376 656.291 476.68C655.987 476.984 655.627 477.136 655.211 477.136C654.795 477.136 654.435 476.984 654.131 476.68C653.827 476.376 653.675 476.016 653.675 475.6Z" fill="white"/>
</svg>
