<svg width="1200" height="630" viewBox="0 0 1200 630" fill="none" xmlns="http://www.w3.org/2000/svg">
<rect width="1200" height="630" fill="#111111"/>
<path d="M251.44 205.728C251.44 203.552 251.96 201.864 253 200.664C254.04 199.464 255.488 198.864 257.344 198.864C259.2 198.864 260.648 199.464 261.688 200.664C262.728 201.864 263.248 203.552 263.248 205.728V209.472C263.248 211.712 262.728 213.416 261.688 214.584C260.648 215.752 259.2 216.336 257.344 216.336C255.488 216.336 254.04 215.752 253 214.584C251.96 213.416 251.44 211.712 251.44 209.472V205.728ZM257.344 214.512C258.64 214.512 259.608 214.064 260.248 213.168C260.904 212.256 261.232 210.976 261.232 209.328V205.872C261.232 205.104 261.152 204.408 260.992 203.784C260.832 203.144 260.584 202.6 260.248 202.152C259.928 201.688 259.52 201.328 259.024 201.072C258.544 200.816 257.984 200.688 257.344 200.688C256.688 200.688 256.12 200.816 255.64 201.072C255.16 201.328 254.752 201.688 254.416 202.152C254.096 202.6 253.856 203.144 253.696 203.784C253.536 204.408 253.456 205.104 253.456 205.872V209.328C253.456 210.976 253.776 212.256 254.416 213.168C255.072 214.064 256.048 214.512 257.344 214.512ZM255.808 207.6C255.808 207.184 255.96 206.824 256.264 206.52C256.568 206.216 256.928 206.064 257.344 206.064C257.76 206.064 258.12 206.216 258.424 206.52C258.728 206.824 258.88 207.184 258.88 207.6C258.88 208.016 258.728 208.376 258.424 208.68C258.12 208.984 257.76 209.136 257.344 209.136C256.928 209.136 256.568 208.984 256.264 208.68C255.96 208.376 255.808 208.016 255.808 207.6ZM266.135 205.728C266.135 203.552 266.655 201.864 267.695 200.664C268.735 199.464 270.183 198.864 272.039 198.864C273.895 198.864 275.343 199.464 276.383 200.664C277.423 201.864 277.943 203.552 277.943 205.728V209.472C277.943 211.712 277.423 213.416 276.383 214.584C275.343 215.752 273.895 216.336 272.039 216.336C270.183 216.336 268.735 215.752 267.695 214.584C266.655 213.416 266.135 211.712 266.135 209.472V205.728ZM272.039 214.512C273.335 214.512 274.303 214.064 274.943 213.168C275.599 212.256 275.927 210.976 275.927 209.328V205.872C275.927 205.104 275.847 204.408 275.687 203.784C275.527 203.144 275.279 202.6 274.943 202.152C274.623 201.688 274.215 201.328 273.719 201.072C273.239 200.816 272.679 200.688 272.039 200.688C271.383 200.688 270.815 200.816 270.335 201.072C269.855 201.328 269.447 201.688 269.111 202.152C268.791 202.6 268.551 203.144 268.391 203.784C268.231 204.408 268.151 205.104 268.151 205.872V209.328C268.151 210.976 268.471 212.256 269.111 213.168C269.767 214.064 270.743 214.512 272.039 214.512ZM270.503 207.6C270.503 207.184 270.655 206.824 270.959 206.52C271.263 206.216 271.623 206.064 272.039 206.064C272.455 206.064 272.815 206.216 273.119 206.52C273.423 206.824 273.575 207.184 273.575 207.6C273.575 208.016 273.423 208.376 273.119 208.68C272.815 208.984 272.455 209.136 272.039 209.136C271.623 209.136 271.263 208.984 270.959 208.68C270.655 208.376 270.503 208.016 270.503 207.6ZM285.847 214.128V200.088H285.559L282.799 206.4H280.807V206.256L283.951 199.2H287.863V214.128H292.615V216H281.095V214.128H285.847ZM295.526 205.728C295.526 203.552 296.046 201.864 297.086 200.664C298.126 199.464 299.574 198.864 301.43 198.864C303.286 198.864 304.734 199.464 305.774 200.664C306.814 201.864 307.334 203.552 307.334 205.728V209.472C307.334 211.712 306.814 213.416 305.774 214.584C304.734 215.752 303.286 216.336 301.43 216.336C299.574 216.336 298.126 215.752 297.086 214.584C296.046 213.416 295.526 211.712 295.526 209.472V205.728ZM301.43 214.512C302.726 214.512 303.694 214.064 304.334 213.168C304.99 212.256 305.318 210.976 305.318 209.328V205.872C305.318 205.104 305.238 204.408 305.078 203.784C304.918 203.144 304.67 202.6 304.334 202.152C304.014 201.688 303.606 201.328 303.11 201.072C302.63 200.816 302.07 200.688 301.43 200.688C300.774 200.688 300.206 200.816 299.726 201.072C299.246 201.328 298.838 201.688 298.502 202.152C298.182 202.6 297.942 203.144 297.782 203.784C297.622 204.408 297.542 205.104 297.542 205.872V209.328C297.542 210.976 297.862 212.256 298.502 213.168C299.158 214.064 300.134 214.512 301.43 214.512ZM299.894 207.6C299.894 207.184 300.046 206.824 300.35 206.52C300.654 206.216 301.014 206.064 301.43 206.064C301.846 206.064 302.206 206.216 302.51 206.52C302.814 206.824 302.966 207.184 302.966 207.6C302.966 208.016 302.814 208.376 302.51 208.68C302.206 208.984 301.846 209.136 301.43 209.136C301.014 209.136 300.654 208.984 300.35 208.68C300.046 208.376 299.894 208.016 299.894 207.6ZM315.237 214.128V200.088H314.949L312.189 206.4H310.197V206.256L313.341 199.2H317.253V214.128H322.005V216H310.485V214.128H315.237ZM324.917 205.728C324.917 203.552 325.437 201.864 326.477 200.664C327.517 199.464 328.965 198.864 330.821 198.864C332.677 198.864 334.125 199.464 335.165 200.664C336.205 201.864 336.725 203.552 336.725 205.728V209.472C336.725 211.712 336.205 213.416 335.165 214.584C334.125 215.752 332.677 216.336 330.821 216.336C328.965 216.336 327.517 215.752 326.477 214.584C325.437 213.416 324.917 211.712 324.917 209.472V205.728ZM330.821 214.512C332.117 214.512 333.085 214.064 333.725 213.168C334.381 212.256 334.709 210.976 334.709 209.328V205.872C334.709 205.104 334.629 204.408 334.469 203.784C334.309 203.144 334.061 202.6 333.725 202.152C333.405 201.688 332.997 201.328 332.501 201.072C332.021 200.816 331.461 200.688 330.821 200.688C330.165 200.688 329.597 200.816 329.117 201.072C328.637 201.328 328.229 201.688 327.893 202.152C327.573 202.6 327.333 203.144 327.173 203.784C327.013 204.408 326.933 205.104 326.933 205.872V209.328C326.933 210.976 327.253 212.256 327.893 213.168C328.549 214.064 329.525 214.512 330.821 214.512ZM329.285 207.6C329.285 207.184 329.437 206.824 329.741 206.52C330.045 206.216 330.405 206.064 330.821 206.064C331.237 206.064 331.597 206.216 331.901 206.52C332.205 206.824 332.357 207.184 332.357 207.6C332.357 208.016 332.205 208.376 331.901 208.68C331.597 208.984 331.237 209.136 330.821 209.136C330.405 209.136 330.045 208.984 329.741 208.68C329.437 208.376 329.285 208.016 329.285 207.6ZM344.628 214.128V200.088H344.34L341.58 206.4H339.588V206.256L342.732 199.2H346.644V214.128H351.396V216H339.876V214.128H344.628ZM359.323 214.128V200.088H359.035L356.275 206.4H354.283V206.256L357.427 199.2H361.339V214.128H366.091V216H354.571V214.128H359.323ZM251.44 241.728C251.44 239.552 251.96 237.864 253 236.664C254.04 235.464 255.488 234.864 257.344 234.864C259.2 234.864 260.648 235.464 261.688 236.664C262.728 237.864 263.248 239.552 263.248 241.728V245.472C263.248 247.712 262.728 249.416 261.688 250.584C260.648 251.752 259.2 252.336 257.344 252.336C255.488 252.336 254.04 251.752 253 250.584C251.96 249.416 251.44 247.712 251.44 245.472V241.728ZM257.344 250.512C258.64 250.512 259.608 250.064 260.248 249.168C260.904 248.256 261.232 246.976 261.232 245.328V241.872C261.232 241.104 261.152 240.408 260.992 239.784C260.832 239.144 260.584 238.6 260.248 238.152C259.928 237.688 259.52 237.328 259.024 237.072C258.544 236.816 257.984 236.688 257.344 236.688C256.688 236.688 256.12 236.816 255.64 237.072C255.16 237.328 254.752 237.688 254.416 238.152C254.096 238.6 253.856 239.144 253.696 239.784C253.536 240.408 253.456 241.104 253.456 241.872V245.328C253.456 246.976 253.776 248.256 254.416 249.168C255.072 250.064 256.048 250.512 257.344 250.512ZM255.808 243.6C255.808 243.184 255.96 242.824 256.264 242.52C256.568 242.216 256.928 242.064 257.344 242.064C257.76 242.064 258.12 242.216 258.424 242.52C258.728 242.824 258.88 243.184 258.88 243.6C258.88 244.016 258.728 244.376 258.424 244.68C258.12 244.984 257.76 245.136 257.344 245.136C256.928 245.136 256.568 244.984 256.264 244.68C255.96 244.376 255.808 244.016 255.808 243.6ZM266.135 241.728C266.135 239.552 266.655 237.864 267.695 236.664C268.735 235.464 270.183 234.864 272.039 234.864C273.895 234.864 275.343 235.464 276.383 236.664C277.423 237.864 277.943 239.552 277.943 241.728V245.472C277.943 247.712 277.423 249.416 276.383 250.584C275.343 251.752 273.895 252.336 272.039 252.336C270.183 252.336 268.735 251.752 267.695 250.584C266.655 249.416 266.135 247.712 266.135 245.472V241.728ZM272.039 250.512C273.335 250.512 274.303 250.064 274.943 249.168C275.599 248.256 275.927 246.976 275.927 245.328V241.872C275.927 241.104 275.847 240.408 275.687 239.784C275.527 239.144 275.279 238.6 274.943 238.152C274.623 237.688 274.215 237.328 273.719 237.072C273.239 236.816 272.679 236.688 272.039 236.688C271.383 236.688 270.815 236.816 270.335 237.072C269.855 237.328 269.447 237.688 269.111 238.152C268.791 238.6 268.551 239.144 268.391 239.784C268.231 240.408 268.151 241.104 268.151 241.872V245.328C268.151 246.976 268.471 248.256 269.111 249.168C269.767 250.064 270.743 250.512 272.039 250.512ZM270.503 243.6C270.503 243.184 270.655 242.824 270.959 242.52C271.263 242.216 271.623 242.064 272.039 242.064C272.455 242.064 272.815 242.216 273.119 242.52C273.423 242.824 273.575 243.184 273.575 243.6C273.575 244.016 273.423 244.376 273.119 244.68C272.815 244.984 272.455 245.136 272.039 245.136C271.623 245.136 271.263 244.984 270.959 244.68C270.655 244.376 270.503 244.016 270.503 243.6ZM285.847 250.128V236.088H285.559L282.799 242.4H280.807V242.256L283.951 235.2H287.863V250.128H292.615V252H281.095V250.128H285.847ZM295.526 241.728C295.526 239.552 296.046 237.864 297.086 236.664C298.126 235.464 299.574 234.864 301.43 234.864C303.286 234.864 304.734 235.464 305.774 236.664C306.814 237.864 307.334 239.552 307.334 241.728V245.472C307.334 247.712 306.814 249.416 305.774 250.584C304.734 251.752 303.286 252.336 301.43 252.336C299.574 252.336 298.126 251.752 297.086 250.584C296.046 249.416 295.526 247.712 295.526 245.472V241.728ZM301.43 250.512C302.726 250.512 303.694 250.064 304.334 249.168C304.99 248.256 305.318 246.976 305.318 245.328V241.872C305.318 241.104 305.238 240.408 305.078 239.784C304.918 239.144 304.67 238.6 304.334 238.152C304.014 237.688 303.606 237.328 303.11 237.072C302.63 236.816 302.07 236.688 301.43 236.688C300.774 236.688 300.206 236.816 299.726 237.072C299.246 237.328 298.838 237.688 298.502 238.152C298.182 238.6 297.942 239.144 297.782 239.784C297.622 240.408 297.542 241.104 297.542 241.872V245.328C297.542 246.976 297.862 248.256 298.502 249.168C299.158 250.064 300.134 250.512 301.43 250.512ZM299.894 243.6C299.894 243.184 300.046 242.824 300.35 242.52C300.654 242.216 301.014 242.064 301.43 242.064C301.846 242.064 302.206 242.216 302.51 242.52C302.814 242.824 302.966 243.184 302.966 243.6C302.966 244.016 302.814 244.376 302.51 244.68C302.206 244.984 301.846 245.136 301.43 245.136C301.014 245.136 300.654 244.984 300.35 244.68C300.046 244.376 299.894 244.016 299.894 243.6ZM310.221 241.728C310.221 239.552 310.741 237.864 311.781 236.664C312.821 235.464 314.269 234.864 316.125 234.864C317.981 234.864 319.429 235.464 320.469 236.664C321.509 237.864 322.029 239.552 322.029 241.728V245.472C322.029 247.712 321.509 249.416 320.469 250.584C319.429 251.752 317.981 252.336 316.125 252.336C314.269 252.336 312.821 251.752 311.781 250.584C310.741 249.416 310.221 247.712 310.221 245.472V241.728ZM316.125 250.512C317.421 250.512 318.389 250.064 319.029 249.168C319.685 248.256 320.013 246.976 320.013 245.328V241.872C320.013 241.104 319.933 240.408 319.773 239.784C319.613 239.144 319.365 238.6 319.029 238.152C318.709 237.688 318.301 237.328 317.805 237.072C317.325 236.816 316.765 236.688 316.125 236.688C315.469 236.688 314.901 236.816 314.421 237.072C313.941 237.328 313.533 237.688 313.197 238.152C312.877 238.6 312.637 239.144 312.477 239.784C312.317 240.408 312.237 241.104 312.237 241.872V245.328C312.237 246.976 312.557 248.256 313.197 249.168C313.853 250.064 314.829 250.512 316.125 250.512ZM314.589 243.6C314.589 243.184 314.741 242.824 315.045 242.52C315.349 242.216 315.709 242.064 316.125 242.064C316.541 242.064 316.901 242.216 317.205 242.52C317.509 242.824 317.661 243.184 317.661 243.6C317.661 244.016 317.509 244.376 317.205 244.68C316.901 244.984 316.541 245.136 316.125 245.136C315.709 245.136 315.349 244.984 315.045 244.68C314.741 244.376 314.589 244.016 314.589 243.6ZM329.933 250.128V236.088H329.645L326.885 242.4H324.893V242.256L328.037 235.2H331.949V250.128H336.701V252H325.181V250.128H329.933ZM339.612 241.728C339.612 239.552 340.132 237.864 341.172 236.664C342.212 235.464 343.66 234.864 345.516 234.864C347.372 234.864 348.82 235.464 349.86 236.664C350.9 237.864 351.42 239.552 351.42 241.728V245.472C351.42 247.712 350.9 249.416 349.86 250.584C348.82 251.752 347.372 252.336 345.516 252.336C343.66 252.336 342.212 251.752 341.172 250.584C340.132 249.416 339.612 247.712 339.612 245.472V241.728ZM345.516 250.512C346.812 250.512 347.78 250.064 348.42 249.168C349.076 248.256 349.404 246.976 349.404 245.328V241.872C349.404 241.104 349.324 240.408 349.164 239.784C349.004 239.144 348.756 238.6 348.42 238.152C348.1 237.688 347.692 237.328 347.196 237.072C346.716 236.816 346.156 236.688 345.516 236.688C344.86 236.688 344.292 236.816 343.812 237.072C343.332 237.328 342.924 237.688 342.588 238.152C342.268 238.6 342.028 239.144 341.868 239.784C341.708 240.408 341.628 241.104 341.628 241.872V245.328C341.628 246.976 341.948 248.256 342.588 249.168C343.244 250.064 344.22 250.512 345.516 250.512ZM343.98 243.6C343.98 243.184 344.132 242.824 344.436 242.52C344.74 242.216 345.1 242.064 345.516 242.064C345.932 242.064 346.292 242.216 346.596 242.52C346.9 242.824 347.052 243.184 347.052 243.6C347.052 244.016 346.9 244.376 346.596 244.68C346.292 244.984 345.932 245.136 345.516 245.136C345.1 245.136 344.74 244.984 344.436 244.68C344.132 244.376 343.98 244.016 343.98 243.6ZM354.307 241.728C354.307 239.552 354.827 237.864 355.867 236.664C356.907 235.464 358.355 234.864 360.211 234.864C362.067 234.864 363.515 235.464 364.555 236.664C365.595 237.864 366.115 239.552 366.115 241.728V245.472C366.115 247.712 365.595 249.416 364.555 250.584C363.515 251.752 362.067 252.336 360.211 252.336C358.355 252.336 356.907 251.752 355.867 250.584C354.827 249.416 354.307 247.712 354.307 245.472V241.728ZM360.211 250.512C361.507 250.512 362.475 250.064 363.115 249.168C363.771 248.256 364.099 246.976 364.099 245.328V241.872C364.099 241.104 364.019 240.408 363.859 239.784C363.699 239.144 363.451 238.6 363.115 238.152C362.795 237.688 362.387 237.328 361.891 237.072C361.411 236.816 360.851 236.688 360.211 236.688C359.555 236.688 358.987 236.816 358.507 237.072C358.027 237.328 357.619 237.688 357.283 238.152C356.963 238.6 356.723 239.144 356.563 239.784C356.403 240.408 356.323 241.104 356.323 241.872V245.328C356.323 246.976 356.643 248.256 357.283 249.168C357.939 250.064 358.915 250.512 360.211 250.512ZM358.675 243.6C358.675 243.184 358.827 242.824 359.131 242.52C359.435 242.216 359.795 242.064 360.211 242.064C360.627 242.064 360.987 242.216 361.291 242.52C361.595 242.824 361.747 243.184 361.747 243.6C361.747 244.016 361.595 244.376 361.291 244.68C360.987 244.984 360.627 245.136 360.211 245.136C359.795 245.136 359.435 244.984 359.131 244.68C358.827 244.376 358.675 244.016 358.675 243.6ZM251.44 277.728C251.44 275.552 251.96 273.864 253 272.664C254.04 271.464 255.488 270.864 257.344 270.864C259.2 270.864 260.648 271.464 261.688 272.664C262.728 273.864 263.248 275.552 263.248 277.728V281.472C263.248 283.712 262.728 285.416 261.688 286.584C260.648 287.752 259.2 288.336 257.344 288.336C255.488 288.336 254.04 287.752 253 286.584C251.96 285.416 251.44 283.712 251.44 281.472V277.728ZM257.344 286.512C258.64 286.512 259.608 286.064 260.248 285.168C260.904 284.256 261.232 282.976 261.232 281.328V277.872C261.232 277.104 261.152 276.408 260.992 275.784C260.832 275.144 260.584 274.6 260.248 274.152C259.928 273.688 259.52 273.328 259.024 273.072C258.544 272.816 257.984 272.688 257.344 272.688C256.688 272.688 256.12 272.816 255.64 273.072C255.16 273.328 254.752 273.688 254.416 274.152C254.096 274.6 253.856 275.144 253.696 275.784C253.536 276.408 253.456 277.104 253.456 277.872V281.328C253.456 282.976 253.776 284.256 254.416 285.168C255.072 286.064 256.048 286.512 257.344 286.512ZM255.808 279.6C255.808 279.184 255.96 278.824 256.264 278.52C256.568 278.216 256.928 278.064 257.344 278.064C257.76 278.064 258.12 278.216 258.424 278.52C258.728 278.824 258.88 279.184 258.88 279.6C258.88 280.016 258.728 280.376 258.424 280.68C258.12 280.984 257.76 281.136 257.344 281.136C256.928 281.136 256.568 280.984 256.264 280.68C255.96 280.376 255.808 280.016 255.808 279.6ZM266.135 277.728C266.135 275.552 266.655 273.864 267.695 272.664C268.735 271.464 270.183 270.864 272.039 270.864C273.895 270.864 275.343 271.464 276.383 272.664C277.423 273.864 277.943 275.552 277.943 277.728V281.472C277.943 283.712 277.423 285.416 276.383 286.584C275.343 287.752 273.895 288.336 272.039 288.336C270.183 288.336 268.735 287.752 267.695 286.584C266.655 285.416 266.135 283.712 266.135 281.472V277.728ZM272.039 286.512C273.335 286.512 274.303 286.064 274.943 285.168C275.599 284.256 275.927 282.976 275.927 281.328V277.872C275.927 277.104 275.847 276.408 275.687 275.784C275.527 275.144 275.279 274.6 274.943 274.152C274.623 273.688 274.215 273.328 273.719 273.072C273.239 272.816 272.679 272.688 272.039 272.688C271.383 272.688 270.815 272.816 270.335 273.072C269.855 273.328 269.447 273.688 269.111 274.152C268.791 274.6 268.551 275.144 268.391 275.784C268.231 276.408 268.151 277.104 268.151 277.872V281.328C268.151 282.976 268.471 284.256 269.111 285.168C269.767 286.064 270.743 286.512 272.039 286.512ZM270.503 279.6C270.503 279.184 270.655 278.824 270.959 278.52C271.263 278.216 271.623 278.064 272.039 278.064C272.455 278.064 272.815 278.216 273.119 278.52C273.423 278.824 273.575 279.184 273.575 279.6C273.575 280.016 273.423 280.376 273.119 280.68C272.815 280.984 272.455 281.136 272.039 281.136C271.623 281.136 271.263 280.984 270.959 280.68C270.655 280.376 270.503 280.016 270.503 279.6ZM285.847 286.128V272.088H285.559L282.799 278.4H280.807V278.256L283.951 271.2H287.863V286.128H292.615V288H281.095V286.128H285.847ZM300.542 286.128V272.088H300.254L297.494 278.4H295.502V278.256L298.646 271.2H302.558V286.128H307.31V288H295.79V286.128H300.542ZM310.221 277.728C310.221 275.552 310.741 273.864 311.781 272.664C312.821 271.464 314.269 270.864 316.125 270.864C317.981 270.864 319.429 271.464 320.469 272.664C321.509 273.864 322.029 275.552 322.029 277.728V281.472C322.029 283.712 321.509 285.416 320.469 286.584C319.429 287.752 317.981 288.336 316.125 288.336C314.269 288.336 312.821 287.752 311.781 286.584C310.741 285.416 310.221 283.712 310.221 281.472V277.728ZM316.125 286.512C317.421 286.512 318.389 286.064 319.029 285.168C319.685 284.256 320.013 282.976 320.013 281.328V277.872C320.013 277.104 319.933 276.408 319.773 275.784C319.613 275.144 319.365 274.6 319.029 274.152C318.709 273.688 318.301 273.328 317.805 273.072C317.325 272.816 316.765 272.688 316.125 272.688C315.469 272.688 314.901 272.816 314.421 273.072C313.941 273.328 313.533 273.688 313.197 274.152C312.877 274.6 312.637 275.144 312.477 275.784C312.317 276.408 312.237 277.104 312.237 277.872V281.328C312.237 282.976 312.557 284.256 313.197 285.168C313.853 286.064 314.829 286.512 316.125 286.512ZM314.589 279.6C314.589 279.184 314.741 278.824 315.045 278.52C315.349 278.216 315.709 278.064 316.125 278.064C316.541 278.064 316.901 278.216 317.205 278.52C317.509 278.824 317.661 279.184 317.661 279.6C317.661 280.016 317.509 280.376 317.205 280.68C316.901 280.984 316.541 281.136 316.125 281.136C315.709 281.136 315.349 280.984 315.045 280.68C314.741 280.376 314.589 280.016 314.589 279.6ZM324.917 277.728C324.917 275.552 325.437 273.864 326.477 272.664C327.517 271.464 328.965 270.864 330.821 270.864C332.677 270.864 334.125 271.464 335.165 272.664C336.205 273.864 336.725 275.552 336.725 277.728V281.472C336.725 283.712 336.205 285.416 335.165 286.584C334.125 287.752 332.677 288.336 330.821 288.336C328.965 288.336 327.517 287.752 326.477 286.584C325.437 285.416 324.917 283.712 324.917 281.472V277.728ZM330.821 286.512C332.117 286.512 333.085 286.064 333.725 285.168C334.381 284.256 334.709 282.976 334.709 281.328V277.872C334.709 277.104 334.629 276.408 334.469 275.784C334.309 275.144 334.061 274.6 333.725 274.152C333.405 273.688 332.997 273.328 332.501 273.072C332.021 272.816 331.461 272.688 330.821 272.688C330.165 272.688 329.597 272.816 329.117 273.072C328.637 273.328 328.229 273.688 327.893 274.152C327.573 274.6 327.333 275.144 327.173 275.784C327.013 276.408 326.933 277.104 326.933 277.872V281.328C326.933 282.976 327.253 284.256 327.893 285.168C328.549 286.064 329.525 286.512 330.821 286.512ZM329.285 279.6C329.285 279.184 329.437 278.824 329.741 278.52C330.045 278.216 330.405 278.064 330.821 278.064C331.237 278.064 331.597 278.216 331.901 278.52C332.205 278.824 332.357 279.184 332.357 279.6C332.357 280.016 332.205 280.376 331.901 280.68C331.597 280.984 331.237 281.136 330.821 281.136C330.405 281.136 330.045 280.984 329.741 280.68C329.437 280.376 329.285 280.016 329.285 279.6ZM339.612 277.728C339.612 275.552 340.132 273.864 341.172 272.664C342.212 271.464 343.66 270.864 345.516 270.864C347.372 270.864 348.82 271.464 349.86 272.664C350.9 273.864 351.42 275.552 351.42 277.728V281.472C351.42 283.712 350.9 285.416 349.86 286.584C348.82 287.752 347.372 288.336 345.516 288.336C343.66 288.336 342.212 287.752 341.172 286.584C340.132 285.416 339.612 283.712 339.612 281.472V277.728ZM345.516 286.512C346.812 286.512 347.78 286.064 348.42 285.168C349.076 284.256 349.404 282.976 349.404 281.328V277.872C349.404 277.104 349.324 276.408 349.164 275.784C349.004 275.144 348.756 274.6 348.42 274.152C348.1 273.688 347.692 273.328 347.196 273.072C346.716 272.816 346.156 272.688 345.516 272.688C344.86 272.688 344.292 272.816 343.812 273.072C343.332 273.328 342.924 273.688 342.588 274.152C342.268 274.6 342.028 275.144 341.868 275.784C341.708 276.408 341.628 277.104 341.628 277.872V281.328C341.628 282.976 341.948 284.256 342.588 285.168C343.244 286.064 344.22 286.512 345.516 286.512ZM343.98 279.6C343.98 279.184 344.132 278.824 344.436 278.52C344.74 278.216 345.1 278.064 345.516 278.064C345.932 278.064 346.292 278.216 346.596 278.52C346.9 278.824 347.052 279.184 347.052 279.6C347.052 280.016 346.9 280.376 346.596 280.68C346.292 280.984 345.932 281.136 345.516 281.136C345.1 281.136 344.74 280.984 344.436 280.68C344.132 280.376 343.98 280.016 343.98 279.6ZM359.323 286.128V272.088H359.035L356.275 278.4H354.283V278.256L357.427 271.2H361.339V286.128H366.091V288H354.571V286.128H359.323ZM251.44 313.728C251.44 311.552 251.96 309.864 253 308.664C254.04 307.464 255.488 306.864 257.344 306.864C259.2 306.864 260.648 307.464 261.688 308.664C262.728 309.864 263.248 311.552 263.248 313.728V317.472C263.248 319.712 262.728 321.416 261.688 322.584C260.648 323.752 259.2 324.336 257.344 324.336C255.488 324.336 254.04 323.752 253 322.584C251.96 321.416 251.44 319.712 251.44 317.472V313.728ZM257.344 322.512C258.64 322.512 259.608 322.064 260.248 321.168C260.904 320.256 261.232 318.976 261.232 317.328V313.872C261.232 313.104 261.152 312.408 260.992 311.784C260.832 311.144 260.584 310.6 260.248 310.152C259.928 309.688 259.52 309.328 259.024 309.072C258.544 308.816 257.984 308.688 257.344 308.688C256.688 308.688 256.12 308.816 255.64 309.072C255.16 309.328 254.752 309.688 254.416 310.152C254.096 310.6 253.856 311.144 253.696 311.784C253.536 312.408 253.456 313.104 253.456 313.872V317.328C253.456 318.976 253.776 320.256 254.416 321.168C255.072 322.064 256.048 322.512 257.344 322.512ZM255.808 315.6C255.808 315.184 255.96 314.824 256.264 314.52C256.568 314.216 256.928 314.064 257.344 314.064C257.76 314.064 258.12 314.216 258.424 314.52C258.728 314.824 258.88 315.184 258.88 315.6C258.88 316.016 258.728 316.376 258.424 316.68C258.12 316.984 257.76 317.136 257.344 317.136C256.928 317.136 256.568 316.984 256.264 316.68C255.96 316.376 255.808 316.016 255.808 315.6ZM266.135 313.728C266.135 311.552 266.655 309.864 267.695 308.664C268.735 307.464 270.183 306.864 272.039 306.864C273.895 306.864 275.343 307.464 276.383 308.664C277.423 309.864 277.943 311.552 277.943 313.728V317.472C277.943 319.712 277.423 321.416 276.383 322.584C275.343 323.752 273.895 324.336 272.039 324.336C270.183 324.336 268.735 323.752 267.695 322.584C266.655 321.416 266.135 319.712 266.135 317.472V313.728ZM272.039 322.512C273.335 322.512 274.303 322.064 274.943 321.168C275.599 320.256 275.927 318.976 275.927 317.328V313.872C275.927 313.104 275.847 312.408 275.687 311.784C275.527 311.144 275.279 310.6 274.943 310.152C274.623 309.688 274.215 309.328 273.719 309.072C273.239 308.816 272.679 308.688 272.039 308.688C271.383 308.688 270.815 308.816 270.335 309.072C269.855 309.328 269.447 309.688 269.111 310.152C268.791 310.6 268.551 311.144 268.391 311.784C268.231 312.408 268.151 313.104 268.151 313.872V317.328C268.151 318.976 268.471 320.256 269.111 321.168C269.767 322.064 270.743 322.512 272.039 322.512ZM270.503 315.6C270.503 315.184 270.655 314.824 270.959 314.52C271.263 314.216 271.623 314.064 272.039 314.064C272.455 314.064 272.815 314.216 273.119 314.52C273.423 314.824 273.575 315.184 273.575 315.6C273.575 316.016 273.423 316.376 273.119 316.68C272.815 316.984 272.455 317.136 272.039 317.136C271.623 317.136 271.263 316.984 270.959 316.68C270.655 316.376 270.503 316.016 270.503 315.6ZM285.847 322.128V308.088H285.559L282.799 314.4H280.807V314.256L283.951 307.2H287.863V322.128H292.615V324H281.095V322.128H285.847ZM300.542 322.128V308.088H300.254L297.494 314.4H295.502V314.256L298.646 307.2H302.558V322.128H307.31V324H295.79V322.128H300.542ZM310.221 313.728C310.221 311.552 310.741 309.864 311.781 308.664C312.821 307.464 314.269 306.864 316.125 306.864C317.981 306.864 319.429 307.464 320.469 308.664C321.509 309.864 322.029 311.552 322.029 313.728V317.472C322.029 319.712 321.509 321.416 320.469 322.584C319.429 323.752 317.981 324.336 316.125 324.336C314.269 324.336 312.821 323.752 311.781 322.584C310.741 321.416 310.221 319.712 310.221 317.472V313.728ZM316.125 322.512C317.421 322.512 318.389 322.064 319.029 321.168C319.685 320.256 320.013 318.976 320.013 317.328V313.872C320.013 313.104 319.933 312.408 319.773 311.784C319.613 311.144 319.365 310.6 319.029 310.152C318.709 309.688 318.301 309.328 317.805 309.072C317.325 308.816 316.765 308.688 316.125 308.688C315.469 308.688 314.901 308.816 314.421 309.072C313.941 309.328 313.533 309.688 313.197 310.152C312.877 310.6 312.637 311.144 312.477 311.784C312.317 312.408 312.237 313.104 312.237 313.872V317.328C312.237 318.976 312.557 320.256 313.197 321.168C313.853 322.064 314.829 322.512 316.125 322.512ZM314.589 315.6C314.589 315.184 314.741 314.824 315.045 314.52C315.349 314.216 315.709 314.064 316.125 314.064C316.541 314.064 316.901 314.216 317.205 314.52C317.509 314.824 317.661 315.184 317.661 315.6C317.661 316.016 317.509 316.376 317.205 316.68C316.901 316.984 316.541 317.136 316.125 317.136C315.709 317.136 315.349 316.984 315.045 316.68C314.741 316.376 314.589 316.016 314.589 315.6ZM324.917 313.728C324.917 311.552 325.437 309.864 326.477 308.664C327.517 307.464 328.965 306.864 330.821 306.864C332.677 306.864 334.125 307.464 335.165 308.664C336.205 309.864 336.725 311.552 336.725 313.728V317.472C336.725 319.712 336.205 321.416 335.165 322.584C334.125 323.752 332.677 324.336 330.821 324.336C328.965 324.336 327.517 323.752 326.477 322.584C325.437 321.416 324.917 319.712 324.917 317.472V313.728ZM330.821 322.512C332.117 322.512 333.085 322.064 333.725 321.168C334.381 320.256 334.709 318.976 334.709 317.328V313.872C334.709 313.104 334.629 312.408 334.469 311.784C334.309 311.144 334.061 310.6 333.725 310.152C333.405 309.688 332.997 309.328 332.501 309.072C332.021 308.816 331.461 308.688 330.821 308.688C330.165 308.688 329.597 308.816 329.117 309.072C328.637 309.328 328.229 309.688 327.893 310.152C327.573 310.6 327.333 311.144 327.173 311.784C327.013 312.408 326.933 313.104 326.933 313.872V317.328C326.933 318.976 327.253 320.256 327.893 321.168C328.549 322.064 329.525 322.512 330.821 322.512ZM329.285 315.6C329.285 315.184 329.437 314.824 329.741 314.52C330.045 314.216 330.405 314.064 330.821 314.064C331.237 314.064 331.597 314.216 331.901 314.52C332.205 314.824 332.357 315.184 332.357 315.6C332.357 316.016 332.205 316.376 331.901 316.68C331.597 316.984 331.237 317.136 330.821 317.136C330.405 317.136 330.045 316.984 329.741 316.68C329.437 316.376 329.285 316.016 329.285 315.6ZM344.628 322.128V308.088H344.34L341.58 314.4H339.588V314.256L342.732 307.2H346.644V322.128H351.396V324H339.876V322.128H344.628ZM354.307 313.728C354.307 311.552 354.827 309.864 355.867 308.664C356.907 307.464 358.355 306.864 360.211 306.864C362.067 306.864 363.515 307.464 364.555 308.664C365.595 309.864 366.115 311.552 366.115 313.728V317.472C366.115 319.712 365.595 321.416 364.555 322.584C363.515 323.752 362.067 324.336 360.211 324.336C358.355 324.336 356.907 323.752 355.867 322.584C354.827 321.416 354.307 319.712 354.307 317.472V313.728ZM360.211 322.512C361.507 322.512 362.475 322.064 363.115 321.168C363.771 320.256 364.099 318.976 364.099 317.328V313.872C364.099 313.104 364.019 312.408 363.859 311.784C363.699 311.144 363.451 310.6 363.115 310.152C362.795 309.688 362.387 309.328 361.891 309.072C361.411 308.816 360.851 308.688 360.211 308.688C359.555 308.688 358.987 308.816 358.507 309.072C358.027 309.328 357.619 309.688 357.283 310.152C356.963 310.6 356.723 311.144 356.563 311.784C356.403 312.408 356.323 313.104 356.323 313.872V317.328C356.323 318.976 356.643 320.256 357.283 321.168C357.939 322.064 358.915 322.512 360.211 322.512ZM358.675 315.6C358.675 315.184 358.827 314.824 359.131 314.52C359.435 314.216 359.795 314.064 360.211 314.064C360.627 314.064 360.987 314.216 361.291 314.52C361.595 314.824 361.747 315.184 361.747 315.6C361.747 316.016 361.595 316.376 361.291 316.68C360.987 316.984 360.627 317.136 360.211 317.136C359.795 317.136 359.435 316.984 359.131 316.68C358.827 316.376 358.675 316.016 358.675 315.6ZM251.44 349.728C251.44 347.552 251.96 345.864 253 344.664C254.04 343.464 255.488 342.864 257.344 342.864C259.2 342.864 260.648 343.464 261.688 344.664C262.728 345.864 263.248 347.552 263.248 349.728V353.472C263.248 355.712 262.728 357.416 261.688 358.584C260.648 359.752 259.2 360.336 257.344 360.336C255.488 360.336 254.04 359.752 253 358.584C251.96 357.416 251.44 355.712 251.44 353.472V349.728ZM257.344 358.512C258.64 358.512 259.608 358.064 260.248 357.168C260.904 356.256 261.232 354.976 261.232 353.328V349.872C261.232 349.104 261.152 348.408 260.992 347.784C260.832 347.144 260.584 346.6 260.248 346.152C259.928 345.688 259.52 345.328 259.024 345.072C258.544 344.816 257.984 344.688 257.344 344.688C256.688 344.688 256.12 344.816 255.64 345.072C255.16 345.328 254.752 345.688 254.416 346.152C254.096 346.6 253.856 347.144 253.696 347.784C253.536 348.408 253.456 349.104 253.456 349.872V353.328C253.456 354.976 253.776 356.256 254.416 357.168C255.072 358.064 256.048 358.512 257.344 358.512ZM255.808 351.6C255.808 351.184 255.96 350.824 256.264 350.52C256.568 350.216 256.928 350.064 257.344 350.064C257.76 350.064 258.12 350.216 258.424 350.52C258.728 350.824 258.88 351.184 258.88 351.6C258.88 352.016 258.728 352.376 258.424 352.68C258.12 352.984 257.76 353.136 257.344 353.136C256.928 353.136 256.568 352.984 256.264 352.68C255.96 352.376 255.808 352.016 255.808 351.6ZM266.135 349.728C266.135 347.552 266.655 345.864 267.695 344.664C268.735 343.464 270.183 342.864 272.039 342.864C273.895 342.864 275.343 343.464 276.383 344.664C277.423 345.864 277.943 347.552 277.943 349.728V353.472C277.943 355.712 277.423 357.416 276.383 358.584C275.343 359.752 273.895 360.336 272.039 360.336C270.183 360.336 268.735 359.752 267.695 358.584C266.655 357.416 266.135 355.712 266.135 353.472V349.728ZM272.039 358.512C273.335 358.512 274.303 358.064 274.943 357.168C275.599 356.256 275.927 354.976 275.927 353.328V349.872C275.927 349.104 275.847 348.408 275.687 347.784C275.527 347.144 275.279 346.6 274.943 346.152C274.623 345.688 274.215 345.328 273.719 345.072C273.239 344.816 272.679 344.688 272.039 344.688C271.383 344.688 270.815 344.816 270.335 345.072C269.855 345.328 269.447 345.688 269.111 346.152C268.791 346.6 268.551 347.144 268.391 347.784C268.231 348.408 268.151 349.104 268.151 349.872V353.328C268.151 354.976 268.471 356.256 269.111 357.168C269.767 358.064 270.743 358.512 272.039 358.512ZM270.503 351.6C270.503 351.184 270.655 350.824 270.959 350.52C271.263 350.216 271.623 350.064 272.039 350.064C272.455 350.064 272.815 350.216 273.119 350.52C273.423 350.824 273.575 351.184 273.575 351.6C273.575 352.016 273.423 352.376 273.119 352.68C272.815 352.984 272.455 353.136 272.039 353.136C271.623 353.136 271.263 352.984 270.959 352.68C270.655 352.376 270.503 352.016 270.503 351.6ZM285.847 358.128V344.088H285.559L282.799 350.4H280.807V350.256L283.951 343.2H287.863V358.128H292.615V360H281.095V358.128H285.847ZM300.542 358.128V344.088H300.254L297.494 350.4H295.502V350.256L298.646 343.2H302.558V358.128H307.31V360H295.79V358.128H300.542ZM310.221 349.728C310.221 347.552 310.741 345.864 311.781 344.664C312.821 343.464 314.269 342.864 316.125 342.864C317.981 342.864 319.429 343.464 320.469 344.664C321.509 345.864 322.029 347.552 322.029 349.728V353.472C322.029 355.712 321.509 357.416 320.469 358.584C319.429 359.752 317.981 360.336 316.125 360.336C314.269 360.336 312.821 359.752 311.781 358.584C310.741 357.416 310.221 355.712 310.221 353.472V349.728ZM316.125 358.512C317.421 358.512 318.389 358.064 319.029 357.168C319.685 356.256 320.013 354.976 320.013 353.328V349.872C320.013 349.104 319.933 348.408 319.773 347.784C319.613 347.144 319.365 346.6 319.029 346.152C318.709 345.688 318.301 345.328 317.805 345.072C317.325 344.816 316.765 344.688 316.125 344.688C315.469 344.688 314.901 344.816 314.421 345.072C313.941 345.328 313.533 345.688 313.197 346.152C312.877 346.6 312.637 347.144 312.477 347.784C312.317 348.408 312.237 349.104 312.237 349.872V353.328C312.237 354.976 312.557 356.256 313.197 357.168C313.853 358.064 314.829 358.512 316.125 358.512ZM314.589 351.6C314.589 351.184 314.741 350.824 315.045 350.52C315.349 350.216 315.709 350.064 316.125 350.064C316.541 350.064 316.901 350.216 317.205 350.52C317.509 350.824 317.661 351.184 317.661 351.6C317.661 352.016 317.509 352.376 317.205 352.68C316.901 352.984 316.541 353.136 316.125 353.136C315.709 353.136 315.349 352.984 315.045 352.68C314.741 352.376 314.589 352.016 314.589 351.6ZM324.917 349.728C324.917 347.552 325.437 345.864 326.477 344.664C327.517 343.464 328.965 342.864 330.821 342.864C332.677 342.864 334.125 343.464 335.165 344.664C336.205 345.864 336.725 347.552 336.725 349.728V353.472C336.725 355.712 336.205 357.416 335.165 358.584C334.125 359.752 332.677 360.336 330.821 360.336C328.965 360.336 327.517 359.752 326.477 358.584C325.437 357.416 324.917 355.712 324.917 353.472V349.728ZM330.821 358.512C332.117 358.512 333.085 358.064 333.725 357.168C334.381 356.256 334.709 354.976 334.709 353.328V349.872C334.709 349.104 334.629 348.408 334.469 347.784C334.309 347.144 334.061 346.6 333.725 346.152C333.405 345.688 332.997 345.328 332.501 345.072C332.021 344.816 331.461 344.688 330.821 344.688C330.165 344.688 329.597 344.816 329.117 345.072C328.637 345.328 328.229 345.688 327.893 346.152C327.573 346.6 327.333 347.144 327.173 347.784C327.013 348.408 326.933 349.104 326.933 349.872V353.328C326.933 354.976 327.253 356.256 327.893 357.168C328.549 358.064 329.525 358.512 330.821 358.512ZM329.285 351.6C329.285 351.184 329.437 350.824 329.741 350.52C330.045 350.216 330.405 350.064 330.821 350.064C331.237 350.064 331.597 350.216 331.901 350.52C332.205 350.824 332.357 351.184 332.357 351.6C332.357 352.016 332.205 352.376 331.901 352.68C331.597 352.984 331.237 353.136 330.821 353.136C330.405 353.136 330.045 352.984 329.741 352.68C329.437 352.376 329.285 352.016 329.285 351.6ZM339.612 349.728C339.612 347.552 340.132 345.864 341.172 344.664C342.212 343.464 343.66 342.864 345.516 342.864C347.372 342.864 348.82 343.464 349.86 344.664C350.9 345.864 351.42 347.552 351.42 349.728V353.472C351.42 355.712 350.9 357.416 349.86 358.584C348.82 359.752 347.372 360.336 345.516 360.336C343.66 360.336 342.212 359.752 341.172 358.584C340.132 357.416 339.612 355.712 339.612 353.472V349.728ZM345.516 358.512C346.812 358.512 347.78 358.064 348.42 357.168C349.076 356.256 349.404 354.976 349.404 353.328V349.872C349.404 349.104 349.324 348.408 349.164 347.784C349.004 347.144 348.756 346.6 348.42 346.152C348.1 345.688 347.692 345.328 347.196 345.072C346.716 344.816 346.156 344.688 345.516 344.688C344.86 344.688 344.292 344.816 343.812 345.072C343.332 345.328 342.924 345.688 342.588 346.152C342.268 346.6 342.028 347.144 341.868 347.784C341.708 348.408 341.628 349.104 341.628 349.872V353.328C341.628 354.976 341.948 356.256 342.588 357.168C343.244 358.064 344.22 358.512 345.516 358.512ZM343.98 351.6C343.98 351.184 344.132 350.824 344.436 350.52C344.74 350.216 345.1 350.064 345.516 350.064C345.932 350.064 346.292 350.216 346.596 350.52C346.9 350.824 347.052 351.184 347.052 351.6C347.052 352.016 346.9 352.376 346.596 352.68C346.292 352.984 345.932 353.136 345.516 353.136C345.1 353.136 344.74 352.984 344.436 352.68C344.132 352.376 343.98 352.016 343.98 351.6ZM354.307 349.728C354.307 347.552 354.827 345.864 355.867 344.664C356.907 343.464 358.355 342.864 360.211 342.864C362.067 342.864 363.515 343.464 364.555 344.664C365.595 345.864 366.115 347.552 366.115 349.728V353.472C366.115 355.712 365.595 357.416 364.555 358.584C363.515 359.752 362.067 360.336 360.211 360.336C358.355 360.336 356.907 359.752 355.867 358.584C354.827 357.416 354.307 355.712 354.307 353.472V349.728ZM360.211 358.512C361.507 358.512 362.475 358.064 363.115 357.168C363.771 356.256 364.099 354.976 364.099 353.328V349.872C364.099 349.104 364.019 348.408 363.859 347.784C363.699 347.144 363.451 346.6 363.115 346.152C362.795 345.688 362.387 345.328 361.891 345.072C361.411 344.816 360.851 344.688 360.211 344.688C359.555 344.688 358.987 344.816 358.507 345.072C358.027 345.328 357.619 345.688 357.283 346.152C356.963 346.6 356.723 347.144 356.563 347.784C356.403 348.408 356.323 349.104 356.323 349.872V353.328C356.323 354.976 356.643 356.256 357.283 357.168C357.939 358.064 358.915 358.512 360.211 358.512ZM358.675 351.6C358.675 351.184 358.827 350.824 359.131 350.52C359.435 350.216 359.795 350.064 360.211 350.064C360.627 350.064 360.987 350.216 361.291 350.52C361.595 350.824 361.747 351.184 361.747 351.6C361.747 352.016 361.595 352.376 361.291 352.68C360.987 352.984 360.627 353.136 360.211 353.136C359.795 353.136 359.435 352.984 359.131 352.68C358.827 352.376 358.675 352.016 358.675 351.6ZM251.44 385.728C251.44 383.552 251.96 381.864 253 380.664C254.04 379.464 255.488 378.864 257.344 378.864C259.2 378.864 260.648 379.464 261.688 380.664C262.728 381.864 263.248 383.552 263.248 385.728V389.472C263.248 391.712 262.728 393.416 261.688 394.584C260.648 395.752 259.2 396.336 257.344 396.336C255.488 396.336 254.04 395.752 253 394.584C251.96 393.416 251.44 391.712 251.44 389.472V385.728ZM257.344 394.512C258.64 394.512 259.608 394.064 260.248 393.168C260.904 392.256 261.232 390.976 261.232 389.328V385.872C261.232 385.104 261.152 384.408 260.992 383.784C260.832 383.144 260.584 382.6 260.248 382.152C259.928 381.688 259.52 381.328 259.024 381.072C258.544 380.816 257.984 380.688 257.344 380.688C256.688 380.688 256.12 380.816 255.64 381.072C255.16 381.328 254.752 381.688 254.416 382.152C254.096 382.6 253.856 383.144 253.696 383.784C253.536 384.408 253.456 385.104 253.456 385.872V389.328C253.456 390.976 253.776 392.256 254.416 393.168C255.072 394.064 256.048 394.512 257.344 394.512ZM255.808 387.6C255.808 387.184 255.96 386.824 256.264 386.52C256.568 386.216 256.928 386.064 257.344 386.064C257.76 386.064 258.12 386.216 258.424 386.52C258.728 386.824 258.88 387.184 258.88 387.6C258.88 388.016 258.728 388.376 258.424 388.68C258.12 388.984 257.76 389.136 257.344 389.136C256.928 389.136 256.568 388.984 256.264 388.68C255.96 388.376 255.808 388.016 255.808 387.6ZM266.135 385.728C266.135 383.552 266.655 381.864 267.695 380.664C268.735 379.464 270.183 378.864 272.039 378.864C273.895 378.864 275.343 379.464 276.383 380.664C277.423 381.864 277.943 383.552 277.943 385.728V389.472C277.943 391.712 277.423 393.416 276.383 394.584C275.343 395.752 273.895 396.336 272.039 396.336C270.183 396.336 268.735 395.752 267.695 394.584C266.655 393.416 266.135 391.712 266.135 389.472V385.728ZM272.039 394.512C273.335 394.512 274.303 394.064 274.943 393.168C275.599 392.256 275.927 390.976 275.927 389.328V385.872C275.927 385.104 275.847 384.408 275.687 383.784C275.527 383.144 275.279 382.6 274.943 382.152C274.623 381.688 274.215 381.328 273.719 381.072C273.239 380.816 272.679 380.688 272.039 380.688C271.383 380.688 270.815 380.816 270.335 381.072C269.855 381.328 269.447 381.688 269.111 382.152C268.791 382.6 268.551 383.144 268.391 383.784C268.231 384.408 268.151 385.104 268.151 385.872V389.328C268.151 390.976 268.471 392.256 269.111 393.168C269.767 394.064 270.743 394.512 272.039 394.512ZM270.503 387.6C270.503 387.184 270.655 386.824 270.959 386.52C271.263 386.216 271.623 386.064 272.039 386.064C272.455 386.064 272.815 386.216 273.119 386.52C273.423 386.824 273.575 387.184 273.575 387.6C273.575 388.016 273.423 388.376 273.119 388.68C272.815 388.984 272.455 389.136 272.039 389.136C271.623 389.136 271.263 388.984 270.959 388.68C270.655 388.376 270.503 388.016 270.503 387.6ZM285.847 394.128V380.088H285.559L282.799 386.4H280.807V386.256L283.951 379.2H287.863V394.128H292.615V396H281.095V394.128H285.847ZM300.542 394.128V380.088H300.254L297.494 386.4H295.502V386.256L298.646 379.2H302.558V394.128H307.31V396H295.79V394.128H300.542ZM310.221 385.728C310.221 383.552 310.741 381.864 311.781 380.664C312.821 379.464 314.269 378.864 316.125 378.864C317.981 378.864 319.429 379.464 320.469 380.664C321.509 381.864 322.029 383.552 322.029 385.728V389.472C322.029 391.712 321.509 393.416 320.469 394.584C319.429 395.752 317.981 396.336 316.125 396.336C314.269 396.336 312.821 395.752 311.781 394.584C310.741 393.416 310.221 391.712 310.221 389.472V385.728ZM316.125 394.512C317.421 394.512 318.389 394.064 319.029 393.168C319.685 392.256 320.013 390.976 320.013 389.328V385.872C320.013 385.104 319.933 384.408 319.773 383.784C319.613 383.144 319.365 382.6 319.029 382.152C318.709 381.688 318.301 381.328 317.805 381.072C317.325 380.816 316.765 380.688 316.125 380.688C315.469 380.688 314.901 380.816 314.421 381.072C313.941 381.328 313.533 381.688 313.197 382.152C312.877 382.6 312.637 383.144 312.477 383.784C312.317 384.408 312.237 385.104 312.237 385.872V389.328C312.237 390.976 312.557 392.256 313.197 393.168C313.853 394.064 314.829 394.512 316.125 394.512ZM314.589 387.6C314.589 387.184 314.741 386.824 315.045 386.52C315.349 386.216 315.709 386.064 316.125 386.064C316.541 386.064 316.901 386.216 317.205 386.52C317.509 386.824 317.661 387.184 317.661 387.6C317.661 388.016 317.509 388.376 317.205 388.68C316.901 388.984 316.541 389.136 316.125 389.136C315.709 389.136 315.349 388.984 315.045 388.68C314.741 388.376 314.589 388.016 314.589 387.6ZM324.917 385.728C324.917 383.552 325.437 381.864 326.477 380.664C327.517 379.464 328.965 378.864 330.821 378.864C332.677 378.864 334.125 379.464 335.165 380.664C336.205 381.864 336.725 383.552 336.725 385.728V389.472C336.725 391.712 336.205 393.416 335.165 394.584C334.125 395.752 332.677 396.336 330.821 396.336C328.965 396.336 327.517 395.752 326.477 394.584C325.437 393.416 324.917 391.712 324.917 389.472V385.728ZM330.821 394.512C332.117 394.512 333.085 394.064 333.725 393.168C334.381 392.256 334.709 390.976 334.709 389.328V385.872C334.709 385.104 334.629 384.408 334.469 383.784C334.309 383.144 334.061 382.6 333.725 382.152C333.405 381.688 332.997 381.328 332.501 381.072C332.021 380.816 331.461 380.688 330.821 380.688C330.165 380.688 329.597 380.816 329.117 381.072C328.637 381.328 328.229 381.688 327.893 382.152C327.573 382.6 327.333 383.144 327.173 383.784C327.013 384.408 326.933 385.104 326.933 385.872V389.328C326.933 390.976 327.253 392.256 327.893 393.168C328.549 394.064 329.525 394.512 330.821 394.512ZM329.285 387.6C329.285 387.184 329.437 386.824 329.741 386.52C330.045 386.216 330.405 386.064 330.821 386.064C331.237 386.064 331.597 386.216 331.901 386.52C332.205 386.824 332.357 387.184 332.357 387.6C332.357 388.016 332.205 388.376 331.901 388.68C331.597 388.984 331.237 389.136 330.821 389.136C330.405 389.136 330.045 388.984 329.741 388.68C329.437 388.376 329.285 388.016 329.285 387.6ZM339.612 385.728C339.612 383.552 340.132 381.864 341.172 380.664C342.212 379.464 343.66 378.864 345.516 378.864C347.372 378.864 348.82 379.464 349.86 380.664C350.9 381.864 351.42 383.552 351.42 385.728V389.472C351.42 391.712 350.9 393.416 349.86 394.584C348.82 395.752 347.372 396.336 345.516 396.336C343.66 396.336 342.212 395.752 341.172 394.584C340.132 393.416 339.612 391.712 339.612 389.472V385.728ZM345.516 394.512C346.812 394.512 347.78 394.064 348.42 393.168C349.076 392.256 349.404 390.976 349.404 389.328V385.872C349.404 385.104 349.324 384.408 349.164 383.784C349.004 383.144 348.756 382.6 348.42 382.152C348.1 381.688 347.692 381.328 347.196 381.072C346.716 380.816 346.156 380.688 345.516 380.688C344.86 380.688 344.292 380.816 343.812 381.072C343.332 381.328 342.924 381.688 342.588 382.152C342.268 382.6 342.028 383.144 341.868 383.784C341.708 384.408 341.628 385.104 341.628 385.872V389.328C341.628 390.976 341.948 392.256 342.588 393.168C343.244 394.064 344.22 394.512 345.516 394.512ZM343.98 387.6C343.98 387.184 344.132 386.824 344.436 386.52C344.74 386.216 345.1 386.064 345.516 386.064C345.932 386.064 346.292 386.216 346.596 386.52C346.9 386.824 347.052 387.184 347.052 387.6C347.052 388.016 346.9 388.376 346.596 388.68C346.292 388.984 345.932 389.136 345.516 389.136C345.1 389.136 344.74 388.984 344.436 388.68C344.132 388.376 343.98 388.016 343.98 387.6ZM354.307 385.728C354.307 383.552 354.827 381.864 355.867 380.664C356.907 379.464 358.355 378.864 360.211 378.864C362.067 378.864 363.515 379.464 364.555 380.664C365.595 381.864 366.115 383.552 366.115 385.728V389.472C366.115 391.712 365.595 393.416 364.555 394.584C363.515 395.752 362.067 396.336 360.211 396.336C358.355 396.336 356.907 395.752 355.867 394.584C354.827 393.416 354.307 391.712 354.307 389.472V385.728ZM360.211 394.512C361.507 394.512 362.475 394.064 363.115 393.168C363.771 392.256 364.099 390.976 364.099 389.328V385.872C364.099 385.104 364.019 384.408 363.859 383.784C363.699 383.144 363.451 382.6 363.115 382.152C362.795 381.688 362.387 381.328 361.891 381.072C361.411 380.816 360.851 380.688 360.211 380.688C359.555 380.688 358.987 380.816 358.507 381.072C358.027 381.328 357.619 381.688 357.283 382.152C356.963 382.6 356.723 383.144 356.563 383.784C356.403 384.408 356.323 385.104 356.323 385.872V389.328C356.323 390.976 356.643 392.256 357.283 393.168C357.939 394.064 358.915 394.512 360.211 394.512ZM358.675 387.6C358.675 387.184 358.827 386.824 359.131 386.52C359.435 386.216 359.795 386.064 360.211 386.064C360.627 386.064 360.987 386.216 361.291 386.52C361.595 386.824 361.747 387.184 361.747 387.6C361.747 388.016 361.595 388.376 361.291 388.68C360.987 388.984 360.627 389.136 360.211 389.136C359.795 389.136 359.435 388.984 359.131 388.68C358.827 388.376 358.675 388.016 358.675 387.6ZM251.44 421.728C251.44 419.552 251.96 417.864 253 416.664C254.04 415.464 255.488 414.864 257.344 414.864C259.2 414.864 260.648 415.464 261.688 416.664C262.728 417.864 263.248 419.552 263.248 421.728V425.472C263.248 427.712 262.728 429.416 261.688 430.584C260.648 431.752 259.2 432.336 257.344 432.336C255.488 432.336 254.04 431.752 253 430.584C251.96 429.416 251.44 427.712 251.44 425.472V421.728ZM257.344 430.512C258.64 430.512 259.608 430.064 260.248 429.168C260.904 428.256 261.232 426.976 261.232 425.328V421.872C261.232 421.104 261.152 420.408 260.992 419.784C260.832 419.144 260.584 418.6 260.248 418.152C259.928 417.688 259.52 417.328 259.024 417.072C258.544 416.816 257.984 416.688 257.344 416.688C256.688 416.688 256.12 416.816 255.64 417.072C255.16 417.328 254.752 417.688 254.416 418.152C254.096 418.6 253.856 419.144 253.696 419.784C253.536 420.408 253.456 421.104 253.456 421.872V425.328C253.456 426.976 253.776 428.256 254.416 429.168C255.072 430.064 256.048 430.512 257.344 430.512ZM255.808 423.6C255.808 423.184 255.96 422.824 256.264 422.52C256.568 422.216 256.928 422.064 257.344 422.064C257.76 422.064 258.12 422.216 258.424 422.52C258.728 422.824 258.88 423.184 258.88 423.6C258.88 424.016 258.728 424.376 258.424 424.68C258.12 424.984 257.76 425.136 257.344 425.136C256.928 425.136 256.568 424.984 256.264 424.68C255.96 424.376 255.808 424.016 255.808 423.6ZM266.135 421.728C266.135 419.552 266.655 417.864 267.695 416.664C268.735 415.464 270.183 414.864 272.039 414.864C273.895 414.864 275.343 415.464 276.383 416.664C277.423 417.864 277.943 419.552 277.943 421.728V425.472C277.943 427.712 277.423 429.416 276.383 430.584C275.343 431.752 273.895 432.336 272.039 432.336C270.183 432.336 268.735 431.752 267.695 430.584C266.655 429.416 266.135 427.712 266.135 425.472V421.728ZM272.039 430.512C273.335 430.512 274.303 430.064 274.943 429.168C275.599 428.256 275.927 426.976 275.927 425.328V421.872C275.927 421.104 275.847 420.408 275.687 419.784C275.527 419.144 275.279 418.6 274.943 418.152C274.623 417.688 274.215 417.328 273.719 417.072C273.239 416.816 272.679 416.688 272.039 416.688C271.383 416.688 270.815 416.816 270.335 417.072C269.855 417.328 269.447 417.688 269.111 418.152C268.791 418.6 268.551 419.144 268.391 419.784C268.231 420.408 268.151 421.104 268.151 421.872V425.328C268.151 426.976 268.471 428.256 269.111 429.168C269.767 430.064 270.743 430.512 272.039 430.512ZM270.503 423.6C270.503 423.184 270.655 422.824 270.959 422.52C271.263 422.216 271.623 422.064 272.039 422.064C272.455 422.064 272.815 422.216 273.119 422.52C273.423 422.824 273.575 423.184 273.575 423.6C273.575 424.016 273.423 424.376 273.119 424.68C272.815 424.984 272.455 425.136 272.039 425.136C271.623 425.136 271.263 424.984 270.959 424.68C270.655 424.376 270.503 424.016 270.503 423.6ZM285.847 430.128V416.088H285.559L282.799 422.4H280.807V422.256L283.951 415.2H287.863V430.128H292.615V432H281.095V430.128H285.847ZM300.542 430.128V416.088H300.254L297.494 422.4H295.502V422.256L298.646 415.2H302.558V430.128H307.31V432H295.79V430.128H300.542ZM310.221 421.728C310.221 419.552 310.741 417.864 311.781 416.664C312.821 415.464 314.269 414.864 316.125 414.864C317.981 414.864 319.429 415.464 320.469 416.664C321.509 417.864 322.029 419.552 322.029 421.728V425.472C322.029 427.712 321.509 429.416 320.469 430.584C319.429 431.752 317.981 432.336 316.125 432.336C314.269 432.336 312.821 431.752 311.781 430.584C310.741 429.416 310.221 427.712 310.221 425.472V421.728ZM316.125 430.512C317.421 430.512 318.389 430.064 319.029 429.168C319.685 428.256 320.013 426.976 320.013 425.328V421.872C320.013 421.104 319.933 420.408 319.773 419.784C319.613 419.144 319.365 418.6 319.029 418.152C318.709 417.688 318.301 417.328 317.805 417.072C317.325 416.816 316.765 416.688 316.125 416.688C315.469 416.688 314.901 416.816 314.421 417.072C313.941 417.328 313.533 417.688 313.197 418.152C312.877 418.6 312.637 419.144 312.477 419.784C312.317 420.408 312.237 421.104 312.237 421.872V425.328C312.237 426.976 312.557 428.256 313.197 429.168C313.853 430.064 314.829 430.512 316.125 430.512ZM314.589 423.6C314.589 423.184 314.741 422.824 315.045 422.52C315.349 422.216 315.709 422.064 316.125 422.064C316.541 422.064 316.901 422.216 317.205 422.52C317.509 422.824 317.661 423.184 317.661 423.6C317.661 424.016 317.509 424.376 317.205 424.68C316.901 424.984 316.541 425.136 316.125 425.136C315.709 425.136 315.349 424.984 315.045 424.68C314.741 424.376 314.589 424.016 314.589 423.6ZM324.917 421.728C324.917 419.552 325.437 417.864 326.477 416.664C327.517 415.464 328.965 414.864 330.821 414.864C332.677 414.864 334.125 415.464 335.165 416.664C336.205 417.864 336.725 419.552 336.725 421.728V425.472C336.725 427.712 336.205 429.416 335.165 430.584C334.125 431.752 332.677 432.336 330.821 432.336C328.965 432.336 327.517 431.752 326.477 430.584C325.437 429.416 324.917 427.712 324.917 425.472V421.728ZM330.821 430.512C332.117 430.512 333.085 430.064 333.725 429.168C334.381 428.256 334.709 426.976 334.709 425.328V421.872C334.709 421.104 334.629 420.408 334.469 419.784C334.309 419.144 334.061 418.6 333.725 418.152C333.405 417.688 332.997 417.328 332.501 417.072C332.021 416.816 331.461 416.688 330.821 416.688C330.165 416.688 329.597 416.816 329.117 417.072C328.637 417.328 328.229 417.688 327.893 418.152C327.573 418.6 327.333 419.144 327.173 419.784C327.013 420.408 326.933 421.104 326.933 421.872V425.328C326.933 426.976 327.253 428.256 327.893 429.168C328.549 430.064 329.525 430.512 330.821 430.512ZM329.285 423.6C329.285 423.184 329.437 422.824 329.741 422.52C330.045 422.216 330.405 422.064 330.821 422.064C331.237 422.064 331.597 422.216 331.901 422.52C332.205 422.824 332.357 423.184 332.357 423.6C332.357 424.016 332.205 424.376 331.901 424.68C331.597 424.984 331.237 425.136 330.821 425.136C330.405 425.136 330.045 424.984 329.741 424.68C329.437 424.376 329.285 424.016 329.285 423.6ZM339.612 421.728C339.612 419.552 340.132 417.864 341.172 416.664C342.212 415.464 343.66 414.864 345.516 414.864C347.372 414.864 348.82 415.464 349.86 416.664C350.9 417.864 351.42 419.552 351.42 421.728V425.472C351.42 427.712 350.9 429.416 349.86 430.584C348.82 431.752 347.372 432.336 345.516 432.336C343.66 432.336 342.212 431.752 341.172 430.584C340.132 429.416 339.612 427.712 339.612 425.472V421.728ZM345.516 430.512C346.812 430.512 347.78 430.064 348.42 429.168C349.076 428.256 349.404 426.976 349.404 425.328V421.872C349.404 421.104 349.324 420.408 349.164 419.784C349.004 419.144 348.756 418.6 348.42 418.152C348.1 417.688 347.692 417.328 347.196 417.072C346.716 416.816 346.156 416.688 345.516 416.688C344.86 416.688 344.292 416.816 343.812 417.072C343.332 417.328 342.924 417.688 342.588 418.152C342.268 418.6 342.028 419.144 341.868 419.784C341.708 420.408 341.628 421.104 341.628 421.872V425.328C341.628 426.976 341.948 428.256 342.588 429.168C343.244 430.064 344.22 430.512 345.516 430.512ZM343.98 423.6C343.98 423.184 344.132 422.824 344.436 422.52C344.74 422.216 345.1 422.064 345.516 422.064C345.932 422.064 346.292 422.216 346.596 422.52C346.9 422.824 347.052 423.184 347.052 423.6C347.052 424.016 346.9 424.376 346.596 424.68C346.292 424.984 345.932 425.136 345.516 425.136C345.1 425.136 344.74 424.984 344.436 424.68C344.132 424.376 343.98 424.016 343.98 423.6ZM354.307 421.728C354.307 419.552 354.827 417.864 355.867 416.664C356.907 415.464 358.355 414.864 360.211 414.864C362.067 414.864 363.515 415.464 364.555 416.664C365.595 417.864 366.115 419.552 366.115 421.728V425.472C366.115 427.712 365.595 429.416 364.555 430.584C363.515 431.752 362.067 432.336 360.211 432.336C358.355 432.336 356.907 431.752 355.867 430.584C354.827 429.416 354.307 427.712 354.307 425.472V421.728ZM360.211 430.512C361.507 430.512 362.475 430.064 363.115 429.168C363.771 428.256 364.099 426.976 364.099 425.328V421.872C364.099 421.104 364.019 420.408 363.859 419.784C363.699 419.144 363.451 418.6 363.115 418.152C362.795 417.688 362.387 417.328 361.891 417.072C361.411 416.816 360.851 416.688 360.211 416.688C359.555 416.688 358.987 416.816 358.507 417.072C358.027 417.328 357.619 417.688 357.283 418.152C356.963 418.6 356.723 419.144 356.563 419.784C356.403 420.408 356.323 421.104 356.323 421.872V425.328C356.323 426.976 356.643 428.256 357.283 429.168C357.939 430.064 358.915 430.512 360.211 430.512ZM358.675 423.6C358.675 423.184 358.827 422.824 359.131 422.52C359.435 422.216 359.795 422.064 360.211 422.064C360.627 422.064 360.987 422.216 361.291 422.52C361.595 422.824 361.747 423.184 361.747 423.6C361.747 424.016 361.595 424.376 361.291 424.68C360.987 424.984 360.627 425.136 360.211 425.136C359.795 425.136 359.435 424.984 359.131 424.68C358.827 424.376 358.675 424.016 358.675 423.6Z" fill="white"/>
<path d="M765.004 316.257H769.156V312.105H770.884V316.257H775.036V317.985H770.884V322.137H769.156V317.985H765.004V316.257ZM800.082 310.929C800.642 311.025 801.146 311.193 801.594 311.433C802.058 311.657 802.45 311.937 802.77 312.273C803.09 312.609 803.338 312.985 803.514 313.401C803.69 313.801 803.778 314.225 803.778 314.673V315.105H801.954V314.817C801.954 314.289 801.778 313.841 801.426 313.473C801.09 313.105 800.642 312.849 800.082 312.705V316.137C801.41 316.297 802.418 316.665 803.106 317.241C803.81 317.801 804.162 318.577 804.162 319.569V319.713C804.162 320.785 803.786 321.649 803.034 322.305C802.298 322.945 801.314 323.305 800.082 323.385V324.849H798.354V323.337C797.65 323.225 797.042 323.033 796.53 322.761C796.034 322.473 795.618 322.137 795.282 321.753C794.962 321.353 794.722 320.929 794.562 320.481C794.402 320.017 794.322 319.553 794.322 319.089V318.513H796.146V318.801C796.146 319.569 796.338 320.185 796.722 320.649C797.106 321.113 797.65 321.425 798.354 321.585V317.673C797.154 317.513 796.234 317.169 795.594 316.641C794.97 316.097 794.658 315.345 794.658 314.385V314.241C794.658 313.729 794.754 313.281 794.946 312.897C795.154 312.497 795.426 312.161 795.762 311.889C796.098 311.601 796.49 311.377 796.938 311.217C797.386 311.041 797.858 310.929 798.354 310.881V309.393H800.082V310.929ZM802.29 319.713C802.29 319.153 802.114 318.737 801.762 318.465C801.41 318.193 800.85 317.993 800.082 317.865V321.657C800.77 321.577 801.306 321.369 801.69 321.033C802.09 320.697 802.29 320.257 802.29 319.713ZM796.53 314.241C796.53 314.689 796.658 315.057 796.914 315.345C797.186 315.617 797.666 315.817 798.354 315.945V312.609C797.842 312.689 797.41 312.865 797.058 313.137C796.706 313.409 796.53 313.777 796.53 314.241ZM813.218 323.649V309.609H812.93L810.17 315.921H808.178V315.777L811.322 308.721H815.234V323.649H819.986V325.521H808.466V323.649H813.218ZM834.513 323.649V325.521H823.137V322.641C823.137 321.873 823.265 321.209 823.521 320.649C823.777 320.073 824.137 319.585 824.601 319.185C825.081 318.769 825.657 318.425 826.329 318.153C827.001 317.881 827.761 317.649 828.609 317.457C830.033 317.137 831.057 316.681 831.681 316.089C832.321 315.497 832.641 314.769 832.641 313.905V313.761C832.641 313.329 832.569 312.905 832.425 312.489C832.281 312.073 832.057 311.697 831.753 311.361C831.449 311.025 831.057 310.761 830.577 310.569C830.113 310.361 829.553 310.257 828.897 310.257C827.665 310.257 826.705 310.633 826.017 311.385C825.345 312.137 825.009 313.137 825.009 314.385V315.441H822.993V314.241C822.993 313.473 823.121 312.737 823.377 312.033C823.633 311.329 824.009 310.705 824.505 310.161C825.001 309.617 825.617 309.185 826.353 308.865C827.089 308.545 827.937 308.385 828.897 308.385C829.873 308.385 830.721 308.537 831.441 308.841C832.161 309.129 832.761 309.521 833.241 310.017C833.721 310.497 834.073 311.049 834.297 311.673C834.537 312.281 834.657 312.905 834.657 313.545V313.977C834.657 315.257 834.257 316.353 833.457 317.265C832.657 318.161 831.377 318.801 829.617 319.185C828.081 319.521 826.953 319.969 826.233 320.529C825.513 321.073 825.153 321.873 825.153 322.929V323.649H834.513ZM841.816 324.177C841.816 323.713 841.976 323.321 842.296 323.001C842.632 322.665 843.032 322.497 843.496 322.497C843.96 322.497 844.352 322.665 844.672 323.001C845.008 323.321 845.176 323.713 845.176 324.177V326.529C845.176 327.073 845 327.521 844.648 327.873C844.312 328.225 843.872 328.401 843.328 328.401H842.104V327.105H843.232C843.664 327.105 843.88 326.865 843.88 326.385V325.785C843.752 325.833 843.616 325.857 843.472 325.857C843.024 325.857 842.632 325.697 842.296 325.377C841.976 325.041 841.816 324.641 841.816 324.177ZM852.288 315.249C852.288 313.073 852.808 311.385 853.848 310.185C854.888 308.985 856.336 308.385 858.192 308.385C860.048 308.385 861.496 308.985 862.536 310.185C863.576 311.385 864.096 313.073 864.096 315.249V318.993C864.096 321.233 863.576 322.937 862.536 324.105C861.496 325.273 860.048 325.857 858.192 325.857C856.336 325.857 854.888 325.273 853.848 324.105C852.808 322.937 852.288 321.233 852.288 318.993V315.249ZM858.192 324.033C859.488 324.033 860.456 323.585 861.096 322.689C861.752 321.777 862.08 320.497 862.08 318.849V315.393C862.08 314.625 862 313.929 861.84 313.305C861.68 312.665 861.432 312.121 861.096 311.673C860.776 311.209 860.368 310.849 859.872 310.593C859.392 310.337 858.832 310.209 858.192 310.209C857.536 310.209 856.968 310.337 856.488 310.593C856.008 310.849 855.6 311.209 855.264 311.673C854.944 312.121 854.704 312.665 854.544 313.305C854.384 313.929 854.304 314.625 854.304 315.393V318.849C854.304 320.497 854.624 321.777 855.264 322.689C855.92 323.585 856.896 324.033 858.192 324.033ZM856.656 317.121C856.656 316.705 856.808 316.345 857.112 316.041C857.416 315.737 857.776 315.585 858.192 315.585C858.608 315.585 858.968 315.737 859.272 316.041C859.576 316.345 859.728 316.705 859.728 317.121C859.728 317.537 859.576 317.897 859.272 318.201C858.968 318.505 858.608 318.657 858.192 318.657C857.776 318.657 857.416 318.505 857.112 318.201C856.808 317.897 856.656 317.537 856.656 317.121ZM866.983 315.249C866.983 313.073 867.503 311.385 868.543 310.185C869.583 308.985 871.031 308.385 872.887 308.385C874.743 308.385 876.191 308.985 877.231 310.185C878.271 311.385 878.791 313.073 878.791 315.249V318.993C878.791 321.233 878.271 322.937 877.231 324.105C876.191 325.273 874.743 325.857 872.887 325.857C871.031 325.857 869.583 325.273 868.543 324.105C867.503 322.937 866.983 321.233 866.983 318.993V315.249ZM872.887 324.033C874.183 324.033 875.151 323.585 875.791 322.689C876.447 321.777 876.775 320.497 876.775 318.849V315.393C876.775 314.625 876.695 313.929 876.535 313.305C876.375 312.665 876.127 312.121 875.791 311.673C875.471 311.209 875.063 310.849 874.567 310.593C874.087 310.337 873.527 310.209 872.887 310.209C872.231 310.209 871.663 310.337 871.183 310.593C870.703 310.849 870.295 311.209 869.959 311.673C869.639 312.121 869.399 312.665 869.239 313.305C869.079 313.929 868.999 314.625 868.999 315.393V318.849C868.999 320.497 869.319 321.777 869.959 322.689C870.615 323.585 871.591 324.033 872.887 324.033ZM871.351 317.121C871.351 316.705 871.503 316.345 871.807 316.041C872.111 315.737 872.471 315.585 872.887 315.585C873.303 315.585 873.663 315.737 873.967 316.041C874.271 316.345 874.423 316.705 874.423 317.121C874.423 317.537 874.271 317.897 873.967 318.201C873.663 318.505 873.303 318.657 872.887 318.657C872.471 318.657 872.111 318.505 871.807 318.201C871.503 317.897 871.351 317.537 871.351 317.121ZM881.678 315.249C881.678 313.073 882.198 311.385 883.238 310.185C884.278 308.985 885.726 308.385 887.582 308.385C889.438 308.385 890.886 308.985 891.926 310.185C892.966 311.385 893.486 313.073 893.486 315.249V318.993C893.486 321.233 892.966 322.937 891.926 324.105C890.886 325.273 889.438 325.857 887.582 325.857C885.726 325.857 884.278 325.273 883.238 324.105C882.198 322.937 881.678 321.233 881.678 318.993V315.249ZM887.582 324.033C888.878 324.033 889.846 323.585 890.486 322.689C891.142 321.777 891.47 320.497 891.47 318.849V315.393C891.47 314.625 891.39 313.929 891.23 313.305C891.07 312.665 890.822 312.121 890.486 311.673C890.166 311.209 889.758 310.849 889.262 310.593C888.782 310.337 888.222 310.209 887.582 310.209C886.926 310.209 886.358 310.337 885.878 310.593C885.398 310.849 884.99 311.209 884.654 311.673C884.334 312.121 884.094 312.665 883.934 313.305C883.774 313.929 883.694 314.625 883.694 315.393V318.849C883.694 320.497 884.014 321.777 884.654 322.689C885.31 323.585 886.286 324.033 887.582 324.033ZM886.046 317.121C886.046 316.705 886.198 316.345 886.502 316.041C886.806 315.737 887.166 315.585 887.582 315.585C887.998 315.585 888.358 315.737 888.662 316.041C888.966 316.345 889.118 316.705 889.118 317.121C889.118 317.537 888.966 317.897 888.662 318.201C888.358 318.505 887.998 318.657 887.582 318.657C887.166 318.657 886.806 318.505 886.502 318.201C886.198 317.897 886.046 317.537 886.046 317.121Z" fill="white"/>
<path d="M664.792 316.087C665.182 315.697 665.182 315.064 664.792 314.673L658.428 308.309C658.037 307.919 657.404 307.919 657.014 308.309C656.623 308.7 656.623 309.333 657.014 309.724L662.671 315.38L657.014 321.037C656.623 321.428 656.623 322.061 657.014 322.451C657.404 322.842 658.037 322.842 658.428 322.451L664.792 316.087ZM514.789 316.38H664.085V314.38H514.789V316.38Z" fill="white"/>
</svg>
