<svg width="1200" height="630" viewBox="0 0 1200 630" fill="none" xmlns="http://www.w3.org/2000/svg">
<rect width="1200" height="630" fill="#111111"/>
<path d="M358.328 98.736H362.48V94.584H364.208V98.736H368.36V100.464H364.208V104.616H362.48V100.464H358.328V98.736ZM393.407 93.408C393.967 93.504 394.471 93.672 394.919 93.912C395.383 94.136 395.775 94.416 396.095 94.752C396.415 95.088 396.663 95.464 396.839 95.88C397.015 96.28 397.103 96.704 397.103 97.152V97.584H395.279V97.296C395.279 96.768 395.103 96.32 394.751 95.952C394.415 95.584 393.967 95.328 393.407 95.184V98.616C394.735 98.776 395.743 99.144 396.431 99.72C397.135 100.28 397.487 101.056 397.487 102.048V102.192C397.487 103.264 397.111 104.128 396.359 104.784C395.623 105.424 394.639 105.784 393.407 105.864V107.328H391.679V105.816C390.975 105.704 390.367 105.512 389.855 105.24C389.359 104.952 388.943 104.616 388.607 104.232C388.287 103.832 388.047 103.408 387.887 102.96C387.727 102.496 387.647 102.032 387.647 101.568V100.992H389.471V101.28C389.471 102.048 389.663 102.664 390.047 103.128C390.431 103.592 390.975 103.904 391.679 104.064V100.152C390.479 99.992 389.559 99.648 388.919 99.12C388.295 98.576 387.983 97.824 387.983 96.864V96.72C387.983 96.208 388.079 95.76 388.271 95.376C388.479 94.976 388.751 94.64 389.087 94.368C389.423 94.08 389.815 93.856 390.263 93.696C390.711 93.52 391.183 93.408 391.679 93.36V91.872H393.407V93.408ZM395.615 102.192C395.615 101.632 395.439 101.216 395.087 100.944C394.735 100.672 394.175 100.472 393.407 100.344V104.136C394.095 104.056 394.631 103.848 395.015 103.512C395.415 103.176 395.615 102.736 395.615 102.192ZM389.855 96.72C389.855 97.168 389.983 97.536 390.239 97.824C390.511 98.096 390.991 98.296 391.679 98.424V95.088C391.167 95.168 390.735 95.344 390.383 95.616C390.031 95.888 389.855 96.256 389.855 96.72ZM406.542 106.128V92.088H406.254L403.494 98.4H401.502V98.256L404.646 91.2H408.558V106.128H413.31V108H401.79V106.128H406.542ZM416.221 97.728C416.221 95.552 416.741 93.864 417.781 92.664C418.821 91.464 420.269 90.864 422.125 90.864C423.981 90.864 425.429 91.464 426.469 92.664C427.509 93.864 428.029 95.552 428.029 97.728V101.472C428.029 103.712 427.509 105.416 426.469 106.584C425.429 107.752 423.981 108.336 422.125 108.336C420.269 108.336 418.821 107.752 417.781 106.584C416.741 105.416 416.221 103.712 416.221 101.472V97.728ZM422.125 106.512C423.421 106.512 424.389 106.064 425.029 105.168C425.685 104.256 426.013 102.976 426.013 101.328V97.872C426.013 97.104 425.933 96.408 425.773 95.784C425.613 95.144 425.365 94.6 425.029 94.152C424.709 93.688 424.301 93.328 423.805 93.072C423.325 92.816 422.765 92.688 422.125 92.688C421.469 92.688 420.901 92.816 420.421 93.072C419.941 93.328 419.533 93.688 419.197 94.152C418.877 94.6 418.637 95.144 418.477 95.784C418.317 96.408 418.237 97.104 418.237 97.872V101.328C418.237 102.976 418.557 104.256 419.197 105.168C419.853 106.064 420.829 106.512 422.125 106.512ZM420.589 99.6C420.589 99.184 420.741 98.824 421.045 98.52C421.349 98.216 421.709 98.064 422.125 98.064C422.541 98.064 422.901 98.216 423.205 98.52C423.509 98.824 423.661 99.184 423.661 99.6C423.661 100.016 423.509 100.376 423.205 100.68C422.901 100.984 422.541 101.136 422.125 101.136C421.709 101.136 421.349 100.984 421.045 100.68C420.741 100.376 420.589 100.016 420.589 99.6ZM435.141 106.656C435.141 106.192 435.301 105.8 435.621 105.48C435.957 105.144 436.357 104.976 436.821 104.976C437.285 104.976 437.677 105.144 437.997 105.48C438.333 105.8 438.501 106.192 438.501 106.656V109.008C438.501 109.552 438.325 110 437.973 110.352C437.637 110.704 437.197 110.88 436.653 110.88H435.429V109.584H436.557C436.989 109.584 437.205 109.344 437.205 108.864V108.264C437.077 108.312 436.941 108.336 436.797 108.336C436.349 108.336 435.957 108.176 435.621 107.856C435.301 107.52 435.141 107.12 435.141 106.656ZM445.612 97.728C445.612 95.552 446.132 93.864 447.172 92.664C448.212 91.464 449.66 90.864 451.516 90.864C453.372 90.864 454.82 91.464 455.86 92.664C456.9 93.864 457.42 95.552 457.42 97.728V101.472C457.42 103.712 456.9 105.416 455.86 106.584C454.82 107.752 453.372 108.336 451.516 108.336C449.66 108.336 448.212 107.752 447.172 106.584C446.132 105.416 445.612 103.712 445.612 101.472V97.728ZM451.516 106.512C452.812 106.512 453.78 106.064 454.42 105.168C455.076 104.256 455.404 102.976 455.404 101.328V97.872C455.404 97.104 455.324 96.408 455.164 95.784C455.004 95.144 454.756 94.6 454.42 94.152C454.1 93.688 453.692 93.328 453.196 93.072C452.716 92.816 452.156 92.688 451.516 92.688C450.86 92.688 450.292 92.816 449.812 93.072C449.332 93.328 448.924 93.688 448.588 94.152C448.268 94.6 448.028 95.144 447.868 95.784C447.708 96.408 447.628 97.104 447.628 97.872V101.328C447.628 102.976 447.948 104.256 448.588 105.168C449.244 106.064 450.22 106.512 451.516 106.512ZM449.98 99.6C449.98 99.184 450.132 98.824 450.436 98.52C450.74 98.216 451.1 98.064 451.516 98.064C451.932 98.064 452.292 98.216 452.596 98.52C452.9 98.824 453.052 99.184 453.052 99.6C453.052 100.016 452.9 100.376 452.596 100.68C452.292 100.984 451.932 101.136 451.516 101.136C451.1 101.136 450.74 100.984 450.436 100.68C450.132 100.376 449.98 100.016 449.98 99.6ZM460.307 97.728C460.307 95.552 460.827 93.864 461.867 92.664C462.907 91.464 464.355 90.864 466.211 90.864C468.067 90.864 469.515 91.464 470.555 92.664C471.595 93.864 472.115 95.552 472.115 97.728V101.472C472.115 103.712 471.595 105.416 470.555 106.584C469.515 107.752 468.067 108.336 466.211 108.336C464.355 108.336 462.907 107.752 461.867 106.584C460.827 105.416 460.307 103.712 460.307 101.472V97.728ZM466.211 106.512C467.507 106.512 468.475 106.064 469.115 105.168C469.771 104.256 470.099 102.976 470.099 101.328V97.872C470.099 97.104 470.019 96.408 469.859 95.784C469.699 95.144 469.451 94.6 469.115 94.152C468.795 93.688 468.387 93.328 467.891 93.072C467.411 92.816 466.851 92.688 466.211 92.688C465.555 92.688 464.987 92.816 464.507 93.072C464.027 93.328 463.619 93.688 463.283 94.152C462.963 94.6 462.723 95.144 462.563 95.784C462.403 96.408 462.323 97.104 462.323 97.872V101.328C462.323 102.976 462.643 104.256 463.283 105.168C463.939 106.064 464.915 106.512 466.211 106.512ZM464.675 99.6C464.675 99.184 464.827 98.824 465.131 98.52C465.435 98.216 465.795 98.064 466.211 98.064C466.627 98.064 466.987 98.216 467.291 98.52C467.595 98.824 467.747 99.184 467.747 99.6C467.747 100.016 467.595 100.376 467.291 100.68C466.987 100.984 466.627 101.136 466.211 101.136C465.795 101.136 465.435 100.984 465.131 100.68C464.827 100.376 464.675 100.016 464.675 99.6ZM475.003 97.728C475.003 95.552 475.523 93.864 476.562 92.664C477.603 91.464 479.051 90.864 480.907 90.864C482.763 90.864 484.211 91.464 485.251 92.664C486.291 93.864 486.811 95.552 486.811 97.728V101.472C486.811 103.712 486.291 105.416 485.251 106.584C484.211 107.752 482.763 108.336 480.907 108.336C479.051 108.336 477.603 107.752 476.562 106.584C475.523 105.416 475.003 103.712 475.003 101.472V97.728ZM480.907 106.512C482.203 106.512 483.171 106.064 483.811 105.168C484.467 104.256 484.795 102.976 484.795 101.328V97.872C484.795 97.104 484.715 96.408 484.555 95.784C484.395 95.144 484.147 94.6 483.811 94.152C483.491 93.688 483.083 93.328 482.587 93.072C482.107 92.816 481.547 92.688 480.907 92.688C480.251 92.688 479.683 92.816 479.203 93.072C478.723 93.328 478.315 93.688 477.979 94.152C477.659 94.6 477.419 95.144 477.259 95.784C477.099 96.408 477.019 97.104 477.019 97.872V101.328C477.019 102.976 477.339 104.256 477.979 105.168C478.635 106.064 479.611 106.512 480.907 106.512ZM479.371 99.6C479.371 99.184 479.523 98.824 479.827 98.52C480.131 98.216 480.491 98.064 480.907 98.064C481.323 98.064 481.683 98.216 481.987 98.52C482.291 98.824 482.443 99.184 482.443 99.6C482.443 100.016 482.291 100.376 481.987 100.68C481.683 100.984 481.323 101.136 480.907 101.136C480.491 101.136 480.131 100.984 479.827 100.68C479.523 100.376 479.371 100.016 479.371 99.6Z" fill="white"/>
<path d="M706.744 529.896H713.944V531.624H706.744V529.896ZM740.407 522.408C740.967 522.504 741.471 522.672 741.919 522.912C742.383 523.136 742.775 523.416 743.095 523.752C743.415 524.088 743.663 524.464 743.839 524.88C744.015 525.28 744.103 525.704 744.103 526.152V526.584H742.279V526.296C742.279 525.768 742.103 525.32 741.751 524.952C741.415 524.584 740.967 524.328 740.407 524.184V527.616C741.735 527.776 742.743 528.144 743.431 528.72C744.135 529.28 744.487 530.056 744.487 531.048V531.192C744.487 532.264 744.111 533.128 743.359 533.784C742.623 534.424 741.639 534.784 740.407 534.864V536.328H738.679V534.816C737.975 534.704 737.367 534.512 736.855 534.24C736.359 533.952 735.943 533.616 735.607 533.232C735.287 532.832 735.047 532.408 734.887 531.96C734.727 531.496 734.647 531.032 734.647 530.568V529.992H736.471V530.28C736.471 531.048 736.663 531.664 737.047 532.128C737.431 532.592 737.975 532.904 738.679 533.064V529.152C737.479 528.992 736.559 528.648 735.919 528.12C735.295 527.576 734.983 526.824 734.983 525.864V525.72C734.983 525.208 735.079 524.76 735.271 524.376C735.479 523.976 735.751 523.64 736.087 523.368C736.423 523.08 736.815 522.856 737.263 522.696C737.711 522.52 738.183 522.408 738.679 522.36V520.872H740.407V522.408ZM742.615 531.192C742.615 530.632 742.439 530.216 742.087 529.944C741.735 529.672 741.175 529.472 740.407 529.344V533.136C741.095 533.056 741.631 532.848 742.015 532.512C742.415 532.176 742.615 531.736 742.615 531.192ZM736.855 525.72C736.855 526.168 736.983 526.536 737.239 526.824C737.511 527.096 737.991 527.296 738.679 527.424V524.088C738.167 524.168 737.735 524.344 737.383 524.616C737.031 524.888 736.855 525.256 736.855 525.72ZM753.542 535.128V521.088H753.254L750.494 527.4H748.502V527.256L751.646 520.2H755.558V535.128H760.31V537H748.79V535.128H753.542ZM774.837 535.128V537H763.461V534.12C763.461 533.352 763.589 532.688 763.845 532.128C764.101 531.552 764.461 531.064 764.925 530.664C765.405 530.248 765.981 529.904 766.653 529.632C767.325 529.36 768.085 529.128 768.933 528.936C770.357 528.616 771.381 528.16 772.005 527.568C772.645 526.976 772.965 526.248 772.965 525.384V525.24C772.965 524.808 772.893 524.384 772.749 523.968C772.605 523.552 772.381 523.176 772.077 522.84C771.773 522.504 771.381 522.24 770.901 522.048C770.437 521.84 769.877 521.736 769.221 521.736C767.989 521.736 767.029 522.112 766.341 522.864C765.669 523.616 765.333 524.616 765.333 525.864V526.92H763.317V525.72C763.317 524.952 763.445 524.216 763.701 523.512C763.957 522.808 764.333 522.184 764.829 521.64C765.325 521.096 765.941 520.664 766.677 520.344C767.413 520.024 768.261 519.864 769.221 519.864C770.197 519.864 771.045 520.016 771.765 520.32C772.485 520.608 773.085 521 773.565 521.496C774.045 521.976 774.397 522.528 774.621 523.152C774.861 523.76 774.981 524.384 774.981 525.024V525.456C774.981 526.736 774.581 527.832 773.781 528.744C772.981 529.64 771.701 530.28 769.941 530.664C768.405 531 767.277 531.448 766.557 532.008C765.837 532.552 765.477 533.352 765.477 534.408V535.128H774.837ZM782.141 535.656C782.141 535.192 782.301 534.8 782.621 534.48C782.957 534.144 783.357 533.976 783.821 533.976C784.285 533.976 784.677 534.144 784.997 534.48C785.333 534.8 785.501 535.192 785.501 535.656V538.008C785.501 538.552 785.325 539 784.973 539.352C784.637 539.704 784.197 539.88 783.653 539.88H782.429V538.584H783.557C783.989 538.584 784.205 538.344 784.205 537.864V537.264C784.077 537.312 783.941 537.336 783.797 537.336C783.349 537.336 782.957 537.176 782.621 536.856C782.301 536.52 782.141 536.12 782.141 535.656ZM792.612 526.728C792.612 524.552 793.132 522.864 794.172 521.664C795.212 520.464 796.66 519.864 798.516 519.864C800.372 519.864 801.82 520.464 802.86 521.664C803.9 522.864 804.42 524.552 804.42 526.728V530.472C804.42 532.712 803.9 534.416 802.86 535.584C801.82 536.752 800.372 537.336 798.516 537.336C796.66 537.336 795.212 536.752 794.172 535.584C793.132 534.416 792.612 532.712 792.612 530.472V526.728ZM798.516 535.512C799.812 535.512 800.78 535.064 801.42 534.168C802.076 533.256 802.404 531.976 802.404 530.328V526.872C802.404 526.104 802.324 525.408 802.164 524.784C802.004 524.144 801.756 523.6 801.42 523.152C801.1 522.688 800.692 522.328 800.196 522.072C799.716 521.816 799.156 521.688 798.516 521.688C797.86 521.688 797.292 521.816 796.812 522.072C796.332 522.328 795.924 522.688 795.588 523.152C795.268 523.6 795.028 524.144 794.868 524.784C794.708 525.408 794.628 526.104 794.628 526.872V530.328C794.628 531.976 794.948 533.256 795.588 534.168C796.244 535.064 797.22 535.512 798.516 535.512ZM796.98 528.6C796.98 528.184 797.132 527.824 797.436 527.52C797.74 527.216 798.1 527.064 798.516 527.064C798.932 527.064 799.292 527.216 799.596 527.52C799.9 527.824 800.052 528.184 800.052 528.6C800.052 529.016 799.9 529.376 799.596 529.68C799.292 529.984 798.932 530.136 798.516 530.136C798.1 530.136 797.74 529.984 797.436 529.68C797.132 529.376 796.98 529.016 796.98 528.6ZM807.307 526.728C807.307 524.552 807.827 522.864 808.867 521.664C809.907 520.464 811.355 519.864 813.211 519.864C815.067 519.864 816.515 520.464 817.555 521.664C818.595 522.864 819.115 524.552 819.115 526.728V530.472C819.115 532.712 818.595 534.416 817.555 535.584C816.515 536.752 815.067 537.336 813.211 537.336C811.355 537.336 809.907 536.752 808.867 535.584C807.827 534.416 807.307 532.712 807.307 530.472V526.728ZM813.211 535.512C814.507 535.512 815.475 535.064 816.115 534.168C816.771 533.256 817.099 531.976 817.099 530.328V526.872C817.099 526.104 817.019 525.408 816.859 524.784C816.699 524.144 816.451 523.6 816.115 523.152C815.795 522.688 815.387 522.328 814.891 522.072C814.411 521.816 813.851 521.688 813.211 521.688C812.555 521.688 811.987 521.816 811.507 522.072C811.027 522.328 810.619 522.688 810.283 523.152C809.963 523.6 809.723 524.144 809.563 524.784C809.403 525.408 809.323 526.104 809.323 526.872V530.328C809.323 531.976 809.643 533.256 810.283 534.168C810.939 535.064 811.915 535.512 813.211 535.512ZM811.675 528.6C811.675 528.184 811.827 527.824 812.131 527.52C812.435 527.216 812.795 527.064 813.211 527.064C813.627 527.064 813.987 527.216 814.291 527.52C814.595 527.824 814.747 528.184 814.747 528.6C814.747 529.016 814.595 529.376 814.291 529.68C813.987 529.984 813.627 530.136 813.211 530.136C812.795 530.136 812.435 529.984 812.131 529.68C811.827 529.376 811.675 529.016 811.675 528.6ZM822.003 526.728C822.003 524.552 822.523 522.864 823.562 521.664C824.603 520.464 826.051 519.864 827.907 519.864C829.763 519.864 831.211 520.464 832.251 521.664C833.291 522.864 833.811 524.552 833.811 526.728V530.472C833.811 532.712 833.291 534.416 832.251 535.584C831.211 536.752 829.763 537.336 827.907 537.336C826.051 537.336 824.603 536.752 823.562 535.584C822.523 534.416 822.003 532.712 822.003 530.472V526.728ZM827.907 535.512C829.203 535.512 830.171 535.064 830.811 534.168C831.467 533.256 831.795 531.976 831.795 530.328V526.872C831.795 526.104 831.715 525.408 831.555 524.784C831.395 524.144 831.147 523.6 830.811 523.152C830.491 522.688 830.083 522.328 829.587 522.072C829.107 521.816 828.547 521.688 827.907 521.688C827.251 521.688 826.683 521.816 826.203 522.072C825.723 522.328 825.315 522.688 824.979 523.152C824.659 523.6 824.419 524.144 824.259 524.784C824.099 525.408 824.019 526.104 824.019 526.872V530.328C824.019 531.976 824.339 533.256 824.979 534.168C825.635 535.064 826.611 535.512 827.907 535.512ZM826.371 528.6C826.371 528.184 826.523 527.824 826.827 527.52C827.131 527.216 827.491 527.064 827.907 527.064C828.323 527.064 828.683 527.216 828.987 527.52C829.291 527.824 829.443 528.184 829.443 528.6C829.443 529.016 829.291 529.376 828.987 529.68C828.683 529.984 828.323 530.136 827.907 530.136C827.491 530.136 827.131 529.984 826.827 529.68C826.523 529.376 826.371 529.016 826.371 528.6Z" fill="white"/>
<circle cx="594" cy="314.592" r="74.5" stroke="white"/>
<path d="M591.664 227.962C591.869 228.148 592.185 228.133 592.37 227.928L595.395 224.596C595.581 224.392 595.566 224.076 595.361 223.89C595.157 223.705 594.841 223.72 594.655 223.924L591.966 226.886L589.005 224.197C588.8 224.011 588.484 224.027 588.298 224.231C588.113 224.435 588.128 224.752 588.332 224.937L591.664 227.962ZM504.821 101.059C537.741 113.709 558.5 127.226 571.487 146.591C584.48 165.965 589.747 191.267 591.501 227.616L592.5 227.568C590.744 191.174 585.468 165.642 572.317 146.034C559.161 126.417 538.175 112.805 505.18 100.125L504.821 101.059Z" fill="white"/>
<g filter="url(#filter0_d_203_3)">
<path d="M681.688 528.412C681.787 528.67 681.659 528.959 681.401 529.059L677.202 530.676C676.944 530.775 676.655 530.647 676.556 530.389C676.457 530.131 676.585 529.842 676.843 529.743L680.575 528.305L679.138 524.572C679.038 524.315 679.167 524.025 679.425 523.926C679.682 523.827 679.972 523.955 680.071 524.213L681.688 528.412ZM594.722 401.593C594.626 436.861 599.732 461.101 613.098 480.206C626.47 499.32 648.163 513.37 681.425 528.135L681.019 529.049C647.716 514.266 625.813 500.125 612.279 480.779C598.738 461.426 593.626 436.939 593.722 401.591L594.722 401.593Z" fill="white"/>
</g>
<defs>
<filter id="filter0_d_203_3" x="589.721" y="401.591" width="96.001" height="137.119" filterUnits="userSpaceOnUse" color-interpolation-filters="sRGB">
<feFlood flood-opacity="0" result="BackgroundImageFix"/>
<feColorMatrix in="SourceAlpha" type="matrix" values="0 0 0 0 0 0 0 0 0 0 0 0 0 0 0 0 0 0 127 0" result="hardAlpha"/>
<feOffset dy="4"/>
<feGaussianBlur stdDeviation="2"/>
<feComposite in2="hardAlpha" operator="out"/>
<feColorMatrix type="matrix" values="0 0 0 0 0 0 0 0 0 0 0 0 0 0 0 0 0 0 0.25 0"/>
<feBlend mode="normal" in2="BackgroundImageFix" result="effect1_dropShadow_203_3"/>
<feBlend mode="normal" in="SourceGraphic" in2="effect1_dropShadow_203_3" result="shape"/>
</filter>
</defs>
</svg>
